M48
; DRILL file {KiCad 7.0.8} date Fri 20 Oct 2023 08:06:22 AM EDT
; FORMAT={-:-/ absolute / inch / decimal}
; #@! TF.CreationDate,2023-10-20T08:06:22-04:00
; #@! TF.GenerationSoftware,Kicad,Pcbnew,7.0.8
; #@! TF.FileFunction,MixedPlating,1,2
FMAT,2
INCH
; #@! TA.AperFunction,Plated,PTH,ComponentDrill
T1C0.0315
; #@! TA.AperFunction,Plated,PTH,ComponentDrill
T2C0.0394
; #@! TA.AperFunction,Plated,PTH,ComponentDrill
T3C0.0433
; #@! TA.AperFunction,Plated,PTH,ComponentDrill
T4C0.0472
; #@! TA.AperFunction,Plated,PTH,ComponentDrill
T5C0.0551
; #@! TA.AperFunction,Plated,PTH,ComponentDrill
T6C0.0638
; #@! TA.AperFunction,NonPlated,NPTH,ComponentDrill
T7C0.0984
; #@! TA.AperFunction,NonPlated,NPTH,ComponentDrill
T8C0.1260
; #@! TA.AperFunction,NonPlated,NPTH,ComponentDrill
T9C0.1299
%
G90
G05
T1
X1.2283Y-4.4055
X1.6283Y-4.4055
X1.9055Y-4.2598
X1.9055Y-4.4094
X2.037Y-4.0827
X2.0394Y-3.8858
X2.1886Y-4.4183
X2.437Y-4.0827
X2.4394Y-3.8858
X2.5886Y-3.8868
X2.5886Y-4.2868
X2.5886Y-4.4183
X2.7264Y-4.4183
X2.7264Y-4.8183
X2.7953Y-3.8858
X2.7953Y-4.0827
X3.5315Y-4.685
X3.5315Y-4.8346
X3.5827Y-3.9291
X3.5827Y-4.0787
X4.6772Y-0.6417
X4.6772Y-1.0417
X4.6772Y-1.5
X4.6772Y-1.9
T2
X3.0984Y-4.4409
X3.0984Y-4.8346
X3.1004Y-3.8671
X3.1004Y-4.2608
X3.9764Y-3.7008
X3.9764Y-4.0945
T3
X2.5886Y-3.4931
X2.6555Y-3.3474
X2.722Y-3.689
X2.7224Y-3.4931
X2.7894Y-3.3474
X2.8563Y-3.4931
X3.122Y-3.689
X3.2972Y-3.6955
X3.2972Y-4.0955
T4
X1.4606Y-4.752
X2.5433Y-4.752
X2.7165Y-1.0453
X2.7165Y-1.1969
X2.7165Y-1.3484
X2.7165Y-1.5
X3.2953Y-3.5039
X3.3848Y-0.748
X3.3848Y-1.0433
X3.3848Y-1.5
X3.3848Y-1.7953
X3.8953Y-3.5039
X4.1526Y-0.748
X4.1526Y-1.0433
X4.1526Y-1.5
X4.1526Y-1.7953
T5
X0.1575Y-0.563
X0.1575Y-0.763
X0.1575Y-1.7646
X0.1575Y-1.9646
X0.7346Y-3.815
X0.7346Y-4.1102
X0.7346Y-4.4055
X0.9346Y-3.815
X0.9346Y-4.1102
X0.9346Y-4.4055
X2.6953Y-0.2362
X2.8953Y-0.2362
X3.1874Y-0.2362
X3.3874Y-0.2362
X3.6795Y-0.2362
X3.8795Y-0.2362
X4.0732Y-2.6969
X4.0732Y-2.9921
X4.0732Y-3.2874
X4.1717Y-0.2362
X4.2732Y-2.6969
X4.2732Y-2.9921
X4.2732Y-3.2874
X4.3717Y-0.2362
X4.3882Y-4.0945
X4.5882Y-4.0945
T6
X0.6715Y-0.7638
X0.6715Y-1.7638
X2.2715Y-0.7638
X2.2715Y-1.0638
X2.2715Y-1.4638
X2.2715Y-1.7638
T7
X0.9843Y-2.8632
X3.4614Y-3.1616
T8
X0.1772Y-0.1772
X0.1772Y-5.0197
X5.0197Y-0.1772
X5.0197Y-5.0197
T9
X0.7215Y-1.2638
X2.2215Y-1.2638
T0
M30
