%TF.GenerationSoftware,KiCad,Pcbnew,5.1.10*%
%TF.CreationDate,2021-11-21T09:04:43-05:00*%
%TF.ProjectId,func_amp,66756e63-5f61-46d7-902e-6b696361645f,rev?*%
%TF.SameCoordinates,PX632ea00PY42c1d80*%
%TF.FileFunction,Copper,L2,Bot*%
%TF.FilePolarity,Positive*%
%FSLAX46Y46*%
G04 Gerber Fmt 4.6, Leading zero omitted, Abs format (unit mm)*
G04 Created by KiCad (PCBNEW 5.1.10) date 2021-11-21 09:04:43*
%MOMM*%
%LPD*%
G01*
G04 APERTURE LIST*
%TA.AperFunction,NonConductor*%
%ADD10C,0.300000*%
%TD*%
%TA.AperFunction,ComponentPad*%
%ADD11O,1.600000X1.600000*%
%TD*%
%TA.AperFunction,ComponentPad*%
%ADD12C,1.600000*%
%TD*%
%TA.AperFunction,ComponentPad*%
%ADD13C,2.000000*%
%TD*%
%TA.AperFunction,ComponentPad*%
%ADD14O,1.800000X1.800000*%
%TD*%
%TA.AperFunction,ComponentPad*%
%ADD15R,1.800000X1.800000*%
%TD*%
%TA.AperFunction,ComponentPad*%
%ADD16O,2.000000X1.905000*%
%TD*%
%TA.AperFunction,ComponentPad*%
%ADD17R,2.000000X1.905000*%
%TD*%
%TA.AperFunction,ComponentPad*%
%ADD18C,2.600000*%
%TD*%
%TA.AperFunction,ComponentPad*%
%ADD19R,2.600000X2.600000*%
%TD*%
%TA.AperFunction,ComponentPad*%
%ADD20C,3.810000*%
%TD*%
%TA.AperFunction,ComponentPad*%
%ADD21C,3.556000*%
%TD*%
%TA.AperFunction,ComponentPad*%
%ADD22O,2.200000X2.200000*%
%TD*%
%TA.AperFunction,ComponentPad*%
%ADD23R,2.200000X2.200000*%
%TD*%
%TA.AperFunction,ComponentPad*%
%ADD24R,1.600000X1.600000*%
%TD*%
%TA.AperFunction,Conductor*%
%ADD25C,1.500000*%
%TD*%
%TA.AperFunction,Conductor*%
%ADD26C,1.000000*%
%TD*%
%TA.AperFunction,Conductor*%
%ADD27C,0.453600*%
%TD*%
%TA.AperFunction,Conductor*%
%ADD28C,0.100000*%
%TD*%
G04 APERTURE END LIST*
D10*
X81571428Y-45107142D02*
X80428571Y-45107142D01*
X81571428Y-26107142D02*
X80428571Y-26107142D01*
X81000000Y-26678571D02*
X81000000Y-25535714D01*
D11*
%TO.P,R6,2*%
%TO.N,GND*%
X27160000Y-48000000D03*
D12*
%TO.P,R6,1*%
%TO.N,Net-(C5-Pad1)*%
X17000000Y-48000000D03*
%TD*%
D11*
%TO.P,R5,2*%
%TO.N,Net-(R2-Pad1)*%
X23160000Y-15000000D03*
D12*
%TO.P,R5,1*%
%TO.N,Net-(C12-Pad2)*%
X13000000Y-15000000D03*
%TD*%
%TO.P,C12,2*%
%TO.N,Net-(C12-Pad2)*%
X9000000Y-15000000D03*
%TO.P,C12,1*%
%TO.N,Net-(C12-Pad1)*%
X4000000Y-15000000D03*
%TD*%
%TO.P,C10,2*%
%TO.N,-15V*%
X39000000Y-37000000D03*
%TO.P,C10,1*%
%TO.N,GND*%
X39000000Y-32000000D03*
%TD*%
%TO.P,C9,2*%
%TO.N,GND*%
X39000000Y-29000000D03*
%TO.P,C9,1*%
%TO.N,+15V*%
X39000000Y-24000000D03*
%TD*%
D13*
%TO.P,C11,2*%
%TO.N,GND*%
X49000000Y-23500000D03*
%TO.P,C11,1*%
%TO.N,Net-(C11-Pad1)*%
X49000000Y-16000000D03*
%TD*%
D14*
%TO.P,U3,5*%
%TO.N,+15V*%
X32800000Y-10000000D03*
%TO.P,U3,4*%
%TO.N,Net-(C12-Pad1)*%
X31100000Y-6300000D03*
%TO.P,U3,3*%
%TO.N,-15V*%
X29400000Y-10000000D03*
%TO.P,U3,2*%
%TO.N,Net-(R2-Pad1)*%
X27700000Y-6300000D03*
D15*
%TO.P,U3,1*%
%TO.N,Net-(C5-Pad2)*%
X26000000Y-10000000D03*
%TD*%
D16*
%TO.P,U2,3*%
%TO.N,-15V*%
X66000000Y-41920000D03*
%TO.P,U2,2*%
%TO.N,/-V*%
X66000000Y-44460000D03*
D17*
%TO.P,U2,1*%
%TO.N,GND*%
X66000000Y-47000000D03*
%TD*%
D16*
%TO.P,U1,3*%
%TO.N,+15V*%
X66000000Y-23920000D03*
%TO.P,U1,2*%
%TO.N,GND*%
X66000000Y-26460000D03*
D17*
%TO.P,U1,1*%
%TO.N,/+V*%
X66000000Y-29000000D03*
%TD*%
D11*
%TO.P,R4,2*%
%TO.N,Net-(C11-Pad1)*%
X53160000Y-12000000D03*
D12*
%TO.P,R4,1*%
%TO.N,Net-(C12-Pad1)*%
X43000000Y-12000000D03*
%TD*%
D11*
%TO.P,R3,2*%
%TO.N,Net-(R2-Pad1)*%
X23160000Y-20000000D03*
D12*
%TO.P,R3,1*%
%TO.N,Net-(C12-Pad1)*%
X13000000Y-20000000D03*
%TD*%
D11*
%TO.P,R2,2*%
%TO.N,Net-(C6-Pad1)*%
X12840000Y-25000000D03*
D12*
%TO.P,R2,1*%
%TO.N,Net-(R2-Pad1)*%
X23000000Y-25000000D03*
%TD*%
D11*
%TO.P,R1,2*%
%TO.N,GND*%
X15840000Y-37000000D03*
D12*
%TO.P,R1,1*%
%TO.N,Net-(C5-Pad2)*%
X26000000Y-37000000D03*
%TD*%
D18*
%TO.P,J3,2*%
%TO.N,Net-(C12-Pad1)*%
X81000000Y-4920000D03*
D19*
%TO.P,J3,1*%
%TO.N,GND*%
X81000000Y-10000000D03*
%TD*%
D20*
%TO.P,J2,2*%
%TO.N,GND*%
X11175000Y-46175000D03*
X4825000Y-46175000D03*
X11175000Y-39825000D03*
D21*
%TO.P,J2,1*%
%TO.N,Net-(C5-Pad1)*%
X8000000Y-43000000D03*
D20*
%TO.P,J2,2*%
%TO.N,GND*%
X4825000Y-39825000D03*
%TD*%
D18*
%TO.P,J1,3*%
%TO.N,/+V*%
X81000000Y-30840000D03*
%TO.P,J1,2*%
%TO.N,GND*%
X81000000Y-35920000D03*
D19*
%TO.P,J1,1*%
%TO.N,/-V*%
X81000000Y-41000000D03*
%TD*%
D22*
%TO.P,D4,2*%
%TO.N,-15V*%
X28840000Y-15000000D03*
D23*
%TO.P,D4,1*%
%TO.N,Net-(C12-Pad1)*%
X39000000Y-15000000D03*
%TD*%
D22*
%TO.P,D3,2*%
%TO.N,Net-(C12-Pad1)*%
X43000000Y-15840000D03*
D23*
%TO.P,D3,1*%
%TO.N,+15V*%
X43000000Y-26000000D03*
%TD*%
D22*
%TO.P,D2,2*%
%TO.N,-15V*%
X56000000Y-46160000D03*
D23*
%TO.P,D2,1*%
%TO.N,GND*%
X56000000Y-36000000D03*
%TD*%
D22*
%TO.P,D1,2*%
%TO.N,GND*%
X56000000Y-32160000D03*
D23*
%TO.P,D1,1*%
%TO.N,+15V*%
X56000000Y-22000000D03*
%TD*%
D12*
%TO.P,C8,2*%
%TO.N,-15V*%
X49000000Y-38500000D03*
D24*
%TO.P,C8,1*%
%TO.N,GND*%
X49000000Y-36000000D03*
%TD*%
D12*
%TO.P,C7,2*%
%TO.N,GND*%
X49000000Y-31500000D03*
D24*
%TO.P,C7,1*%
%TO.N,+15V*%
X49000000Y-29000000D03*
%TD*%
D12*
%TO.P,C6,2*%
%TO.N,GND*%
X11000000Y-32500000D03*
D24*
%TO.P,C6,1*%
%TO.N,Net-(C6-Pad1)*%
X11000000Y-30000000D03*
%TD*%
D12*
%TO.P,C5,2*%
%TO.N,Net-(C5-Pad2)*%
X25500000Y-43000000D03*
D24*
%TO.P,C5,1*%
%TO.N,Net-(C5-Pad1)*%
X23000000Y-43000000D03*
%TD*%
D12*
%TO.P,C4,2*%
%TO.N,-15V*%
X70500000Y-39000000D03*
D24*
%TO.P,C4,1*%
%TO.N,GND*%
X73000000Y-39000000D03*
%TD*%
D12*
%TO.P,C3,2*%
%TO.N,GND*%
X73500000Y-23000000D03*
D24*
%TO.P,C3,1*%
%TO.N,+15V*%
X71000000Y-23000000D03*
%TD*%
D12*
%TO.P,C2,2*%
%TO.N,/-V*%
X71800000Y-44500000D03*
D24*
%TO.P,C2,1*%
%TO.N,GND*%
X71800000Y-47000000D03*
%TD*%
D12*
%TO.P,C1,2*%
%TO.N,GND*%
X73500000Y-30000000D03*
D24*
%TO.P,C1,1*%
%TO.N,/+V*%
X71000000Y-30000000D03*
%TD*%
D25*
%TO.N,/+V*%
X81000000Y-30840000D02*
X79540000Y-32300000D01*
X79540000Y-32300000D02*
X72100000Y-32300000D01*
X72100000Y-32300000D02*
X71000000Y-31200000D01*
X71000000Y-30000000D02*
X71000000Y-31200000D01*
X67000000Y-30000000D02*
X66000000Y-29000000D01*
X71000000Y-30000000D02*
X67000000Y-30000000D01*
%TO.N,/-V*%
X71760000Y-44460000D02*
X71800000Y-44500000D01*
X66000000Y-44460000D02*
X71760000Y-44460000D01*
X77500000Y-44500000D02*
X81000000Y-41000000D01*
X71800000Y-44500000D02*
X77500000Y-44500000D01*
%TO.N,+15V*%
X66920000Y-23000000D02*
X66000000Y-23920000D01*
X71000000Y-23000000D02*
X66920000Y-23000000D01*
X64080000Y-22000000D02*
X66000000Y-23920000D01*
X56000000Y-22000000D02*
X64080000Y-22000000D01*
X54600000Y-29000000D02*
X56000000Y-27600000D01*
X49000000Y-29000000D02*
X54600000Y-29000000D01*
X56000000Y-22000000D02*
X56000000Y-27600000D01*
X46000000Y-29000000D02*
X43000000Y-26000000D01*
X49000000Y-29000000D02*
X46000000Y-29000000D01*
X41000000Y-24000000D02*
X43000000Y-26000000D01*
X39000000Y-24000000D02*
X41000000Y-24000000D01*
X35400000Y-24000000D02*
X32800000Y-21400000D01*
X39000000Y-24000000D02*
X35400000Y-24000000D01*
X32800000Y-10000000D02*
X32800000Y-21400000D01*
%TO.N,-15V*%
X60240000Y-41920000D02*
X56000000Y-46160000D01*
X66000000Y-41920000D02*
X60240000Y-41920000D01*
X56000000Y-46160000D02*
X50160000Y-46160000D01*
X49000000Y-45000000D02*
X50160000Y-46160000D01*
X49000000Y-38500000D02*
X49000000Y-45000000D01*
X40500000Y-38500000D02*
X39000000Y-37000000D01*
X49000000Y-38500000D02*
X40500000Y-38500000D01*
X28840000Y-10560000D02*
X29400000Y-10000000D01*
X28840000Y-15000000D02*
X28840000Y-10560000D01*
X28840000Y-15000000D02*
X28840000Y-20540000D01*
X28840000Y-20540000D02*
X35000000Y-26700000D01*
X35000000Y-33000000D02*
X39000000Y-37000000D01*
X35000000Y-26700000D02*
X35000000Y-33000000D01*
X68920000Y-39000000D02*
X66000000Y-41920000D01*
X70500000Y-39000000D02*
X68920000Y-39000000D01*
%TO.N,Net-(C5-Pad2)*%
X26000000Y-42500000D02*
X25500000Y-43000000D01*
X26000000Y-37000000D02*
X26000000Y-42500000D01*
X26000000Y-10000000D02*
X26000000Y-37000000D01*
D26*
%TO.N,Net-(C5-Pad1)*%
X17000000Y-43700000D02*
X16300000Y-43000000D01*
X17000000Y-48000000D02*
X17000000Y-43700000D01*
X8000000Y-43000000D02*
X16300000Y-43000000D01*
D25*
X17000000Y-44000000D02*
X16000000Y-43000000D01*
X17000000Y-48000000D02*
X17000000Y-44000000D01*
X16000000Y-43000000D02*
X8000000Y-43000000D01*
X23000000Y-43000000D02*
X8000000Y-43000000D01*
%TO.N,Net-(C6-Pad1)*%
X11000000Y-26840000D02*
X12840000Y-25000000D01*
X11000000Y-30000000D02*
X11000000Y-26840000D01*
%TO.N,Net-(C11-Pad1)*%
X49000000Y-16000000D02*
X52000000Y-16000000D01*
X53160000Y-14840000D02*
X52000000Y-16000000D01*
X53160000Y-12000000D02*
X53160000Y-14840000D01*
%TO.N,Net-(R2-Pad1)*%
X23000000Y-20160000D02*
X23160000Y-20000000D01*
X23000000Y-25000000D02*
X23000000Y-20160000D01*
X23160000Y-20000000D02*
X23160000Y-15000000D01*
X23160000Y-8040000D02*
X24900000Y-6300000D01*
X23160000Y-15000000D02*
X23160000Y-8040000D01*
X24900000Y-6300000D02*
X27700000Y-6300000D01*
%TO.N,Net-(C12-Pad2)*%
X9000000Y-15000000D02*
X13000000Y-15000000D01*
%TO.N,Net-(C12-Pad1)*%
X39840000Y-15840000D02*
X39000000Y-15000000D01*
X43000000Y-15840000D02*
X39840000Y-15840000D01*
X43000000Y-15840000D02*
X43000000Y-12000000D01*
X45680000Y-4920000D02*
X43000000Y-7600000D01*
X81000000Y-4920000D02*
X45680000Y-4920000D01*
X43000000Y-7600000D02*
X43000000Y-12000000D01*
X38200000Y-6300000D02*
X39000000Y-7100000D01*
X31100000Y-6300000D02*
X38200000Y-6300000D01*
X39000000Y-7100000D02*
X39000000Y-15000000D01*
X31100000Y-6300000D02*
X28400000Y-3600000D01*
X24200000Y-3600000D02*
X20500000Y-7300000D01*
X28400000Y-3600000D02*
X24200000Y-3600000D01*
X20500000Y-18500000D02*
X19000000Y-20000000D01*
X20500000Y-7300000D02*
X20500000Y-18500000D01*
X19000000Y-20000000D02*
X13000000Y-20000000D01*
X13000000Y-20000000D02*
X6000000Y-20000000D01*
X4000000Y-18000000D02*
X6000000Y-20000000D01*
X4000000Y-15000000D02*
X4000000Y-18000000D01*
%TD*%
D27*
%TO.N,GND*%
X84434420Y-1806040D02*
X84852283Y-1932200D01*
X85237691Y-2137124D01*
X85575954Y-2413005D01*
X85854190Y-2749335D01*
X86061798Y-3133297D01*
X86190875Y-3550276D01*
X86240200Y-4019572D01*
X86240201Y-47962826D01*
X86193961Y-48434415D01*
X86067800Y-48852284D01*
X85862874Y-49237694D01*
X85586995Y-49575954D01*
X85250666Y-49854190D01*
X84866699Y-50061799D01*
X84449725Y-50190875D01*
X83980427Y-50240200D01*
X4037163Y-50240200D01*
X3565585Y-50193961D01*
X3147716Y-50067800D01*
X2762306Y-49862874D01*
X2424046Y-49586995D01*
X2145810Y-49250666D01*
X1938201Y-48866699D01*
X1809125Y-48449725D01*
X1775276Y-48127668D01*
X2975852Y-48127668D01*
X3153148Y-48600642D01*
X3658491Y-48880196D01*
X4208663Y-49055791D01*
X4782521Y-49120679D01*
X5358010Y-49072366D01*
X5913016Y-48912709D01*
X6426211Y-48647843D01*
X6496852Y-48600642D01*
X6674148Y-48127668D01*
X9325852Y-48127668D01*
X9503148Y-48600642D01*
X10008491Y-48880196D01*
X10558663Y-49055791D01*
X11132521Y-49120679D01*
X11708010Y-49072366D01*
X12263016Y-48912709D01*
X12776211Y-48647843D01*
X12846852Y-48600642D01*
X13024148Y-48127668D01*
X11175000Y-46278520D01*
X9325852Y-48127668D01*
X6674148Y-48127668D01*
X4825000Y-46278520D01*
X2975852Y-48127668D01*
X1775276Y-48127668D01*
X1759800Y-47980427D01*
X1759800Y-46132521D01*
X1879321Y-46132521D01*
X1927634Y-46708010D01*
X2087291Y-47263016D01*
X2352157Y-47776211D01*
X2399358Y-47846852D01*
X2872332Y-48024148D01*
X4721480Y-46175000D01*
X2872332Y-44325852D01*
X2399358Y-44503148D01*
X2119804Y-45008491D01*
X1944209Y-45558663D01*
X1879321Y-46132521D01*
X1759800Y-46132521D01*
X1759800Y-39782521D01*
X1879321Y-39782521D01*
X1927634Y-40358010D01*
X2087291Y-40913016D01*
X2352157Y-41426211D01*
X2399358Y-41496852D01*
X2872332Y-41674148D01*
X4721480Y-39825000D01*
X2872332Y-37975852D01*
X2399358Y-38153148D01*
X2119804Y-38658491D01*
X1944209Y-39208663D01*
X1879321Y-39782521D01*
X1759800Y-39782521D01*
X1759800Y-37872332D01*
X2975852Y-37872332D01*
X4825000Y-39721480D01*
X6674148Y-37872332D01*
X9325852Y-37872332D01*
X11175000Y-39721480D01*
X13024148Y-37872332D01*
X12846852Y-37399358D01*
X12771809Y-37357844D01*
X14048591Y-37357844D01*
X14151688Y-37697718D01*
X14320247Y-38013685D01*
X14547209Y-38290696D01*
X14823852Y-38518107D01*
X15139545Y-38687178D01*
X15482156Y-38791411D01*
X15766800Y-38568635D01*
X15766800Y-37073200D01*
X15913200Y-37073200D01*
X15913200Y-38568635D01*
X16197844Y-38791411D01*
X16540455Y-38687178D01*
X16856148Y-38518107D01*
X17132791Y-38290696D01*
X17359753Y-38013685D01*
X17528312Y-37697718D01*
X17631409Y-37357844D01*
X17408393Y-37073200D01*
X15913200Y-37073200D01*
X15766800Y-37073200D01*
X14271607Y-37073200D01*
X14048591Y-37357844D01*
X12771809Y-37357844D01*
X12341509Y-37119804D01*
X11791337Y-36944209D01*
X11217479Y-36879321D01*
X10641990Y-36927634D01*
X10086984Y-37087291D01*
X9573789Y-37352157D01*
X9503148Y-37399358D01*
X9325852Y-37872332D01*
X6674148Y-37872332D01*
X6496852Y-37399358D01*
X5991509Y-37119804D01*
X5441337Y-36944209D01*
X4867479Y-36879321D01*
X4291990Y-36927634D01*
X3736984Y-37087291D01*
X3223789Y-37352157D01*
X3153148Y-37399358D01*
X2975852Y-37872332D01*
X1759800Y-37872332D01*
X1759800Y-36642156D01*
X14048591Y-36642156D01*
X14271607Y-36926800D01*
X15766800Y-36926800D01*
X15766800Y-35431365D01*
X15913200Y-35431365D01*
X15913200Y-36926800D01*
X17408393Y-36926800D01*
X17631409Y-36642156D01*
X17528312Y-36302282D01*
X17359753Y-35986315D01*
X17132791Y-35709304D01*
X16856148Y-35481893D01*
X16540455Y-35312822D01*
X16197844Y-35208589D01*
X15913200Y-35431365D01*
X15766800Y-35431365D01*
X15482156Y-35208589D01*
X15139545Y-35312822D01*
X14823852Y-35481893D01*
X14547209Y-35709304D01*
X14320247Y-35986315D01*
X14151688Y-36302282D01*
X14048591Y-36642156D01*
X1759800Y-36642156D01*
X1759800Y-33667038D01*
X9936482Y-33667038D01*
X9981117Y-34026908D01*
X10298580Y-34196344D01*
X10642997Y-34300589D01*
X11001134Y-34335639D01*
X11359227Y-34300147D01*
X11703516Y-34195475D01*
X12018883Y-34026908D01*
X12063518Y-33667038D01*
X11000000Y-32603520D01*
X9936482Y-33667038D01*
X1759800Y-33667038D01*
X1759800Y-32501134D01*
X9164361Y-32501134D01*
X9199853Y-32859227D01*
X9304525Y-33203516D01*
X9473092Y-33518883D01*
X9832962Y-33563518D01*
X10896480Y-32500000D01*
X10882338Y-32485858D01*
X10985858Y-32382338D01*
X11000000Y-32396480D01*
X11014143Y-32382338D01*
X11117663Y-32485858D01*
X11103520Y-32500000D01*
X12167038Y-33563518D01*
X12526908Y-33518883D01*
X12696344Y-33201420D01*
X12800589Y-32857003D01*
X12835639Y-32498866D01*
X12800147Y-32140773D01*
X12695475Y-31796484D01*
X12526908Y-31481117D01*
X12167817Y-31436579D01*
X12210208Y-31413920D01*
X12322096Y-31322096D01*
X12413920Y-31210208D01*
X12482151Y-31082556D01*
X12524168Y-30944046D01*
X12538355Y-30800000D01*
X12538355Y-29200000D01*
X12524168Y-29055954D01*
X12484800Y-28926176D01*
X12484800Y-27455024D01*
X13605282Y-26334543D01*
X13818378Y-26192157D01*
X14032157Y-25978378D01*
X14200122Y-25727000D01*
X14315818Y-25447685D01*
X14374800Y-25151165D01*
X14374800Y-24848835D01*
X14315818Y-24552315D01*
X14200122Y-24273000D01*
X14032157Y-24021622D01*
X13818378Y-23807843D01*
X13567000Y-23639878D01*
X13287685Y-23524182D01*
X12991165Y-23465200D01*
X12688835Y-23465200D01*
X12392315Y-23524182D01*
X12113000Y-23639878D01*
X11861622Y-23807843D01*
X11647843Y-24021622D01*
X11505457Y-24234718D01*
X10001661Y-25738515D01*
X9945009Y-25785008D01*
X9898516Y-25841660D01*
X9898511Y-25841665D01*
X9759461Y-26011099D01*
X9621587Y-26269044D01*
X9593959Y-26360122D01*
X9536685Y-26548928D01*
X9528990Y-26627059D01*
X9508017Y-26840000D01*
X9515201Y-26912940D01*
X9515200Y-28926175D01*
X9475832Y-29055954D01*
X9461645Y-29200000D01*
X9461645Y-30800000D01*
X9475832Y-30944046D01*
X9517849Y-31082556D01*
X9586080Y-31210208D01*
X9677904Y-31322096D01*
X9789792Y-31413920D01*
X9832183Y-31436579D01*
X9473092Y-31481117D01*
X9303656Y-31798580D01*
X9199411Y-32142997D01*
X9164361Y-32501134D01*
X1759800Y-32501134D01*
X1759800Y-14848835D01*
X2465200Y-14848835D01*
X2465200Y-15151165D01*
X2515200Y-15402531D01*
X2515201Y-17927060D01*
X2508017Y-18000000D01*
X2536685Y-18291071D01*
X2621587Y-18570956D01*
X2759461Y-18828901D01*
X2898511Y-18998335D01*
X2898516Y-18998340D01*
X2945009Y-19054992D01*
X3001661Y-19101485D01*
X4898515Y-20998340D01*
X4945008Y-21054992D01*
X5001660Y-21101485D01*
X5001664Y-21101489D01*
X5086485Y-21171099D01*
X5171098Y-21240539D01*
X5429042Y-21378413D01*
X5708928Y-21463316D01*
X5927059Y-21484800D01*
X5927069Y-21484800D01*
X5999999Y-21491983D01*
X6072929Y-21484800D01*
X12597470Y-21484800D01*
X12848835Y-21534800D01*
X13151165Y-21534800D01*
X13402530Y-21484800D01*
X18927070Y-21484800D01*
X19000000Y-21491983D01*
X19072930Y-21484800D01*
X19072941Y-21484800D01*
X19291072Y-21463316D01*
X19570958Y-21378413D01*
X19828902Y-21240539D01*
X20054992Y-21054992D01*
X20101490Y-20998334D01*
X21498334Y-19601490D01*
X21554992Y-19554992D01*
X21675200Y-19408518D01*
X21675200Y-19488741D01*
X21670071Y-19498336D01*
X21621588Y-19589042D01*
X21536685Y-19868928D01*
X21515201Y-20087059D01*
X21508017Y-20160000D01*
X21515201Y-20232940D01*
X21515200Y-24597470D01*
X21465200Y-24848835D01*
X21465200Y-25151165D01*
X21524182Y-25447685D01*
X21639878Y-25727000D01*
X21807843Y-25978378D01*
X22021622Y-26192157D01*
X22273000Y-26360122D01*
X22552315Y-26475818D01*
X22848835Y-26534800D01*
X23151165Y-26534800D01*
X23447685Y-26475818D01*
X23727000Y-26360122D01*
X23978378Y-26192157D01*
X24192157Y-25978378D01*
X24360122Y-25727000D01*
X24475818Y-25447685D01*
X24515201Y-25249697D01*
X24515201Y-36597465D01*
X24465200Y-36848835D01*
X24465200Y-37151165D01*
X24515200Y-37402530D01*
X24515201Y-41814264D01*
X24457723Y-41871742D01*
X24413920Y-41789792D01*
X24322096Y-41677904D01*
X24210208Y-41586080D01*
X24082556Y-41517849D01*
X23944046Y-41475832D01*
X23800000Y-41461645D01*
X22200000Y-41461645D01*
X22055954Y-41475832D01*
X21926176Y-41515200D01*
X16072930Y-41515200D01*
X16000000Y-41508017D01*
X15927070Y-41515200D01*
X13551695Y-41515200D01*
X13600642Y-41496852D01*
X13880196Y-40991509D01*
X14055791Y-40441337D01*
X14120679Y-39867479D01*
X14072366Y-39291990D01*
X13912709Y-38736984D01*
X13647843Y-38223789D01*
X13600642Y-38153148D01*
X13127668Y-37975852D01*
X11278520Y-39825000D01*
X11292663Y-39839143D01*
X11189143Y-39942663D01*
X11175000Y-39928520D01*
X11160858Y-39942663D01*
X11057338Y-39839143D01*
X11071480Y-39825000D01*
X9222332Y-37975852D01*
X8749358Y-38153148D01*
X8469804Y-38658491D01*
X8294209Y-39208663D01*
X8229321Y-39782521D01*
X8277634Y-40358010D01*
X8318883Y-40501401D01*
X8247489Y-40487200D01*
X7752511Y-40487200D01*
X7686994Y-40500232D01*
X7705791Y-40441337D01*
X7770679Y-39867479D01*
X7722366Y-39291990D01*
X7562709Y-38736984D01*
X7297843Y-38223789D01*
X7250642Y-38153148D01*
X6777668Y-37975852D01*
X4928520Y-39825000D01*
X4942663Y-39839143D01*
X4839143Y-39942663D01*
X4825000Y-39928520D01*
X2975852Y-41777668D01*
X3153148Y-42250642D01*
X3658491Y-42530196D01*
X4208663Y-42705791D01*
X4782521Y-42770679D01*
X5358010Y-42722366D01*
X5501401Y-42681117D01*
X5487200Y-42752511D01*
X5487200Y-43247489D01*
X5500232Y-43313006D01*
X5441337Y-43294209D01*
X4867479Y-43229321D01*
X4291990Y-43277634D01*
X3736984Y-43437291D01*
X3223789Y-43702157D01*
X3153148Y-43749358D01*
X2975852Y-44222332D01*
X4825000Y-46071480D01*
X4839143Y-46057338D01*
X4942663Y-46160858D01*
X4928520Y-46175000D01*
X6777668Y-48024148D01*
X7250642Y-47846852D01*
X7530196Y-47341509D01*
X7705791Y-46791337D01*
X7770679Y-46217479D01*
X7722366Y-45641990D01*
X7681117Y-45498599D01*
X7752511Y-45512800D01*
X8247489Y-45512800D01*
X8313006Y-45499768D01*
X8294209Y-45558663D01*
X8229321Y-46132521D01*
X8277634Y-46708010D01*
X8437291Y-47263016D01*
X8702157Y-47776211D01*
X8749358Y-47846852D01*
X9222332Y-48024148D01*
X11071480Y-46175000D01*
X11057338Y-46160858D01*
X11160858Y-46057338D01*
X11175000Y-46071480D01*
X11189143Y-46057338D01*
X11292663Y-46160858D01*
X11278520Y-46175000D01*
X13127668Y-48024148D01*
X13600642Y-47846852D01*
X13880196Y-47341509D01*
X14055791Y-46791337D01*
X14120679Y-46217479D01*
X14072366Y-45641990D01*
X13912709Y-45086984D01*
X13647843Y-44573789D01*
X13600642Y-44503148D01*
X13551695Y-44484800D01*
X15384976Y-44484800D01*
X15515201Y-44615025D01*
X15515200Y-47597470D01*
X15465200Y-47848835D01*
X15465200Y-48151165D01*
X15524182Y-48447685D01*
X15639878Y-48727000D01*
X15807843Y-48978378D01*
X16021622Y-49192157D01*
X16273000Y-49360122D01*
X16552315Y-49475818D01*
X16848835Y-49534800D01*
X17151165Y-49534800D01*
X17447685Y-49475818D01*
X17727000Y-49360122D01*
X17978378Y-49192157D01*
X18192157Y-48978378D01*
X18360122Y-48727000D01*
X18475818Y-48447685D01*
X18493688Y-48357844D01*
X25368591Y-48357844D01*
X25471688Y-48697718D01*
X25640247Y-49013685D01*
X25867209Y-49290696D01*
X26143852Y-49518107D01*
X26459545Y-49687178D01*
X26802156Y-49791411D01*
X27086800Y-49568635D01*
X27086800Y-48073200D01*
X27233200Y-48073200D01*
X27233200Y-49568635D01*
X27517844Y-49791411D01*
X27860455Y-49687178D01*
X28176148Y-49518107D01*
X28452791Y-49290696D01*
X28679753Y-49013685D01*
X28848312Y-48697718D01*
X28951409Y-48357844D01*
X28728393Y-48073200D01*
X27233200Y-48073200D01*
X27086800Y-48073200D01*
X25591607Y-48073200D01*
X25368591Y-48357844D01*
X18493688Y-48357844D01*
X18534800Y-48151165D01*
X18534800Y-47848835D01*
X18493689Y-47642156D01*
X25368591Y-47642156D01*
X25591607Y-47926800D01*
X27086800Y-47926800D01*
X27086800Y-46431365D01*
X27233200Y-46431365D01*
X27233200Y-47926800D01*
X28728393Y-47926800D01*
X28951409Y-47642156D01*
X28848312Y-47302282D01*
X28679753Y-46986315D01*
X28452791Y-46709304D01*
X28176148Y-46481893D01*
X27860455Y-46312822D01*
X27517844Y-46208589D01*
X27233200Y-46431365D01*
X27086800Y-46431365D01*
X26802156Y-46208589D01*
X26459545Y-46312822D01*
X26143852Y-46481893D01*
X25867209Y-46709304D01*
X25640247Y-46986315D01*
X25471688Y-47302282D01*
X25368591Y-47642156D01*
X18493689Y-47642156D01*
X18484800Y-47597470D01*
X18484800Y-44484800D01*
X21926176Y-44484800D01*
X22055954Y-44524168D01*
X22200000Y-44538355D01*
X23800000Y-44538355D01*
X23944046Y-44524168D01*
X24082556Y-44482151D01*
X24210208Y-44413920D01*
X24322096Y-44322096D01*
X24413920Y-44210208D01*
X24457723Y-44128258D01*
X24521622Y-44192157D01*
X24773000Y-44360122D01*
X25052315Y-44475818D01*
X25348835Y-44534800D01*
X25651165Y-44534800D01*
X25947685Y-44475818D01*
X26227000Y-44360122D01*
X26478378Y-44192157D01*
X26692157Y-43978378D01*
X26834546Y-43765278D01*
X26998330Y-43601494D01*
X27054992Y-43554992D01*
X27240539Y-43328902D01*
X27378413Y-43070958D01*
X27463316Y-42791072D01*
X27484800Y-42572941D01*
X27484800Y-42572938D01*
X27491984Y-42500000D01*
X27484800Y-42427062D01*
X27484800Y-37402530D01*
X27534800Y-37151165D01*
X27534800Y-36848835D01*
X27484800Y-36597470D01*
X27484800Y-23226800D01*
X29426976Y-23226800D01*
X33515200Y-27315024D01*
X33515201Y-32927060D01*
X33508017Y-33000000D01*
X33515201Y-33072940D01*
X33515201Y-33072941D01*
X33536685Y-33291072D01*
X33556075Y-33354992D01*
X33621587Y-33570956D01*
X33759461Y-33828901D01*
X33898511Y-33998335D01*
X33898516Y-33998340D01*
X33945009Y-34054992D01*
X34001661Y-34101485D01*
X37665457Y-37765282D01*
X37807843Y-37978378D01*
X38021622Y-38192157D01*
X38234721Y-38334545D01*
X39398510Y-39498334D01*
X39445008Y-39554992D01*
X39671098Y-39740539D01*
X39929042Y-39878413D01*
X40208928Y-39963316D01*
X40427059Y-39984800D01*
X40427069Y-39984800D01*
X40499999Y-39991983D01*
X40572929Y-39984800D01*
X47515200Y-39984800D01*
X47515201Y-44927060D01*
X47508017Y-45000000D01*
X47515201Y-45072940D01*
X47515201Y-45072941D01*
X47536685Y-45291072D01*
X47548161Y-45328902D01*
X47621587Y-45570956D01*
X47759461Y-45828901D01*
X47898511Y-45998335D01*
X47898516Y-45998340D01*
X47945009Y-46054992D01*
X48001661Y-46101485D01*
X49058510Y-47158334D01*
X49105008Y-47214992D01*
X49331098Y-47400539D01*
X49589042Y-47538413D01*
X49868928Y-47623316D01*
X50087059Y-47644800D01*
X50087062Y-47644800D01*
X50160000Y-47651984D01*
X50232938Y-47644800D01*
X54919607Y-47644800D01*
X55130896Y-47785979D01*
X55464809Y-47924290D01*
X55819288Y-47994800D01*
X56180712Y-47994800D01*
X56393369Y-47952500D01*
X63968232Y-47952500D01*
X63988057Y-48153788D01*
X64046771Y-48347341D01*
X64142116Y-48525720D01*
X64270430Y-48682070D01*
X64426780Y-48810384D01*
X64605159Y-48905729D01*
X64798712Y-48964443D01*
X65000000Y-48984268D01*
X65670100Y-48979300D01*
X65926800Y-48722600D01*
X65926800Y-47073200D01*
X66073200Y-47073200D01*
X66073200Y-48722600D01*
X66329900Y-48979300D01*
X67000000Y-48984268D01*
X67201288Y-48964443D01*
X67394841Y-48905729D01*
X67573220Y-48810384D01*
X67729570Y-48682070D01*
X67857884Y-48525720D01*
X67953229Y-48347341D01*
X68011943Y-48153788D01*
X68031768Y-47952500D01*
X68030552Y-47800000D01*
X69968232Y-47800000D01*
X69988057Y-48001288D01*
X70046771Y-48194841D01*
X70142116Y-48373220D01*
X70270430Y-48529570D01*
X70426780Y-48657884D01*
X70605159Y-48753229D01*
X70798712Y-48811943D01*
X71000000Y-48831768D01*
X71470100Y-48826800D01*
X71726800Y-48570100D01*
X71726800Y-47073200D01*
X71873200Y-47073200D01*
X71873200Y-48570100D01*
X72129900Y-48826800D01*
X72600000Y-48831768D01*
X72801288Y-48811943D01*
X72994841Y-48753229D01*
X73173220Y-48657884D01*
X73329570Y-48529570D01*
X73457884Y-48373220D01*
X73553229Y-48194841D01*
X73611943Y-48001288D01*
X73631768Y-47800000D01*
X73626800Y-47329900D01*
X73370100Y-47073200D01*
X71873200Y-47073200D01*
X71726800Y-47073200D01*
X70229900Y-47073200D01*
X69973200Y-47329900D01*
X69968232Y-47800000D01*
X68030552Y-47800000D01*
X68026800Y-47329900D01*
X67770100Y-47073200D01*
X66073200Y-47073200D01*
X65926800Y-47073200D01*
X64229900Y-47073200D01*
X63973200Y-47329900D01*
X63968232Y-47952500D01*
X56393369Y-47952500D01*
X56535191Y-47924290D01*
X56869104Y-47785979D01*
X57169617Y-47585182D01*
X57425182Y-47329617D01*
X57625979Y-47029104D01*
X57764290Y-46695191D01*
X57813865Y-46445959D01*
X60855024Y-43404800D01*
X64635716Y-43404800D01*
X64542773Y-43518051D01*
X64386096Y-43811174D01*
X64289614Y-44129231D01*
X64257036Y-44460000D01*
X64289614Y-44790769D01*
X64386096Y-45108826D01*
X64428724Y-45188577D01*
X64426780Y-45189616D01*
X64270430Y-45317930D01*
X64142116Y-45474280D01*
X64046771Y-45652659D01*
X63988057Y-45846212D01*
X63968232Y-46047500D01*
X63973200Y-46670100D01*
X64229900Y-46926800D01*
X65926800Y-46926800D01*
X65926800Y-46906800D01*
X66073200Y-46906800D01*
X66073200Y-46926800D01*
X67770100Y-46926800D01*
X68026800Y-46670100D01*
X68031768Y-46047500D01*
X68021653Y-45944800D01*
X70004411Y-45944800D01*
X69988057Y-45998712D01*
X69968232Y-46200000D01*
X69973200Y-46670100D01*
X70229900Y-46926800D01*
X71726800Y-46926800D01*
X71726800Y-46906800D01*
X71873200Y-46906800D01*
X71873200Y-46926800D01*
X73370100Y-46926800D01*
X73626800Y-46670100D01*
X73631768Y-46200000D01*
X73611943Y-45998712D01*
X73607723Y-45984800D01*
X77427070Y-45984800D01*
X77500000Y-45991983D01*
X77572930Y-45984800D01*
X77572941Y-45984800D01*
X77791072Y-45963316D01*
X78070958Y-45878413D01*
X78328902Y-45740539D01*
X78554992Y-45554992D01*
X78601490Y-45498334D01*
X79186629Y-44913195D01*
X79186629Y-47129800D01*
X82813372Y-47129800D01*
X82813372Y-43110200D01*
X80989624Y-43110200D01*
X81061469Y-43038355D01*
X82300000Y-43038355D01*
X82444046Y-43024168D01*
X82582556Y-42982151D01*
X82710208Y-42913920D01*
X82822096Y-42822096D01*
X82913920Y-42710208D01*
X82982151Y-42582556D01*
X83024168Y-42444046D01*
X83038355Y-42300000D01*
X83038355Y-39700000D01*
X83024168Y-39555954D01*
X82982151Y-39417444D01*
X82913920Y-39289792D01*
X82822096Y-39177904D01*
X82710208Y-39086080D01*
X82582556Y-39017849D01*
X82444046Y-38975832D01*
X82300000Y-38961645D01*
X79700000Y-38961645D01*
X79555954Y-38975832D01*
X79417444Y-39017849D01*
X79289792Y-39086080D01*
X79177904Y-39177904D01*
X79086080Y-39289792D01*
X79017849Y-39417444D01*
X78975832Y-39555954D01*
X78961645Y-39700000D01*
X78961645Y-40938531D01*
X76884976Y-43015200D01*
X72202530Y-43015200D01*
X71951165Y-42965200D01*
X71648835Y-42965200D01*
X71598562Y-42975200D01*
X67364284Y-42975200D01*
X67457227Y-42861949D01*
X67613904Y-42568826D01*
X67684839Y-42334985D01*
X69535024Y-40484800D01*
X70097470Y-40484800D01*
X70348835Y-40534800D01*
X70651165Y-40534800D01*
X70947685Y-40475818D01*
X71227000Y-40360122D01*
X71306664Y-40306893D01*
X71342116Y-40373220D01*
X71470430Y-40529570D01*
X71626780Y-40657884D01*
X71805159Y-40753229D01*
X71998712Y-40811943D01*
X72200000Y-40831768D01*
X72670100Y-40826800D01*
X72926800Y-40570100D01*
X72926800Y-39073200D01*
X73073200Y-39073200D01*
X73073200Y-40570100D01*
X73329900Y-40826800D01*
X73800000Y-40831768D01*
X74001288Y-40811943D01*
X74194841Y-40753229D01*
X74373220Y-40657884D01*
X74529570Y-40529570D01*
X74657884Y-40373220D01*
X74753229Y-40194841D01*
X74811943Y-40001288D01*
X74831768Y-39800000D01*
X74826800Y-39329900D01*
X74570100Y-39073200D01*
X73073200Y-39073200D01*
X72926800Y-39073200D01*
X72906800Y-39073200D01*
X72906800Y-38926800D01*
X72926800Y-38926800D01*
X72926800Y-37429900D01*
X73073200Y-37429900D01*
X73073200Y-38926800D01*
X74570100Y-38926800D01*
X74826800Y-38670100D01*
X74831768Y-38200000D01*
X74811943Y-37998712D01*
X74753229Y-37805159D01*
X74657884Y-37626780D01*
X74529570Y-37470430D01*
X74495650Y-37442592D01*
X79580929Y-37442592D01*
X79685617Y-37853627D01*
X80088104Y-38072896D01*
X80525636Y-38209431D01*
X80981397Y-38257984D01*
X81437872Y-38216689D01*
X81877520Y-38087134D01*
X82283446Y-37874298D01*
X82314383Y-37853627D01*
X82419071Y-37442592D01*
X81000000Y-36023520D01*
X79580929Y-37442592D01*
X74495650Y-37442592D01*
X74373220Y-37342116D01*
X74194841Y-37246771D01*
X74001288Y-37188057D01*
X73800000Y-37168232D01*
X73329900Y-37173200D01*
X73073200Y-37429900D01*
X72926800Y-37429900D01*
X72670100Y-37173200D01*
X72200000Y-37168232D01*
X71998712Y-37188057D01*
X71805159Y-37246771D01*
X71626780Y-37342116D01*
X71470430Y-37470430D01*
X71342116Y-37626780D01*
X71306664Y-37693107D01*
X71227000Y-37639878D01*
X70947685Y-37524182D01*
X70651165Y-37465200D01*
X70348835Y-37465200D01*
X70097470Y-37515200D01*
X68992940Y-37515200D01*
X68920000Y-37508016D01*
X68847059Y-37515200D01*
X68628928Y-37536684D01*
X68349042Y-37621587D01*
X68091098Y-37759461D01*
X67865008Y-37945008D01*
X67818510Y-38001666D01*
X65537515Y-40282661D01*
X65303674Y-40353596D01*
X65151003Y-40435200D01*
X60312940Y-40435200D01*
X60240000Y-40428016D01*
X60167060Y-40435200D01*
X60167059Y-40435200D01*
X59948928Y-40456684D01*
X59669042Y-40541587D01*
X59615698Y-40570100D01*
X59411098Y-40679460D01*
X59261308Y-40802390D01*
X59185008Y-40865008D01*
X59138511Y-40921665D01*
X55714041Y-44346135D01*
X55464809Y-44395710D01*
X55130896Y-44534021D01*
X54919607Y-44675200D01*
X50775024Y-44675200D01*
X50484800Y-44384976D01*
X50484800Y-38902530D01*
X50534800Y-38651165D01*
X50534800Y-38348835D01*
X50475818Y-38052315D01*
X50360122Y-37773000D01*
X50306893Y-37693336D01*
X50373220Y-37657884D01*
X50529570Y-37529570D01*
X50657884Y-37373220D01*
X50753229Y-37194841D01*
X50781998Y-37100000D01*
X53868232Y-37100000D01*
X53888057Y-37301288D01*
X53946771Y-37494841D01*
X54042116Y-37673220D01*
X54170430Y-37829570D01*
X54326780Y-37957884D01*
X54505159Y-38053229D01*
X54698712Y-38111943D01*
X54900000Y-38131768D01*
X55670100Y-38126800D01*
X55926800Y-37870100D01*
X55926800Y-36073200D01*
X56073200Y-36073200D01*
X56073200Y-37870100D01*
X56329900Y-38126800D01*
X57100000Y-38131768D01*
X57301288Y-38111943D01*
X57494841Y-38053229D01*
X57673220Y-37957884D01*
X57829570Y-37829570D01*
X57957884Y-37673220D01*
X58053229Y-37494841D01*
X58111943Y-37301288D01*
X58131768Y-37100000D01*
X58126800Y-36329900D01*
X57870100Y-36073200D01*
X56073200Y-36073200D01*
X55926800Y-36073200D01*
X54129900Y-36073200D01*
X53873200Y-36329900D01*
X53868232Y-37100000D01*
X50781998Y-37100000D01*
X50811943Y-37001288D01*
X50831768Y-36800000D01*
X50826800Y-36329900D01*
X50570100Y-36073200D01*
X49073200Y-36073200D01*
X49073200Y-36093200D01*
X48926800Y-36093200D01*
X48926800Y-36073200D01*
X47429900Y-36073200D01*
X47173200Y-36329900D01*
X47168232Y-36800000D01*
X47188057Y-37001288D01*
X47192277Y-37015200D01*
X41115024Y-37015200D01*
X40334545Y-36234721D01*
X40192157Y-36021622D01*
X39978378Y-35807843D01*
X39765282Y-35665457D01*
X39299825Y-35200000D01*
X47168232Y-35200000D01*
X47173200Y-35670100D01*
X47429900Y-35926800D01*
X48926800Y-35926800D01*
X48926800Y-34429900D01*
X49073200Y-34429900D01*
X49073200Y-35926800D01*
X50570100Y-35926800D01*
X50826800Y-35670100D01*
X50831768Y-35200000D01*
X50811943Y-34998712D01*
X50781999Y-34900000D01*
X53868232Y-34900000D01*
X53873200Y-35670100D01*
X54129900Y-35926800D01*
X55926800Y-35926800D01*
X55926800Y-34129900D01*
X55865860Y-34068960D01*
X55926800Y-34028667D01*
X55926800Y-32233200D01*
X56073200Y-32233200D01*
X56073200Y-34028667D01*
X56134140Y-34068960D01*
X56073200Y-34129900D01*
X56073200Y-35926800D01*
X57870100Y-35926800D01*
X57895503Y-35901397D01*
X78662016Y-35901397D01*
X78703311Y-36357872D01*
X78832866Y-36797520D01*
X79045702Y-37203446D01*
X79066373Y-37234383D01*
X79477408Y-37339071D01*
X80896480Y-35920000D01*
X81103520Y-35920000D01*
X82522592Y-37339071D01*
X82933627Y-37234383D01*
X83152896Y-36831896D01*
X83289431Y-36394364D01*
X83337984Y-35938603D01*
X83296689Y-35482128D01*
X83167134Y-35042480D01*
X82954298Y-34636554D01*
X82933627Y-34605617D01*
X82522592Y-34500929D01*
X81103520Y-35920000D01*
X80896480Y-35920000D01*
X79477408Y-34500929D01*
X79066373Y-34605617D01*
X78847104Y-35008104D01*
X78710569Y-35445636D01*
X78662016Y-35901397D01*
X57895503Y-35901397D01*
X58126800Y-35670100D01*
X58131768Y-34900000D01*
X58111943Y-34698712D01*
X58053229Y-34505159D01*
X57995636Y-34397408D01*
X79580929Y-34397408D01*
X81000000Y-35816480D01*
X82419071Y-34397408D01*
X82314383Y-33986373D01*
X81911896Y-33767104D01*
X81474364Y-33630569D01*
X81018603Y-33582016D01*
X80562128Y-33623311D01*
X80122480Y-33752866D01*
X79716554Y-33965702D01*
X79685617Y-33986373D01*
X79580929Y-34397408D01*
X57995636Y-34397408D01*
X57957884Y-34326780D01*
X57829570Y-34170430D01*
X57673220Y-34042116D01*
X57494841Y-33946771D01*
X57301288Y-33888057D01*
X57239226Y-33881944D01*
X57511145Y-33656572D01*
X57774075Y-33333006D01*
X57968829Y-32964362D01*
X58087922Y-32564807D01*
X57868842Y-32233200D01*
X56073200Y-32233200D01*
X55926800Y-32233200D01*
X54131158Y-32233200D01*
X53912078Y-32564807D01*
X54031171Y-32964362D01*
X54225925Y-33333006D01*
X54488855Y-33656572D01*
X54760774Y-33881944D01*
X54698712Y-33888057D01*
X54505159Y-33946771D01*
X54326780Y-34042116D01*
X54170430Y-34170430D01*
X54042116Y-34326780D01*
X53946771Y-34505159D01*
X53888057Y-34698712D01*
X53868232Y-34900000D01*
X50781999Y-34900000D01*
X50753229Y-34805159D01*
X50657884Y-34626780D01*
X50529570Y-34470430D01*
X50373220Y-34342116D01*
X50194841Y-34246771D01*
X50001288Y-34188057D01*
X49800000Y-34168232D01*
X49329900Y-34173200D01*
X49073200Y-34429900D01*
X48926800Y-34429900D01*
X48670100Y-34173200D01*
X48200000Y-34168232D01*
X47998712Y-34188057D01*
X47805159Y-34246771D01*
X47626780Y-34342116D01*
X47470430Y-34470430D01*
X47342116Y-34626780D01*
X47246771Y-34805159D01*
X47188057Y-34998712D01*
X47168232Y-35200000D01*
X39299825Y-35200000D01*
X37266863Y-33167038D01*
X37936482Y-33167038D01*
X37981117Y-33526908D01*
X38298580Y-33696344D01*
X38642997Y-33800589D01*
X39001134Y-33835639D01*
X39359227Y-33800147D01*
X39703516Y-33695475D01*
X40018883Y-33526908D01*
X40063518Y-33167038D01*
X39000000Y-32103520D01*
X37936482Y-33167038D01*
X37266863Y-33167038D01*
X36484800Y-32384976D01*
X36484800Y-32001134D01*
X37164361Y-32001134D01*
X37199853Y-32359227D01*
X37304525Y-32703516D01*
X37473092Y-33018883D01*
X37832962Y-33063518D01*
X38896480Y-32000000D01*
X39103520Y-32000000D01*
X40167038Y-33063518D01*
X40526908Y-33018883D01*
X40696344Y-32701420D01*
X40706750Y-32667038D01*
X47936482Y-32667038D01*
X47981117Y-33026908D01*
X48298580Y-33196344D01*
X48642997Y-33300589D01*
X49001134Y-33335639D01*
X49359227Y-33300147D01*
X49703516Y-33195475D01*
X50018883Y-33026908D01*
X50063518Y-32667038D01*
X49000000Y-31603520D01*
X47936482Y-32667038D01*
X40706750Y-32667038D01*
X40800589Y-32357003D01*
X40835639Y-31998866D01*
X40800147Y-31640773D01*
X40695475Y-31296484D01*
X40526908Y-30981117D01*
X40167038Y-30936482D01*
X39103520Y-32000000D01*
X38896480Y-32000000D01*
X37832962Y-30936482D01*
X37473092Y-30981117D01*
X37303656Y-31298580D01*
X37199411Y-31642997D01*
X37164361Y-32001134D01*
X36484800Y-32001134D01*
X36484800Y-30167038D01*
X37936482Y-30167038D01*
X37977780Y-30500000D01*
X37936482Y-30832962D01*
X39000000Y-31896480D01*
X40063518Y-30832962D01*
X40022220Y-30500000D01*
X40063518Y-30167038D01*
X39000000Y-29103520D01*
X37936482Y-30167038D01*
X36484800Y-30167038D01*
X36484800Y-29001134D01*
X37164361Y-29001134D01*
X37199853Y-29359227D01*
X37304525Y-29703516D01*
X37473092Y-30018883D01*
X37832962Y-30063518D01*
X38896480Y-29000000D01*
X39103520Y-29000000D01*
X40167038Y-30063518D01*
X40526908Y-30018883D01*
X40696344Y-29701420D01*
X40800589Y-29357003D01*
X40835639Y-28998866D01*
X40800147Y-28640773D01*
X40695475Y-28296484D01*
X40526908Y-27981117D01*
X40167038Y-27936482D01*
X39103520Y-29000000D01*
X38896480Y-29000000D01*
X37832962Y-27936482D01*
X37473092Y-27981117D01*
X37303656Y-28298580D01*
X37199411Y-28642997D01*
X37164361Y-29001134D01*
X36484800Y-29001134D01*
X36484800Y-27832962D01*
X37936482Y-27832962D01*
X39000000Y-28896480D01*
X40063518Y-27832962D01*
X40018883Y-27473092D01*
X39701420Y-27303656D01*
X39357003Y-27199411D01*
X38998866Y-27164361D01*
X38640773Y-27199853D01*
X38296484Y-27304525D01*
X37981117Y-27473092D01*
X37936482Y-27832962D01*
X36484800Y-27832962D01*
X36484800Y-26772940D01*
X36491984Y-26700000D01*
X36463316Y-26408929D01*
X36463316Y-26408928D01*
X36378413Y-26129042D01*
X36240539Y-25871098D01*
X36054992Y-25645008D01*
X35998335Y-25598511D01*
X35884624Y-25484800D01*
X38597470Y-25484800D01*
X38848835Y-25534800D01*
X39151165Y-25534800D01*
X39402530Y-25484800D01*
X40384976Y-25484800D01*
X41161645Y-26261470D01*
X41161645Y-27100000D01*
X41175832Y-27244046D01*
X41217849Y-27382556D01*
X41286080Y-27510208D01*
X41377904Y-27622096D01*
X41489792Y-27713920D01*
X41617444Y-27782151D01*
X41755954Y-27824168D01*
X41900000Y-27838355D01*
X42738531Y-27838355D01*
X44898510Y-29998334D01*
X44945008Y-30054992D01*
X45171098Y-30240539D01*
X45429042Y-30378413D01*
X45708928Y-30463316D01*
X45927059Y-30484800D01*
X45927062Y-30484800D01*
X46000000Y-30491984D01*
X46072938Y-30484800D01*
X47471126Y-30484800D01*
X47303656Y-30798580D01*
X47199411Y-31142997D01*
X47164361Y-31501134D01*
X47199853Y-31859227D01*
X47304525Y-32203516D01*
X47473092Y-32518883D01*
X47832962Y-32563518D01*
X48896480Y-31500000D01*
X48882338Y-31485858D01*
X48985858Y-31382338D01*
X49000000Y-31396480D01*
X49014143Y-31382338D01*
X49117663Y-31485858D01*
X49103520Y-31500000D01*
X50167038Y-32563518D01*
X50526908Y-32518883D01*
X50696344Y-32201420D01*
X50800589Y-31857003D01*
X50835639Y-31498866D01*
X50800147Y-31140773D01*
X50695475Y-30796484D01*
X50528877Y-30484800D01*
X54527070Y-30484800D01*
X54600000Y-30491983D01*
X54672930Y-30484800D01*
X54672941Y-30484800D01*
X54708615Y-30481286D01*
X54488855Y-30663428D01*
X54225925Y-30986994D01*
X54031171Y-31355638D01*
X53912078Y-31755193D01*
X54131158Y-32086800D01*
X55926800Y-32086800D01*
X55926800Y-30291333D01*
X56073200Y-30291333D01*
X56073200Y-32086800D01*
X57868842Y-32086800D01*
X58087922Y-31755193D01*
X57968829Y-31355638D01*
X57774075Y-30986994D01*
X57511145Y-30663428D01*
X57190142Y-30397374D01*
X56823402Y-30199057D01*
X56425020Y-30076098D01*
X56404806Y-30072080D01*
X56073200Y-30291333D01*
X55926800Y-30291333D01*
X55616780Y-30086352D01*
X55654992Y-30054992D01*
X55701489Y-29998335D01*
X56998339Y-28701485D01*
X57054992Y-28654992D01*
X57101485Y-28598340D01*
X57101489Y-28598336D01*
X57240539Y-28428902D01*
X57307484Y-28303656D01*
X57378413Y-28170958D01*
X57463316Y-27891072D01*
X57484800Y-27672941D01*
X57484800Y-27672938D01*
X57491984Y-27600000D01*
X57484800Y-27527062D01*
X57484800Y-26841718D01*
X64010357Y-26841718D01*
X64022351Y-26896958D01*
X64144684Y-27265115D01*
X64336491Y-27602332D01*
X64378702Y-27651095D01*
X64317849Y-27764944D01*
X64275832Y-27903454D01*
X64261645Y-28047500D01*
X64261645Y-29952500D01*
X64275832Y-30096546D01*
X64317849Y-30235056D01*
X64386080Y-30362708D01*
X64477904Y-30474596D01*
X64589792Y-30566420D01*
X64717444Y-30634651D01*
X64855954Y-30676668D01*
X65000000Y-30690855D01*
X65591031Y-30690855D01*
X65898510Y-30998334D01*
X65945008Y-31054992D01*
X66171098Y-31240539D01*
X66429042Y-31378413D01*
X66708928Y-31463316D01*
X66900164Y-31482151D01*
X67000000Y-31491984D01*
X67072940Y-31484800D01*
X69536066Y-31484800D01*
X69536684Y-31491072D01*
X69621587Y-31770958D01*
X69689766Y-31898511D01*
X69759461Y-32028901D01*
X69898511Y-32198335D01*
X69898516Y-32198340D01*
X69945009Y-32254992D01*
X70001661Y-32301485D01*
X70998514Y-33298339D01*
X71045008Y-33354992D01*
X71101660Y-33401485D01*
X71101664Y-33401489D01*
X71271098Y-33540539D01*
X71529042Y-33678413D01*
X71808928Y-33763316D01*
X72027059Y-33784800D01*
X72027062Y-33784800D01*
X72100000Y-33791984D01*
X72172938Y-33784800D01*
X79467070Y-33784800D01*
X79540000Y-33791983D01*
X79612930Y-33784800D01*
X79612941Y-33784800D01*
X79831072Y-33763316D01*
X80110958Y-33678413D01*
X80368902Y-33540539D01*
X80594992Y-33354992D01*
X80641490Y-33298334D01*
X81065024Y-32874800D01*
X81200410Y-32874800D01*
X81593529Y-32796604D01*
X81963839Y-32643217D01*
X82297110Y-32420533D01*
X82580533Y-32137110D01*
X82803217Y-31803839D01*
X82956604Y-31433529D01*
X83034800Y-31040410D01*
X83034800Y-30639590D01*
X82956604Y-30246471D01*
X82803217Y-29876161D01*
X82580533Y-29542890D01*
X82297110Y-29259467D01*
X81963839Y-29036783D01*
X81593529Y-28883396D01*
X81200410Y-28805200D01*
X80799590Y-28805200D01*
X80406471Y-28883396D01*
X80036161Y-29036783D01*
X79702890Y-29259467D01*
X79419467Y-29542890D01*
X79196783Y-29876161D01*
X79043396Y-30246471D01*
X78965200Y-30639590D01*
X78965200Y-30774976D01*
X78924976Y-30815200D01*
X75135617Y-30815200D01*
X75196344Y-30701420D01*
X75300589Y-30357003D01*
X75335639Y-29998866D01*
X75300147Y-29640773D01*
X75195475Y-29296484D01*
X75026908Y-28981117D01*
X74667038Y-28936482D01*
X73603520Y-30000000D01*
X73617663Y-30014143D01*
X73514143Y-30117663D01*
X73500000Y-30103520D01*
X73485858Y-30117663D01*
X73382338Y-30014143D01*
X73396480Y-30000000D01*
X73382338Y-29985858D01*
X73485858Y-29882338D01*
X73500000Y-29896480D01*
X74563518Y-28832962D01*
X74518883Y-28473092D01*
X74201420Y-28303656D01*
X73857003Y-28199411D01*
X73498866Y-28164361D01*
X73140773Y-28199853D01*
X72796484Y-28304525D01*
X72481117Y-28473092D01*
X72436579Y-28832183D01*
X72413920Y-28789792D01*
X72322096Y-28677904D01*
X72210208Y-28586080D01*
X72082556Y-28517849D01*
X71944046Y-28475832D01*
X71800000Y-28461645D01*
X70200000Y-28461645D01*
X70055954Y-28475832D01*
X69926176Y-28515200D01*
X67738355Y-28515200D01*
X67738355Y-28047500D01*
X67724168Y-27903454D01*
X67682151Y-27764944D01*
X67621298Y-27651095D01*
X67663509Y-27602332D01*
X67855316Y-27265115D01*
X67977649Y-26896958D01*
X67989643Y-26841718D01*
X67768544Y-26533200D01*
X66073200Y-26533200D01*
X66073200Y-26553200D01*
X65926800Y-26553200D01*
X65926800Y-26533200D01*
X64231456Y-26533200D01*
X64010357Y-26841718D01*
X57484800Y-26841718D01*
X57484800Y-23727501D01*
X57510208Y-23713920D01*
X57622096Y-23622096D01*
X57713920Y-23510208D01*
X57727501Y-23484800D01*
X63464976Y-23484800D01*
X64315161Y-24334986D01*
X64386096Y-24568826D01*
X64542773Y-24861949D01*
X64642685Y-24983692D01*
X64590400Y-25024350D01*
X64336491Y-25317668D01*
X64144684Y-25654885D01*
X64022351Y-26023042D01*
X64010357Y-26078282D01*
X64231456Y-26386800D01*
X65926800Y-26386800D01*
X65926800Y-26366800D01*
X66073200Y-26366800D01*
X66073200Y-26386800D01*
X67768544Y-26386800D01*
X67989643Y-26078282D01*
X67977649Y-26023042D01*
X67855316Y-25654885D01*
X67663509Y-25317668D01*
X67409600Y-25024350D01*
X67357315Y-24983692D01*
X67457227Y-24861949D01*
X67613904Y-24568826D01*
X67639393Y-24484800D01*
X69926176Y-24484800D01*
X70055954Y-24524168D01*
X70200000Y-24538355D01*
X71800000Y-24538355D01*
X71944046Y-24524168D01*
X72082556Y-24482151D01*
X72210208Y-24413920D01*
X72322096Y-24322096D01*
X72413920Y-24210208D01*
X72436579Y-24167817D01*
X72481117Y-24526908D01*
X72798580Y-24696344D01*
X73142997Y-24800589D01*
X73501134Y-24835639D01*
X73859227Y-24800147D01*
X74203516Y-24695475D01*
X74518883Y-24526908D01*
X74563518Y-24167038D01*
X74506680Y-24110200D01*
X79186629Y-24110200D01*
X79186629Y-28129800D01*
X82813372Y-28129800D01*
X82813372Y-24110200D01*
X79186629Y-24110200D01*
X74506680Y-24110200D01*
X73500000Y-23103520D01*
X73485858Y-23117663D01*
X73382338Y-23014143D01*
X73396480Y-23000000D01*
X73603520Y-23000000D01*
X74667038Y-24063518D01*
X75026908Y-24018883D01*
X75196344Y-23701420D01*
X75300589Y-23357003D01*
X75335639Y-22998866D01*
X75300147Y-22640773D01*
X75195475Y-22296484D01*
X75026908Y-21981117D01*
X74667038Y-21936482D01*
X73603520Y-23000000D01*
X73396480Y-23000000D01*
X73382338Y-22985858D01*
X73485858Y-22882338D01*
X73500000Y-22896480D01*
X74563518Y-21832962D01*
X74518883Y-21473092D01*
X74201420Y-21303656D01*
X73857003Y-21199411D01*
X73498866Y-21164361D01*
X73140773Y-21199853D01*
X72796484Y-21304525D01*
X72481117Y-21473092D01*
X72436579Y-21832183D01*
X72413920Y-21789792D01*
X72322096Y-21677904D01*
X72210208Y-21586080D01*
X72082556Y-21517849D01*
X71944046Y-21475832D01*
X71800000Y-21461645D01*
X70200000Y-21461645D01*
X70055954Y-21475832D01*
X69926176Y-21515200D01*
X66992929Y-21515200D01*
X66919999Y-21508017D01*
X66847069Y-21515200D01*
X66847059Y-21515200D01*
X66628928Y-21536684D01*
X66367974Y-21615844D01*
X66349042Y-21621587D01*
X66091097Y-21759461D01*
X66038195Y-21802877D01*
X66007716Y-21827891D01*
X65181489Y-21001665D01*
X65134992Y-20945008D01*
X64908902Y-20759461D01*
X64650958Y-20621587D01*
X64371072Y-20536684D01*
X64152941Y-20515200D01*
X64152930Y-20515200D01*
X64080000Y-20508017D01*
X64007070Y-20515200D01*
X57727501Y-20515200D01*
X57713920Y-20489792D01*
X57622096Y-20377904D01*
X57510208Y-20286080D01*
X57382556Y-20217849D01*
X57244046Y-20175832D01*
X57100000Y-20161645D01*
X54900000Y-20161645D01*
X54755954Y-20175832D01*
X54617444Y-20217849D01*
X54489792Y-20286080D01*
X54377904Y-20377904D01*
X54286080Y-20489792D01*
X54217849Y-20617444D01*
X54175832Y-20755954D01*
X54161645Y-20900000D01*
X54161645Y-23100000D01*
X54175832Y-23244046D01*
X54217849Y-23382556D01*
X54286080Y-23510208D01*
X54377904Y-23622096D01*
X54489792Y-23713920D01*
X54515200Y-23727501D01*
X54515201Y-26984974D01*
X53984976Y-27515200D01*
X50073824Y-27515200D01*
X49944046Y-27475832D01*
X49800000Y-27461645D01*
X48200000Y-27461645D01*
X48055954Y-27475832D01*
X47926176Y-27515200D01*
X46615024Y-27515200D01*
X44838355Y-25738531D01*
X44838355Y-24900000D01*
X44829421Y-24809280D01*
X47794241Y-24809280D01*
X47862906Y-25189610D01*
X48214381Y-25378981D01*
X48596048Y-25496143D01*
X48993238Y-25536596D01*
X49390688Y-25498782D01*
X49773124Y-25384156D01*
X50125849Y-25197123D01*
X50137094Y-25189610D01*
X50205759Y-24809280D01*
X49000000Y-23603520D01*
X47794241Y-24809280D01*
X44829421Y-24809280D01*
X44824168Y-24755954D01*
X44782151Y-24617444D01*
X44713920Y-24489792D01*
X44622096Y-24377904D01*
X44510208Y-24286080D01*
X44382556Y-24217849D01*
X44244046Y-24175832D01*
X44100000Y-24161645D01*
X43261470Y-24161645D01*
X42593063Y-23493238D01*
X46963404Y-23493238D01*
X47001218Y-23890688D01*
X47115844Y-24273124D01*
X47302877Y-24625849D01*
X47310390Y-24637094D01*
X47690720Y-24705759D01*
X48896480Y-23500000D01*
X49103520Y-23500000D01*
X50309280Y-24705759D01*
X50689610Y-24637094D01*
X50878981Y-24285619D01*
X50996143Y-23903952D01*
X51036596Y-23506762D01*
X50998782Y-23109312D01*
X50884156Y-22726876D01*
X50697123Y-22374151D01*
X50689610Y-22362906D01*
X50309280Y-22294241D01*
X49103520Y-23500000D01*
X48896480Y-23500000D01*
X47690720Y-22294241D01*
X47310390Y-22362906D01*
X47121019Y-22714381D01*
X47003857Y-23096048D01*
X46963404Y-23493238D01*
X42593063Y-23493238D01*
X42101488Y-23001664D01*
X42054992Y-22945008D01*
X41828902Y-22759461D01*
X41570958Y-22621587D01*
X41291072Y-22536684D01*
X41072941Y-22515200D01*
X41072930Y-22515200D01*
X41000000Y-22508017D01*
X40927070Y-22515200D01*
X39402530Y-22515200D01*
X39151165Y-22465200D01*
X38848835Y-22465200D01*
X38597470Y-22515200D01*
X38226800Y-22515200D01*
X38226800Y-22190720D01*
X47794241Y-22190720D01*
X49000000Y-23396480D01*
X50205759Y-22190720D01*
X50137094Y-21810390D01*
X49785619Y-21621019D01*
X49403952Y-21503857D01*
X49006762Y-21463404D01*
X48609312Y-21501218D01*
X48226876Y-21615844D01*
X47874151Y-21802877D01*
X47862906Y-21810390D01*
X47794241Y-22190720D01*
X38226800Y-22190720D01*
X38226800Y-16838355D01*
X38738527Y-16838355D01*
X38785008Y-16894992D01*
X39011098Y-17080539D01*
X39269042Y-17218413D01*
X39548928Y-17303316D01*
X39767059Y-17324800D01*
X39767069Y-17324800D01*
X39839999Y-17331983D01*
X39912929Y-17324800D01*
X41919607Y-17324800D01*
X42130896Y-17465979D01*
X42464809Y-17604290D01*
X42819288Y-17674800D01*
X43180712Y-17674800D01*
X43535191Y-17604290D01*
X43869104Y-17465979D01*
X44169617Y-17265182D01*
X44425182Y-17009617D01*
X44625979Y-16709104D01*
X44764290Y-16375191D01*
X44834800Y-16020712D01*
X44834800Y-15829137D01*
X47265200Y-15829137D01*
X47265200Y-16170863D01*
X47331867Y-16506023D01*
X47462640Y-16821736D01*
X47652493Y-17105871D01*
X47894129Y-17347507D01*
X48178264Y-17537360D01*
X48493977Y-17668133D01*
X48829137Y-17734800D01*
X49170863Y-17734800D01*
X49506023Y-17668133D01*
X49821736Y-17537360D01*
X49900398Y-17484800D01*
X51927070Y-17484800D01*
X52000000Y-17491983D01*
X52072930Y-17484800D01*
X52072941Y-17484800D01*
X52291072Y-17463316D01*
X52570958Y-17378413D01*
X52828902Y-17240539D01*
X53054992Y-17054992D01*
X53101490Y-16998334D01*
X54158334Y-15941490D01*
X54214992Y-15894992D01*
X54400539Y-15668902D01*
X54538413Y-15410958D01*
X54623316Y-15131072D01*
X54644800Y-14912941D01*
X54644800Y-14912938D01*
X54651984Y-14840000D01*
X54644800Y-14767062D01*
X54644800Y-12402530D01*
X54694800Y-12151165D01*
X54694800Y-11848835D01*
X54635818Y-11552315D01*
X54531306Y-11300000D01*
X78668232Y-11300000D01*
X78688057Y-11501288D01*
X78746771Y-11694841D01*
X78842116Y-11873220D01*
X78970430Y-12029570D01*
X79126780Y-12157884D01*
X79305159Y-12253229D01*
X79498712Y-12311943D01*
X79700000Y-12331768D01*
X80670100Y-12326800D01*
X80926800Y-12070100D01*
X80926800Y-10073200D01*
X81073200Y-10073200D01*
X81073200Y-12070100D01*
X81329900Y-12326800D01*
X82300000Y-12331768D01*
X82501288Y-12311943D01*
X82694841Y-12253229D01*
X82873220Y-12157884D01*
X83029570Y-12029570D01*
X83157884Y-11873220D01*
X83253229Y-11694841D01*
X83311943Y-11501288D01*
X83331768Y-11300000D01*
X83326800Y-10329900D01*
X83070100Y-10073200D01*
X81073200Y-10073200D01*
X80926800Y-10073200D01*
X78929900Y-10073200D01*
X78673200Y-10329900D01*
X78668232Y-11300000D01*
X54531306Y-11300000D01*
X54520122Y-11273000D01*
X54352157Y-11021622D01*
X54138378Y-10807843D01*
X53887000Y-10639878D01*
X53607685Y-10524182D01*
X53311165Y-10465200D01*
X53008835Y-10465200D01*
X52712315Y-10524182D01*
X52433000Y-10639878D01*
X52181622Y-10807843D01*
X51967843Y-11021622D01*
X51799878Y-11273000D01*
X51684182Y-11552315D01*
X51625200Y-11848835D01*
X51625200Y-12151165D01*
X51675200Y-12402531D01*
X51675201Y-14224975D01*
X51384976Y-14515200D01*
X49900398Y-14515200D01*
X49821736Y-14462640D01*
X49506023Y-14331867D01*
X49170863Y-14265200D01*
X48829137Y-14265200D01*
X48493977Y-14331867D01*
X48178264Y-14462640D01*
X47894129Y-14652493D01*
X47652493Y-14894129D01*
X47462640Y-15178264D01*
X47331867Y-15493977D01*
X47265200Y-15829137D01*
X44834800Y-15829137D01*
X44834800Y-15659288D01*
X44764290Y-15304809D01*
X44625979Y-14970896D01*
X44484800Y-14759607D01*
X44484800Y-12402530D01*
X44534800Y-12151165D01*
X44534800Y-11848835D01*
X44484800Y-11597470D01*
X44484800Y-8700000D01*
X78668232Y-8700000D01*
X78673200Y-9670100D01*
X78929900Y-9926800D01*
X80926800Y-9926800D01*
X80926800Y-7929900D01*
X81073200Y-7929900D01*
X81073200Y-9926800D01*
X83070100Y-9926800D01*
X83326800Y-9670100D01*
X83331768Y-8700000D01*
X83311943Y-8498712D01*
X83253229Y-8305159D01*
X83157884Y-8126780D01*
X83029570Y-7970430D01*
X82873220Y-7842116D01*
X82694841Y-7746771D01*
X82501288Y-7688057D01*
X82300000Y-7668232D01*
X81329900Y-7673200D01*
X81073200Y-7929900D01*
X80926800Y-7929900D01*
X80670100Y-7673200D01*
X79700000Y-7668232D01*
X79498712Y-7688057D01*
X79305159Y-7746771D01*
X79126780Y-7842116D01*
X78970430Y-7970430D01*
X78842116Y-8126780D01*
X78746771Y-8305159D01*
X78688057Y-8498712D01*
X78668232Y-8700000D01*
X44484800Y-8700000D01*
X44484800Y-8215024D01*
X46295024Y-6404800D01*
X79607157Y-6404800D01*
X79702890Y-6500533D01*
X80036161Y-6723217D01*
X80406471Y-6876604D01*
X80799590Y-6954800D01*
X81200410Y-6954800D01*
X81593529Y-6876604D01*
X81963839Y-6723217D01*
X82297110Y-6500533D01*
X82580533Y-6217110D01*
X82803217Y-5883839D01*
X82956604Y-5513529D01*
X83034800Y-5120410D01*
X83034800Y-4719590D01*
X82956604Y-4326471D01*
X82803217Y-3956161D01*
X82580533Y-3622890D01*
X82297110Y-3339467D01*
X81963839Y-3116783D01*
X81593529Y-2963396D01*
X81200410Y-2885200D01*
X80799590Y-2885200D01*
X80406471Y-2963396D01*
X80036161Y-3116783D01*
X79702890Y-3339467D01*
X79607157Y-3435200D01*
X45752929Y-3435200D01*
X45679999Y-3428017D01*
X45607069Y-3435200D01*
X45607059Y-3435200D01*
X45388928Y-3456684D01*
X45109042Y-3541587D01*
X44851098Y-3679461D01*
X44625008Y-3865008D01*
X44578510Y-3921666D01*
X42001666Y-6498510D01*
X41945008Y-6545008D01*
X41898511Y-6601665D01*
X41793976Y-6729042D01*
X41759461Y-6771099D01*
X41621587Y-7029043D01*
X41536684Y-7308929D01*
X41515200Y-7527060D01*
X41515200Y-7527070D01*
X41508017Y-7600000D01*
X41515200Y-7672931D01*
X41515201Y-11597466D01*
X41465200Y-11848835D01*
X41465200Y-12151165D01*
X41515201Y-12402534D01*
X41515200Y-14355200D01*
X40838355Y-14355200D01*
X40838355Y-13900000D01*
X40824168Y-13755954D01*
X40782151Y-13617444D01*
X40713920Y-13489792D01*
X40622096Y-13377904D01*
X40510208Y-13286080D01*
X40484800Y-13272499D01*
X40484800Y-7172938D01*
X40491984Y-7100000D01*
X40469425Y-6870957D01*
X40463316Y-6808928D01*
X40378413Y-6529042D01*
X40240539Y-6271098D01*
X40054992Y-6045008D01*
X39998330Y-5998507D01*
X39301489Y-5301665D01*
X39254992Y-5245008D01*
X39028902Y-5059461D01*
X38770958Y-4921587D01*
X38491072Y-4836684D01*
X38272941Y-4815200D01*
X38272930Y-4815200D01*
X38200000Y-4808017D01*
X38127070Y-4815200D01*
X31787314Y-4815200D01*
X31663908Y-4764084D01*
X29501490Y-2601666D01*
X29454992Y-2545008D01*
X29228902Y-2359461D01*
X28970958Y-2221587D01*
X28691072Y-2136684D01*
X28472941Y-2115200D01*
X28472930Y-2115200D01*
X28400000Y-2108017D01*
X28327070Y-2115200D01*
X24272929Y-2115200D01*
X24199999Y-2108017D01*
X24127069Y-2115200D01*
X24127059Y-2115200D01*
X23908928Y-2136684D01*
X23629042Y-2221587D01*
X23371098Y-2359461D01*
X23201664Y-2498511D01*
X23201660Y-2498515D01*
X23145008Y-2545008D01*
X23098515Y-2601660D01*
X19501666Y-6198510D01*
X19445008Y-6245008D01*
X19259461Y-6471099D01*
X19121587Y-6729043D01*
X19036684Y-7008929D01*
X19015200Y-7227060D01*
X19015200Y-7227070D01*
X19008017Y-7300000D01*
X19015200Y-7372930D01*
X19015201Y-17884975D01*
X18384976Y-18515200D01*
X13402530Y-18515200D01*
X13151165Y-18465200D01*
X12848835Y-18465200D01*
X12597470Y-18515200D01*
X6615025Y-18515200D01*
X5484800Y-17384976D01*
X5484800Y-15402530D01*
X5534800Y-15151165D01*
X5534800Y-14848835D01*
X7465200Y-14848835D01*
X7465200Y-15151165D01*
X7524182Y-15447685D01*
X7639878Y-15727000D01*
X7807843Y-15978378D01*
X8021622Y-16192157D01*
X8273000Y-16360122D01*
X8552315Y-16475818D01*
X8848835Y-16534800D01*
X9151165Y-16534800D01*
X9402530Y-16484800D01*
X12597470Y-16484800D01*
X12848835Y-16534800D01*
X13151165Y-16534800D01*
X13447685Y-16475818D01*
X13727000Y-16360122D01*
X13978378Y-16192157D01*
X14192157Y-15978378D01*
X14360122Y-15727000D01*
X14475818Y-15447685D01*
X14534800Y-15151165D01*
X14534800Y-14848835D01*
X14475818Y-14552315D01*
X14360122Y-14273000D01*
X14192157Y-14021622D01*
X13978378Y-13807843D01*
X13727000Y-13639878D01*
X13447685Y-13524182D01*
X13151165Y-13465200D01*
X12848835Y-13465200D01*
X12597470Y-13515200D01*
X9402530Y-13515200D01*
X9151165Y-13465200D01*
X8848835Y-13465200D01*
X8552315Y-13524182D01*
X8273000Y-13639878D01*
X8021622Y-13807843D01*
X7807843Y-14021622D01*
X7639878Y-14273000D01*
X7524182Y-14552315D01*
X7465200Y-14848835D01*
X5534800Y-14848835D01*
X5475818Y-14552315D01*
X5360122Y-14273000D01*
X5192157Y-14021622D01*
X4978378Y-13807843D01*
X4727000Y-13639878D01*
X4447685Y-13524182D01*
X4151165Y-13465200D01*
X3848835Y-13465200D01*
X3552315Y-13524182D01*
X3273000Y-13639878D01*
X3021622Y-13807843D01*
X2807843Y-14021622D01*
X2639878Y-14273000D01*
X2524182Y-14552315D01*
X2465200Y-14848835D01*
X1759800Y-14848835D01*
X1759800Y-4037163D01*
X1806040Y-3565580D01*
X1932200Y-3147717D01*
X2137124Y-2762309D01*
X2413005Y-2424046D01*
X2749335Y-2145810D01*
X3133297Y-1938202D01*
X3550276Y-1809125D01*
X4019572Y-1759800D01*
X83962837Y-1759800D01*
X84434420Y-1806040D01*
%TA.AperFunction,Conductor*%
D28*
G36*
X84434420Y-1806040D02*
G01*
X84852283Y-1932200D01*
X85237691Y-2137124D01*
X85575954Y-2413005D01*
X85854190Y-2749335D01*
X86061798Y-3133297D01*
X86190875Y-3550276D01*
X86240200Y-4019572D01*
X86240201Y-47962826D01*
X86193961Y-48434415D01*
X86067800Y-48852284D01*
X85862874Y-49237694D01*
X85586995Y-49575954D01*
X85250666Y-49854190D01*
X84866699Y-50061799D01*
X84449725Y-50190875D01*
X83980427Y-50240200D01*
X4037163Y-50240200D01*
X3565585Y-50193961D01*
X3147716Y-50067800D01*
X2762306Y-49862874D01*
X2424046Y-49586995D01*
X2145810Y-49250666D01*
X1938201Y-48866699D01*
X1809125Y-48449725D01*
X1775276Y-48127668D01*
X2975852Y-48127668D01*
X3153148Y-48600642D01*
X3658491Y-48880196D01*
X4208663Y-49055791D01*
X4782521Y-49120679D01*
X5358010Y-49072366D01*
X5913016Y-48912709D01*
X6426211Y-48647843D01*
X6496852Y-48600642D01*
X6674148Y-48127668D01*
X9325852Y-48127668D01*
X9503148Y-48600642D01*
X10008491Y-48880196D01*
X10558663Y-49055791D01*
X11132521Y-49120679D01*
X11708010Y-49072366D01*
X12263016Y-48912709D01*
X12776211Y-48647843D01*
X12846852Y-48600642D01*
X13024148Y-48127668D01*
X11175000Y-46278520D01*
X9325852Y-48127668D01*
X6674148Y-48127668D01*
X4825000Y-46278520D01*
X2975852Y-48127668D01*
X1775276Y-48127668D01*
X1759800Y-47980427D01*
X1759800Y-46132521D01*
X1879321Y-46132521D01*
X1927634Y-46708010D01*
X2087291Y-47263016D01*
X2352157Y-47776211D01*
X2399358Y-47846852D01*
X2872332Y-48024148D01*
X4721480Y-46175000D01*
X2872332Y-44325852D01*
X2399358Y-44503148D01*
X2119804Y-45008491D01*
X1944209Y-45558663D01*
X1879321Y-46132521D01*
X1759800Y-46132521D01*
X1759800Y-39782521D01*
X1879321Y-39782521D01*
X1927634Y-40358010D01*
X2087291Y-40913016D01*
X2352157Y-41426211D01*
X2399358Y-41496852D01*
X2872332Y-41674148D01*
X4721480Y-39825000D01*
X2872332Y-37975852D01*
X2399358Y-38153148D01*
X2119804Y-38658491D01*
X1944209Y-39208663D01*
X1879321Y-39782521D01*
X1759800Y-39782521D01*
X1759800Y-37872332D01*
X2975852Y-37872332D01*
X4825000Y-39721480D01*
X6674148Y-37872332D01*
X9325852Y-37872332D01*
X11175000Y-39721480D01*
X13024148Y-37872332D01*
X12846852Y-37399358D01*
X12771809Y-37357844D01*
X14048591Y-37357844D01*
X14151688Y-37697718D01*
X14320247Y-38013685D01*
X14547209Y-38290696D01*
X14823852Y-38518107D01*
X15139545Y-38687178D01*
X15482156Y-38791411D01*
X15766800Y-38568635D01*
X15766800Y-37073200D01*
X15913200Y-37073200D01*
X15913200Y-38568635D01*
X16197844Y-38791411D01*
X16540455Y-38687178D01*
X16856148Y-38518107D01*
X17132791Y-38290696D01*
X17359753Y-38013685D01*
X17528312Y-37697718D01*
X17631409Y-37357844D01*
X17408393Y-37073200D01*
X15913200Y-37073200D01*
X15766800Y-37073200D01*
X14271607Y-37073200D01*
X14048591Y-37357844D01*
X12771809Y-37357844D01*
X12341509Y-37119804D01*
X11791337Y-36944209D01*
X11217479Y-36879321D01*
X10641990Y-36927634D01*
X10086984Y-37087291D01*
X9573789Y-37352157D01*
X9503148Y-37399358D01*
X9325852Y-37872332D01*
X6674148Y-37872332D01*
X6496852Y-37399358D01*
X5991509Y-37119804D01*
X5441337Y-36944209D01*
X4867479Y-36879321D01*
X4291990Y-36927634D01*
X3736984Y-37087291D01*
X3223789Y-37352157D01*
X3153148Y-37399358D01*
X2975852Y-37872332D01*
X1759800Y-37872332D01*
X1759800Y-36642156D01*
X14048591Y-36642156D01*
X14271607Y-36926800D01*
X15766800Y-36926800D01*
X15766800Y-35431365D01*
X15913200Y-35431365D01*
X15913200Y-36926800D01*
X17408393Y-36926800D01*
X17631409Y-36642156D01*
X17528312Y-36302282D01*
X17359753Y-35986315D01*
X17132791Y-35709304D01*
X16856148Y-35481893D01*
X16540455Y-35312822D01*
X16197844Y-35208589D01*
X15913200Y-35431365D01*
X15766800Y-35431365D01*
X15482156Y-35208589D01*
X15139545Y-35312822D01*
X14823852Y-35481893D01*
X14547209Y-35709304D01*
X14320247Y-35986315D01*
X14151688Y-36302282D01*
X14048591Y-36642156D01*
X1759800Y-36642156D01*
X1759800Y-33667038D01*
X9936482Y-33667038D01*
X9981117Y-34026908D01*
X10298580Y-34196344D01*
X10642997Y-34300589D01*
X11001134Y-34335639D01*
X11359227Y-34300147D01*
X11703516Y-34195475D01*
X12018883Y-34026908D01*
X12063518Y-33667038D01*
X11000000Y-32603520D01*
X9936482Y-33667038D01*
X1759800Y-33667038D01*
X1759800Y-32501134D01*
X9164361Y-32501134D01*
X9199853Y-32859227D01*
X9304525Y-33203516D01*
X9473092Y-33518883D01*
X9832962Y-33563518D01*
X10896480Y-32500000D01*
X10882338Y-32485858D01*
X10985858Y-32382338D01*
X11000000Y-32396480D01*
X11014143Y-32382338D01*
X11117663Y-32485858D01*
X11103520Y-32500000D01*
X12167038Y-33563518D01*
X12526908Y-33518883D01*
X12696344Y-33201420D01*
X12800589Y-32857003D01*
X12835639Y-32498866D01*
X12800147Y-32140773D01*
X12695475Y-31796484D01*
X12526908Y-31481117D01*
X12167817Y-31436579D01*
X12210208Y-31413920D01*
X12322096Y-31322096D01*
X12413920Y-31210208D01*
X12482151Y-31082556D01*
X12524168Y-30944046D01*
X12538355Y-30800000D01*
X12538355Y-29200000D01*
X12524168Y-29055954D01*
X12484800Y-28926176D01*
X12484800Y-27455024D01*
X13605282Y-26334543D01*
X13818378Y-26192157D01*
X14032157Y-25978378D01*
X14200122Y-25727000D01*
X14315818Y-25447685D01*
X14374800Y-25151165D01*
X14374800Y-24848835D01*
X14315818Y-24552315D01*
X14200122Y-24273000D01*
X14032157Y-24021622D01*
X13818378Y-23807843D01*
X13567000Y-23639878D01*
X13287685Y-23524182D01*
X12991165Y-23465200D01*
X12688835Y-23465200D01*
X12392315Y-23524182D01*
X12113000Y-23639878D01*
X11861622Y-23807843D01*
X11647843Y-24021622D01*
X11505457Y-24234718D01*
X10001661Y-25738515D01*
X9945009Y-25785008D01*
X9898516Y-25841660D01*
X9898511Y-25841665D01*
X9759461Y-26011099D01*
X9621587Y-26269044D01*
X9593959Y-26360122D01*
X9536685Y-26548928D01*
X9528990Y-26627059D01*
X9508017Y-26840000D01*
X9515201Y-26912940D01*
X9515200Y-28926175D01*
X9475832Y-29055954D01*
X9461645Y-29200000D01*
X9461645Y-30800000D01*
X9475832Y-30944046D01*
X9517849Y-31082556D01*
X9586080Y-31210208D01*
X9677904Y-31322096D01*
X9789792Y-31413920D01*
X9832183Y-31436579D01*
X9473092Y-31481117D01*
X9303656Y-31798580D01*
X9199411Y-32142997D01*
X9164361Y-32501134D01*
X1759800Y-32501134D01*
X1759800Y-14848835D01*
X2465200Y-14848835D01*
X2465200Y-15151165D01*
X2515200Y-15402531D01*
X2515201Y-17927060D01*
X2508017Y-18000000D01*
X2536685Y-18291071D01*
X2621587Y-18570956D01*
X2759461Y-18828901D01*
X2898511Y-18998335D01*
X2898516Y-18998340D01*
X2945009Y-19054992D01*
X3001661Y-19101485D01*
X4898515Y-20998340D01*
X4945008Y-21054992D01*
X5001660Y-21101485D01*
X5001664Y-21101489D01*
X5086485Y-21171099D01*
X5171098Y-21240539D01*
X5429042Y-21378413D01*
X5708928Y-21463316D01*
X5927059Y-21484800D01*
X5927069Y-21484800D01*
X5999999Y-21491983D01*
X6072929Y-21484800D01*
X12597470Y-21484800D01*
X12848835Y-21534800D01*
X13151165Y-21534800D01*
X13402530Y-21484800D01*
X18927070Y-21484800D01*
X19000000Y-21491983D01*
X19072930Y-21484800D01*
X19072941Y-21484800D01*
X19291072Y-21463316D01*
X19570958Y-21378413D01*
X19828902Y-21240539D01*
X20054992Y-21054992D01*
X20101490Y-20998334D01*
X21498334Y-19601490D01*
X21554992Y-19554992D01*
X21675200Y-19408518D01*
X21675200Y-19488741D01*
X21670071Y-19498336D01*
X21621588Y-19589042D01*
X21536685Y-19868928D01*
X21515201Y-20087059D01*
X21508017Y-20160000D01*
X21515201Y-20232940D01*
X21515200Y-24597470D01*
X21465200Y-24848835D01*
X21465200Y-25151165D01*
X21524182Y-25447685D01*
X21639878Y-25727000D01*
X21807843Y-25978378D01*
X22021622Y-26192157D01*
X22273000Y-26360122D01*
X22552315Y-26475818D01*
X22848835Y-26534800D01*
X23151165Y-26534800D01*
X23447685Y-26475818D01*
X23727000Y-26360122D01*
X23978378Y-26192157D01*
X24192157Y-25978378D01*
X24360122Y-25727000D01*
X24475818Y-25447685D01*
X24515201Y-25249697D01*
X24515201Y-36597465D01*
X24465200Y-36848835D01*
X24465200Y-37151165D01*
X24515200Y-37402530D01*
X24515201Y-41814264D01*
X24457723Y-41871742D01*
X24413920Y-41789792D01*
X24322096Y-41677904D01*
X24210208Y-41586080D01*
X24082556Y-41517849D01*
X23944046Y-41475832D01*
X23800000Y-41461645D01*
X22200000Y-41461645D01*
X22055954Y-41475832D01*
X21926176Y-41515200D01*
X16072930Y-41515200D01*
X16000000Y-41508017D01*
X15927070Y-41515200D01*
X13551695Y-41515200D01*
X13600642Y-41496852D01*
X13880196Y-40991509D01*
X14055791Y-40441337D01*
X14120679Y-39867479D01*
X14072366Y-39291990D01*
X13912709Y-38736984D01*
X13647843Y-38223789D01*
X13600642Y-38153148D01*
X13127668Y-37975852D01*
X11278520Y-39825000D01*
X11292663Y-39839143D01*
X11189143Y-39942663D01*
X11175000Y-39928520D01*
X11160858Y-39942663D01*
X11057338Y-39839143D01*
X11071480Y-39825000D01*
X9222332Y-37975852D01*
X8749358Y-38153148D01*
X8469804Y-38658491D01*
X8294209Y-39208663D01*
X8229321Y-39782521D01*
X8277634Y-40358010D01*
X8318883Y-40501401D01*
X8247489Y-40487200D01*
X7752511Y-40487200D01*
X7686994Y-40500232D01*
X7705791Y-40441337D01*
X7770679Y-39867479D01*
X7722366Y-39291990D01*
X7562709Y-38736984D01*
X7297843Y-38223789D01*
X7250642Y-38153148D01*
X6777668Y-37975852D01*
X4928520Y-39825000D01*
X4942663Y-39839143D01*
X4839143Y-39942663D01*
X4825000Y-39928520D01*
X2975852Y-41777668D01*
X3153148Y-42250642D01*
X3658491Y-42530196D01*
X4208663Y-42705791D01*
X4782521Y-42770679D01*
X5358010Y-42722366D01*
X5501401Y-42681117D01*
X5487200Y-42752511D01*
X5487200Y-43247489D01*
X5500232Y-43313006D01*
X5441337Y-43294209D01*
X4867479Y-43229321D01*
X4291990Y-43277634D01*
X3736984Y-43437291D01*
X3223789Y-43702157D01*
X3153148Y-43749358D01*
X2975852Y-44222332D01*
X4825000Y-46071480D01*
X4839143Y-46057338D01*
X4942663Y-46160858D01*
X4928520Y-46175000D01*
X6777668Y-48024148D01*
X7250642Y-47846852D01*
X7530196Y-47341509D01*
X7705791Y-46791337D01*
X7770679Y-46217479D01*
X7722366Y-45641990D01*
X7681117Y-45498599D01*
X7752511Y-45512800D01*
X8247489Y-45512800D01*
X8313006Y-45499768D01*
X8294209Y-45558663D01*
X8229321Y-46132521D01*
X8277634Y-46708010D01*
X8437291Y-47263016D01*
X8702157Y-47776211D01*
X8749358Y-47846852D01*
X9222332Y-48024148D01*
X11071480Y-46175000D01*
X11057338Y-46160858D01*
X11160858Y-46057338D01*
X11175000Y-46071480D01*
X11189143Y-46057338D01*
X11292663Y-46160858D01*
X11278520Y-46175000D01*
X13127668Y-48024148D01*
X13600642Y-47846852D01*
X13880196Y-47341509D01*
X14055791Y-46791337D01*
X14120679Y-46217479D01*
X14072366Y-45641990D01*
X13912709Y-45086984D01*
X13647843Y-44573789D01*
X13600642Y-44503148D01*
X13551695Y-44484800D01*
X15384976Y-44484800D01*
X15515201Y-44615025D01*
X15515200Y-47597470D01*
X15465200Y-47848835D01*
X15465200Y-48151165D01*
X15524182Y-48447685D01*
X15639878Y-48727000D01*
X15807843Y-48978378D01*
X16021622Y-49192157D01*
X16273000Y-49360122D01*
X16552315Y-49475818D01*
X16848835Y-49534800D01*
X17151165Y-49534800D01*
X17447685Y-49475818D01*
X17727000Y-49360122D01*
X17978378Y-49192157D01*
X18192157Y-48978378D01*
X18360122Y-48727000D01*
X18475818Y-48447685D01*
X18493688Y-48357844D01*
X25368591Y-48357844D01*
X25471688Y-48697718D01*
X25640247Y-49013685D01*
X25867209Y-49290696D01*
X26143852Y-49518107D01*
X26459545Y-49687178D01*
X26802156Y-49791411D01*
X27086800Y-49568635D01*
X27086800Y-48073200D01*
X27233200Y-48073200D01*
X27233200Y-49568635D01*
X27517844Y-49791411D01*
X27860455Y-49687178D01*
X28176148Y-49518107D01*
X28452791Y-49290696D01*
X28679753Y-49013685D01*
X28848312Y-48697718D01*
X28951409Y-48357844D01*
X28728393Y-48073200D01*
X27233200Y-48073200D01*
X27086800Y-48073200D01*
X25591607Y-48073200D01*
X25368591Y-48357844D01*
X18493688Y-48357844D01*
X18534800Y-48151165D01*
X18534800Y-47848835D01*
X18493689Y-47642156D01*
X25368591Y-47642156D01*
X25591607Y-47926800D01*
X27086800Y-47926800D01*
X27086800Y-46431365D01*
X27233200Y-46431365D01*
X27233200Y-47926800D01*
X28728393Y-47926800D01*
X28951409Y-47642156D01*
X28848312Y-47302282D01*
X28679753Y-46986315D01*
X28452791Y-46709304D01*
X28176148Y-46481893D01*
X27860455Y-46312822D01*
X27517844Y-46208589D01*
X27233200Y-46431365D01*
X27086800Y-46431365D01*
X26802156Y-46208589D01*
X26459545Y-46312822D01*
X26143852Y-46481893D01*
X25867209Y-46709304D01*
X25640247Y-46986315D01*
X25471688Y-47302282D01*
X25368591Y-47642156D01*
X18493689Y-47642156D01*
X18484800Y-47597470D01*
X18484800Y-44484800D01*
X21926176Y-44484800D01*
X22055954Y-44524168D01*
X22200000Y-44538355D01*
X23800000Y-44538355D01*
X23944046Y-44524168D01*
X24082556Y-44482151D01*
X24210208Y-44413920D01*
X24322096Y-44322096D01*
X24413920Y-44210208D01*
X24457723Y-44128258D01*
X24521622Y-44192157D01*
X24773000Y-44360122D01*
X25052315Y-44475818D01*
X25348835Y-44534800D01*
X25651165Y-44534800D01*
X25947685Y-44475818D01*
X26227000Y-44360122D01*
X26478378Y-44192157D01*
X26692157Y-43978378D01*
X26834546Y-43765278D01*
X26998330Y-43601494D01*
X27054992Y-43554992D01*
X27240539Y-43328902D01*
X27378413Y-43070958D01*
X27463316Y-42791072D01*
X27484800Y-42572941D01*
X27484800Y-42572938D01*
X27491984Y-42500000D01*
X27484800Y-42427062D01*
X27484800Y-37402530D01*
X27534800Y-37151165D01*
X27534800Y-36848835D01*
X27484800Y-36597470D01*
X27484800Y-23226800D01*
X29426976Y-23226800D01*
X33515200Y-27315024D01*
X33515201Y-32927060D01*
X33508017Y-33000000D01*
X33515201Y-33072940D01*
X33515201Y-33072941D01*
X33536685Y-33291072D01*
X33556075Y-33354992D01*
X33621587Y-33570956D01*
X33759461Y-33828901D01*
X33898511Y-33998335D01*
X33898516Y-33998340D01*
X33945009Y-34054992D01*
X34001661Y-34101485D01*
X37665457Y-37765282D01*
X37807843Y-37978378D01*
X38021622Y-38192157D01*
X38234721Y-38334545D01*
X39398510Y-39498334D01*
X39445008Y-39554992D01*
X39671098Y-39740539D01*
X39929042Y-39878413D01*
X40208928Y-39963316D01*
X40427059Y-39984800D01*
X40427069Y-39984800D01*
X40499999Y-39991983D01*
X40572929Y-39984800D01*
X47515200Y-39984800D01*
X47515201Y-44927060D01*
X47508017Y-45000000D01*
X47515201Y-45072940D01*
X47515201Y-45072941D01*
X47536685Y-45291072D01*
X47548161Y-45328902D01*
X47621587Y-45570956D01*
X47759461Y-45828901D01*
X47898511Y-45998335D01*
X47898516Y-45998340D01*
X47945009Y-46054992D01*
X48001661Y-46101485D01*
X49058510Y-47158334D01*
X49105008Y-47214992D01*
X49331098Y-47400539D01*
X49589042Y-47538413D01*
X49868928Y-47623316D01*
X50087059Y-47644800D01*
X50087062Y-47644800D01*
X50160000Y-47651984D01*
X50232938Y-47644800D01*
X54919607Y-47644800D01*
X55130896Y-47785979D01*
X55464809Y-47924290D01*
X55819288Y-47994800D01*
X56180712Y-47994800D01*
X56393369Y-47952500D01*
X63968232Y-47952500D01*
X63988057Y-48153788D01*
X64046771Y-48347341D01*
X64142116Y-48525720D01*
X64270430Y-48682070D01*
X64426780Y-48810384D01*
X64605159Y-48905729D01*
X64798712Y-48964443D01*
X65000000Y-48984268D01*
X65670100Y-48979300D01*
X65926800Y-48722600D01*
X65926800Y-47073200D01*
X66073200Y-47073200D01*
X66073200Y-48722600D01*
X66329900Y-48979300D01*
X67000000Y-48984268D01*
X67201288Y-48964443D01*
X67394841Y-48905729D01*
X67573220Y-48810384D01*
X67729570Y-48682070D01*
X67857884Y-48525720D01*
X67953229Y-48347341D01*
X68011943Y-48153788D01*
X68031768Y-47952500D01*
X68030552Y-47800000D01*
X69968232Y-47800000D01*
X69988057Y-48001288D01*
X70046771Y-48194841D01*
X70142116Y-48373220D01*
X70270430Y-48529570D01*
X70426780Y-48657884D01*
X70605159Y-48753229D01*
X70798712Y-48811943D01*
X71000000Y-48831768D01*
X71470100Y-48826800D01*
X71726800Y-48570100D01*
X71726800Y-47073200D01*
X71873200Y-47073200D01*
X71873200Y-48570100D01*
X72129900Y-48826800D01*
X72600000Y-48831768D01*
X72801288Y-48811943D01*
X72994841Y-48753229D01*
X73173220Y-48657884D01*
X73329570Y-48529570D01*
X73457884Y-48373220D01*
X73553229Y-48194841D01*
X73611943Y-48001288D01*
X73631768Y-47800000D01*
X73626800Y-47329900D01*
X73370100Y-47073200D01*
X71873200Y-47073200D01*
X71726800Y-47073200D01*
X70229900Y-47073200D01*
X69973200Y-47329900D01*
X69968232Y-47800000D01*
X68030552Y-47800000D01*
X68026800Y-47329900D01*
X67770100Y-47073200D01*
X66073200Y-47073200D01*
X65926800Y-47073200D01*
X64229900Y-47073200D01*
X63973200Y-47329900D01*
X63968232Y-47952500D01*
X56393369Y-47952500D01*
X56535191Y-47924290D01*
X56869104Y-47785979D01*
X57169617Y-47585182D01*
X57425182Y-47329617D01*
X57625979Y-47029104D01*
X57764290Y-46695191D01*
X57813865Y-46445959D01*
X60855024Y-43404800D01*
X64635716Y-43404800D01*
X64542773Y-43518051D01*
X64386096Y-43811174D01*
X64289614Y-44129231D01*
X64257036Y-44460000D01*
X64289614Y-44790769D01*
X64386096Y-45108826D01*
X64428724Y-45188577D01*
X64426780Y-45189616D01*
X64270430Y-45317930D01*
X64142116Y-45474280D01*
X64046771Y-45652659D01*
X63988057Y-45846212D01*
X63968232Y-46047500D01*
X63973200Y-46670100D01*
X64229900Y-46926800D01*
X65926800Y-46926800D01*
X65926800Y-46906800D01*
X66073200Y-46906800D01*
X66073200Y-46926800D01*
X67770100Y-46926800D01*
X68026800Y-46670100D01*
X68031768Y-46047500D01*
X68021653Y-45944800D01*
X70004411Y-45944800D01*
X69988057Y-45998712D01*
X69968232Y-46200000D01*
X69973200Y-46670100D01*
X70229900Y-46926800D01*
X71726800Y-46926800D01*
X71726800Y-46906800D01*
X71873200Y-46906800D01*
X71873200Y-46926800D01*
X73370100Y-46926800D01*
X73626800Y-46670100D01*
X73631768Y-46200000D01*
X73611943Y-45998712D01*
X73607723Y-45984800D01*
X77427070Y-45984800D01*
X77500000Y-45991983D01*
X77572930Y-45984800D01*
X77572941Y-45984800D01*
X77791072Y-45963316D01*
X78070958Y-45878413D01*
X78328902Y-45740539D01*
X78554992Y-45554992D01*
X78601490Y-45498334D01*
X79186629Y-44913195D01*
X79186629Y-47129800D01*
X82813372Y-47129800D01*
X82813372Y-43110200D01*
X80989624Y-43110200D01*
X81061469Y-43038355D01*
X82300000Y-43038355D01*
X82444046Y-43024168D01*
X82582556Y-42982151D01*
X82710208Y-42913920D01*
X82822096Y-42822096D01*
X82913920Y-42710208D01*
X82982151Y-42582556D01*
X83024168Y-42444046D01*
X83038355Y-42300000D01*
X83038355Y-39700000D01*
X83024168Y-39555954D01*
X82982151Y-39417444D01*
X82913920Y-39289792D01*
X82822096Y-39177904D01*
X82710208Y-39086080D01*
X82582556Y-39017849D01*
X82444046Y-38975832D01*
X82300000Y-38961645D01*
X79700000Y-38961645D01*
X79555954Y-38975832D01*
X79417444Y-39017849D01*
X79289792Y-39086080D01*
X79177904Y-39177904D01*
X79086080Y-39289792D01*
X79017849Y-39417444D01*
X78975832Y-39555954D01*
X78961645Y-39700000D01*
X78961645Y-40938531D01*
X76884976Y-43015200D01*
X72202530Y-43015200D01*
X71951165Y-42965200D01*
X71648835Y-42965200D01*
X71598562Y-42975200D01*
X67364284Y-42975200D01*
X67457227Y-42861949D01*
X67613904Y-42568826D01*
X67684839Y-42334985D01*
X69535024Y-40484800D01*
X70097470Y-40484800D01*
X70348835Y-40534800D01*
X70651165Y-40534800D01*
X70947685Y-40475818D01*
X71227000Y-40360122D01*
X71306664Y-40306893D01*
X71342116Y-40373220D01*
X71470430Y-40529570D01*
X71626780Y-40657884D01*
X71805159Y-40753229D01*
X71998712Y-40811943D01*
X72200000Y-40831768D01*
X72670100Y-40826800D01*
X72926800Y-40570100D01*
X72926800Y-39073200D01*
X73073200Y-39073200D01*
X73073200Y-40570100D01*
X73329900Y-40826800D01*
X73800000Y-40831768D01*
X74001288Y-40811943D01*
X74194841Y-40753229D01*
X74373220Y-40657884D01*
X74529570Y-40529570D01*
X74657884Y-40373220D01*
X74753229Y-40194841D01*
X74811943Y-40001288D01*
X74831768Y-39800000D01*
X74826800Y-39329900D01*
X74570100Y-39073200D01*
X73073200Y-39073200D01*
X72926800Y-39073200D01*
X72906800Y-39073200D01*
X72906800Y-38926800D01*
X72926800Y-38926800D01*
X72926800Y-37429900D01*
X73073200Y-37429900D01*
X73073200Y-38926800D01*
X74570100Y-38926800D01*
X74826800Y-38670100D01*
X74831768Y-38200000D01*
X74811943Y-37998712D01*
X74753229Y-37805159D01*
X74657884Y-37626780D01*
X74529570Y-37470430D01*
X74495650Y-37442592D01*
X79580929Y-37442592D01*
X79685617Y-37853627D01*
X80088104Y-38072896D01*
X80525636Y-38209431D01*
X80981397Y-38257984D01*
X81437872Y-38216689D01*
X81877520Y-38087134D01*
X82283446Y-37874298D01*
X82314383Y-37853627D01*
X82419071Y-37442592D01*
X81000000Y-36023520D01*
X79580929Y-37442592D01*
X74495650Y-37442592D01*
X74373220Y-37342116D01*
X74194841Y-37246771D01*
X74001288Y-37188057D01*
X73800000Y-37168232D01*
X73329900Y-37173200D01*
X73073200Y-37429900D01*
X72926800Y-37429900D01*
X72670100Y-37173200D01*
X72200000Y-37168232D01*
X71998712Y-37188057D01*
X71805159Y-37246771D01*
X71626780Y-37342116D01*
X71470430Y-37470430D01*
X71342116Y-37626780D01*
X71306664Y-37693107D01*
X71227000Y-37639878D01*
X70947685Y-37524182D01*
X70651165Y-37465200D01*
X70348835Y-37465200D01*
X70097470Y-37515200D01*
X68992940Y-37515200D01*
X68920000Y-37508016D01*
X68847059Y-37515200D01*
X68628928Y-37536684D01*
X68349042Y-37621587D01*
X68091098Y-37759461D01*
X67865008Y-37945008D01*
X67818510Y-38001666D01*
X65537515Y-40282661D01*
X65303674Y-40353596D01*
X65151003Y-40435200D01*
X60312940Y-40435200D01*
X60240000Y-40428016D01*
X60167060Y-40435200D01*
X60167059Y-40435200D01*
X59948928Y-40456684D01*
X59669042Y-40541587D01*
X59615698Y-40570100D01*
X59411098Y-40679460D01*
X59261308Y-40802390D01*
X59185008Y-40865008D01*
X59138511Y-40921665D01*
X55714041Y-44346135D01*
X55464809Y-44395710D01*
X55130896Y-44534021D01*
X54919607Y-44675200D01*
X50775024Y-44675200D01*
X50484800Y-44384976D01*
X50484800Y-38902530D01*
X50534800Y-38651165D01*
X50534800Y-38348835D01*
X50475818Y-38052315D01*
X50360122Y-37773000D01*
X50306893Y-37693336D01*
X50373220Y-37657884D01*
X50529570Y-37529570D01*
X50657884Y-37373220D01*
X50753229Y-37194841D01*
X50781998Y-37100000D01*
X53868232Y-37100000D01*
X53888057Y-37301288D01*
X53946771Y-37494841D01*
X54042116Y-37673220D01*
X54170430Y-37829570D01*
X54326780Y-37957884D01*
X54505159Y-38053229D01*
X54698712Y-38111943D01*
X54900000Y-38131768D01*
X55670100Y-38126800D01*
X55926800Y-37870100D01*
X55926800Y-36073200D01*
X56073200Y-36073200D01*
X56073200Y-37870100D01*
X56329900Y-38126800D01*
X57100000Y-38131768D01*
X57301288Y-38111943D01*
X57494841Y-38053229D01*
X57673220Y-37957884D01*
X57829570Y-37829570D01*
X57957884Y-37673220D01*
X58053229Y-37494841D01*
X58111943Y-37301288D01*
X58131768Y-37100000D01*
X58126800Y-36329900D01*
X57870100Y-36073200D01*
X56073200Y-36073200D01*
X55926800Y-36073200D01*
X54129900Y-36073200D01*
X53873200Y-36329900D01*
X53868232Y-37100000D01*
X50781998Y-37100000D01*
X50811943Y-37001288D01*
X50831768Y-36800000D01*
X50826800Y-36329900D01*
X50570100Y-36073200D01*
X49073200Y-36073200D01*
X49073200Y-36093200D01*
X48926800Y-36093200D01*
X48926800Y-36073200D01*
X47429900Y-36073200D01*
X47173200Y-36329900D01*
X47168232Y-36800000D01*
X47188057Y-37001288D01*
X47192277Y-37015200D01*
X41115024Y-37015200D01*
X40334545Y-36234721D01*
X40192157Y-36021622D01*
X39978378Y-35807843D01*
X39765282Y-35665457D01*
X39299825Y-35200000D01*
X47168232Y-35200000D01*
X47173200Y-35670100D01*
X47429900Y-35926800D01*
X48926800Y-35926800D01*
X48926800Y-34429900D01*
X49073200Y-34429900D01*
X49073200Y-35926800D01*
X50570100Y-35926800D01*
X50826800Y-35670100D01*
X50831768Y-35200000D01*
X50811943Y-34998712D01*
X50781999Y-34900000D01*
X53868232Y-34900000D01*
X53873200Y-35670100D01*
X54129900Y-35926800D01*
X55926800Y-35926800D01*
X55926800Y-34129900D01*
X55865860Y-34068960D01*
X55926800Y-34028667D01*
X55926800Y-32233200D01*
X56073200Y-32233200D01*
X56073200Y-34028667D01*
X56134140Y-34068960D01*
X56073200Y-34129900D01*
X56073200Y-35926800D01*
X57870100Y-35926800D01*
X57895503Y-35901397D01*
X78662016Y-35901397D01*
X78703311Y-36357872D01*
X78832866Y-36797520D01*
X79045702Y-37203446D01*
X79066373Y-37234383D01*
X79477408Y-37339071D01*
X80896480Y-35920000D01*
X81103520Y-35920000D01*
X82522592Y-37339071D01*
X82933627Y-37234383D01*
X83152896Y-36831896D01*
X83289431Y-36394364D01*
X83337984Y-35938603D01*
X83296689Y-35482128D01*
X83167134Y-35042480D01*
X82954298Y-34636554D01*
X82933627Y-34605617D01*
X82522592Y-34500929D01*
X81103520Y-35920000D01*
X80896480Y-35920000D01*
X79477408Y-34500929D01*
X79066373Y-34605617D01*
X78847104Y-35008104D01*
X78710569Y-35445636D01*
X78662016Y-35901397D01*
X57895503Y-35901397D01*
X58126800Y-35670100D01*
X58131768Y-34900000D01*
X58111943Y-34698712D01*
X58053229Y-34505159D01*
X57995636Y-34397408D01*
X79580929Y-34397408D01*
X81000000Y-35816480D01*
X82419071Y-34397408D01*
X82314383Y-33986373D01*
X81911896Y-33767104D01*
X81474364Y-33630569D01*
X81018603Y-33582016D01*
X80562128Y-33623311D01*
X80122480Y-33752866D01*
X79716554Y-33965702D01*
X79685617Y-33986373D01*
X79580929Y-34397408D01*
X57995636Y-34397408D01*
X57957884Y-34326780D01*
X57829570Y-34170430D01*
X57673220Y-34042116D01*
X57494841Y-33946771D01*
X57301288Y-33888057D01*
X57239226Y-33881944D01*
X57511145Y-33656572D01*
X57774075Y-33333006D01*
X57968829Y-32964362D01*
X58087922Y-32564807D01*
X57868842Y-32233200D01*
X56073200Y-32233200D01*
X55926800Y-32233200D01*
X54131158Y-32233200D01*
X53912078Y-32564807D01*
X54031171Y-32964362D01*
X54225925Y-33333006D01*
X54488855Y-33656572D01*
X54760774Y-33881944D01*
X54698712Y-33888057D01*
X54505159Y-33946771D01*
X54326780Y-34042116D01*
X54170430Y-34170430D01*
X54042116Y-34326780D01*
X53946771Y-34505159D01*
X53888057Y-34698712D01*
X53868232Y-34900000D01*
X50781999Y-34900000D01*
X50753229Y-34805159D01*
X50657884Y-34626780D01*
X50529570Y-34470430D01*
X50373220Y-34342116D01*
X50194841Y-34246771D01*
X50001288Y-34188057D01*
X49800000Y-34168232D01*
X49329900Y-34173200D01*
X49073200Y-34429900D01*
X48926800Y-34429900D01*
X48670100Y-34173200D01*
X48200000Y-34168232D01*
X47998712Y-34188057D01*
X47805159Y-34246771D01*
X47626780Y-34342116D01*
X47470430Y-34470430D01*
X47342116Y-34626780D01*
X47246771Y-34805159D01*
X47188057Y-34998712D01*
X47168232Y-35200000D01*
X39299825Y-35200000D01*
X37266863Y-33167038D01*
X37936482Y-33167038D01*
X37981117Y-33526908D01*
X38298580Y-33696344D01*
X38642997Y-33800589D01*
X39001134Y-33835639D01*
X39359227Y-33800147D01*
X39703516Y-33695475D01*
X40018883Y-33526908D01*
X40063518Y-33167038D01*
X39000000Y-32103520D01*
X37936482Y-33167038D01*
X37266863Y-33167038D01*
X36484800Y-32384976D01*
X36484800Y-32001134D01*
X37164361Y-32001134D01*
X37199853Y-32359227D01*
X37304525Y-32703516D01*
X37473092Y-33018883D01*
X37832962Y-33063518D01*
X38896480Y-32000000D01*
X39103520Y-32000000D01*
X40167038Y-33063518D01*
X40526908Y-33018883D01*
X40696344Y-32701420D01*
X40706750Y-32667038D01*
X47936482Y-32667038D01*
X47981117Y-33026908D01*
X48298580Y-33196344D01*
X48642997Y-33300589D01*
X49001134Y-33335639D01*
X49359227Y-33300147D01*
X49703516Y-33195475D01*
X50018883Y-33026908D01*
X50063518Y-32667038D01*
X49000000Y-31603520D01*
X47936482Y-32667038D01*
X40706750Y-32667038D01*
X40800589Y-32357003D01*
X40835639Y-31998866D01*
X40800147Y-31640773D01*
X40695475Y-31296484D01*
X40526908Y-30981117D01*
X40167038Y-30936482D01*
X39103520Y-32000000D01*
X38896480Y-32000000D01*
X37832962Y-30936482D01*
X37473092Y-30981117D01*
X37303656Y-31298580D01*
X37199411Y-31642997D01*
X37164361Y-32001134D01*
X36484800Y-32001134D01*
X36484800Y-30167038D01*
X37936482Y-30167038D01*
X37977780Y-30500000D01*
X37936482Y-30832962D01*
X39000000Y-31896480D01*
X40063518Y-30832962D01*
X40022220Y-30500000D01*
X40063518Y-30167038D01*
X39000000Y-29103520D01*
X37936482Y-30167038D01*
X36484800Y-30167038D01*
X36484800Y-29001134D01*
X37164361Y-29001134D01*
X37199853Y-29359227D01*
X37304525Y-29703516D01*
X37473092Y-30018883D01*
X37832962Y-30063518D01*
X38896480Y-29000000D01*
X39103520Y-29000000D01*
X40167038Y-30063518D01*
X40526908Y-30018883D01*
X40696344Y-29701420D01*
X40800589Y-29357003D01*
X40835639Y-28998866D01*
X40800147Y-28640773D01*
X40695475Y-28296484D01*
X40526908Y-27981117D01*
X40167038Y-27936482D01*
X39103520Y-29000000D01*
X38896480Y-29000000D01*
X37832962Y-27936482D01*
X37473092Y-27981117D01*
X37303656Y-28298580D01*
X37199411Y-28642997D01*
X37164361Y-29001134D01*
X36484800Y-29001134D01*
X36484800Y-27832962D01*
X37936482Y-27832962D01*
X39000000Y-28896480D01*
X40063518Y-27832962D01*
X40018883Y-27473092D01*
X39701420Y-27303656D01*
X39357003Y-27199411D01*
X38998866Y-27164361D01*
X38640773Y-27199853D01*
X38296484Y-27304525D01*
X37981117Y-27473092D01*
X37936482Y-27832962D01*
X36484800Y-27832962D01*
X36484800Y-26772940D01*
X36491984Y-26700000D01*
X36463316Y-26408929D01*
X36463316Y-26408928D01*
X36378413Y-26129042D01*
X36240539Y-25871098D01*
X36054992Y-25645008D01*
X35998335Y-25598511D01*
X35884624Y-25484800D01*
X38597470Y-25484800D01*
X38848835Y-25534800D01*
X39151165Y-25534800D01*
X39402530Y-25484800D01*
X40384976Y-25484800D01*
X41161645Y-26261470D01*
X41161645Y-27100000D01*
X41175832Y-27244046D01*
X41217849Y-27382556D01*
X41286080Y-27510208D01*
X41377904Y-27622096D01*
X41489792Y-27713920D01*
X41617444Y-27782151D01*
X41755954Y-27824168D01*
X41900000Y-27838355D01*
X42738531Y-27838355D01*
X44898510Y-29998334D01*
X44945008Y-30054992D01*
X45171098Y-30240539D01*
X45429042Y-30378413D01*
X45708928Y-30463316D01*
X45927059Y-30484800D01*
X45927062Y-30484800D01*
X46000000Y-30491984D01*
X46072938Y-30484800D01*
X47471126Y-30484800D01*
X47303656Y-30798580D01*
X47199411Y-31142997D01*
X47164361Y-31501134D01*
X47199853Y-31859227D01*
X47304525Y-32203516D01*
X47473092Y-32518883D01*
X47832962Y-32563518D01*
X48896480Y-31500000D01*
X48882338Y-31485858D01*
X48985858Y-31382338D01*
X49000000Y-31396480D01*
X49014143Y-31382338D01*
X49117663Y-31485858D01*
X49103520Y-31500000D01*
X50167038Y-32563518D01*
X50526908Y-32518883D01*
X50696344Y-32201420D01*
X50800589Y-31857003D01*
X50835639Y-31498866D01*
X50800147Y-31140773D01*
X50695475Y-30796484D01*
X50528877Y-30484800D01*
X54527070Y-30484800D01*
X54600000Y-30491983D01*
X54672930Y-30484800D01*
X54672941Y-30484800D01*
X54708615Y-30481286D01*
X54488855Y-30663428D01*
X54225925Y-30986994D01*
X54031171Y-31355638D01*
X53912078Y-31755193D01*
X54131158Y-32086800D01*
X55926800Y-32086800D01*
X55926800Y-30291333D01*
X56073200Y-30291333D01*
X56073200Y-32086800D01*
X57868842Y-32086800D01*
X58087922Y-31755193D01*
X57968829Y-31355638D01*
X57774075Y-30986994D01*
X57511145Y-30663428D01*
X57190142Y-30397374D01*
X56823402Y-30199057D01*
X56425020Y-30076098D01*
X56404806Y-30072080D01*
X56073200Y-30291333D01*
X55926800Y-30291333D01*
X55616780Y-30086352D01*
X55654992Y-30054992D01*
X55701489Y-29998335D01*
X56998339Y-28701485D01*
X57054992Y-28654992D01*
X57101485Y-28598340D01*
X57101489Y-28598336D01*
X57240539Y-28428902D01*
X57307484Y-28303656D01*
X57378413Y-28170958D01*
X57463316Y-27891072D01*
X57484800Y-27672941D01*
X57484800Y-27672938D01*
X57491984Y-27600000D01*
X57484800Y-27527062D01*
X57484800Y-26841718D01*
X64010357Y-26841718D01*
X64022351Y-26896958D01*
X64144684Y-27265115D01*
X64336491Y-27602332D01*
X64378702Y-27651095D01*
X64317849Y-27764944D01*
X64275832Y-27903454D01*
X64261645Y-28047500D01*
X64261645Y-29952500D01*
X64275832Y-30096546D01*
X64317849Y-30235056D01*
X64386080Y-30362708D01*
X64477904Y-30474596D01*
X64589792Y-30566420D01*
X64717444Y-30634651D01*
X64855954Y-30676668D01*
X65000000Y-30690855D01*
X65591031Y-30690855D01*
X65898510Y-30998334D01*
X65945008Y-31054992D01*
X66171098Y-31240539D01*
X66429042Y-31378413D01*
X66708928Y-31463316D01*
X66900164Y-31482151D01*
X67000000Y-31491984D01*
X67072940Y-31484800D01*
X69536066Y-31484800D01*
X69536684Y-31491072D01*
X69621587Y-31770958D01*
X69689766Y-31898511D01*
X69759461Y-32028901D01*
X69898511Y-32198335D01*
X69898516Y-32198340D01*
X69945009Y-32254992D01*
X70001661Y-32301485D01*
X70998514Y-33298339D01*
X71045008Y-33354992D01*
X71101660Y-33401485D01*
X71101664Y-33401489D01*
X71271098Y-33540539D01*
X71529042Y-33678413D01*
X71808928Y-33763316D01*
X72027059Y-33784800D01*
X72027062Y-33784800D01*
X72100000Y-33791984D01*
X72172938Y-33784800D01*
X79467070Y-33784800D01*
X79540000Y-33791983D01*
X79612930Y-33784800D01*
X79612941Y-33784800D01*
X79831072Y-33763316D01*
X80110958Y-33678413D01*
X80368902Y-33540539D01*
X80594992Y-33354992D01*
X80641490Y-33298334D01*
X81065024Y-32874800D01*
X81200410Y-32874800D01*
X81593529Y-32796604D01*
X81963839Y-32643217D01*
X82297110Y-32420533D01*
X82580533Y-32137110D01*
X82803217Y-31803839D01*
X82956604Y-31433529D01*
X83034800Y-31040410D01*
X83034800Y-30639590D01*
X82956604Y-30246471D01*
X82803217Y-29876161D01*
X82580533Y-29542890D01*
X82297110Y-29259467D01*
X81963839Y-29036783D01*
X81593529Y-28883396D01*
X81200410Y-28805200D01*
X80799590Y-28805200D01*
X80406471Y-28883396D01*
X80036161Y-29036783D01*
X79702890Y-29259467D01*
X79419467Y-29542890D01*
X79196783Y-29876161D01*
X79043396Y-30246471D01*
X78965200Y-30639590D01*
X78965200Y-30774976D01*
X78924976Y-30815200D01*
X75135617Y-30815200D01*
X75196344Y-30701420D01*
X75300589Y-30357003D01*
X75335639Y-29998866D01*
X75300147Y-29640773D01*
X75195475Y-29296484D01*
X75026908Y-28981117D01*
X74667038Y-28936482D01*
X73603520Y-30000000D01*
X73617663Y-30014143D01*
X73514143Y-30117663D01*
X73500000Y-30103520D01*
X73485858Y-30117663D01*
X73382338Y-30014143D01*
X73396480Y-30000000D01*
X73382338Y-29985858D01*
X73485858Y-29882338D01*
X73500000Y-29896480D01*
X74563518Y-28832962D01*
X74518883Y-28473092D01*
X74201420Y-28303656D01*
X73857003Y-28199411D01*
X73498866Y-28164361D01*
X73140773Y-28199853D01*
X72796484Y-28304525D01*
X72481117Y-28473092D01*
X72436579Y-28832183D01*
X72413920Y-28789792D01*
X72322096Y-28677904D01*
X72210208Y-28586080D01*
X72082556Y-28517849D01*
X71944046Y-28475832D01*
X71800000Y-28461645D01*
X70200000Y-28461645D01*
X70055954Y-28475832D01*
X69926176Y-28515200D01*
X67738355Y-28515200D01*
X67738355Y-28047500D01*
X67724168Y-27903454D01*
X67682151Y-27764944D01*
X67621298Y-27651095D01*
X67663509Y-27602332D01*
X67855316Y-27265115D01*
X67977649Y-26896958D01*
X67989643Y-26841718D01*
X67768544Y-26533200D01*
X66073200Y-26533200D01*
X66073200Y-26553200D01*
X65926800Y-26553200D01*
X65926800Y-26533200D01*
X64231456Y-26533200D01*
X64010357Y-26841718D01*
X57484800Y-26841718D01*
X57484800Y-23727501D01*
X57510208Y-23713920D01*
X57622096Y-23622096D01*
X57713920Y-23510208D01*
X57727501Y-23484800D01*
X63464976Y-23484800D01*
X64315161Y-24334986D01*
X64386096Y-24568826D01*
X64542773Y-24861949D01*
X64642685Y-24983692D01*
X64590400Y-25024350D01*
X64336491Y-25317668D01*
X64144684Y-25654885D01*
X64022351Y-26023042D01*
X64010357Y-26078282D01*
X64231456Y-26386800D01*
X65926800Y-26386800D01*
X65926800Y-26366800D01*
X66073200Y-26366800D01*
X66073200Y-26386800D01*
X67768544Y-26386800D01*
X67989643Y-26078282D01*
X67977649Y-26023042D01*
X67855316Y-25654885D01*
X67663509Y-25317668D01*
X67409600Y-25024350D01*
X67357315Y-24983692D01*
X67457227Y-24861949D01*
X67613904Y-24568826D01*
X67639393Y-24484800D01*
X69926176Y-24484800D01*
X70055954Y-24524168D01*
X70200000Y-24538355D01*
X71800000Y-24538355D01*
X71944046Y-24524168D01*
X72082556Y-24482151D01*
X72210208Y-24413920D01*
X72322096Y-24322096D01*
X72413920Y-24210208D01*
X72436579Y-24167817D01*
X72481117Y-24526908D01*
X72798580Y-24696344D01*
X73142997Y-24800589D01*
X73501134Y-24835639D01*
X73859227Y-24800147D01*
X74203516Y-24695475D01*
X74518883Y-24526908D01*
X74563518Y-24167038D01*
X74506680Y-24110200D01*
X79186629Y-24110200D01*
X79186629Y-28129800D01*
X82813372Y-28129800D01*
X82813372Y-24110200D01*
X79186629Y-24110200D01*
X74506680Y-24110200D01*
X73500000Y-23103520D01*
X73485858Y-23117663D01*
X73382338Y-23014143D01*
X73396480Y-23000000D01*
X73603520Y-23000000D01*
X74667038Y-24063518D01*
X75026908Y-24018883D01*
X75196344Y-23701420D01*
X75300589Y-23357003D01*
X75335639Y-22998866D01*
X75300147Y-22640773D01*
X75195475Y-22296484D01*
X75026908Y-21981117D01*
X74667038Y-21936482D01*
X73603520Y-23000000D01*
X73396480Y-23000000D01*
X73382338Y-22985858D01*
X73485858Y-22882338D01*
X73500000Y-22896480D01*
X74563518Y-21832962D01*
X74518883Y-21473092D01*
X74201420Y-21303656D01*
X73857003Y-21199411D01*
X73498866Y-21164361D01*
X73140773Y-21199853D01*
X72796484Y-21304525D01*
X72481117Y-21473092D01*
X72436579Y-21832183D01*
X72413920Y-21789792D01*
X72322096Y-21677904D01*
X72210208Y-21586080D01*
X72082556Y-21517849D01*
X71944046Y-21475832D01*
X71800000Y-21461645D01*
X70200000Y-21461645D01*
X70055954Y-21475832D01*
X69926176Y-21515200D01*
X66992929Y-21515200D01*
X66919999Y-21508017D01*
X66847069Y-21515200D01*
X66847059Y-21515200D01*
X66628928Y-21536684D01*
X66367974Y-21615844D01*
X66349042Y-21621587D01*
X66091097Y-21759461D01*
X66038195Y-21802877D01*
X66007716Y-21827891D01*
X65181489Y-21001665D01*
X65134992Y-20945008D01*
X64908902Y-20759461D01*
X64650958Y-20621587D01*
X64371072Y-20536684D01*
X64152941Y-20515200D01*
X64152930Y-20515200D01*
X64080000Y-20508017D01*
X64007070Y-20515200D01*
X57727501Y-20515200D01*
X57713920Y-20489792D01*
X57622096Y-20377904D01*
X57510208Y-20286080D01*
X57382556Y-20217849D01*
X57244046Y-20175832D01*
X57100000Y-20161645D01*
X54900000Y-20161645D01*
X54755954Y-20175832D01*
X54617444Y-20217849D01*
X54489792Y-20286080D01*
X54377904Y-20377904D01*
X54286080Y-20489792D01*
X54217849Y-20617444D01*
X54175832Y-20755954D01*
X54161645Y-20900000D01*
X54161645Y-23100000D01*
X54175832Y-23244046D01*
X54217849Y-23382556D01*
X54286080Y-23510208D01*
X54377904Y-23622096D01*
X54489792Y-23713920D01*
X54515200Y-23727501D01*
X54515201Y-26984974D01*
X53984976Y-27515200D01*
X50073824Y-27515200D01*
X49944046Y-27475832D01*
X49800000Y-27461645D01*
X48200000Y-27461645D01*
X48055954Y-27475832D01*
X47926176Y-27515200D01*
X46615024Y-27515200D01*
X44838355Y-25738531D01*
X44838355Y-24900000D01*
X44829421Y-24809280D01*
X47794241Y-24809280D01*
X47862906Y-25189610D01*
X48214381Y-25378981D01*
X48596048Y-25496143D01*
X48993238Y-25536596D01*
X49390688Y-25498782D01*
X49773124Y-25384156D01*
X50125849Y-25197123D01*
X50137094Y-25189610D01*
X50205759Y-24809280D01*
X49000000Y-23603520D01*
X47794241Y-24809280D01*
X44829421Y-24809280D01*
X44824168Y-24755954D01*
X44782151Y-24617444D01*
X44713920Y-24489792D01*
X44622096Y-24377904D01*
X44510208Y-24286080D01*
X44382556Y-24217849D01*
X44244046Y-24175832D01*
X44100000Y-24161645D01*
X43261470Y-24161645D01*
X42593063Y-23493238D01*
X46963404Y-23493238D01*
X47001218Y-23890688D01*
X47115844Y-24273124D01*
X47302877Y-24625849D01*
X47310390Y-24637094D01*
X47690720Y-24705759D01*
X48896480Y-23500000D01*
X49103520Y-23500000D01*
X50309280Y-24705759D01*
X50689610Y-24637094D01*
X50878981Y-24285619D01*
X50996143Y-23903952D01*
X51036596Y-23506762D01*
X50998782Y-23109312D01*
X50884156Y-22726876D01*
X50697123Y-22374151D01*
X50689610Y-22362906D01*
X50309280Y-22294241D01*
X49103520Y-23500000D01*
X48896480Y-23500000D01*
X47690720Y-22294241D01*
X47310390Y-22362906D01*
X47121019Y-22714381D01*
X47003857Y-23096048D01*
X46963404Y-23493238D01*
X42593063Y-23493238D01*
X42101488Y-23001664D01*
X42054992Y-22945008D01*
X41828902Y-22759461D01*
X41570958Y-22621587D01*
X41291072Y-22536684D01*
X41072941Y-22515200D01*
X41072930Y-22515200D01*
X41000000Y-22508017D01*
X40927070Y-22515200D01*
X39402530Y-22515200D01*
X39151165Y-22465200D01*
X38848835Y-22465200D01*
X38597470Y-22515200D01*
X38226800Y-22515200D01*
X38226800Y-22190720D01*
X47794241Y-22190720D01*
X49000000Y-23396480D01*
X50205759Y-22190720D01*
X50137094Y-21810390D01*
X49785619Y-21621019D01*
X49403952Y-21503857D01*
X49006762Y-21463404D01*
X48609312Y-21501218D01*
X48226876Y-21615844D01*
X47874151Y-21802877D01*
X47862906Y-21810390D01*
X47794241Y-22190720D01*
X38226800Y-22190720D01*
X38226800Y-16838355D01*
X38738527Y-16838355D01*
X38785008Y-16894992D01*
X39011098Y-17080539D01*
X39269042Y-17218413D01*
X39548928Y-17303316D01*
X39767059Y-17324800D01*
X39767069Y-17324800D01*
X39839999Y-17331983D01*
X39912929Y-17324800D01*
X41919607Y-17324800D01*
X42130896Y-17465979D01*
X42464809Y-17604290D01*
X42819288Y-17674800D01*
X43180712Y-17674800D01*
X43535191Y-17604290D01*
X43869104Y-17465979D01*
X44169617Y-17265182D01*
X44425182Y-17009617D01*
X44625979Y-16709104D01*
X44764290Y-16375191D01*
X44834800Y-16020712D01*
X44834800Y-15829137D01*
X47265200Y-15829137D01*
X47265200Y-16170863D01*
X47331867Y-16506023D01*
X47462640Y-16821736D01*
X47652493Y-17105871D01*
X47894129Y-17347507D01*
X48178264Y-17537360D01*
X48493977Y-17668133D01*
X48829137Y-17734800D01*
X49170863Y-17734800D01*
X49506023Y-17668133D01*
X49821736Y-17537360D01*
X49900398Y-17484800D01*
X51927070Y-17484800D01*
X52000000Y-17491983D01*
X52072930Y-17484800D01*
X52072941Y-17484800D01*
X52291072Y-17463316D01*
X52570958Y-17378413D01*
X52828902Y-17240539D01*
X53054992Y-17054992D01*
X53101490Y-16998334D01*
X54158334Y-15941490D01*
X54214992Y-15894992D01*
X54400539Y-15668902D01*
X54538413Y-15410958D01*
X54623316Y-15131072D01*
X54644800Y-14912941D01*
X54644800Y-14912938D01*
X54651984Y-14840000D01*
X54644800Y-14767062D01*
X54644800Y-12402530D01*
X54694800Y-12151165D01*
X54694800Y-11848835D01*
X54635818Y-11552315D01*
X54531306Y-11300000D01*
X78668232Y-11300000D01*
X78688057Y-11501288D01*
X78746771Y-11694841D01*
X78842116Y-11873220D01*
X78970430Y-12029570D01*
X79126780Y-12157884D01*
X79305159Y-12253229D01*
X79498712Y-12311943D01*
X79700000Y-12331768D01*
X80670100Y-12326800D01*
X80926800Y-12070100D01*
X80926800Y-10073200D01*
X81073200Y-10073200D01*
X81073200Y-12070100D01*
X81329900Y-12326800D01*
X82300000Y-12331768D01*
X82501288Y-12311943D01*
X82694841Y-12253229D01*
X82873220Y-12157884D01*
X83029570Y-12029570D01*
X83157884Y-11873220D01*
X83253229Y-11694841D01*
X83311943Y-11501288D01*
X83331768Y-11300000D01*
X83326800Y-10329900D01*
X83070100Y-10073200D01*
X81073200Y-10073200D01*
X80926800Y-10073200D01*
X78929900Y-10073200D01*
X78673200Y-10329900D01*
X78668232Y-11300000D01*
X54531306Y-11300000D01*
X54520122Y-11273000D01*
X54352157Y-11021622D01*
X54138378Y-10807843D01*
X53887000Y-10639878D01*
X53607685Y-10524182D01*
X53311165Y-10465200D01*
X53008835Y-10465200D01*
X52712315Y-10524182D01*
X52433000Y-10639878D01*
X52181622Y-10807843D01*
X51967843Y-11021622D01*
X51799878Y-11273000D01*
X51684182Y-11552315D01*
X51625200Y-11848835D01*
X51625200Y-12151165D01*
X51675200Y-12402531D01*
X51675201Y-14224975D01*
X51384976Y-14515200D01*
X49900398Y-14515200D01*
X49821736Y-14462640D01*
X49506023Y-14331867D01*
X49170863Y-14265200D01*
X48829137Y-14265200D01*
X48493977Y-14331867D01*
X48178264Y-14462640D01*
X47894129Y-14652493D01*
X47652493Y-14894129D01*
X47462640Y-15178264D01*
X47331867Y-15493977D01*
X47265200Y-15829137D01*
X44834800Y-15829137D01*
X44834800Y-15659288D01*
X44764290Y-15304809D01*
X44625979Y-14970896D01*
X44484800Y-14759607D01*
X44484800Y-12402530D01*
X44534800Y-12151165D01*
X44534800Y-11848835D01*
X44484800Y-11597470D01*
X44484800Y-8700000D01*
X78668232Y-8700000D01*
X78673200Y-9670100D01*
X78929900Y-9926800D01*
X80926800Y-9926800D01*
X80926800Y-7929900D01*
X81073200Y-7929900D01*
X81073200Y-9926800D01*
X83070100Y-9926800D01*
X83326800Y-9670100D01*
X83331768Y-8700000D01*
X83311943Y-8498712D01*
X83253229Y-8305159D01*
X83157884Y-8126780D01*
X83029570Y-7970430D01*
X82873220Y-7842116D01*
X82694841Y-7746771D01*
X82501288Y-7688057D01*
X82300000Y-7668232D01*
X81329900Y-7673200D01*
X81073200Y-7929900D01*
X80926800Y-7929900D01*
X80670100Y-7673200D01*
X79700000Y-7668232D01*
X79498712Y-7688057D01*
X79305159Y-7746771D01*
X79126780Y-7842116D01*
X78970430Y-7970430D01*
X78842116Y-8126780D01*
X78746771Y-8305159D01*
X78688057Y-8498712D01*
X78668232Y-8700000D01*
X44484800Y-8700000D01*
X44484800Y-8215024D01*
X46295024Y-6404800D01*
X79607157Y-6404800D01*
X79702890Y-6500533D01*
X80036161Y-6723217D01*
X80406471Y-6876604D01*
X80799590Y-6954800D01*
X81200410Y-6954800D01*
X81593529Y-6876604D01*
X81963839Y-6723217D01*
X82297110Y-6500533D01*
X82580533Y-6217110D01*
X82803217Y-5883839D01*
X82956604Y-5513529D01*
X83034800Y-5120410D01*
X83034800Y-4719590D01*
X82956604Y-4326471D01*
X82803217Y-3956161D01*
X82580533Y-3622890D01*
X82297110Y-3339467D01*
X81963839Y-3116783D01*
X81593529Y-2963396D01*
X81200410Y-2885200D01*
X80799590Y-2885200D01*
X80406471Y-2963396D01*
X80036161Y-3116783D01*
X79702890Y-3339467D01*
X79607157Y-3435200D01*
X45752929Y-3435200D01*
X45679999Y-3428017D01*
X45607069Y-3435200D01*
X45607059Y-3435200D01*
X45388928Y-3456684D01*
X45109042Y-3541587D01*
X44851098Y-3679461D01*
X44625008Y-3865008D01*
X44578510Y-3921666D01*
X42001666Y-6498510D01*
X41945008Y-6545008D01*
X41898511Y-6601665D01*
X41793976Y-6729042D01*
X41759461Y-6771099D01*
X41621587Y-7029043D01*
X41536684Y-7308929D01*
X41515200Y-7527060D01*
X41515200Y-7527070D01*
X41508017Y-7600000D01*
X41515200Y-7672931D01*
X41515201Y-11597466D01*
X41465200Y-11848835D01*
X41465200Y-12151165D01*
X41515201Y-12402534D01*
X41515200Y-14355200D01*
X40838355Y-14355200D01*
X40838355Y-13900000D01*
X40824168Y-13755954D01*
X40782151Y-13617444D01*
X40713920Y-13489792D01*
X40622096Y-13377904D01*
X40510208Y-13286080D01*
X40484800Y-13272499D01*
X40484800Y-7172938D01*
X40491984Y-7100000D01*
X40469425Y-6870957D01*
X40463316Y-6808928D01*
X40378413Y-6529042D01*
X40240539Y-6271098D01*
X40054992Y-6045008D01*
X39998330Y-5998507D01*
X39301489Y-5301665D01*
X39254992Y-5245008D01*
X39028902Y-5059461D01*
X38770958Y-4921587D01*
X38491072Y-4836684D01*
X38272941Y-4815200D01*
X38272930Y-4815200D01*
X38200000Y-4808017D01*
X38127070Y-4815200D01*
X31787314Y-4815200D01*
X31663908Y-4764084D01*
X29501490Y-2601666D01*
X29454992Y-2545008D01*
X29228902Y-2359461D01*
X28970958Y-2221587D01*
X28691072Y-2136684D01*
X28472941Y-2115200D01*
X28472930Y-2115200D01*
X28400000Y-2108017D01*
X28327070Y-2115200D01*
X24272929Y-2115200D01*
X24199999Y-2108017D01*
X24127069Y-2115200D01*
X24127059Y-2115200D01*
X23908928Y-2136684D01*
X23629042Y-2221587D01*
X23371098Y-2359461D01*
X23201664Y-2498511D01*
X23201660Y-2498515D01*
X23145008Y-2545008D01*
X23098515Y-2601660D01*
X19501666Y-6198510D01*
X19445008Y-6245008D01*
X19259461Y-6471099D01*
X19121587Y-6729043D01*
X19036684Y-7008929D01*
X19015200Y-7227060D01*
X19015200Y-7227070D01*
X19008017Y-7300000D01*
X19015200Y-7372930D01*
X19015201Y-17884975D01*
X18384976Y-18515200D01*
X13402530Y-18515200D01*
X13151165Y-18465200D01*
X12848835Y-18465200D01*
X12597470Y-18515200D01*
X6615025Y-18515200D01*
X5484800Y-17384976D01*
X5484800Y-15402530D01*
X5534800Y-15151165D01*
X5534800Y-14848835D01*
X7465200Y-14848835D01*
X7465200Y-15151165D01*
X7524182Y-15447685D01*
X7639878Y-15727000D01*
X7807843Y-15978378D01*
X8021622Y-16192157D01*
X8273000Y-16360122D01*
X8552315Y-16475818D01*
X8848835Y-16534800D01*
X9151165Y-16534800D01*
X9402530Y-16484800D01*
X12597470Y-16484800D01*
X12848835Y-16534800D01*
X13151165Y-16534800D01*
X13447685Y-16475818D01*
X13727000Y-16360122D01*
X13978378Y-16192157D01*
X14192157Y-15978378D01*
X14360122Y-15727000D01*
X14475818Y-15447685D01*
X14534800Y-15151165D01*
X14534800Y-14848835D01*
X14475818Y-14552315D01*
X14360122Y-14273000D01*
X14192157Y-14021622D01*
X13978378Y-13807843D01*
X13727000Y-13639878D01*
X13447685Y-13524182D01*
X13151165Y-13465200D01*
X12848835Y-13465200D01*
X12597470Y-13515200D01*
X9402530Y-13515200D01*
X9151165Y-13465200D01*
X8848835Y-13465200D01*
X8552315Y-13524182D01*
X8273000Y-13639878D01*
X8021622Y-13807843D01*
X7807843Y-14021622D01*
X7639878Y-14273000D01*
X7524182Y-14552315D01*
X7465200Y-14848835D01*
X5534800Y-14848835D01*
X5475818Y-14552315D01*
X5360122Y-14273000D01*
X5192157Y-14021622D01*
X4978378Y-13807843D01*
X4727000Y-13639878D01*
X4447685Y-13524182D01*
X4151165Y-13465200D01*
X3848835Y-13465200D01*
X3552315Y-13524182D01*
X3273000Y-13639878D01*
X3021622Y-13807843D01*
X2807843Y-14021622D01*
X2639878Y-14273000D01*
X2524182Y-14552315D01*
X2465200Y-14848835D01*
X1759800Y-14848835D01*
X1759800Y-4037163D01*
X1806040Y-3565580D01*
X1932200Y-3147717D01*
X2137124Y-2762309D01*
X2413005Y-2424046D01*
X2749335Y-2145810D01*
X3133297Y-1938202D01*
X3550276Y-1809125D01*
X4019572Y-1759800D01*
X83962837Y-1759800D01*
X84434420Y-1806040D01*
G37*
%TD.AperFunction*%
%TD*%
M02*
