%TF.GenerationSoftware,KiCad,Pcbnew,7.0.8*%
%TF.CreationDate,2023-10-20T08:06:19-04:00*%
%TF.ProjectId,func_amp,66756e63-5f61-46d7-902e-6b696361645f,A*%
%TF.SameCoordinates,PX2ebae40PY16e3600*%
%TF.FileFunction,Copper,L2,Bot*%
%TF.FilePolarity,Positive*%
%FSLAX46Y46*%
G04 Gerber Fmt 4.6, Leading zero omitted, Abs format (unit mm)*
G04 Created by KiCad (PCBNEW 7.0.8) date 2023-10-20 08:06:19*
%MOMM*%
%LPD*%
G01*
G04 APERTURE LIST*
%TA.AperFunction,ComponentPad*%
%ADD10C,2.400000*%
%TD*%
%TA.AperFunction,ComponentPad*%
%ADD11R,1.600000X1.600000*%
%TD*%
%TA.AperFunction,ComponentPad*%
%ADD12C,1.600000*%
%TD*%
%TA.AperFunction,ComponentPad*%
%ADD13C,2.000000*%
%TD*%
%TA.AperFunction,ComponentPad*%
%ADD14R,2.200000X2.200000*%
%TD*%
%TA.AperFunction,ComponentPad*%
%ADD15O,2.200000X2.200000*%
%TD*%
%TA.AperFunction,ComponentPad*%
%ADD16O,1.600000X1.600000*%
%TD*%
%TA.AperFunction,ComponentPad*%
%ADD17O,2.400000X2.400000*%
%TD*%
%TA.AperFunction,ComponentPad*%
%ADD18R,1.800000X1.800000*%
%TD*%
%TA.AperFunction,ComponentPad*%
%ADD19O,1.800000X1.800000*%
%TD*%
%TA.AperFunction,WasherPad*%
%ADD20C,3.500000*%
%TD*%
%TA.AperFunction,ComponentPad*%
%ADD21R,2.400000X2.400000*%
%TD*%
%TA.AperFunction,ComponentPad*%
%ADD22R,3.200000X3.200000*%
%TD*%
%TA.AperFunction,ComponentPad*%
%ADD23C,3.200000*%
%TD*%
%TA.AperFunction,ComponentPad*%
%ADD24C,2.500000*%
%TD*%
%TA.AperFunction,ComponentPad*%
%ADD25C,2.200000*%
%TD*%
%TA.AperFunction,Conductor*%
%ADD26C,1.500000*%
%TD*%
%TA.AperFunction,Conductor*%
%ADD27C,2.500000*%
%TD*%
G04 APERTURE END LIST*
D10*
%TO.P,C5,1*%
%TO.N,Net-(C5-Pad1)*%
X37100000Y-120700000D03*
%TO.P,C5,2*%
%TO.N,Net-(C5-Pad2)*%
X64600000Y-120700000D03*
%TD*%
D11*
%TO.P,C6,1*%
%TO.N,Net-(C6-Pad1)*%
X48400000Y-108200000D03*
D12*
%TO.P,C6,2*%
%TO.N,GNDS*%
X48400000Y-112000000D03*
%TD*%
D11*
%TO.P,C8,1*%
%TO.N,GNDPWR*%
X89700000Y-119000000D03*
D12*
%TO.P,C8,2*%
%TO.N,-V*%
X89700000Y-122800000D03*
%TD*%
D13*
%TO.P,C9,1*%
%TO.N,+V*%
X78750000Y-98225000D03*
%TO.P,C9,2*%
%TO.N,GNDPWR*%
X78750000Y-108225000D03*
%TD*%
%TO.P,C10,1*%
%TO.N,GNDPWR*%
X78700000Y-112800000D03*
%TO.P,C10,2*%
%TO.N,-V*%
X78700000Y-122800000D03*
%TD*%
%TO.P,C11,1*%
%TO.N,Net-(C11-Pad1)*%
X101000000Y-94000000D03*
%TO.P,C11,2*%
%TO.N,GNDPWR*%
X101000000Y-104000000D03*
%TD*%
D14*
%TO.P,D3,1*%
%TO.N,+V*%
X83750000Y-104025000D03*
D15*
%TO.P,D3,2*%
%TO.N,Net-(D3-Pad2)*%
X83750000Y-93865000D03*
%TD*%
D14*
%TO.P,D4,1*%
%TO.N,Net-(D3-Pad2)*%
X79300000Y-93700000D03*
D15*
%TO.P,D4,2*%
%TO.N,-V*%
X69140000Y-93700000D03*
%TD*%
D12*
%TO.P,R1,1*%
%TO.N,Net-(R1-Pad1)*%
X65750000Y-112225000D03*
D16*
%TO.P,R1,2*%
%TO.N,GNDS*%
X55590000Y-112225000D03*
%TD*%
D12*
%TO.P,R2,1*%
%TO.N,Net-(R2-Pad1)*%
X61900000Y-103700000D03*
D16*
%TO.P,R2,2*%
%TO.N,Net-(C6-Pad1)*%
X51740000Y-103700000D03*
%TD*%
D12*
%TO.P,R3,1*%
%TO.N,Net-(D3-Pad2)*%
X51800000Y-98700000D03*
D16*
%TO.P,R3,2*%
%TO.N,Net-(R2-Pad1)*%
X61960000Y-98700000D03*
%TD*%
D10*
%TO.P,R4,1*%
%TO.N,Net-(D3-Pad2)*%
X83700000Y-89000000D03*
D17*
%TO.P,R4,2*%
%TO.N,Net-(C11-Pad1)*%
X98940000Y-89000000D03*
%TD*%
D18*
%TO.P,U3,1*%
%TO.N,Net-(C19-Pad1)*%
X65750000Y-88725000D03*
D19*
%TO.P,U3,2*%
%TO.N,Net-(R2-Pad1)*%
X67450000Y-85025000D03*
%TO.P,U3,3*%
%TO.N,-V*%
X69150000Y-88725000D03*
%TO.P,U3,4*%
%TO.N,Net-(D3-Pad2)*%
X70850000Y-85025000D03*
%TO.P,U3,5*%
%TO.N,+V*%
X72550000Y-88725000D03*
%TD*%
D12*
%TO.P,R6,1*%
%TO.N,Net-(C5-Pad1)*%
X31200000Y-111900000D03*
D16*
%TO.P,R6,2*%
%TO.N,GNDS*%
X41360000Y-111900000D03*
%TD*%
D12*
%TO.P,C19,1*%
%TO.N,Net-(C19-Pad1)*%
X71000000Y-98700000D03*
%TO.P,C19,2*%
%TO.N,GNDS*%
X71000000Y-103700000D03*
%TD*%
%TO.P,R11,1*%
%TO.N,Net-(R1-Pad1)*%
X69250000Y-112225000D03*
D16*
%TO.P,R11,2*%
%TO.N,Net-(C5-Pad2)*%
X69250000Y-122385000D03*
%TD*%
D12*
%TO.P,R12,1*%
%TO.N,Net-(C19-Pad1)*%
X65750000Y-98725000D03*
D16*
%TO.P,R12,2*%
%TO.N,Net-(R1-Pad1)*%
X65750000Y-108885000D03*
%TD*%
D20*
%TO.P,HS1,*%
%TO.N,*%
X87920000Y-80305000D03*
X25000000Y-72725000D03*
%TD*%
D21*
%TO.P,C1,1*%
%TO.N,+V*%
X85975000Y-38100000D03*
D10*
%TO.P,C1,2*%
%TO.N,Earth*%
X85975000Y-45600000D03*
%TD*%
D12*
%TO.P,R7,1*%
%TO.N,+V*%
X118800000Y-38100000D03*
D16*
%TO.P,R7,2*%
%TO.N,Earth*%
X118800000Y-48260000D03*
%TD*%
D12*
%TO.P,R8,1*%
%TO.N,Earth*%
X118800000Y-16300000D03*
D16*
%TO.P,R8,2*%
%TO.N,-V*%
X118800000Y-26460000D03*
%TD*%
D21*
%TO.P,C2,1*%
%TO.N,Earth*%
X85975000Y-19000000D03*
D10*
%TO.P,C2,2*%
%TO.N,-V*%
X85975000Y-26500000D03*
%TD*%
D21*
%TO.P,C4,1*%
%TO.N,Earth*%
X105475000Y-19000000D03*
D10*
%TO.P,C4,2*%
%TO.N,-V*%
X105475000Y-26500000D03*
%TD*%
D21*
%TO.P,C3,1*%
%TO.N,+V*%
X105475000Y-38100000D03*
D10*
%TO.P,C3,2*%
%TO.N,Earth*%
X105475000Y-45600000D03*
%TD*%
D22*
%TO.P,T1,1*%
%TO.N,/N*%
X17055000Y-19400000D03*
D23*
%TO.P,T1,4*%
%TO.N,/L*%
X17055000Y-44800000D03*
%TO.P,T1,5*%
%TO.N,Net-(D1-Pad2)*%
X57695000Y-44800000D03*
%TO.P,T1,6*%
%TO.N,Earth*%
X57695000Y-37180000D03*
%TO.P,T1,7*%
X57695000Y-27020000D03*
%TO.P,T1,8*%
%TO.N,Net-(D1-Pad3)*%
X57695000Y-19400000D03*
%TD*%
D24*
%TO.P,J1,1*%
%TO.N,/L*%
X4000000Y-44820000D03*
X4000000Y-49900000D03*
%TD*%
%TO.P,J2,1*%
%TO.N,/N*%
X4000000Y-19380000D03*
X4000000Y-14300000D03*
%TD*%
%TO.P,J3,1*%
%TO.N,Earth*%
X73540000Y-6000000D03*
X68460000Y-6000000D03*
%TD*%
%TO.P,J4,1*%
%TO.N,Net-(C5-Pad1)*%
X18660000Y-111900000D03*
X23740000Y-111900000D03*
%TD*%
%TO.P,J5,1*%
%TO.N,GNDS*%
X23740000Y-104400000D03*
X18660000Y-104400000D03*
%TD*%
%TO.P,J6,1*%
%TO.N,Net-(D3-Pad2)*%
X108540000Y-83500000D03*
X103460000Y-83500000D03*
%TD*%
%TO.P,J7,1*%
%TO.N,GND*%
X103460000Y-76000000D03*
X108540000Y-76000000D03*
%TD*%
D14*
%TO.P,D1,1*%
%TO.N,+V*%
X69000000Y-38100000D03*
D25*
%TO.P,D1,2*%
%TO.N,Net-(D1-Pad2)*%
X69000000Y-34250000D03*
%TO.P,D1,3*%
%TO.N,Net-(D1-Pad3)*%
X69000000Y-30400000D03*
%TO.P,D1,4*%
%TO.N,-V*%
X69000000Y-26550000D03*
%TD*%
D24*
%TO.P,J8,1*%
%TO.N,GNDS*%
X18660000Y-96900000D03*
X23740000Y-96900000D03*
%TD*%
%TO.P,J9,1*%
%TO.N,Earth*%
X80960000Y-6000000D03*
X86040000Y-6000000D03*
%TD*%
%TO.P,J10,1*%
%TO.N,Earth*%
X93460000Y-6000000D03*
X98540000Y-6000000D03*
%TD*%
%TO.P,J11,1*%
%TO.N,GND*%
X108540000Y-68500000D03*
X103460000Y-68500000D03*
%TD*%
%TO.P,J12,1*%
%TO.N,GNDPWR*%
X116540000Y-104000000D03*
X111460000Y-104000000D03*
%TD*%
%TO.P,J13,1*%
%TO.N,Earth*%
X105960000Y-6000000D03*
X111040000Y-6000000D03*
%TD*%
D11*
%TO.P,C7,1*%
%TO.N,+V*%
X91000000Y-99800000D03*
D12*
%TO.P,C7,2*%
%TO.N,GNDPWR*%
X91000000Y-103600000D03*
%TD*%
D26*
%TO.N,Net-(C5-Pad2)*%
X67565000Y-120700000D02*
X69250000Y-122385000D01*
X64600000Y-120700000D02*
X67565000Y-120700000D01*
%TO.N,Net-(C5-Pad1)*%
X18660000Y-111900000D02*
X23740000Y-111900000D01*
X23740000Y-111900000D02*
X31200000Y-111900000D01*
X31200000Y-111900000D02*
X31200000Y-114800000D01*
X31200000Y-114800000D02*
X37100000Y-120700000D01*
%TO.N,Net-(C6-Pad1)*%
X51740000Y-104860000D02*
X48400000Y-108200000D01*
X51740000Y-103700000D02*
X51740000Y-104860000D01*
%TO.N,Net-(C11-Pad1)*%
X98940000Y-89000000D02*
X101000000Y-91060000D01*
X101000000Y-91060000D02*
X101000000Y-94000000D01*
%TO.N,Net-(R2-Pad1)*%
X61960000Y-86540000D02*
X63475000Y-85025000D01*
X63475000Y-85025000D02*
X67450000Y-85025000D01*
X61960000Y-103640000D02*
X61900000Y-103700000D01*
X61960000Y-98700000D02*
X61960000Y-103640000D01*
X61960000Y-98700000D02*
X61960000Y-86540000D01*
%TO.N,+V*%
X72550000Y-88725000D02*
X72550000Y-92025000D01*
X72550000Y-92025000D02*
X78750000Y-98225000D01*
%TO.N,Net-(C19-Pad1)*%
X65750000Y-98725000D02*
X70975000Y-98725000D01*
X70975000Y-98725000D02*
X71000000Y-98700000D01*
X65750000Y-88725000D02*
X65750000Y-98725000D01*
D27*
%TO.N,Net-(D1-Pad2)*%
X69000000Y-34250000D02*
X65450000Y-34250000D01*
X61500000Y-44800000D02*
X57695000Y-44800000D01*
X65450000Y-34250000D02*
X63000000Y-36700000D01*
X63000000Y-36700000D02*
X63000000Y-43300000D01*
X63000000Y-43300000D02*
X61500000Y-44800000D01*
%TO.N,Net-(D1-Pad3)*%
X65500000Y-30400000D02*
X63000000Y-27900000D01*
X69000000Y-30400000D02*
X65500000Y-30400000D01*
X61500000Y-19400000D02*
X57695000Y-19400000D01*
X63000000Y-27900000D02*
X63000000Y-20900000D01*
X63000000Y-20900000D02*
X61500000Y-19400000D01*
D26*
%TO.N,Net-(D3-Pad2)*%
X59800000Y-85300000D02*
X59800000Y-96500000D01*
X83700000Y-93815000D02*
X83750000Y-93865000D01*
X79300000Y-88200000D02*
X76125000Y-85025000D01*
X62600000Y-82500000D02*
X59800000Y-85300000D01*
X76125000Y-85025000D02*
X70850000Y-85025000D01*
X103460000Y-83500000D02*
X89200000Y-83500000D01*
X89200000Y-83500000D02*
X83700000Y-89000000D01*
X83700000Y-89000000D02*
X83700000Y-93815000D01*
X57600000Y-98700000D02*
X51800000Y-98700000D01*
X59800000Y-96500000D02*
X57600000Y-98700000D01*
X83750000Y-93865000D02*
X79465000Y-93865000D01*
X108540000Y-83500000D02*
X103460000Y-83500000D01*
X68800000Y-82500000D02*
X62600000Y-82500000D01*
X70850000Y-85025000D02*
X70850000Y-84550000D01*
X79300000Y-93700000D02*
X79300000Y-88200000D01*
X79465000Y-93865000D02*
X79300000Y-93700000D01*
X70850000Y-84550000D02*
X68800000Y-82500000D01*
%TO.N,Net-(R1-Pad1)*%
X65750000Y-112225000D02*
X69250000Y-112225000D01*
X65750000Y-108885000D02*
X65750000Y-112225000D01*
%TD*%
%TA.AperFunction,Conductor*%
%TO.N,GNDPWR*%
G36*
X111320590Y-102020002D02*
G01*
X111367083Y-102073658D01*
X111377187Y-102143932D01*
X111347693Y-102208512D01*
X111287967Y-102246896D01*
X111271248Y-102250593D01*
X111067712Y-102281270D01*
X111067704Y-102281271D01*
X110815923Y-102358937D01*
X110578532Y-102473259D01*
X110578525Y-102473263D01*
X110408438Y-102589227D01*
X110408438Y-102589229D01*
X111177643Y-103358434D01*
X111132305Y-103375629D01*
X110992405Y-103472194D01*
X110879680Y-103599434D01*
X110817913Y-103717122D01*
X110049671Y-102948880D01*
X110049670Y-102948881D01*
X110003400Y-103006904D01*
X110003397Y-103006907D01*
X109871653Y-103235095D01*
X109871651Y-103235099D01*
X109775393Y-103480363D01*
X109775392Y-103480365D01*
X109716760Y-103737245D01*
X109697070Y-104000000D01*
X109716760Y-104262754D01*
X109775392Y-104519634D01*
X109775393Y-104519636D01*
X109871651Y-104764900D01*
X109871653Y-104764904D01*
X110003397Y-104993092D01*
X110003400Y-104993097D01*
X110049670Y-105051117D01*
X110049672Y-105051117D01*
X110817912Y-104282876D01*
X110879680Y-104400566D01*
X110992405Y-104527806D01*
X111132305Y-104624371D01*
X111177642Y-104641565D01*
X110408437Y-105410770D01*
X110578532Y-105526739D01*
X110578532Y-105526740D01*
X110815923Y-105641062D01*
X111067704Y-105718728D01*
X111067712Y-105718729D01*
X111328260Y-105758000D01*
X111591740Y-105758000D01*
X111852287Y-105718729D01*
X111852295Y-105718728D01*
X112104076Y-105641062D01*
X112341467Y-105526740D01*
X112511561Y-105410770D01*
X111742356Y-104641565D01*
X111787695Y-104624371D01*
X111927595Y-104527806D01*
X112040320Y-104400566D01*
X112102086Y-104282877D01*
X112870327Y-105051118D01*
X112916603Y-104993090D01*
X113048346Y-104764904D01*
X113048348Y-104764900D01*
X113144606Y-104519636D01*
X113144607Y-104519634D01*
X113203239Y-104262754D01*
X113222929Y-104000000D01*
X113203239Y-103737245D01*
X113144607Y-103480365D01*
X113144606Y-103480363D01*
X113048348Y-103235099D01*
X113048346Y-103235095D01*
X112916605Y-103006913D01*
X112916600Y-103006905D01*
X112870328Y-102948881D01*
X112870326Y-102948881D01*
X112102086Y-103717121D01*
X112040320Y-103599434D01*
X111927595Y-103472194D01*
X111787695Y-103375629D01*
X111742356Y-103358434D01*
X112511560Y-102589229D01*
X112511560Y-102589228D01*
X112341467Y-102473259D01*
X112104076Y-102358937D01*
X111852295Y-102281271D01*
X111852287Y-102281270D01*
X111648752Y-102250593D01*
X111584373Y-102220662D01*
X111546396Y-102160676D01*
X111546879Y-102089681D01*
X111585668Y-102030217D01*
X111650447Y-102001164D01*
X111667531Y-102000000D01*
X116332469Y-102000000D01*
X116400590Y-102020002D01*
X116447083Y-102073658D01*
X116457187Y-102143932D01*
X116427693Y-102208512D01*
X116367967Y-102246896D01*
X116351248Y-102250593D01*
X116147712Y-102281270D01*
X116147704Y-102281271D01*
X115895923Y-102358937D01*
X115658532Y-102473259D01*
X115658525Y-102473263D01*
X115488438Y-102589227D01*
X115488438Y-102589229D01*
X116257643Y-103358434D01*
X116212305Y-103375629D01*
X116072405Y-103472194D01*
X115959680Y-103599434D01*
X115897913Y-103717122D01*
X115129671Y-102948880D01*
X115129670Y-102948881D01*
X115083400Y-103006904D01*
X115083397Y-103006907D01*
X114951653Y-103235095D01*
X114951651Y-103235099D01*
X114855393Y-103480363D01*
X114855392Y-103480365D01*
X114796760Y-103737245D01*
X114777070Y-104000000D01*
X114796760Y-104262754D01*
X114855392Y-104519634D01*
X114855393Y-104519636D01*
X114951651Y-104764900D01*
X114951653Y-104764904D01*
X115083397Y-104993092D01*
X115083400Y-104993097D01*
X115129670Y-105051117D01*
X115129672Y-105051117D01*
X115897912Y-104282876D01*
X115959680Y-104400566D01*
X116072405Y-104527806D01*
X116212305Y-104624371D01*
X116257642Y-104641565D01*
X115488437Y-105410770D01*
X115658532Y-105526739D01*
X115658532Y-105526740D01*
X115895923Y-105641062D01*
X116147704Y-105718728D01*
X116147712Y-105718729D01*
X116408260Y-105758000D01*
X116671740Y-105758000D01*
X116932287Y-105718729D01*
X116932295Y-105718728D01*
X117184076Y-105641062D01*
X117421467Y-105526740D01*
X117591561Y-105410770D01*
X116822356Y-104641565D01*
X116867695Y-104624371D01*
X117007595Y-104527806D01*
X117120320Y-104400566D01*
X117182086Y-104282877D01*
X117950327Y-105051118D01*
X117996603Y-104993090D01*
X118128346Y-104764904D01*
X118128348Y-104764900D01*
X118224606Y-104519636D01*
X118224607Y-104519634D01*
X118283239Y-104262754D01*
X118302929Y-104000000D01*
X118283239Y-103737245D01*
X118224607Y-103480365D01*
X118224606Y-103480363D01*
X118128348Y-103235099D01*
X118128346Y-103235095D01*
X117996605Y-103006913D01*
X117996600Y-103006905D01*
X117950328Y-102948881D01*
X117950326Y-102948881D01*
X117182086Y-103717121D01*
X117120320Y-103599434D01*
X117007595Y-103472194D01*
X116867695Y-103375629D01*
X116822356Y-103358434D01*
X117591560Y-102589229D01*
X117591560Y-102589228D01*
X117421467Y-102473259D01*
X117184076Y-102358937D01*
X116932295Y-102281271D01*
X116932287Y-102281270D01*
X116728752Y-102250593D01*
X116664373Y-102220662D01*
X116626396Y-102160676D01*
X116626879Y-102089681D01*
X116665668Y-102030217D01*
X116730447Y-102001164D01*
X116747531Y-102000000D01*
X125774000Y-102000000D01*
X125842121Y-102020002D01*
X125888614Y-102073658D01*
X125900000Y-102126000D01*
X125900000Y-120574000D01*
X125879998Y-120642121D01*
X125826342Y-120688614D01*
X125774000Y-120700000D01*
X77126000Y-120700000D01*
X77057879Y-120679998D01*
X77011386Y-120626342D01*
X77000000Y-120574000D01*
X77000000Y-119848597D01*
X88392000Y-119848597D01*
X88398505Y-119909093D01*
X88449555Y-120045964D01*
X88449555Y-120045965D01*
X88537095Y-120162904D01*
X88654034Y-120250444D01*
X88790906Y-120301494D01*
X88851402Y-120307999D01*
X88851415Y-120308000D01*
X89446000Y-120308000D01*
X89446000Y-119311686D01*
X89461955Y-119327641D01*
X89574852Y-119385165D01*
X89668519Y-119400000D01*
X89731481Y-119400000D01*
X89825148Y-119385165D01*
X89938045Y-119327641D01*
X89954000Y-119311686D01*
X89954000Y-120308000D01*
X90548585Y-120308000D01*
X90548597Y-120307999D01*
X90609093Y-120301494D01*
X90745964Y-120250444D01*
X90745965Y-120250444D01*
X90862904Y-120162904D01*
X90950444Y-120045965D01*
X90950444Y-120045964D01*
X91001494Y-119909093D01*
X91007999Y-119848597D01*
X91008000Y-119848585D01*
X91008000Y-119254000D01*
X90011686Y-119254000D01*
X90027641Y-119238045D01*
X90085165Y-119125148D01*
X90104986Y-119000000D01*
X90085165Y-118874852D01*
X90027641Y-118761955D01*
X90011686Y-118746000D01*
X91008000Y-118746000D01*
X91008000Y-118151414D01*
X91007999Y-118151402D01*
X91001494Y-118090906D01*
X90950444Y-117954035D01*
X90950444Y-117954034D01*
X90862904Y-117837095D01*
X90745965Y-117749555D01*
X90609093Y-117698505D01*
X90548597Y-117692000D01*
X89954000Y-117692000D01*
X89954000Y-118688314D01*
X89938045Y-118672359D01*
X89825148Y-118614835D01*
X89731481Y-118600000D01*
X89668519Y-118600000D01*
X89574852Y-118614835D01*
X89461955Y-118672359D01*
X89446000Y-118688314D01*
X89446000Y-117692000D01*
X88851402Y-117692000D01*
X88790906Y-117698505D01*
X88654035Y-117749555D01*
X88654034Y-117749555D01*
X88537095Y-117837095D01*
X88449555Y-117954034D01*
X88449555Y-117954035D01*
X88398505Y-118090906D01*
X88392000Y-118151402D01*
X88392000Y-118746000D01*
X89388314Y-118746000D01*
X89372359Y-118761955D01*
X89314835Y-118874852D01*
X89295014Y-119000000D01*
X89314835Y-119125148D01*
X89372359Y-119238045D01*
X89388314Y-119254000D01*
X88392000Y-119254000D01*
X88392000Y-119848597D01*
X77000000Y-119848597D01*
X77000000Y-113243315D01*
X77020002Y-113175194D01*
X77073658Y-113128701D01*
X77143932Y-113118597D01*
X77208512Y-113148091D01*
X77246896Y-113207817D01*
X77248519Y-113213901D01*
X77261371Y-113267437D01*
X77352206Y-113486733D01*
X77466897Y-113673891D01*
X78215638Y-112925150D01*
X78240507Y-113009844D01*
X78318239Y-113130798D01*
X78426900Y-113224952D01*
X78557685Y-113284680D01*
X78572412Y-113286797D01*
X77826107Y-114033101D01*
X77826107Y-114033102D01*
X78013261Y-114147791D01*
X78232562Y-114238628D01*
X78463367Y-114294039D01*
X78700000Y-114312662D01*
X78936632Y-114294039D01*
X79167437Y-114238628D01*
X79386738Y-114147791D01*
X79573891Y-114033102D01*
X79573892Y-114033101D01*
X78827588Y-113286797D01*
X78842315Y-113284680D01*
X78973100Y-113224952D01*
X79081761Y-113130798D01*
X79159493Y-113009844D01*
X79184360Y-112925151D01*
X79933101Y-113673892D01*
X79933102Y-113673891D01*
X80047791Y-113486738D01*
X80138628Y-113267437D01*
X80194039Y-113036632D01*
X80212662Y-112800000D01*
X80194039Y-112563367D01*
X80138628Y-112332562D01*
X80047791Y-112113261D01*
X79933102Y-111926107D01*
X79933101Y-111926107D01*
X79184360Y-112674848D01*
X79159493Y-112590156D01*
X79081761Y-112469202D01*
X78973100Y-112375048D01*
X78842315Y-112315320D01*
X78827587Y-112313202D01*
X79573891Y-111566897D01*
X79386733Y-111452206D01*
X79167437Y-111361371D01*
X78936632Y-111305960D01*
X78700000Y-111287337D01*
X78463367Y-111305960D01*
X78232562Y-111361371D01*
X78013262Y-111452208D01*
X77826107Y-111566896D01*
X77826107Y-111566898D01*
X78572411Y-112313202D01*
X78557685Y-112315320D01*
X78426900Y-112375048D01*
X78318239Y-112469202D01*
X78240507Y-112590156D01*
X78215639Y-112674848D01*
X77466898Y-111926107D01*
X77466896Y-111926107D01*
X77352208Y-112113262D01*
X77261371Y-112332563D01*
X77248519Y-112386098D01*
X77213166Y-112447668D01*
X77150140Y-112480350D01*
X77079449Y-112473769D01*
X77023537Y-112430015D01*
X77000157Y-112362979D01*
X77000000Y-112356684D01*
X77000000Y-108416263D01*
X77020002Y-108348142D01*
X77073658Y-108301649D01*
X77143932Y-108291545D01*
X77208512Y-108321039D01*
X77246896Y-108380765D01*
X77251612Y-108406377D01*
X77255960Y-108461632D01*
X77311371Y-108692437D01*
X77402206Y-108911733D01*
X77516897Y-109098891D01*
X78265638Y-108350150D01*
X78290507Y-108434844D01*
X78368239Y-108555798D01*
X78476900Y-108649952D01*
X78607685Y-108709680D01*
X78622412Y-108711797D01*
X77876107Y-109458101D01*
X77876107Y-109458102D01*
X78063261Y-109572791D01*
X78282562Y-109663628D01*
X78513367Y-109719039D01*
X78750000Y-109737662D01*
X78986632Y-109719039D01*
X79217437Y-109663628D01*
X79436738Y-109572791D01*
X79623891Y-109458102D01*
X79623892Y-109458101D01*
X78877588Y-108711797D01*
X78892315Y-108709680D01*
X79023100Y-108649952D01*
X79131761Y-108555798D01*
X79209493Y-108434844D01*
X79234360Y-108350151D01*
X79983101Y-109098892D01*
X79983102Y-109098891D01*
X80097791Y-108911738D01*
X80188628Y-108692437D01*
X80244039Y-108461632D01*
X80262662Y-108225000D01*
X80244039Y-107988367D01*
X80188628Y-107757562D01*
X80097791Y-107538261D01*
X79983102Y-107351107D01*
X79983101Y-107351107D01*
X79234360Y-108099848D01*
X79209493Y-108015156D01*
X79131761Y-107894202D01*
X79023100Y-107800048D01*
X78892315Y-107740320D01*
X78877587Y-107738202D01*
X79623891Y-106991897D01*
X79436733Y-106877206D01*
X79217437Y-106786371D01*
X78986632Y-106730960D01*
X78750000Y-106712337D01*
X78513367Y-106730960D01*
X78282562Y-106786371D01*
X78063262Y-106877208D01*
X77876107Y-106991896D01*
X77876107Y-106991898D01*
X78622411Y-107738202D01*
X78607685Y-107740320D01*
X78476900Y-107800048D01*
X78368239Y-107894202D01*
X78290507Y-108015156D01*
X78265639Y-108099848D01*
X77516898Y-107351107D01*
X77516896Y-107351107D01*
X77402208Y-107538262D01*
X77311371Y-107757562D01*
X77255960Y-107988367D01*
X77251612Y-108043622D01*
X77226327Y-108109963D01*
X77169189Y-108152103D01*
X77098338Y-108156662D01*
X77036271Y-108122193D01*
X77002691Y-108059640D01*
X77000000Y-108033736D01*
X77000000Y-106326000D01*
X77020002Y-106257879D01*
X77073658Y-106211386D01*
X77126000Y-106200000D01*
X85900000Y-106200000D01*
X85900000Y-103600000D01*
X89687004Y-103600000D01*
X89706951Y-103828002D01*
X89766186Y-104049068D01*
X89766188Y-104049073D01*
X89862913Y-104256501D01*
X89912899Y-104327888D01*
X90601272Y-103639516D01*
X90614835Y-103725148D01*
X90672359Y-103838045D01*
X90761955Y-103927641D01*
X90874852Y-103985165D01*
X90960482Y-103998727D01*
X90272110Y-104687098D01*
X90272110Y-104687100D01*
X90343498Y-104737086D01*
X90550926Y-104833811D01*
X90550931Y-104833813D01*
X90771999Y-104893048D01*
X90771995Y-104893048D01*
X91000000Y-104912995D01*
X91228002Y-104893048D01*
X91449068Y-104833813D01*
X91449073Y-104833811D01*
X91656497Y-104737088D01*
X91727888Y-104687099D01*
X91727888Y-104687097D01*
X91039518Y-103998727D01*
X91125148Y-103985165D01*
X91238045Y-103927641D01*
X91327641Y-103838045D01*
X91385165Y-103725148D01*
X91398727Y-103639518D01*
X92087097Y-104327888D01*
X92087099Y-104327888D01*
X92137088Y-104256497D01*
X92233811Y-104049073D01*
X92233813Y-104049068D01*
X92246961Y-104000000D01*
X99487337Y-104000000D01*
X99505960Y-104236632D01*
X99561371Y-104467437D01*
X99652206Y-104686733D01*
X99766897Y-104873891D01*
X100515638Y-104125150D01*
X100540507Y-104209844D01*
X100618239Y-104330798D01*
X100726900Y-104424952D01*
X100857685Y-104484680D01*
X100872412Y-104486797D01*
X100126107Y-105233101D01*
X100126107Y-105233102D01*
X100313261Y-105347791D01*
X100532562Y-105438628D01*
X100763367Y-105494039D01*
X101000000Y-105512662D01*
X101236632Y-105494039D01*
X101467437Y-105438628D01*
X101686738Y-105347791D01*
X101873891Y-105233102D01*
X101873892Y-105233101D01*
X101127588Y-104486797D01*
X101142315Y-104484680D01*
X101273100Y-104424952D01*
X101381761Y-104330798D01*
X101459493Y-104209844D01*
X101484360Y-104125151D01*
X102233101Y-104873892D01*
X102233102Y-104873891D01*
X102347791Y-104686738D01*
X102438628Y-104467437D01*
X102494039Y-104236632D01*
X102512662Y-104000000D01*
X102494039Y-103763367D01*
X102438628Y-103532562D01*
X102347791Y-103313261D01*
X102233102Y-103126107D01*
X102233101Y-103126107D01*
X101484360Y-103874848D01*
X101459493Y-103790156D01*
X101381761Y-103669202D01*
X101273100Y-103575048D01*
X101142315Y-103515320D01*
X101127587Y-103513202D01*
X101873891Y-102766897D01*
X101686733Y-102652206D01*
X101467437Y-102561371D01*
X101236632Y-102505960D01*
X101000000Y-102487337D01*
X100763367Y-102505960D01*
X100532562Y-102561371D01*
X100313262Y-102652208D01*
X100126107Y-102766896D01*
X100126107Y-102766898D01*
X100872411Y-103513202D01*
X100857685Y-103515320D01*
X100726900Y-103575048D01*
X100618239Y-103669202D01*
X100540507Y-103790156D01*
X100515639Y-103874848D01*
X99766898Y-103126107D01*
X99766896Y-103126107D01*
X99652208Y-103313262D01*
X99561371Y-103532562D01*
X99505960Y-103763367D01*
X99487337Y-104000000D01*
X92246961Y-104000000D01*
X92293048Y-103828002D01*
X92312995Y-103600000D01*
X92293048Y-103371997D01*
X92233813Y-103150931D01*
X92233811Y-103150926D01*
X92137086Y-102943498D01*
X92087100Y-102872110D01*
X92087098Y-102872110D01*
X91398727Y-103560481D01*
X91385165Y-103474852D01*
X91327641Y-103361955D01*
X91238045Y-103272359D01*
X91125148Y-103214835D01*
X91039517Y-103201272D01*
X91727888Y-102512899D01*
X91727888Y-102512898D01*
X91656501Y-102462913D01*
X91449073Y-102366188D01*
X91449068Y-102366186D01*
X91228000Y-102306951D01*
X91228004Y-102306951D01*
X91000000Y-102287004D01*
X90771997Y-102306951D01*
X90550931Y-102366186D01*
X90550926Y-102366188D01*
X90343500Y-102462913D01*
X90272109Y-102512900D01*
X90960481Y-103201272D01*
X90874852Y-103214835D01*
X90761955Y-103272359D01*
X90672359Y-103361955D01*
X90614835Y-103474852D01*
X90601272Y-103560481D01*
X89912900Y-102872109D01*
X89862913Y-102943500D01*
X89766188Y-103150926D01*
X89766186Y-103150931D01*
X89706951Y-103371997D01*
X89687004Y-103600000D01*
X85900000Y-103600000D01*
X85900000Y-102126000D01*
X85920002Y-102057879D01*
X85973658Y-102011386D01*
X86026000Y-102000000D01*
X111252469Y-102000000D01*
X111320590Y-102020002D01*
G37*
%TD.AperFunction*%
%TD*%
%TA.AperFunction,Conductor*%
%TO.N,GND*%
G36*
X110942121Y-66020002D02*
G01*
X110988614Y-66073658D01*
X111000000Y-66126000D01*
X111000000Y-78374000D01*
X110979998Y-78442121D01*
X110926342Y-78488614D01*
X110874000Y-78500000D01*
X101126000Y-78500000D01*
X101057879Y-78479998D01*
X101011386Y-78426342D01*
X101000000Y-78374000D01*
X101000000Y-76000000D01*
X101697070Y-76000000D01*
X101716760Y-76262754D01*
X101775392Y-76519634D01*
X101775393Y-76519636D01*
X101871651Y-76764900D01*
X101871653Y-76764904D01*
X102003397Y-76993092D01*
X102003400Y-76993097D01*
X102049670Y-77051117D01*
X102049672Y-77051117D01*
X102817912Y-76282876D01*
X102879680Y-76400566D01*
X102992405Y-76527806D01*
X103132305Y-76624371D01*
X103177642Y-76641565D01*
X102408437Y-77410770D01*
X102578532Y-77526739D01*
X102578532Y-77526740D01*
X102815923Y-77641062D01*
X103067704Y-77718728D01*
X103067712Y-77718729D01*
X103328260Y-77758000D01*
X103591740Y-77758000D01*
X103852287Y-77718729D01*
X103852295Y-77718728D01*
X104104076Y-77641062D01*
X104341467Y-77526740D01*
X104511561Y-77410770D01*
X103742356Y-76641565D01*
X103787695Y-76624371D01*
X103927595Y-76527806D01*
X104040320Y-76400566D01*
X104102086Y-76282877D01*
X104870327Y-77051118D01*
X104916603Y-76993090D01*
X105048346Y-76764904D01*
X105048348Y-76764900D01*
X105144606Y-76519636D01*
X105144607Y-76519634D01*
X105203239Y-76262754D01*
X105222929Y-76000000D01*
X106777070Y-76000000D01*
X106796760Y-76262754D01*
X106855392Y-76519634D01*
X106855393Y-76519636D01*
X106951651Y-76764900D01*
X106951653Y-76764904D01*
X107083397Y-76993092D01*
X107083400Y-76993097D01*
X107129670Y-77051117D01*
X107129672Y-77051117D01*
X107897912Y-76282876D01*
X107959680Y-76400566D01*
X108072405Y-76527806D01*
X108212305Y-76624371D01*
X108257642Y-76641565D01*
X107488437Y-77410770D01*
X107658532Y-77526739D01*
X107658532Y-77526740D01*
X107895923Y-77641062D01*
X108147704Y-77718728D01*
X108147712Y-77718729D01*
X108408260Y-77758000D01*
X108671740Y-77758000D01*
X108932287Y-77718729D01*
X108932295Y-77718728D01*
X109184076Y-77641062D01*
X109421467Y-77526740D01*
X109591561Y-77410770D01*
X108822356Y-76641565D01*
X108867695Y-76624371D01*
X109007595Y-76527806D01*
X109120320Y-76400566D01*
X109182086Y-76282877D01*
X109950327Y-77051118D01*
X109996603Y-76993090D01*
X110128346Y-76764904D01*
X110128348Y-76764900D01*
X110224606Y-76519636D01*
X110224607Y-76519634D01*
X110283239Y-76262754D01*
X110302929Y-76000000D01*
X110283239Y-75737245D01*
X110224607Y-75480365D01*
X110224606Y-75480363D01*
X110128348Y-75235099D01*
X110128346Y-75235095D01*
X109996605Y-75006913D01*
X109996600Y-75006905D01*
X109950328Y-74948881D01*
X109950326Y-74948881D01*
X109182086Y-75717121D01*
X109120320Y-75599434D01*
X109007595Y-75472194D01*
X108867695Y-75375629D01*
X108822356Y-75358434D01*
X109591560Y-74589229D01*
X109591560Y-74589228D01*
X109421467Y-74473259D01*
X109184076Y-74358937D01*
X108932295Y-74281271D01*
X108932287Y-74281270D01*
X108671740Y-74242000D01*
X108408260Y-74242000D01*
X108147712Y-74281270D01*
X108147704Y-74281271D01*
X107895923Y-74358937D01*
X107658532Y-74473259D01*
X107658525Y-74473263D01*
X107488438Y-74589227D01*
X107488438Y-74589229D01*
X108257643Y-75358434D01*
X108212305Y-75375629D01*
X108072405Y-75472194D01*
X107959680Y-75599434D01*
X107897913Y-75717122D01*
X107129671Y-74948880D01*
X107129670Y-74948881D01*
X107083400Y-75006904D01*
X107083397Y-75006907D01*
X106951653Y-75235095D01*
X106951651Y-75235099D01*
X106855393Y-75480363D01*
X106855392Y-75480365D01*
X106796760Y-75737245D01*
X106777070Y-76000000D01*
X105222929Y-76000000D01*
X105203239Y-75737245D01*
X105144607Y-75480365D01*
X105144606Y-75480363D01*
X105048348Y-75235099D01*
X105048346Y-75235095D01*
X104916605Y-75006913D01*
X104916600Y-75006905D01*
X104870328Y-74948881D01*
X104870326Y-74948881D01*
X104102086Y-75717121D01*
X104040320Y-75599434D01*
X103927595Y-75472194D01*
X103787695Y-75375629D01*
X103742356Y-75358434D01*
X104511560Y-74589229D01*
X104511560Y-74589228D01*
X104341467Y-74473259D01*
X104104076Y-74358937D01*
X103852295Y-74281271D01*
X103852287Y-74281270D01*
X103591740Y-74242000D01*
X103328260Y-74242000D01*
X103067712Y-74281270D01*
X103067704Y-74281271D01*
X102815923Y-74358937D01*
X102578532Y-74473259D01*
X102578525Y-74473263D01*
X102408438Y-74589227D01*
X102408438Y-74589229D01*
X103177643Y-75358434D01*
X103132305Y-75375629D01*
X102992405Y-75472194D01*
X102879680Y-75599434D01*
X102817913Y-75717122D01*
X102049671Y-74948880D01*
X102049670Y-74948881D01*
X102003400Y-75006904D01*
X102003397Y-75006907D01*
X101871653Y-75235095D01*
X101871651Y-75235099D01*
X101775393Y-75480363D01*
X101775392Y-75480365D01*
X101716760Y-75737245D01*
X101697070Y-76000000D01*
X101000000Y-76000000D01*
X101000000Y-68500000D01*
X101697070Y-68500000D01*
X101716760Y-68762754D01*
X101775392Y-69019634D01*
X101775393Y-69019636D01*
X101871651Y-69264900D01*
X101871653Y-69264904D01*
X102003397Y-69493092D01*
X102003400Y-69493097D01*
X102049670Y-69551117D01*
X102049672Y-69551117D01*
X102817912Y-68782876D01*
X102879680Y-68900566D01*
X102992405Y-69027806D01*
X103132305Y-69124371D01*
X103177642Y-69141565D01*
X102408437Y-69910770D01*
X102578532Y-70026739D01*
X102578532Y-70026740D01*
X102815923Y-70141062D01*
X103067704Y-70218728D01*
X103067712Y-70218729D01*
X103328260Y-70258000D01*
X103591740Y-70258000D01*
X103852287Y-70218729D01*
X103852295Y-70218728D01*
X104104076Y-70141062D01*
X104341467Y-70026740D01*
X104511561Y-69910770D01*
X103742356Y-69141565D01*
X103787695Y-69124371D01*
X103927595Y-69027806D01*
X104040320Y-68900566D01*
X104102086Y-68782877D01*
X104870327Y-69551118D01*
X104916603Y-69493090D01*
X105048346Y-69264904D01*
X105048348Y-69264900D01*
X105144606Y-69019636D01*
X105144607Y-69019634D01*
X105203239Y-68762754D01*
X105222929Y-68500000D01*
X106777070Y-68500000D01*
X106796760Y-68762754D01*
X106855392Y-69019634D01*
X106855393Y-69019636D01*
X106951651Y-69264900D01*
X106951653Y-69264904D01*
X107083397Y-69493092D01*
X107083400Y-69493097D01*
X107129670Y-69551117D01*
X107129672Y-69551117D01*
X107897912Y-68782876D01*
X107959680Y-68900566D01*
X108072405Y-69027806D01*
X108212305Y-69124371D01*
X108257642Y-69141565D01*
X107488437Y-69910770D01*
X107658532Y-70026739D01*
X107658532Y-70026740D01*
X107895923Y-70141062D01*
X108147704Y-70218728D01*
X108147712Y-70218729D01*
X108408260Y-70258000D01*
X108671740Y-70258000D01*
X108932287Y-70218729D01*
X108932295Y-70218728D01*
X109184076Y-70141062D01*
X109421467Y-70026740D01*
X109591561Y-69910770D01*
X108822356Y-69141565D01*
X108867695Y-69124371D01*
X109007595Y-69027806D01*
X109120320Y-68900566D01*
X109182086Y-68782877D01*
X109950327Y-69551118D01*
X109996603Y-69493090D01*
X110128346Y-69264904D01*
X110128348Y-69264900D01*
X110224606Y-69019636D01*
X110224607Y-69019634D01*
X110283239Y-68762754D01*
X110302929Y-68500000D01*
X110283239Y-68237245D01*
X110224607Y-67980365D01*
X110224606Y-67980363D01*
X110128348Y-67735099D01*
X110128346Y-67735095D01*
X109996605Y-67506913D01*
X109996600Y-67506905D01*
X109950328Y-67448881D01*
X109950326Y-67448881D01*
X109182086Y-68217121D01*
X109120320Y-68099434D01*
X109007595Y-67972194D01*
X108867695Y-67875629D01*
X108822356Y-67858434D01*
X109591560Y-67089229D01*
X109591560Y-67089228D01*
X109421467Y-66973259D01*
X109184076Y-66858937D01*
X108932295Y-66781271D01*
X108932287Y-66781270D01*
X108671740Y-66742000D01*
X108408260Y-66742000D01*
X108147712Y-66781270D01*
X108147704Y-66781271D01*
X107895923Y-66858937D01*
X107658532Y-66973259D01*
X107658525Y-66973263D01*
X107488438Y-67089227D01*
X107488438Y-67089229D01*
X108257643Y-67858434D01*
X108212305Y-67875629D01*
X108072405Y-67972194D01*
X107959680Y-68099434D01*
X107897913Y-68217122D01*
X107129671Y-67448880D01*
X107129670Y-67448881D01*
X107083400Y-67506904D01*
X107083397Y-67506907D01*
X106951653Y-67735095D01*
X106951651Y-67735099D01*
X106855393Y-67980363D01*
X106855392Y-67980365D01*
X106796760Y-68237245D01*
X106777070Y-68500000D01*
X105222929Y-68500000D01*
X105203239Y-68237245D01*
X105144607Y-67980365D01*
X105144606Y-67980363D01*
X105048348Y-67735099D01*
X105048346Y-67735095D01*
X104916605Y-67506913D01*
X104916600Y-67506905D01*
X104870328Y-67448881D01*
X104870326Y-67448881D01*
X104102086Y-68217121D01*
X104040320Y-68099434D01*
X103927595Y-67972194D01*
X103787695Y-67875629D01*
X103742356Y-67858434D01*
X104511560Y-67089229D01*
X104511560Y-67089228D01*
X104341467Y-66973259D01*
X104104076Y-66858937D01*
X103852295Y-66781271D01*
X103852287Y-66781270D01*
X103591740Y-66742000D01*
X103328260Y-66742000D01*
X103067712Y-66781270D01*
X103067704Y-66781271D01*
X102815923Y-66858937D01*
X102578532Y-66973259D01*
X102578525Y-66973263D01*
X102408438Y-67089227D01*
X102408438Y-67089229D01*
X103177643Y-67858434D01*
X103132305Y-67875629D01*
X102992405Y-67972194D01*
X102879680Y-68099434D01*
X102817913Y-68217122D01*
X102049671Y-67448880D01*
X102049670Y-67448881D01*
X102003400Y-67506904D01*
X102003397Y-67506907D01*
X101871653Y-67735095D01*
X101871651Y-67735099D01*
X101775393Y-67980363D01*
X101775392Y-67980365D01*
X101716760Y-68237245D01*
X101697070Y-68500000D01*
X101000000Y-68500000D01*
X101000000Y-66126000D01*
X101020002Y-66057879D01*
X101073658Y-66011386D01*
X101126000Y-66000000D01*
X110874000Y-66000000D01*
X110942121Y-66020002D01*
G37*
%TD.AperFunction*%
%TD*%
%TA.AperFunction,Conductor*%
%TO.N,Earth*%
G36*
X127501544Y-1025575D02*
G01*
X127837468Y-1042079D01*
X127843616Y-1042684D01*
X128174782Y-1091808D01*
X128180824Y-1093009D01*
X128505590Y-1174358D01*
X128511494Y-1176148D01*
X128704678Y-1245271D01*
X128826718Y-1288938D01*
X128832433Y-1291305D01*
X129135069Y-1434442D01*
X129140525Y-1437358D01*
X129427675Y-1609468D01*
X129432809Y-1612898D01*
X129701720Y-1812337D01*
X129706491Y-1816252D01*
X129954558Y-2041086D01*
X129958913Y-2045441D01*
X130183745Y-2293506D01*
X130187664Y-2298281D01*
X130387094Y-2567180D01*
X130390531Y-2572324D01*
X130562641Y-2859474D01*
X130565557Y-2864930D01*
X130708694Y-3167566D01*
X130711061Y-3173281D01*
X130823847Y-3488494D01*
X130825642Y-3494414D01*
X130906986Y-3819156D01*
X130908192Y-3825223D01*
X130957314Y-4156375D01*
X130957920Y-4162531D01*
X130974424Y-4498451D01*
X130974500Y-4501543D01*
X130974500Y-22060500D01*
X130954498Y-22128621D01*
X130900842Y-22175114D01*
X130848500Y-22186500D01*
X67125990Y-22186500D01*
X67037267Y-22196039D01*
X67016851Y-22198234D01*
X67016848Y-22198234D01*
X67016844Y-22198235D01*
X67016840Y-22198235D01*
X66964519Y-22209617D01*
X66964498Y-22209623D01*
X66860345Y-22244288D01*
X66737385Y-22323310D01*
X66685019Y-22368685D01*
X66683904Y-22369599D01*
X66588019Y-22480258D01*
X66588017Y-22480261D01*
X66527301Y-22613210D01*
X66507302Y-22681322D01*
X66507300Y-22681329D01*
X66486500Y-22826003D01*
X66486500Y-28374009D01*
X66494727Y-28450525D01*
X66498234Y-28483149D01*
X66499444Y-28488715D01*
X66494382Y-28559528D01*
X66451837Y-28616366D01*
X66385318Y-28641179D01*
X66376325Y-28641500D01*
X66280585Y-28641500D01*
X66212464Y-28621498D01*
X66191490Y-28604595D01*
X64795405Y-27208510D01*
X64761379Y-27146198D01*
X64758500Y-27119415D01*
X64758500Y-20932893D01*
X64762198Y-20834063D01*
X64751125Y-20735790D01*
X64743735Y-20637174D01*
X64737169Y-20608412D01*
X64735989Y-20601464D01*
X64732688Y-20572157D01*
X64707094Y-20476639D01*
X64685087Y-20380220D01*
X64674314Y-20352771D01*
X64672105Y-20346057D01*
X64669715Y-20337142D01*
X64664473Y-20317576D01*
X64634377Y-20248597D01*
X84267000Y-20248597D01*
X84273505Y-20309093D01*
X84324555Y-20445964D01*
X84324555Y-20445965D01*
X84412095Y-20562904D01*
X84529034Y-20650444D01*
X84665906Y-20701494D01*
X84726402Y-20707999D01*
X84726415Y-20708000D01*
X85721000Y-20708000D01*
X85721000Y-19544224D01*
X85818369Y-19584556D01*
X85935677Y-19600000D01*
X86014323Y-19600000D01*
X86131631Y-19584556D01*
X86229000Y-19544224D01*
X86229000Y-20708000D01*
X87223585Y-20708000D01*
X87223597Y-20707999D01*
X87284093Y-20701494D01*
X87420964Y-20650444D01*
X87420965Y-20650444D01*
X87537904Y-20562904D01*
X87625444Y-20445965D01*
X87625444Y-20445964D01*
X87676494Y-20309093D01*
X87682999Y-20248597D01*
X103767000Y-20248597D01*
X103773505Y-20309093D01*
X103824555Y-20445964D01*
X103824555Y-20445965D01*
X103912095Y-20562904D01*
X104029034Y-20650444D01*
X104165906Y-20701494D01*
X104226402Y-20707999D01*
X104226415Y-20708000D01*
X105221000Y-20708000D01*
X105221000Y-19544224D01*
X105318369Y-19584556D01*
X105435677Y-19600000D01*
X105514323Y-19600000D01*
X105631631Y-19584556D01*
X105729000Y-19544224D01*
X105729000Y-20708000D01*
X106723585Y-20708000D01*
X106723597Y-20707999D01*
X106784093Y-20701494D01*
X106920964Y-20650444D01*
X106920965Y-20650444D01*
X107037904Y-20562904D01*
X107125444Y-20445965D01*
X107125444Y-20445964D01*
X107176494Y-20309093D01*
X107182999Y-20248597D01*
X107183000Y-20248585D01*
X107183000Y-19254000D01*
X106019225Y-19254000D01*
X106059556Y-19156631D01*
X106080177Y-19000000D01*
X106059556Y-18843369D01*
X106019225Y-18746000D01*
X107183000Y-18746000D01*
X107183000Y-17751414D01*
X107182999Y-17751402D01*
X107176494Y-17690906D01*
X107125444Y-17554035D01*
X107125444Y-17554034D01*
X107037904Y-17437095D01*
X106920965Y-17349555D01*
X106784093Y-17298505D01*
X106723597Y-17292000D01*
X105729000Y-17292000D01*
X105729000Y-18455775D01*
X105631631Y-18415444D01*
X105514323Y-18400000D01*
X105435677Y-18400000D01*
X105318369Y-18415444D01*
X105221000Y-18455775D01*
X105221000Y-17292000D01*
X104226402Y-17292000D01*
X104165906Y-17298505D01*
X104029035Y-17349555D01*
X104029034Y-17349555D01*
X103912095Y-17437095D01*
X103824555Y-17554034D01*
X103824555Y-17554035D01*
X103773505Y-17690906D01*
X103767000Y-17751402D01*
X103767000Y-18746000D01*
X104930775Y-18746000D01*
X104890444Y-18843369D01*
X104869823Y-19000000D01*
X104890444Y-19156631D01*
X104930775Y-19254000D01*
X103767000Y-19254000D01*
X103767000Y-20248597D01*
X87682999Y-20248597D01*
X87683000Y-20248585D01*
X87683000Y-19254000D01*
X86519225Y-19254000D01*
X86559556Y-19156631D01*
X86580177Y-19000000D01*
X86559556Y-18843369D01*
X86519225Y-18746000D01*
X87683000Y-18746000D01*
X87683000Y-17751414D01*
X87682999Y-17751402D01*
X87676494Y-17690906D01*
X87625444Y-17554035D01*
X87625444Y-17554034D01*
X87537904Y-17437095D01*
X87420965Y-17349555D01*
X87284093Y-17298505D01*
X87223597Y-17292000D01*
X86229000Y-17292000D01*
X86229000Y-18455775D01*
X86131631Y-18415444D01*
X86014323Y-18400000D01*
X85935677Y-18400000D01*
X85818369Y-18415444D01*
X85721000Y-18455775D01*
X85721000Y-17292000D01*
X84726402Y-17292000D01*
X84665906Y-17298505D01*
X84529035Y-17349555D01*
X84529034Y-17349555D01*
X84412095Y-17437095D01*
X84324555Y-17554034D01*
X84324555Y-17554035D01*
X84273505Y-17690906D01*
X84267000Y-17751402D01*
X84267000Y-18746000D01*
X85430775Y-18746000D01*
X85390444Y-18843369D01*
X85369823Y-19000000D01*
X85390444Y-19156631D01*
X85430775Y-19254000D01*
X84267000Y-19254000D01*
X84267000Y-20248597D01*
X64634377Y-20248597D01*
X64624925Y-20226932D01*
X64588796Y-20134876D01*
X64574053Y-20109340D01*
X64570867Y-20103029D01*
X64559076Y-20076003D01*
X64539518Y-20044878D01*
X64506456Y-19992258D01*
X64457017Y-19906627D01*
X64457016Y-19906626D01*
X64457015Y-19906624D01*
X64438626Y-19883565D01*
X64434549Y-19877820D01*
X64418853Y-19852839D01*
X64354338Y-19777871D01*
X64292686Y-19700562D01*
X64220197Y-19633302D01*
X62766697Y-18179802D01*
X62699438Y-18107314D01*
X62699437Y-18107313D01*
X62699435Y-18107311D01*
X62622128Y-18045660D01*
X62547161Y-17981146D01*
X62522187Y-17965454D01*
X62516428Y-17961368D01*
X62493376Y-17942985D01*
X62493372Y-17942982D01*
X62493368Y-17942980D01*
X62407733Y-17893539D01*
X62323999Y-17840925D01*
X62323995Y-17840923D01*
X62296972Y-17829133D01*
X62290662Y-17825948D01*
X62265130Y-17811207D01*
X62265127Y-17811206D01*
X62265124Y-17811204D01*
X62173063Y-17775072D01*
X62082424Y-17735527D01*
X62082422Y-17735526D01*
X62082419Y-17735525D01*
X62053942Y-17727894D01*
X62047231Y-17725685D01*
X62019782Y-17714913D01*
X61923355Y-17692904D01*
X61827844Y-17667312D01*
X61827830Y-17667310D01*
X61798535Y-17664009D01*
X61791571Y-17662825D01*
X61780881Y-17660385D01*
X61762832Y-17656266D01*
X61762829Y-17656265D01*
X61762826Y-17656265D01*
X61664206Y-17648874D01*
X61565938Y-17637802D01*
X61565936Y-17637802D01*
X61467106Y-17641500D01*
X58896629Y-17641500D01*
X58831162Y-17623157D01*
X58667312Y-17523517D01*
X58468325Y-17437086D01*
X58402744Y-17408600D01*
X58175354Y-17344888D01*
X58124986Y-17330776D01*
X58124988Y-17330776D01*
X57839238Y-17291500D01*
X57839225Y-17291500D01*
X57550775Y-17291500D01*
X57550761Y-17291500D01*
X57265012Y-17330776D01*
X57092572Y-17379091D01*
X56987256Y-17408600D01*
X56987254Y-17408601D01*
X56722691Y-17523516D01*
X56722686Y-17523518D01*
X56722686Y-17523519D01*
X56486230Y-17667312D01*
X56476220Y-17673399D01*
X56252487Y-17855420D01*
X56252471Y-17855435D01*
X56055591Y-18066242D01*
X55889247Y-18301896D01*
X55889247Y-18301897D01*
X55756541Y-18558007D01*
X55659945Y-18829802D01*
X55659943Y-18829810D01*
X55601257Y-19112229D01*
X55601256Y-19112234D01*
X55581573Y-19399996D01*
X55581573Y-19400003D01*
X55601256Y-19687765D01*
X55601257Y-19687770D01*
X55601258Y-19687778D01*
X55633443Y-19842661D01*
X55659943Y-19970189D01*
X55659945Y-19970197D01*
X55751188Y-20226931D01*
X55756541Y-20241992D01*
X55889247Y-20498103D01*
X56055591Y-20733758D01*
X56252474Y-20944568D01*
X56252483Y-20944575D01*
X56252487Y-20944579D01*
X56476220Y-21126600D01*
X56476222Y-21126601D01*
X56476228Y-21126606D01*
X56722686Y-21276481D01*
X56987256Y-21391400D01*
X57265011Y-21469223D01*
X57550761Y-21508499D01*
X57550775Y-21508500D01*
X57839225Y-21508500D01*
X57839238Y-21508499D01*
X58051000Y-21479392D01*
X58124989Y-21469223D01*
X58402744Y-21391400D01*
X58646844Y-21285372D01*
X58667312Y-21276482D01*
X58831162Y-21176843D01*
X58896629Y-21158500D01*
X60719415Y-21158500D01*
X60787536Y-21178502D01*
X60808510Y-21195405D01*
X61204595Y-21591490D01*
X61238621Y-21653802D01*
X61241500Y-21680585D01*
X61241500Y-27867105D01*
X61237802Y-27965936D01*
X61248874Y-28064206D01*
X61256265Y-28162826D01*
X61256265Y-28162829D01*
X61256266Y-28162832D01*
X61262825Y-28191568D01*
X61264009Y-28198535D01*
X61267310Y-28227830D01*
X61267312Y-28227844D01*
X61292904Y-28323355D01*
X61314913Y-28419782D01*
X61325685Y-28447231D01*
X61327894Y-28453942D01*
X61335525Y-28482419D01*
X61335526Y-28482422D01*
X61335527Y-28482424D01*
X61375072Y-28573063D01*
X61411204Y-28665124D01*
X61411206Y-28665127D01*
X61411207Y-28665130D01*
X61425948Y-28690662D01*
X61429133Y-28696972D01*
X61440923Y-28723995D01*
X61440925Y-28723999D01*
X61493539Y-28807733D01*
X61542985Y-28893376D01*
X61561368Y-28916428D01*
X61565454Y-28922187D01*
X61581146Y-28947161D01*
X61645660Y-29022128D01*
X61707311Y-29099435D01*
X61707313Y-29099437D01*
X61707314Y-29099438D01*
X61738097Y-29128000D01*
X61779802Y-29166697D01*
X63963095Y-31349990D01*
X63997120Y-31412302D01*
X64000000Y-31439085D01*
X64000000Y-33160914D01*
X63979998Y-33229035D01*
X63963095Y-33250009D01*
X62880597Y-34332507D01*
X61779802Y-35433302D01*
X61742201Y-35468190D01*
X61707313Y-35500562D01*
X61645660Y-35577871D01*
X61581152Y-35652831D01*
X61581147Y-35652837D01*
X61565456Y-35677809D01*
X61561368Y-35683569D01*
X61542983Y-35706626D01*
X61493539Y-35792266D01*
X61440924Y-35876002D01*
X61429134Y-35903024D01*
X61425950Y-35909333D01*
X61411208Y-35934865D01*
X61411205Y-35934873D01*
X61375072Y-36026936D01*
X61335526Y-36117576D01*
X61335526Y-36117577D01*
X61327893Y-36146061D01*
X61325684Y-36152772D01*
X61314914Y-36180217D01*
X61314912Y-36180222D01*
X61292904Y-36276644D01*
X61267312Y-36372155D01*
X61267310Y-36372168D01*
X61264010Y-36401457D01*
X61262826Y-36408423D01*
X61256266Y-36437169D01*
X61256265Y-36437174D01*
X61255634Y-36445598D01*
X61248874Y-36535793D01*
X61237802Y-36634061D01*
X61241500Y-36732894D01*
X61241500Y-42519415D01*
X61221498Y-42587536D01*
X61204595Y-42608510D01*
X60808510Y-43004595D01*
X60746198Y-43038621D01*
X60719415Y-43041500D01*
X58896629Y-43041500D01*
X58831162Y-43023157D01*
X58667312Y-42923517D01*
X58490934Y-42846906D01*
X58402744Y-42808600D01*
X58175354Y-42744888D01*
X58124986Y-42730776D01*
X58124988Y-42730776D01*
X57839238Y-42691500D01*
X57839225Y-42691500D01*
X57550775Y-42691500D01*
X57550761Y-42691500D01*
X57265012Y-42730776D01*
X57092572Y-42779091D01*
X56987256Y-42808600D01*
X56987254Y-42808601D01*
X56722691Y-42923516D01*
X56476220Y-43073399D01*
X56252487Y-43255420D01*
X56252471Y-43255435D01*
X56055591Y-43466242D01*
X55889247Y-43701896D01*
X55889247Y-43701897D01*
X55756541Y-43958007D01*
X55659945Y-44229802D01*
X55659943Y-44229810D01*
X55640747Y-44322190D01*
X55603916Y-44499435D01*
X55601257Y-44512229D01*
X55601256Y-44512234D01*
X55581573Y-44799996D01*
X55581573Y-44800003D01*
X55601256Y-45087765D01*
X55601257Y-45087770D01*
X55601258Y-45087778D01*
X55618775Y-45172075D01*
X55659943Y-45370189D01*
X55659945Y-45370197D01*
X55741616Y-45599998D01*
X55756541Y-45641992D01*
X55889247Y-45898103D01*
X56055591Y-46133758D01*
X56252474Y-46344568D01*
X56252483Y-46344575D01*
X56252487Y-46344579D01*
X56476220Y-46526600D01*
X56476222Y-46526601D01*
X56476228Y-46526606D01*
X56722686Y-46676481D01*
X56987256Y-46791400D01*
X57265011Y-46869223D01*
X57550761Y-46908499D01*
X57550775Y-46908500D01*
X57839225Y-46908500D01*
X57839238Y-46908499D01*
X58051000Y-46879392D01*
X58124989Y-46869223D01*
X58402744Y-46791400D01*
X58646844Y-46685372D01*
X58667312Y-46676482D01*
X58831162Y-46576843D01*
X58896629Y-46558500D01*
X61467106Y-46558500D01*
X61565936Y-46562198D01*
X61664206Y-46551125D01*
X61762826Y-46543735D01*
X61791596Y-46537167D01*
X61798529Y-46535990D01*
X61827842Y-46532688D01*
X61923355Y-46507095D01*
X62019780Y-46485087D01*
X62047228Y-46474313D01*
X62053940Y-46472104D01*
X62082424Y-46464473D01*
X62173063Y-46424927D01*
X62265124Y-46388796D01*
X62290670Y-46374045D01*
X62296957Y-46370871D01*
X62323996Y-46359076D01*
X62407733Y-46306460D01*
X62493376Y-46257015D01*
X62516429Y-46238629D01*
X62522182Y-46234547D01*
X62547161Y-46218853D01*
X62574003Y-46195753D01*
X62622128Y-46154339D01*
X62660047Y-46124099D01*
X62699438Y-46092686D01*
X62766697Y-46020197D01*
X63186894Y-45600000D01*
X84262211Y-45600000D01*
X84281341Y-45855281D01*
X84338305Y-46104854D01*
X84338306Y-46104856D01*
X84431826Y-46343144D01*
X84431828Y-46343148D01*
X84559824Y-46564844D01*
X84559829Y-46564852D01*
X84600250Y-46615537D01*
X84600252Y-46615537D01*
X85410570Y-45805219D01*
X85450901Y-45902588D01*
X85547075Y-46027925D01*
X85672412Y-46124099D01*
X85769779Y-46164429D01*
X84959421Y-46974786D01*
X84959421Y-46974787D01*
X85118610Y-47083321D01*
X85118611Y-47083322D01*
X85349239Y-47194386D01*
X85593862Y-47269844D01*
X85593870Y-47269845D01*
X85847008Y-47308000D01*
X86102992Y-47308000D01*
X86356129Y-47269845D01*
X86356141Y-47269843D01*
X86600746Y-47194392D01*
X86600753Y-47194389D01*
X86831397Y-47083318D01*
X86831399Y-47083317D01*
X86990577Y-46974789D01*
X86990578Y-46974787D01*
X86180220Y-46164429D01*
X86277588Y-46124099D01*
X86402925Y-46027925D01*
X86499099Y-45902589D01*
X86539429Y-45805220D01*
X87349747Y-46615538D01*
X87349748Y-46615537D01*
X87390172Y-46564849D01*
X87390172Y-46564848D01*
X87518171Y-46343148D01*
X87518173Y-46343144D01*
X87611693Y-46104856D01*
X87611694Y-46104854D01*
X87668658Y-45855281D01*
X87687788Y-45600000D01*
X103762211Y-45600000D01*
X103781341Y-45855281D01*
X103838305Y-46104854D01*
X103838306Y-46104856D01*
X103931826Y-46343144D01*
X103931828Y-46343148D01*
X104059824Y-46564844D01*
X104059829Y-46564852D01*
X104100250Y-46615537D01*
X104100252Y-46615537D01*
X104910570Y-45805219D01*
X104950901Y-45902588D01*
X105047075Y-46027925D01*
X105172412Y-46124099D01*
X105269779Y-46164429D01*
X104459421Y-46974786D01*
X104459421Y-46974787D01*
X104618610Y-47083321D01*
X104618611Y-47083322D01*
X104849239Y-47194386D01*
X105093862Y-47269844D01*
X105093870Y-47269845D01*
X105347008Y-47308000D01*
X105602992Y-47308000D01*
X105856129Y-47269845D01*
X105856141Y-47269843D01*
X106100746Y-47194392D01*
X106100753Y-47194389D01*
X106331397Y-47083318D01*
X106331399Y-47083317D01*
X106490577Y-46974789D01*
X106490578Y-46974787D01*
X105680220Y-46164429D01*
X105777588Y-46124099D01*
X105902925Y-46027925D01*
X105999099Y-45902589D01*
X106039429Y-45805220D01*
X106849747Y-46615538D01*
X106849748Y-46615537D01*
X106890172Y-46564849D01*
X106890172Y-46564848D01*
X107018171Y-46343148D01*
X107018173Y-46343144D01*
X107111693Y-46104856D01*
X107111694Y-46104854D01*
X107168658Y-45855281D01*
X107187788Y-45600000D01*
X107168658Y-45344718D01*
X107111694Y-45095145D01*
X107111693Y-45095143D01*
X107018173Y-44856855D01*
X107018171Y-44856851D01*
X106890175Y-44635155D01*
X106849747Y-44584460D01*
X106039429Y-45394778D01*
X105999099Y-45297412D01*
X105902925Y-45172075D01*
X105777588Y-45075901D01*
X105680220Y-45035570D01*
X106490578Y-44225211D01*
X106331390Y-44116678D01*
X106331389Y-44116677D01*
X106100753Y-44005610D01*
X106100746Y-44005607D01*
X105856141Y-43930156D01*
X105856129Y-43930154D01*
X105602992Y-43892000D01*
X105347008Y-43892000D01*
X105093870Y-43930154D01*
X105093862Y-43930155D01*
X104849239Y-44005613D01*
X104618611Y-44116677D01*
X104618603Y-44116682D01*
X104459421Y-44225210D01*
X104459421Y-44225212D01*
X105269779Y-45035570D01*
X105172412Y-45075901D01*
X105047075Y-45172075D01*
X104950901Y-45297411D01*
X104910570Y-45394779D01*
X104100252Y-44584461D01*
X104100250Y-44584461D01*
X104059828Y-44635148D01*
X104059825Y-44635153D01*
X103931828Y-44856851D01*
X103931826Y-44856855D01*
X103838306Y-45095143D01*
X103838305Y-45095145D01*
X103781341Y-45344718D01*
X103762211Y-45600000D01*
X87687788Y-45600000D01*
X87668658Y-45344718D01*
X87611694Y-45095145D01*
X87611693Y-45095143D01*
X87518173Y-44856855D01*
X87518171Y-44856851D01*
X87390175Y-44635155D01*
X87349747Y-44584460D01*
X86539429Y-45394778D01*
X86499099Y-45297412D01*
X86402925Y-45172075D01*
X86277588Y-45075901D01*
X86180220Y-45035570D01*
X86990578Y-44225211D01*
X86831390Y-44116678D01*
X86831389Y-44116677D01*
X86600753Y-44005610D01*
X86600746Y-44005607D01*
X86356141Y-43930156D01*
X86356129Y-43930154D01*
X86102992Y-43892000D01*
X85847008Y-43892000D01*
X85593870Y-43930154D01*
X85593862Y-43930155D01*
X85349239Y-44005613D01*
X85118611Y-44116677D01*
X85118603Y-44116682D01*
X84959421Y-44225210D01*
X84959421Y-44225212D01*
X85769779Y-45035570D01*
X85672412Y-45075901D01*
X85547075Y-45172075D01*
X85450901Y-45297411D01*
X85410570Y-45394779D01*
X84600252Y-44584461D01*
X84600250Y-44584461D01*
X84559828Y-44635148D01*
X84559825Y-44635153D01*
X84431828Y-44856851D01*
X84431826Y-44856855D01*
X84338306Y-45095143D01*
X84338305Y-45095145D01*
X84281341Y-45344718D01*
X84262211Y-45600000D01*
X63186894Y-45600000D01*
X64220197Y-44566697D01*
X64292686Y-44499438D01*
X64328569Y-44454441D01*
X64354339Y-44422128D01*
X64395753Y-44374003D01*
X64418853Y-44347161D01*
X64434547Y-44322182D01*
X64438629Y-44316429D01*
X64457015Y-44293376D01*
X64496369Y-44225212D01*
X64506456Y-44207741D01*
X64523996Y-44179825D01*
X64559076Y-44123997D01*
X64570872Y-44096957D01*
X64574044Y-44090673D01*
X64588796Y-44065124D01*
X64624925Y-43973067D01*
X64664473Y-43882424D01*
X64672104Y-43853944D01*
X64674315Y-43847225D01*
X64685087Y-43819779D01*
X64707094Y-43723360D01*
X64712845Y-43701896D01*
X64732688Y-43627843D01*
X64735989Y-43598533D01*
X64737168Y-43591593D01*
X64743735Y-43562826D01*
X64751125Y-43464209D01*
X64762198Y-43365937D01*
X64758500Y-43267106D01*
X64758500Y-37480585D01*
X64778502Y-37412464D01*
X64795405Y-37391490D01*
X66141490Y-36045405D01*
X66203802Y-36011379D01*
X66230585Y-36008500D01*
X66372360Y-36008500D01*
X66440481Y-36028502D01*
X66486974Y-36082158D01*
X66497077Y-36152429D01*
X66493082Y-36180222D01*
X66486500Y-36226003D01*
X66486500Y-41674009D01*
X66498235Y-41783155D01*
X66498235Y-41783159D01*
X66509617Y-41835480D01*
X66509623Y-41835501D01*
X66544288Y-41939654D01*
X66544290Y-41939657D01*
X66623308Y-42062612D01*
X66623311Y-42062615D01*
X66623315Y-42062621D01*
X66668685Y-42114981D01*
X66669601Y-42116097D01*
X66780258Y-42211980D01*
X66780261Y-42211982D01*
X66913210Y-42272698D01*
X66981331Y-42292700D01*
X67126000Y-42313500D01*
X121360500Y-42313500D01*
X121428621Y-42333502D01*
X121475114Y-42387158D01*
X121486500Y-42439500D01*
X121486500Y-63374000D01*
X121466498Y-63442121D01*
X121412842Y-63488614D01*
X121360500Y-63500000D01*
X49426000Y-63500000D01*
X49357879Y-63479998D01*
X49311386Y-63426342D01*
X49300000Y-63374000D01*
X49300000Y-48006000D01*
X117513917Y-48006000D01*
X118488314Y-48006000D01*
X118472359Y-48021955D01*
X118414835Y-48134852D01*
X118395014Y-48260000D01*
X118414835Y-48385148D01*
X118472359Y-48498045D01*
X118488314Y-48514000D01*
X117513918Y-48514000D01*
X117566186Y-48709068D01*
X117566188Y-48709073D01*
X117662912Y-48916498D01*
X117794184Y-49103974D01*
X117794189Y-49103980D01*
X117956019Y-49265810D01*
X117956025Y-49265815D01*
X118143501Y-49397087D01*
X118350926Y-49493811D01*
X118350931Y-49493813D01*
X118546000Y-49546081D01*
X118546000Y-48571686D01*
X118561955Y-48587641D01*
X118674852Y-48645165D01*
X118768519Y-48660000D01*
X118831481Y-48660000D01*
X118925148Y-48645165D01*
X119038045Y-48587641D01*
X119054000Y-48571686D01*
X119054000Y-49546081D01*
X119249068Y-49493813D01*
X119249073Y-49493811D01*
X119456498Y-49397087D01*
X119643974Y-49265815D01*
X119643980Y-49265810D01*
X119805810Y-49103980D01*
X119805815Y-49103974D01*
X119937087Y-48916498D01*
X120033811Y-48709073D01*
X120033813Y-48709068D01*
X120086082Y-48514000D01*
X119111686Y-48514000D01*
X119127641Y-48498045D01*
X119185165Y-48385148D01*
X119204986Y-48260000D01*
X119185165Y-48134852D01*
X119127641Y-48021955D01*
X119111686Y-48006000D01*
X120086082Y-48006000D01*
X120033813Y-47810931D01*
X120033811Y-47810926D01*
X119937087Y-47603501D01*
X119805815Y-47416025D01*
X119805810Y-47416019D01*
X119643980Y-47254189D01*
X119643974Y-47254184D01*
X119456498Y-47122912D01*
X119249073Y-47026188D01*
X119249071Y-47026187D01*
X119054000Y-46973917D01*
X119054000Y-47948314D01*
X119038045Y-47932359D01*
X118925148Y-47874835D01*
X118831481Y-47860000D01*
X118768519Y-47860000D01*
X118674852Y-47874835D01*
X118561955Y-47932359D01*
X118546000Y-47948314D01*
X118546000Y-46973917D01*
X118545999Y-46973917D01*
X118350928Y-47026187D01*
X118350926Y-47026188D01*
X118143501Y-47122912D01*
X117956025Y-47254184D01*
X117956019Y-47254189D01*
X117794189Y-47416019D01*
X117794184Y-47416025D01*
X117662912Y-47603501D01*
X117566188Y-47810926D01*
X117566186Y-47810931D01*
X117513917Y-48006000D01*
X49300000Y-48006000D01*
X49300000Y-37180004D01*
X55582074Y-37180004D01*
X55601752Y-37467696D01*
X55601753Y-37467702D01*
X55660425Y-37750054D01*
X55660427Y-37750062D01*
X55757002Y-38021798D01*
X55889672Y-38277836D01*
X55889676Y-38277842D01*
X56033787Y-38482002D01*
X56968903Y-37546886D01*
X57057710Y-37688222D01*
X57186778Y-37817290D01*
X57328112Y-37906096D01*
X56394630Y-38839577D01*
X56476514Y-38906194D01*
X56722922Y-39056038D01*
X56987422Y-39170926D01*
X57265111Y-39248731D01*
X57265120Y-39248733D01*
X57550795Y-39287999D01*
X57550809Y-39288000D01*
X57839191Y-39288000D01*
X57839204Y-39287999D01*
X58124879Y-39248733D01*
X58124888Y-39248731D01*
X58402577Y-39170926D01*
X58667077Y-39056038D01*
X58913490Y-38906191D01*
X58995367Y-38839578D01*
X58995367Y-38839577D01*
X58061887Y-37906096D01*
X58203222Y-37817290D01*
X58332290Y-37688222D01*
X58421096Y-37546887D01*
X59356211Y-38482002D01*
X59356212Y-38482001D01*
X59500319Y-38277850D01*
X59500328Y-38277835D01*
X59632997Y-38021798D01*
X59729572Y-37750062D01*
X59729574Y-37750054D01*
X59788246Y-37467702D01*
X59788247Y-37467696D01*
X59807926Y-37180004D01*
X59807926Y-37179995D01*
X59788247Y-36892303D01*
X59788246Y-36892297D01*
X59729574Y-36609945D01*
X59729572Y-36609937D01*
X59632997Y-36338201D01*
X59500327Y-36082163D01*
X59500324Y-36082157D01*
X59356211Y-35877997D01*
X58421096Y-36813112D01*
X58332290Y-36671778D01*
X58203222Y-36542710D01*
X58061887Y-36453903D01*
X58995368Y-35520422D01*
X58995367Y-35520421D01*
X58913485Y-35453805D01*
X58667077Y-35303961D01*
X58402577Y-35189073D01*
X58124888Y-35111268D01*
X58124879Y-35111266D01*
X57839204Y-35072000D01*
X57550795Y-35072000D01*
X57265120Y-35111266D01*
X57265111Y-35111268D01*
X56987422Y-35189073D01*
X56722918Y-35303962D01*
X56476517Y-35453802D01*
X56394631Y-35520421D01*
X56394630Y-35520421D01*
X57328112Y-36453903D01*
X57186778Y-36542710D01*
X57057710Y-36671778D01*
X56968903Y-36813112D01*
X56033787Y-35877996D01*
X55889676Y-36082158D01*
X55889672Y-36082163D01*
X55757002Y-36338201D01*
X55660427Y-36609937D01*
X55660425Y-36609945D01*
X55601753Y-36892297D01*
X55601752Y-36892303D01*
X55582074Y-37179995D01*
X55582074Y-37180004D01*
X49300000Y-37180004D01*
X49300000Y-32169596D01*
X54520687Y-32169596D01*
X54551114Y-32446128D01*
X54621480Y-32715278D01*
X54694016Y-32885968D01*
X54730284Y-32971314D01*
X54875208Y-33208781D01*
X55053163Y-33422617D01*
X55260357Y-33608263D01*
X55492373Y-33761763D01*
X55744267Y-33879846D01*
X56010669Y-33959995D01*
X56285895Y-34000499D01*
X56285898Y-34000500D01*
X56285901Y-34000500D01*
X56494465Y-34000500D01*
X56527315Y-33998095D01*
X56702455Y-33985277D01*
X56973997Y-33924788D01*
X57233838Y-33825408D01*
X57476440Y-33689253D01*
X57696632Y-33519226D01*
X57889722Y-33318951D01*
X58051593Y-33092696D01*
X58178797Y-32845283D01*
X58268621Y-32581986D01*
X58319152Y-32308416D01*
X58329313Y-32030404D01*
X58298886Y-31753876D01*
X58228520Y-31484724D01*
X58119716Y-31228686D01*
X57974792Y-30991219D01*
X57796837Y-30777383D01*
X57589643Y-30591737D01*
X57357627Y-30438237D01*
X57221860Y-30374592D01*
X57105734Y-30320154D01*
X57026263Y-30296244D01*
X56839331Y-30240005D01*
X56839326Y-30240004D01*
X56839322Y-30240003D01*
X56564103Y-30199500D01*
X56564099Y-30199500D01*
X56355537Y-30199500D01*
X56355535Y-30199500D01*
X56147541Y-30214723D01*
X55876009Y-30275210D01*
X55875997Y-30275214D01*
X55616161Y-30374592D01*
X55373559Y-30510747D01*
X55153366Y-30680775D01*
X55153365Y-30680776D01*
X54960280Y-30881046D01*
X54798404Y-31107307D01*
X54671204Y-31354714D01*
X54581377Y-31618020D01*
X54530847Y-31891587D01*
X54520687Y-32169596D01*
X49300000Y-32169596D01*
X49300000Y-27020004D01*
X55582074Y-27020004D01*
X55601752Y-27307696D01*
X55601753Y-27307702D01*
X55660425Y-27590054D01*
X55660427Y-27590062D01*
X55757002Y-27861798D01*
X55889672Y-28117836D01*
X55889676Y-28117842D01*
X56033787Y-28322002D01*
X56968903Y-27386886D01*
X57057710Y-27528222D01*
X57186778Y-27657290D01*
X57328112Y-27746096D01*
X56394630Y-28679577D01*
X56476514Y-28746194D01*
X56722922Y-28896038D01*
X56987422Y-29010926D01*
X57265111Y-29088731D01*
X57265120Y-29088733D01*
X57550795Y-29127999D01*
X57550809Y-29128000D01*
X57839191Y-29128000D01*
X57839204Y-29127999D01*
X58124879Y-29088733D01*
X58124888Y-29088731D01*
X58402577Y-29010926D01*
X58667077Y-28896038D01*
X58913490Y-28746191D01*
X58995367Y-28679578D01*
X58995367Y-28679577D01*
X58061887Y-27746096D01*
X58203222Y-27657290D01*
X58332290Y-27528222D01*
X58421096Y-27386887D01*
X59356211Y-28322002D01*
X59356212Y-28322001D01*
X59500319Y-28117850D01*
X59500328Y-28117835D01*
X59632997Y-27861798D01*
X59729572Y-27590062D01*
X59729574Y-27590054D01*
X59788246Y-27307702D01*
X59788247Y-27307696D01*
X59807926Y-27020004D01*
X59807926Y-27019995D01*
X59788247Y-26732303D01*
X59788246Y-26732297D01*
X59729574Y-26449945D01*
X59729572Y-26449937D01*
X59632997Y-26178201D01*
X59500327Y-25922163D01*
X59500324Y-25922157D01*
X59356211Y-25717997D01*
X58421096Y-26653112D01*
X58332290Y-26511778D01*
X58203222Y-26382710D01*
X58061887Y-26293903D01*
X58995368Y-25360422D01*
X58995367Y-25360421D01*
X58913485Y-25293805D01*
X58667077Y-25143961D01*
X58402577Y-25029073D01*
X58124888Y-24951268D01*
X58124879Y-24951266D01*
X57839204Y-24912000D01*
X57550795Y-24912000D01*
X57265120Y-24951266D01*
X57265111Y-24951268D01*
X56987422Y-25029073D01*
X56722918Y-25143962D01*
X56476517Y-25293802D01*
X56394631Y-25360421D01*
X56394630Y-25360421D01*
X57328112Y-26293903D01*
X57186778Y-26382710D01*
X57057710Y-26511778D01*
X56968903Y-26653112D01*
X56033787Y-25717996D01*
X55889674Y-25922160D01*
X55889672Y-25922163D01*
X55757002Y-26178201D01*
X55660427Y-26449937D01*
X55660425Y-26449945D01*
X55601753Y-26732297D01*
X55601752Y-26732303D01*
X55582074Y-27019995D01*
X55582074Y-27020004D01*
X49300000Y-27020004D01*
X49300000Y-16300000D01*
X117487004Y-16300000D01*
X117506951Y-16528002D01*
X117566186Y-16749068D01*
X117566188Y-16749073D01*
X117662913Y-16956501D01*
X117712899Y-17027888D01*
X118401272Y-16339516D01*
X118414835Y-16425148D01*
X118472359Y-16538045D01*
X118561955Y-16627641D01*
X118674852Y-16685165D01*
X118760482Y-16698727D01*
X118072110Y-17387098D01*
X118072110Y-17387100D01*
X118143498Y-17437086D01*
X118350926Y-17533811D01*
X118350931Y-17533813D01*
X118571999Y-17593048D01*
X118571995Y-17593048D01*
X118800000Y-17612995D01*
X119028002Y-17593048D01*
X119249068Y-17533813D01*
X119249073Y-17533811D01*
X119456497Y-17437088D01*
X119527888Y-17387099D01*
X119527888Y-17387097D01*
X118839518Y-16698727D01*
X118925148Y-16685165D01*
X119038045Y-16627641D01*
X119127641Y-16538045D01*
X119185165Y-16425148D01*
X119198727Y-16339518D01*
X119887097Y-17027888D01*
X119887099Y-17027888D01*
X119937088Y-16956497D01*
X120033811Y-16749073D01*
X120033813Y-16749068D01*
X120093048Y-16528002D01*
X120112995Y-16300000D01*
X120093048Y-16071997D01*
X120033813Y-15850931D01*
X120033811Y-15850926D01*
X119937086Y-15643498D01*
X119887100Y-15572110D01*
X119887098Y-15572110D01*
X119198727Y-16260481D01*
X119185165Y-16174852D01*
X119127641Y-16061955D01*
X119038045Y-15972359D01*
X118925148Y-15914835D01*
X118839517Y-15901272D01*
X119527888Y-15212899D01*
X119527888Y-15212898D01*
X119456501Y-15162913D01*
X119249073Y-15066188D01*
X119249068Y-15066186D01*
X119028000Y-15006951D01*
X119028004Y-15006951D01*
X118800000Y-14987004D01*
X118571997Y-15006951D01*
X118350931Y-15066186D01*
X118350926Y-15066188D01*
X118143500Y-15162913D01*
X118072109Y-15212900D01*
X118760481Y-15901272D01*
X118674852Y-15914835D01*
X118561955Y-15972359D01*
X118472359Y-16061955D01*
X118414835Y-16174852D01*
X118401272Y-16260481D01*
X117712900Y-15572109D01*
X117662913Y-15643500D01*
X117566188Y-15850926D01*
X117566186Y-15850931D01*
X117506951Y-16071997D01*
X117487004Y-16300000D01*
X49300000Y-16300000D01*
X49300000Y-6000000D01*
X66697070Y-6000000D01*
X66716760Y-6262754D01*
X66775392Y-6519634D01*
X66775393Y-6519636D01*
X66871651Y-6764900D01*
X66871653Y-6764904D01*
X67003397Y-6993092D01*
X67003400Y-6993097D01*
X67049670Y-7051117D01*
X67049672Y-7051117D01*
X67817912Y-6282876D01*
X67879680Y-6400566D01*
X67992405Y-6527806D01*
X68132305Y-6624371D01*
X68177642Y-6641565D01*
X67408437Y-7410770D01*
X67578532Y-7526739D01*
X67578532Y-7526740D01*
X67815923Y-7641062D01*
X68067704Y-7718728D01*
X68067712Y-7718729D01*
X68328260Y-7758000D01*
X68591740Y-7758000D01*
X68852287Y-7718729D01*
X68852295Y-7718728D01*
X69104076Y-7641062D01*
X69341467Y-7526740D01*
X69511561Y-7410770D01*
X68742356Y-6641565D01*
X68787695Y-6624371D01*
X68927595Y-6527806D01*
X69040320Y-6400566D01*
X69102086Y-6282877D01*
X69870327Y-7051118D01*
X69916603Y-6993090D01*
X70048346Y-6764904D01*
X70048348Y-6764900D01*
X70144606Y-6519636D01*
X70144607Y-6519634D01*
X70203239Y-6262754D01*
X70222929Y-6000000D01*
X71777070Y-6000000D01*
X71796760Y-6262754D01*
X71855392Y-6519634D01*
X71855393Y-6519636D01*
X71951651Y-6764900D01*
X71951653Y-6764904D01*
X72083397Y-6993092D01*
X72083400Y-6993097D01*
X72129670Y-7051117D01*
X72129672Y-7051117D01*
X72897912Y-6282876D01*
X72959680Y-6400566D01*
X73072405Y-6527806D01*
X73212305Y-6624371D01*
X73257642Y-6641565D01*
X72488437Y-7410770D01*
X72658532Y-7526739D01*
X72658532Y-7526740D01*
X72895923Y-7641062D01*
X73147704Y-7718728D01*
X73147712Y-7718729D01*
X73408260Y-7758000D01*
X73671740Y-7758000D01*
X73932287Y-7718729D01*
X73932295Y-7718728D01*
X74184076Y-7641062D01*
X74421467Y-7526740D01*
X74591561Y-7410770D01*
X73822356Y-6641565D01*
X73867695Y-6624371D01*
X74007595Y-6527806D01*
X74120320Y-6400566D01*
X74182086Y-6282877D01*
X74950327Y-7051118D01*
X74996603Y-6993090D01*
X75128346Y-6764904D01*
X75128348Y-6764900D01*
X75224606Y-6519636D01*
X75224607Y-6519634D01*
X75283239Y-6262754D01*
X75302929Y-6000000D01*
X79197070Y-6000000D01*
X79216760Y-6262754D01*
X79275392Y-6519634D01*
X79275393Y-6519636D01*
X79371651Y-6764900D01*
X79371653Y-6764904D01*
X79503397Y-6993092D01*
X79503400Y-6993097D01*
X79549670Y-7051117D01*
X79549672Y-7051117D01*
X80317912Y-6282876D01*
X80379680Y-6400566D01*
X80492405Y-6527806D01*
X80632305Y-6624371D01*
X80677642Y-6641565D01*
X79908437Y-7410770D01*
X80078532Y-7526739D01*
X80078532Y-7526740D01*
X80315923Y-7641062D01*
X80567704Y-7718728D01*
X80567712Y-7718729D01*
X80828260Y-7758000D01*
X81091740Y-7758000D01*
X81352287Y-7718729D01*
X81352295Y-7718728D01*
X81604076Y-7641062D01*
X81841467Y-7526740D01*
X82011561Y-7410770D01*
X81242356Y-6641565D01*
X81287695Y-6624371D01*
X81427595Y-6527806D01*
X81540320Y-6400566D01*
X81602086Y-6282877D01*
X82370327Y-7051118D01*
X82416603Y-6993090D01*
X82548346Y-6764904D01*
X82548348Y-6764900D01*
X82644606Y-6519636D01*
X82644607Y-6519634D01*
X82703239Y-6262754D01*
X82722929Y-6000000D01*
X84277070Y-6000000D01*
X84296760Y-6262754D01*
X84355392Y-6519634D01*
X84355393Y-6519636D01*
X84451651Y-6764900D01*
X84451653Y-6764904D01*
X84583397Y-6993092D01*
X84583400Y-6993097D01*
X84629670Y-7051117D01*
X84629672Y-7051117D01*
X85397912Y-6282876D01*
X85459680Y-6400566D01*
X85572405Y-6527806D01*
X85712305Y-6624371D01*
X85757642Y-6641565D01*
X84988437Y-7410770D01*
X85158532Y-7526739D01*
X85158532Y-7526740D01*
X85395923Y-7641062D01*
X85647704Y-7718728D01*
X85647712Y-7718729D01*
X85908260Y-7758000D01*
X86171740Y-7758000D01*
X86432287Y-7718729D01*
X86432295Y-7718728D01*
X86684076Y-7641062D01*
X86921467Y-7526740D01*
X87091561Y-7410770D01*
X86322356Y-6641565D01*
X86367695Y-6624371D01*
X86507595Y-6527806D01*
X86620320Y-6400566D01*
X86682086Y-6282877D01*
X87450327Y-7051118D01*
X87496603Y-6993090D01*
X87628346Y-6764904D01*
X87628348Y-6764900D01*
X87724606Y-6519636D01*
X87724607Y-6519634D01*
X87783239Y-6262754D01*
X87802929Y-6000000D01*
X91697070Y-6000000D01*
X91716760Y-6262754D01*
X91775392Y-6519634D01*
X91775393Y-6519636D01*
X91871651Y-6764900D01*
X91871653Y-6764904D01*
X92003397Y-6993092D01*
X92003400Y-6993097D01*
X92049670Y-7051117D01*
X92049672Y-7051117D01*
X92817912Y-6282876D01*
X92879680Y-6400566D01*
X92992405Y-6527806D01*
X93132305Y-6624371D01*
X93177642Y-6641565D01*
X92408437Y-7410770D01*
X92578532Y-7526739D01*
X92578532Y-7526740D01*
X92815923Y-7641062D01*
X93067704Y-7718728D01*
X93067712Y-7718729D01*
X93328260Y-7758000D01*
X93591740Y-7758000D01*
X93852287Y-7718729D01*
X93852295Y-7718728D01*
X94104076Y-7641062D01*
X94341467Y-7526740D01*
X94511561Y-7410770D01*
X93742356Y-6641565D01*
X93787695Y-6624371D01*
X93927595Y-6527806D01*
X94040320Y-6400566D01*
X94102086Y-6282877D01*
X94870327Y-7051118D01*
X94916603Y-6993090D01*
X95048346Y-6764904D01*
X95048348Y-6764900D01*
X95144606Y-6519636D01*
X95144607Y-6519634D01*
X95203239Y-6262754D01*
X95222929Y-6000000D01*
X96777070Y-6000000D01*
X96796760Y-6262754D01*
X96855392Y-6519634D01*
X96855393Y-6519636D01*
X96951651Y-6764900D01*
X96951653Y-6764904D01*
X97083397Y-6993092D01*
X97083400Y-6993097D01*
X97129670Y-7051117D01*
X97129672Y-7051117D01*
X97897912Y-6282876D01*
X97959680Y-6400566D01*
X98072405Y-6527806D01*
X98212305Y-6624371D01*
X98257642Y-6641565D01*
X97488437Y-7410770D01*
X97658532Y-7526739D01*
X97658532Y-7526740D01*
X97895923Y-7641062D01*
X98147704Y-7718728D01*
X98147712Y-7718729D01*
X98408260Y-7758000D01*
X98671740Y-7758000D01*
X98932287Y-7718729D01*
X98932295Y-7718728D01*
X99184076Y-7641062D01*
X99421467Y-7526740D01*
X99591561Y-7410770D01*
X98822356Y-6641565D01*
X98867695Y-6624371D01*
X99007595Y-6527806D01*
X99120320Y-6400566D01*
X99182086Y-6282877D01*
X99950327Y-7051118D01*
X99996603Y-6993090D01*
X100128346Y-6764904D01*
X100128348Y-6764900D01*
X100224606Y-6519636D01*
X100224607Y-6519634D01*
X100283239Y-6262754D01*
X100302929Y-6000000D01*
X104197070Y-6000000D01*
X104216760Y-6262754D01*
X104275392Y-6519634D01*
X104275393Y-6519636D01*
X104371651Y-6764900D01*
X104371653Y-6764904D01*
X104503397Y-6993092D01*
X104503400Y-6993097D01*
X104549670Y-7051117D01*
X104549672Y-7051117D01*
X105317912Y-6282876D01*
X105379680Y-6400566D01*
X105492405Y-6527806D01*
X105632305Y-6624371D01*
X105677642Y-6641565D01*
X104908437Y-7410770D01*
X105078532Y-7526739D01*
X105078532Y-7526740D01*
X105315923Y-7641062D01*
X105567704Y-7718728D01*
X105567712Y-7718729D01*
X105828260Y-7758000D01*
X106091740Y-7758000D01*
X106352287Y-7718729D01*
X106352295Y-7718728D01*
X106604076Y-7641062D01*
X106841467Y-7526740D01*
X107011561Y-7410770D01*
X106242356Y-6641565D01*
X106287695Y-6624371D01*
X106427595Y-6527806D01*
X106540320Y-6400566D01*
X106602086Y-6282877D01*
X107370327Y-7051118D01*
X107416603Y-6993090D01*
X107548346Y-6764904D01*
X107548348Y-6764900D01*
X107644606Y-6519636D01*
X107644607Y-6519634D01*
X107703239Y-6262754D01*
X107722929Y-6000000D01*
X109277070Y-6000000D01*
X109296760Y-6262754D01*
X109355392Y-6519634D01*
X109355393Y-6519636D01*
X109451651Y-6764900D01*
X109451653Y-6764904D01*
X109583397Y-6993092D01*
X109583400Y-6993097D01*
X109629670Y-7051117D01*
X109629672Y-7051117D01*
X110397912Y-6282876D01*
X110459680Y-6400566D01*
X110572405Y-6527806D01*
X110712305Y-6624371D01*
X110757642Y-6641565D01*
X109988437Y-7410770D01*
X110158532Y-7526739D01*
X110158532Y-7526740D01*
X110395923Y-7641062D01*
X110647704Y-7718728D01*
X110647712Y-7718729D01*
X110908260Y-7758000D01*
X111171740Y-7758000D01*
X111432287Y-7718729D01*
X111432295Y-7718728D01*
X111684076Y-7641062D01*
X111921467Y-7526740D01*
X112091561Y-7410770D01*
X111322356Y-6641565D01*
X111367695Y-6624371D01*
X111507595Y-6527806D01*
X111620320Y-6400566D01*
X111682086Y-6282877D01*
X112450327Y-7051118D01*
X112496603Y-6993090D01*
X112628346Y-6764904D01*
X112628348Y-6764900D01*
X112724606Y-6519636D01*
X112724607Y-6519634D01*
X112783239Y-6262754D01*
X112802929Y-6000000D01*
X112783239Y-5737245D01*
X112724607Y-5480365D01*
X112724606Y-5480363D01*
X112628348Y-5235099D01*
X112628346Y-5235095D01*
X112496605Y-5006913D01*
X112496600Y-5006905D01*
X112450328Y-4948881D01*
X112450326Y-4948881D01*
X111682086Y-5717121D01*
X111620320Y-5599434D01*
X111507595Y-5472194D01*
X111367695Y-5375629D01*
X111322356Y-5358434D01*
X112091560Y-4589229D01*
X112091560Y-4589228D01*
X112060080Y-4567765D01*
X125645788Y-4567765D01*
X125675412Y-4837014D01*
X125743928Y-5099090D01*
X125849869Y-5348389D01*
X125849870Y-5348390D01*
X125990982Y-5579610D01*
X126164255Y-5787820D01*
X126365998Y-5968582D01*
X126591910Y-6118044D01*
X126837176Y-6233020D01*
X127096569Y-6311060D01*
X127096572Y-6311060D01*
X127096574Y-6311061D01*
X127364557Y-6350500D01*
X127364561Y-6350500D01*
X127567633Y-6350500D01*
X127602363Y-6347957D01*
X127770156Y-6335677D01*
X127770160Y-6335676D01*
X127770161Y-6335676D01*
X127880665Y-6311060D01*
X128034553Y-6276780D01*
X128287558Y-6180014D01*
X128523777Y-6047441D01*
X128738177Y-5881888D01*
X128926186Y-5686881D01*
X129083799Y-5466579D01*
X129207656Y-5225675D01*
X129295118Y-4969305D01*
X129344319Y-4702933D01*
X129354212Y-4432235D01*
X129339338Y-4297058D01*
X129324587Y-4162985D01*
X129290000Y-4030689D01*
X129256072Y-3900912D01*
X129221329Y-3819156D01*
X129150130Y-3651610D01*
X129144473Y-3642340D01*
X129009018Y-3420390D01*
X128835745Y-3212180D01*
X128835741Y-3212177D01*
X128835740Y-3212175D01*
X128634012Y-3031427D01*
X128634002Y-3031418D01*
X128408090Y-2881956D01*
X128162824Y-2766980D01*
X128005392Y-2719615D01*
X127903425Y-2688938D01*
X127635442Y-2649500D01*
X127635439Y-2649500D01*
X127432369Y-2649500D01*
X127432367Y-2649500D01*
X127229839Y-2664323D01*
X127229838Y-2664323D01*
X126965456Y-2723217D01*
X126965441Y-2723222D01*
X126712441Y-2819986D01*
X126476229Y-2952555D01*
X126476225Y-2952557D01*
X126261818Y-3118116D01*
X126073815Y-3313117D01*
X126073810Y-3313123D01*
X125916203Y-3533417D01*
X125916196Y-3533427D01*
X125792343Y-3774324D01*
X125792342Y-3774327D01*
X125704883Y-4030689D01*
X125704880Y-4030702D01*
X125655681Y-4297058D01*
X125655680Y-4297069D01*
X125645788Y-4567765D01*
X112060080Y-4567765D01*
X111921467Y-4473259D01*
X111684076Y-4358937D01*
X111432295Y-4281271D01*
X111432287Y-4281270D01*
X111171740Y-4242000D01*
X110908260Y-4242000D01*
X110647712Y-4281270D01*
X110647704Y-4281271D01*
X110395923Y-4358937D01*
X110158532Y-4473259D01*
X110158525Y-4473263D01*
X109988438Y-4589227D01*
X109988438Y-4589229D01*
X110757643Y-5358434D01*
X110712305Y-5375629D01*
X110572405Y-5472194D01*
X110459680Y-5599434D01*
X110397913Y-5717122D01*
X109629671Y-4948880D01*
X109629670Y-4948881D01*
X109583400Y-5006904D01*
X109583397Y-5006907D01*
X109451653Y-5235095D01*
X109451651Y-5235099D01*
X109355393Y-5480363D01*
X109355392Y-5480365D01*
X109296760Y-5737245D01*
X109277070Y-6000000D01*
X107722929Y-6000000D01*
X107703239Y-5737245D01*
X107644607Y-5480365D01*
X107644606Y-5480363D01*
X107548348Y-5235099D01*
X107548346Y-5235095D01*
X107416605Y-5006913D01*
X107416600Y-5006905D01*
X107370328Y-4948881D01*
X107370326Y-4948881D01*
X106602086Y-5717121D01*
X106540320Y-5599434D01*
X106427595Y-5472194D01*
X106287695Y-5375629D01*
X106242356Y-5358434D01*
X107011560Y-4589229D01*
X107011560Y-4589228D01*
X106841467Y-4473259D01*
X106604076Y-4358937D01*
X106352295Y-4281271D01*
X106352287Y-4281270D01*
X106091740Y-4242000D01*
X105828260Y-4242000D01*
X105567712Y-4281270D01*
X105567704Y-4281271D01*
X105315923Y-4358937D01*
X105078532Y-4473259D01*
X105078525Y-4473263D01*
X104908438Y-4589227D01*
X104908438Y-4589229D01*
X105677643Y-5358434D01*
X105632305Y-5375629D01*
X105492405Y-5472194D01*
X105379680Y-5599434D01*
X105317913Y-5717122D01*
X104549671Y-4948880D01*
X104549670Y-4948881D01*
X104503400Y-5006904D01*
X104503397Y-5006907D01*
X104371653Y-5235095D01*
X104371651Y-5235099D01*
X104275393Y-5480363D01*
X104275392Y-5480365D01*
X104216760Y-5737245D01*
X104197070Y-6000000D01*
X100302929Y-6000000D01*
X100283239Y-5737245D01*
X100224607Y-5480365D01*
X100224606Y-5480363D01*
X100128348Y-5235099D01*
X100128346Y-5235095D01*
X99996605Y-5006913D01*
X99996600Y-5006905D01*
X99950328Y-4948881D01*
X99950326Y-4948881D01*
X99182086Y-5717121D01*
X99120320Y-5599434D01*
X99007595Y-5472194D01*
X98867695Y-5375629D01*
X98822356Y-5358434D01*
X99591560Y-4589229D01*
X99591560Y-4589228D01*
X99421467Y-4473259D01*
X99184076Y-4358937D01*
X98932295Y-4281271D01*
X98932287Y-4281270D01*
X98671740Y-4242000D01*
X98408260Y-4242000D01*
X98147712Y-4281270D01*
X98147704Y-4281271D01*
X97895923Y-4358937D01*
X97658532Y-4473259D01*
X97658525Y-4473263D01*
X97488438Y-4589227D01*
X97488438Y-4589229D01*
X98257643Y-5358434D01*
X98212305Y-5375629D01*
X98072405Y-5472194D01*
X97959680Y-5599434D01*
X97897913Y-5717122D01*
X97129671Y-4948880D01*
X97129670Y-4948881D01*
X97083400Y-5006904D01*
X97083397Y-5006907D01*
X96951653Y-5235095D01*
X96951651Y-5235099D01*
X96855393Y-5480363D01*
X96855392Y-5480365D01*
X96796760Y-5737245D01*
X96777070Y-6000000D01*
X95222929Y-6000000D01*
X95203239Y-5737245D01*
X95144607Y-5480365D01*
X95144606Y-5480363D01*
X95048348Y-5235099D01*
X95048346Y-5235095D01*
X94916605Y-5006913D01*
X94916600Y-5006905D01*
X94870328Y-4948881D01*
X94870326Y-4948881D01*
X94102086Y-5717121D01*
X94040320Y-5599434D01*
X93927595Y-5472194D01*
X93787695Y-5375629D01*
X93742356Y-5358434D01*
X94511560Y-4589229D01*
X94511560Y-4589228D01*
X94341467Y-4473259D01*
X94104076Y-4358937D01*
X93852295Y-4281271D01*
X93852287Y-4281270D01*
X93591740Y-4242000D01*
X93328260Y-4242000D01*
X93067712Y-4281270D01*
X93067704Y-4281271D01*
X92815923Y-4358937D01*
X92578532Y-4473259D01*
X92578525Y-4473263D01*
X92408438Y-4589227D01*
X92408438Y-4589229D01*
X93177643Y-5358434D01*
X93132305Y-5375629D01*
X92992405Y-5472194D01*
X92879680Y-5599434D01*
X92817913Y-5717122D01*
X92049671Y-4948880D01*
X92049670Y-4948881D01*
X92003400Y-5006904D01*
X92003397Y-5006907D01*
X91871653Y-5235095D01*
X91871651Y-5235099D01*
X91775393Y-5480363D01*
X91775392Y-5480365D01*
X91716760Y-5737245D01*
X91697070Y-6000000D01*
X87802929Y-6000000D01*
X87783239Y-5737245D01*
X87724607Y-5480365D01*
X87724606Y-5480363D01*
X87628348Y-5235099D01*
X87628346Y-5235095D01*
X87496605Y-5006913D01*
X87496600Y-5006905D01*
X87450328Y-4948881D01*
X87450326Y-4948881D01*
X86682086Y-5717121D01*
X86620320Y-5599434D01*
X86507595Y-5472194D01*
X86367695Y-5375629D01*
X86322356Y-5358434D01*
X87091560Y-4589229D01*
X87091560Y-4589228D01*
X86921467Y-4473259D01*
X86684076Y-4358937D01*
X86432295Y-4281271D01*
X86432287Y-4281270D01*
X86171740Y-4242000D01*
X85908260Y-4242000D01*
X85647712Y-4281270D01*
X85647704Y-4281271D01*
X85395923Y-4358937D01*
X85158532Y-4473259D01*
X85158525Y-4473263D01*
X84988438Y-4589227D01*
X84988438Y-4589229D01*
X85757643Y-5358434D01*
X85712305Y-5375629D01*
X85572405Y-5472194D01*
X85459680Y-5599434D01*
X85397913Y-5717122D01*
X84629671Y-4948880D01*
X84629670Y-4948881D01*
X84583400Y-5006904D01*
X84583397Y-5006907D01*
X84451653Y-5235095D01*
X84451651Y-5235099D01*
X84355393Y-5480363D01*
X84355392Y-5480365D01*
X84296760Y-5737245D01*
X84277070Y-6000000D01*
X82722929Y-6000000D01*
X82703239Y-5737245D01*
X82644607Y-5480365D01*
X82644606Y-5480363D01*
X82548348Y-5235099D01*
X82548346Y-5235095D01*
X82416605Y-5006913D01*
X82416600Y-5006905D01*
X82370328Y-4948881D01*
X82370326Y-4948881D01*
X81602086Y-5717121D01*
X81540320Y-5599434D01*
X81427595Y-5472194D01*
X81287695Y-5375629D01*
X81242356Y-5358434D01*
X82011560Y-4589229D01*
X82011560Y-4589228D01*
X81841467Y-4473259D01*
X81604076Y-4358937D01*
X81352295Y-4281271D01*
X81352287Y-4281270D01*
X81091740Y-4242000D01*
X80828260Y-4242000D01*
X80567712Y-4281270D01*
X80567704Y-4281271D01*
X80315923Y-4358937D01*
X80078532Y-4473259D01*
X80078525Y-4473263D01*
X79908438Y-4589227D01*
X79908438Y-4589229D01*
X80677643Y-5358434D01*
X80632305Y-5375629D01*
X80492405Y-5472194D01*
X80379680Y-5599434D01*
X80317913Y-5717122D01*
X79549671Y-4948880D01*
X79549670Y-4948881D01*
X79503400Y-5006904D01*
X79503397Y-5006907D01*
X79371653Y-5235095D01*
X79371651Y-5235099D01*
X79275393Y-5480363D01*
X79275392Y-5480365D01*
X79216760Y-5737245D01*
X79197070Y-6000000D01*
X75302929Y-6000000D01*
X75283239Y-5737245D01*
X75224607Y-5480365D01*
X75224606Y-5480363D01*
X75128348Y-5235099D01*
X75128346Y-5235095D01*
X74996605Y-5006913D01*
X74996600Y-5006905D01*
X74950328Y-4948881D01*
X74950326Y-4948881D01*
X74182086Y-5717121D01*
X74120320Y-5599434D01*
X74007595Y-5472194D01*
X73867695Y-5375629D01*
X73822356Y-5358434D01*
X74591560Y-4589229D01*
X74591560Y-4589228D01*
X74421467Y-4473259D01*
X74184076Y-4358937D01*
X73932295Y-4281271D01*
X73932287Y-4281270D01*
X73671740Y-4242000D01*
X73408260Y-4242000D01*
X73147712Y-4281270D01*
X73147704Y-4281271D01*
X72895923Y-4358937D01*
X72658532Y-4473259D01*
X72658525Y-4473263D01*
X72488438Y-4589227D01*
X72488438Y-4589229D01*
X73257643Y-5358434D01*
X73212305Y-5375629D01*
X73072405Y-5472194D01*
X72959680Y-5599434D01*
X72897913Y-5717122D01*
X72129671Y-4948880D01*
X72129670Y-4948881D01*
X72083400Y-5006904D01*
X72083397Y-5006907D01*
X71951653Y-5235095D01*
X71951651Y-5235099D01*
X71855393Y-5480363D01*
X71855392Y-5480365D01*
X71796760Y-5737245D01*
X71777070Y-6000000D01*
X70222929Y-6000000D01*
X70203239Y-5737245D01*
X70144607Y-5480365D01*
X70144606Y-5480363D01*
X70048348Y-5235099D01*
X70048346Y-5235095D01*
X69916605Y-5006913D01*
X69916600Y-5006905D01*
X69870328Y-4948881D01*
X69870326Y-4948881D01*
X69102086Y-5717121D01*
X69040320Y-5599434D01*
X68927595Y-5472194D01*
X68787695Y-5375629D01*
X68742356Y-5358434D01*
X69511560Y-4589229D01*
X69511560Y-4589228D01*
X69341467Y-4473259D01*
X69104076Y-4358937D01*
X68852295Y-4281271D01*
X68852287Y-4281270D01*
X68591740Y-4242000D01*
X68328260Y-4242000D01*
X68067712Y-4281270D01*
X68067704Y-4281271D01*
X67815923Y-4358937D01*
X67578532Y-4473259D01*
X67578525Y-4473263D01*
X67408438Y-4589227D01*
X67408438Y-4589229D01*
X68177643Y-5358434D01*
X68132305Y-5375629D01*
X67992405Y-5472194D01*
X67879680Y-5599434D01*
X67817913Y-5717122D01*
X67049671Y-4948880D01*
X67049670Y-4948881D01*
X67003400Y-5006904D01*
X67003397Y-5006907D01*
X66871653Y-5235095D01*
X66871651Y-5235099D01*
X66775393Y-5480363D01*
X66775392Y-5480365D01*
X66716760Y-5737245D01*
X66697070Y-6000000D01*
X49300000Y-6000000D01*
X49300000Y-1151500D01*
X49320002Y-1083379D01*
X49373658Y-1036886D01*
X49426000Y-1025500D01*
X127491715Y-1025500D01*
X127498457Y-1025500D01*
X127501544Y-1025575D01*
G37*
%TD.AperFunction*%
%TD*%
%TA.AperFunction,Conductor*%
%TO.N,+V*%
G36*
X125842121Y-36120002D02*
G01*
X125888614Y-36173658D01*
X125900000Y-36226000D01*
X125900000Y-101274000D01*
X125879998Y-101342121D01*
X125826342Y-101388614D01*
X125774000Y-101400000D01*
X85300000Y-101400000D01*
X85300000Y-102375578D01*
X85279998Y-102443699D01*
X85226342Y-102490192D01*
X85156068Y-102500296D01*
X85103963Y-102478714D01*
X85103876Y-102478875D01*
X85102382Y-102478059D01*
X85098494Y-102476449D01*
X85095964Y-102474555D01*
X84959093Y-102423505D01*
X84898597Y-102417000D01*
X84004000Y-102417000D01*
X84004000Y-103535748D01*
X83971181Y-103515791D01*
X83825596Y-103475000D01*
X83712378Y-103475000D01*
X83600217Y-103490416D01*
X83496000Y-103535683D01*
X83496000Y-102417000D01*
X82601402Y-102417000D01*
X82540906Y-102423505D01*
X82404035Y-102474555D01*
X82404034Y-102474555D01*
X82287095Y-102562095D01*
X82199555Y-102679034D01*
X82199555Y-102679035D01*
X82148505Y-102815906D01*
X82142000Y-102876402D01*
X82142000Y-103771000D01*
X83256569Y-103771000D01*
X83206441Y-103912047D01*
X83196123Y-104062886D01*
X83226884Y-104210915D01*
X83262163Y-104279000D01*
X82142000Y-104279000D01*
X82142000Y-105173597D01*
X82148505Y-105234093D01*
X82199555Y-105370964D01*
X82220162Y-105398492D01*
X82244972Y-105465012D01*
X82229880Y-105534386D01*
X82179678Y-105584588D01*
X82119293Y-105600000D01*
X77126000Y-105600000D01*
X77057879Y-105579998D01*
X77011386Y-105526342D01*
X77000000Y-105474000D01*
X77000000Y-100648597D01*
X89692000Y-100648597D01*
X89698505Y-100709093D01*
X89749555Y-100845964D01*
X89749555Y-100845965D01*
X89837095Y-100962904D01*
X89954034Y-101050444D01*
X90090906Y-101101494D01*
X90151402Y-101107999D01*
X90151415Y-101108000D01*
X90746000Y-101108000D01*
X90746000Y-100111686D01*
X90761955Y-100127641D01*
X90874852Y-100185165D01*
X90968519Y-100200000D01*
X91031481Y-100200000D01*
X91125148Y-100185165D01*
X91238045Y-100127641D01*
X91254000Y-100111686D01*
X91254000Y-101108000D01*
X91848585Y-101108000D01*
X91848597Y-101107999D01*
X91909093Y-101101494D01*
X92045964Y-101050444D01*
X92045965Y-101050444D01*
X92162904Y-100962904D01*
X92250444Y-100845965D01*
X92250444Y-100845964D01*
X92301494Y-100709093D01*
X92307999Y-100648597D01*
X92308000Y-100648585D01*
X92308000Y-100054000D01*
X91311686Y-100054000D01*
X91327641Y-100038045D01*
X91385165Y-99925148D01*
X91404986Y-99800000D01*
X91385165Y-99674852D01*
X91327641Y-99561955D01*
X91311686Y-99546000D01*
X92308000Y-99546000D01*
X92308000Y-98951414D01*
X92307999Y-98951402D01*
X92301494Y-98890906D01*
X92250444Y-98754035D01*
X92250444Y-98754034D01*
X92162904Y-98637095D01*
X92045965Y-98549555D01*
X91909093Y-98498505D01*
X91848597Y-98492000D01*
X91254000Y-98492000D01*
X91254000Y-99488314D01*
X91238045Y-99472359D01*
X91125148Y-99414835D01*
X91031481Y-99400000D01*
X90968519Y-99400000D01*
X90874852Y-99414835D01*
X90761955Y-99472359D01*
X90746000Y-99488314D01*
X90746000Y-98492000D01*
X90151402Y-98492000D01*
X90090906Y-98498505D01*
X89954035Y-98549555D01*
X89954034Y-98549555D01*
X89837095Y-98637095D01*
X89749555Y-98754034D01*
X89749555Y-98754035D01*
X89698505Y-98890906D01*
X89692000Y-98951402D01*
X89692000Y-99546000D01*
X90688314Y-99546000D01*
X90672359Y-99561955D01*
X90614835Y-99674852D01*
X90595014Y-99800000D01*
X90614835Y-99925148D01*
X90672359Y-100038045D01*
X90688314Y-100054000D01*
X89692000Y-100054000D01*
X89692000Y-100648597D01*
X77000000Y-100648597D01*
X77000000Y-98416263D01*
X77020002Y-98348142D01*
X77073658Y-98301649D01*
X77143932Y-98291545D01*
X77208512Y-98321039D01*
X77246896Y-98380765D01*
X77251612Y-98406377D01*
X77255960Y-98461632D01*
X77311371Y-98692437D01*
X77402206Y-98911733D01*
X77516897Y-99098891D01*
X78265638Y-98350150D01*
X78290507Y-98434844D01*
X78368239Y-98555798D01*
X78476900Y-98649952D01*
X78607685Y-98709680D01*
X78622412Y-98711797D01*
X77876107Y-99458101D01*
X77876107Y-99458102D01*
X78063261Y-99572791D01*
X78282562Y-99663628D01*
X78513367Y-99719039D01*
X78750000Y-99737662D01*
X78986632Y-99719039D01*
X79217437Y-99663628D01*
X79436738Y-99572791D01*
X79623891Y-99458102D01*
X79623892Y-99458101D01*
X78877588Y-98711797D01*
X78892315Y-98709680D01*
X79023100Y-98649952D01*
X79131761Y-98555798D01*
X79209493Y-98434844D01*
X79234360Y-98350151D01*
X79983101Y-99098892D01*
X79983102Y-99098891D01*
X80097791Y-98911738D01*
X80188628Y-98692437D01*
X80244039Y-98461632D01*
X80262662Y-98225000D01*
X80244039Y-97988367D01*
X80188628Y-97757562D01*
X80097791Y-97538261D01*
X79983102Y-97351107D01*
X79983101Y-97351107D01*
X79234360Y-98099848D01*
X79209493Y-98015156D01*
X79131761Y-97894202D01*
X79023100Y-97800048D01*
X78892315Y-97740320D01*
X78877587Y-97738202D01*
X79623891Y-96991897D01*
X79436733Y-96877206D01*
X79217437Y-96786371D01*
X78986632Y-96730960D01*
X78750000Y-96712337D01*
X78513367Y-96730960D01*
X78282562Y-96786371D01*
X78063262Y-96877208D01*
X77876107Y-96991896D01*
X77876107Y-96991898D01*
X78622411Y-97738202D01*
X78607685Y-97740320D01*
X78476900Y-97800048D01*
X78368239Y-97894202D01*
X78290507Y-98015156D01*
X78265639Y-98099848D01*
X77516898Y-97351107D01*
X77516896Y-97351107D01*
X77402208Y-97538262D01*
X77311371Y-97757562D01*
X77255960Y-97988367D01*
X77251612Y-98043622D01*
X77226327Y-98109963D01*
X77169189Y-98152103D01*
X77098338Y-98156662D01*
X77036271Y-98122193D01*
X77002691Y-98059640D01*
X77000000Y-98033736D01*
X77000000Y-97900001D01*
X77000000Y-97900000D01*
X71234687Y-91836481D01*
X71202244Y-91773331D01*
X71200000Y-91749659D01*
X71200000Y-89656183D01*
X71220002Y-89588062D01*
X71273658Y-89541569D01*
X71343932Y-89531465D01*
X71408512Y-89560959D01*
X71431483Y-89587268D01*
X71435081Y-89592776D01*
X71593113Y-89764445D01*
X71593118Y-89764450D01*
X71777250Y-89907766D01*
X71982474Y-90018827D01*
X71982477Y-90018829D01*
X72203167Y-90094592D01*
X72203176Y-90094594D01*
X72295999Y-90110083D01*
X72296000Y-90110083D01*
X72296000Y-89214251D01*
X72328819Y-89234209D01*
X72474404Y-89275000D01*
X72587622Y-89275000D01*
X72699783Y-89259584D01*
X72804000Y-89214316D01*
X72804000Y-90110083D01*
X72896823Y-90094594D01*
X72896832Y-90094592D01*
X73117522Y-90018829D01*
X73117525Y-90018827D01*
X73322749Y-89907766D01*
X73506881Y-89764450D01*
X73506886Y-89764445D01*
X73664918Y-89592776D01*
X73792543Y-89397430D01*
X73886273Y-89183747D01*
X73886275Y-89183743D01*
X73938124Y-88979000D01*
X73043431Y-88979000D01*
X73093559Y-88837953D01*
X73103877Y-88687114D01*
X73073116Y-88539085D01*
X73037837Y-88471000D01*
X73938124Y-88471000D01*
X73886275Y-88266256D01*
X73886273Y-88266252D01*
X73792543Y-88052569D01*
X73664918Y-87857223D01*
X73506886Y-87685554D01*
X73506881Y-87685549D01*
X73322749Y-87542233D01*
X73117525Y-87431172D01*
X73117522Y-87431170D01*
X72896828Y-87355406D01*
X72896817Y-87355403D01*
X72804000Y-87339914D01*
X72804000Y-88235748D01*
X72771181Y-88215791D01*
X72625596Y-88175000D01*
X72512378Y-88175000D01*
X72400217Y-88190416D01*
X72296000Y-88235683D01*
X72296000Y-87339914D01*
X72295999Y-87339914D01*
X72203182Y-87355403D01*
X72203171Y-87355406D01*
X71982477Y-87431170D01*
X71982474Y-87431172D01*
X71777250Y-87542233D01*
X71593118Y-87685549D01*
X71593113Y-87685554D01*
X71435081Y-87857223D01*
X71431480Y-87862736D01*
X71377474Y-87908822D01*
X71307126Y-87918394D01*
X71242770Y-87888414D01*
X71204839Y-87828399D01*
X71200000Y-87793816D01*
X71200000Y-87126000D01*
X71220002Y-87057879D01*
X71273658Y-87011386D01*
X71326000Y-87000000D01*
X76268022Y-87000000D01*
X76336143Y-87020002D01*
X76357117Y-87036905D01*
X77763095Y-88442883D01*
X77797121Y-88505195D01*
X77800000Y-88531978D01*
X77800000Y-92243879D01*
X77779998Y-92312000D01*
X77774868Y-92319388D01*
X77749112Y-92353792D01*
X77749110Y-92353797D01*
X77698011Y-92490795D01*
X77698009Y-92490803D01*
X77691500Y-92551350D01*
X77691500Y-94848649D01*
X77698009Y-94909196D01*
X77698011Y-94909204D01*
X77749109Y-95046201D01*
X77749110Y-95046202D01*
X77749111Y-95046204D01*
X77774868Y-95080611D01*
X77799679Y-95147131D01*
X77800000Y-95156120D01*
X77800000Y-95400000D01*
X83238557Y-95400000D01*
X83267969Y-95403480D01*
X83497597Y-95458609D01*
X83750000Y-95478474D01*
X84002403Y-95458609D01*
X84232030Y-95403480D01*
X84261443Y-95400000D01*
X100412935Y-95400000D01*
X100461152Y-95409591D01*
X100532406Y-95439105D01*
X100763289Y-95494535D01*
X101000000Y-95513165D01*
X101236711Y-95494535D01*
X101467594Y-95439105D01*
X101538848Y-95409591D01*
X101587065Y-95400000D01*
X122000000Y-95400000D01*
X122000000Y-41800000D01*
X67126000Y-41800000D01*
X67057879Y-41779998D01*
X67011386Y-41726342D01*
X67000000Y-41674000D01*
X67000000Y-39248597D01*
X67392000Y-39248597D01*
X67398505Y-39309093D01*
X67449555Y-39445964D01*
X67449555Y-39445965D01*
X67537095Y-39562904D01*
X67654034Y-39650444D01*
X67790906Y-39701494D01*
X67851402Y-39707999D01*
X67851415Y-39708000D01*
X68746000Y-39708000D01*
X68746000Y-38644224D01*
X68843369Y-38684556D01*
X68960677Y-38700000D01*
X69039323Y-38700000D01*
X69156631Y-38684556D01*
X69254000Y-38644224D01*
X69254000Y-39708000D01*
X70148585Y-39708000D01*
X70148597Y-39707999D01*
X70209093Y-39701494D01*
X70345964Y-39650444D01*
X70345965Y-39650444D01*
X70462904Y-39562904D01*
X70550444Y-39445965D01*
X70550444Y-39445964D01*
X70586760Y-39348597D01*
X84267000Y-39348597D01*
X84273505Y-39409093D01*
X84324555Y-39545964D01*
X84324555Y-39545965D01*
X84412095Y-39662904D01*
X84529034Y-39750444D01*
X84665906Y-39801494D01*
X84726402Y-39807999D01*
X84726415Y-39808000D01*
X85721000Y-39808000D01*
X85721000Y-38644224D01*
X85818369Y-38684556D01*
X85935677Y-38700000D01*
X86014323Y-38700000D01*
X86131631Y-38684556D01*
X86229000Y-38644224D01*
X86229000Y-39808000D01*
X87223585Y-39808000D01*
X87223597Y-39807999D01*
X87284093Y-39801494D01*
X87420964Y-39750444D01*
X87420965Y-39750444D01*
X87537904Y-39662904D01*
X87625444Y-39545965D01*
X87625444Y-39545964D01*
X87676494Y-39409093D01*
X87682999Y-39348597D01*
X103767000Y-39348597D01*
X103773505Y-39409093D01*
X103824555Y-39545964D01*
X103824555Y-39545965D01*
X103912095Y-39662904D01*
X104029034Y-39750444D01*
X104165906Y-39801494D01*
X104226402Y-39807999D01*
X104226415Y-39808000D01*
X105221000Y-39808000D01*
X105221000Y-38644224D01*
X105318369Y-38684556D01*
X105435677Y-38700000D01*
X105514323Y-38700000D01*
X105631631Y-38684556D01*
X105729000Y-38644224D01*
X105729000Y-39808000D01*
X106723585Y-39808000D01*
X106723597Y-39807999D01*
X106784093Y-39801494D01*
X106920964Y-39750444D01*
X106920965Y-39750444D01*
X107037904Y-39662904D01*
X107125444Y-39545965D01*
X107125444Y-39545964D01*
X107176494Y-39409093D01*
X107182999Y-39348597D01*
X107183000Y-39348585D01*
X107183000Y-38354000D01*
X106019225Y-38354000D01*
X106059556Y-38256631D01*
X106080177Y-38100000D01*
X117487004Y-38100000D01*
X117506951Y-38328002D01*
X117566186Y-38549068D01*
X117566188Y-38549073D01*
X117662913Y-38756501D01*
X117712899Y-38827888D01*
X118401272Y-38139516D01*
X118414835Y-38225148D01*
X118472359Y-38338045D01*
X118561955Y-38427641D01*
X118674852Y-38485165D01*
X118760482Y-38498727D01*
X118072110Y-39187098D01*
X118072110Y-39187100D01*
X118143498Y-39237086D01*
X118350926Y-39333811D01*
X118350931Y-39333813D01*
X118571999Y-39393048D01*
X118571995Y-39393048D01*
X118800000Y-39412995D01*
X119028002Y-39393048D01*
X119249068Y-39333813D01*
X119249073Y-39333811D01*
X119456497Y-39237088D01*
X119527888Y-39187099D01*
X119527888Y-39187097D01*
X118839518Y-38498727D01*
X118925148Y-38485165D01*
X119038045Y-38427641D01*
X119127641Y-38338045D01*
X119185165Y-38225148D01*
X119198727Y-38139518D01*
X119887097Y-38827888D01*
X119887099Y-38827888D01*
X119937088Y-38756497D01*
X120033811Y-38549073D01*
X120033813Y-38549068D01*
X120093048Y-38328002D01*
X120112995Y-38100000D01*
X120093048Y-37871997D01*
X120033813Y-37650931D01*
X120033811Y-37650926D01*
X119937086Y-37443498D01*
X119887100Y-37372110D01*
X119887098Y-37372110D01*
X119198727Y-38060481D01*
X119185165Y-37974852D01*
X119127641Y-37861955D01*
X119038045Y-37772359D01*
X118925148Y-37714835D01*
X118839517Y-37701272D01*
X119527888Y-37012899D01*
X119527888Y-37012898D01*
X119456501Y-36962913D01*
X119249073Y-36866188D01*
X119249068Y-36866186D01*
X119028000Y-36806951D01*
X119028004Y-36806951D01*
X118800000Y-36787004D01*
X118571997Y-36806951D01*
X118350931Y-36866186D01*
X118350926Y-36866188D01*
X118143500Y-36962913D01*
X118072109Y-37012900D01*
X118760481Y-37701272D01*
X118674852Y-37714835D01*
X118561955Y-37772359D01*
X118472359Y-37861955D01*
X118414835Y-37974852D01*
X118401272Y-38060481D01*
X117712900Y-37372109D01*
X117662913Y-37443500D01*
X117566188Y-37650926D01*
X117566186Y-37650931D01*
X117506951Y-37871997D01*
X117487004Y-38100000D01*
X106080177Y-38100000D01*
X106059556Y-37943369D01*
X106019225Y-37846000D01*
X107183000Y-37846000D01*
X107183000Y-36851414D01*
X107182999Y-36851402D01*
X107176494Y-36790906D01*
X107125444Y-36654035D01*
X107125444Y-36654034D01*
X107037904Y-36537095D01*
X106920965Y-36449555D01*
X106784093Y-36398505D01*
X106723597Y-36392000D01*
X105729000Y-36392000D01*
X105729000Y-37555775D01*
X105631631Y-37515444D01*
X105514323Y-37500000D01*
X105435677Y-37500000D01*
X105318369Y-37515444D01*
X105221000Y-37555775D01*
X105221000Y-36392000D01*
X104226402Y-36392000D01*
X104165906Y-36398505D01*
X104029035Y-36449555D01*
X104029034Y-36449555D01*
X103912095Y-36537095D01*
X103824555Y-36654034D01*
X103824555Y-36654035D01*
X103773505Y-36790906D01*
X103767000Y-36851402D01*
X103767000Y-37846000D01*
X104930775Y-37846000D01*
X104890444Y-37943369D01*
X104869823Y-38100000D01*
X104890444Y-38256631D01*
X104930775Y-38354000D01*
X103767000Y-38354000D01*
X103767000Y-39348597D01*
X87682999Y-39348597D01*
X87683000Y-39348585D01*
X87683000Y-38354000D01*
X86519225Y-38354000D01*
X86559556Y-38256631D01*
X86580177Y-38100000D01*
X86559556Y-37943369D01*
X86519225Y-37846000D01*
X87683000Y-37846000D01*
X87683000Y-36851414D01*
X87682999Y-36851402D01*
X87676494Y-36790906D01*
X87625444Y-36654035D01*
X87625444Y-36654034D01*
X87537904Y-36537095D01*
X87420965Y-36449555D01*
X87284093Y-36398505D01*
X87223597Y-36392000D01*
X86229000Y-36392000D01*
X86229000Y-37555775D01*
X86131631Y-37515444D01*
X86014323Y-37500000D01*
X85935677Y-37500000D01*
X85818369Y-37515444D01*
X85721000Y-37555775D01*
X85721000Y-36392000D01*
X84726402Y-36392000D01*
X84665906Y-36398505D01*
X84529035Y-36449555D01*
X84529034Y-36449555D01*
X84412095Y-36537095D01*
X84324555Y-36654034D01*
X84324555Y-36654035D01*
X84273505Y-36790906D01*
X84267000Y-36851402D01*
X84267000Y-37846000D01*
X85430775Y-37846000D01*
X85390444Y-37943369D01*
X85369823Y-38100000D01*
X85390444Y-38256631D01*
X85430775Y-38354000D01*
X84267000Y-38354000D01*
X84267000Y-39348597D01*
X70586760Y-39348597D01*
X70601494Y-39309093D01*
X70607999Y-39248597D01*
X70608000Y-39248585D01*
X70608000Y-38354000D01*
X69544225Y-38354000D01*
X69584556Y-38256631D01*
X69605177Y-38100000D01*
X69584556Y-37943369D01*
X69544225Y-37846000D01*
X70608000Y-37846000D01*
X70608000Y-36951414D01*
X70607999Y-36951402D01*
X70601494Y-36890906D01*
X70550444Y-36754035D01*
X70550444Y-36754034D01*
X70462904Y-36637095D01*
X70345965Y-36549555D01*
X70209093Y-36498505D01*
X70148597Y-36492000D01*
X69254000Y-36492000D01*
X69254000Y-37555775D01*
X69156631Y-37515444D01*
X69039323Y-37500000D01*
X68960677Y-37500000D01*
X68843369Y-37515444D01*
X68746000Y-37555775D01*
X68746000Y-36492000D01*
X67851402Y-36492000D01*
X67790906Y-36498505D01*
X67654035Y-36549555D01*
X67654034Y-36549555D01*
X67537095Y-36637095D01*
X67449555Y-36754034D01*
X67449555Y-36754035D01*
X67398505Y-36890906D01*
X67392000Y-36951402D01*
X67392000Y-37846000D01*
X68455775Y-37846000D01*
X68415444Y-37943369D01*
X68394823Y-38100000D01*
X68415444Y-38256631D01*
X68455775Y-38354000D01*
X67392000Y-38354000D01*
X67392000Y-39248597D01*
X67000000Y-39248597D01*
X67000000Y-36226000D01*
X67020002Y-36157879D01*
X67073658Y-36111386D01*
X67126000Y-36100000D01*
X125774000Y-36100000D01*
X125842121Y-36120002D01*
G37*
%TD.AperFunction*%
%TD*%
%TA.AperFunction,Conductor*%
%TO.N,-V*%
G36*
X130916621Y-22720002D02*
G01*
X130963114Y-22773658D01*
X130974500Y-22826000D01*
X130974500Y-127498456D01*
X130974424Y-127501548D01*
X130957920Y-127837468D01*
X130957314Y-127843624D01*
X130908192Y-128174776D01*
X130906986Y-128180843D01*
X130825642Y-128505585D01*
X130823847Y-128511505D01*
X130711061Y-128826718D01*
X130708694Y-128832433D01*
X130565557Y-129135069D01*
X130562641Y-129140525D01*
X130390531Y-129427675D01*
X130387094Y-129432819D01*
X130187670Y-129701711D01*
X130183745Y-129706493D01*
X129958923Y-129954548D01*
X129954548Y-129958923D01*
X129706493Y-130183745D01*
X129701711Y-130187670D01*
X129432819Y-130387094D01*
X129427675Y-130390531D01*
X129140525Y-130562641D01*
X129135069Y-130565557D01*
X128832433Y-130708694D01*
X128826718Y-130711061D01*
X128511505Y-130823847D01*
X128505585Y-130825642D01*
X128180843Y-130906986D01*
X128174776Y-130908192D01*
X127843625Y-130957314D01*
X127837468Y-130957920D01*
X127533158Y-130972870D01*
X127501544Y-130974424D01*
X127498457Y-130974500D01*
X73026000Y-130974500D01*
X72957879Y-130954498D01*
X72911386Y-130900842D01*
X72900000Y-130848500D01*
X72900000Y-127567765D01*
X125645788Y-127567765D01*
X125675412Y-127837014D01*
X125743928Y-128099090D01*
X125849869Y-128348389D01*
X125849870Y-128348390D01*
X125990982Y-128579610D01*
X126164255Y-128787820D01*
X126365998Y-128968582D01*
X126591910Y-129118044D01*
X126837176Y-129233020D01*
X127096569Y-129311060D01*
X127096572Y-129311060D01*
X127096574Y-129311061D01*
X127364557Y-129350500D01*
X127364561Y-129350500D01*
X127567633Y-129350500D01*
X127602363Y-129347957D01*
X127770156Y-129335677D01*
X127770160Y-129335676D01*
X127770161Y-129335676D01*
X127880665Y-129311060D01*
X128034553Y-129276780D01*
X128287558Y-129180014D01*
X128523777Y-129047441D01*
X128738177Y-128881888D01*
X128926186Y-128686881D01*
X129083799Y-128466579D01*
X129207656Y-128225675D01*
X129295118Y-127969305D01*
X129344319Y-127702933D01*
X129354212Y-127432235D01*
X129339338Y-127297058D01*
X129324587Y-127162985D01*
X129256071Y-126900909D01*
X129150130Y-126651610D01*
X129009018Y-126420390D01*
X128835745Y-126212180D01*
X128835741Y-126212177D01*
X128835740Y-126212175D01*
X128634012Y-126031427D01*
X128634002Y-126031418D01*
X128408090Y-125881956D01*
X128162824Y-125766980D01*
X128005392Y-125719615D01*
X127903425Y-125688938D01*
X127635442Y-125649500D01*
X127635439Y-125649500D01*
X127432369Y-125649500D01*
X127432367Y-125649500D01*
X127229839Y-125664323D01*
X127229838Y-125664323D01*
X126965456Y-125723217D01*
X126965441Y-125723222D01*
X126712441Y-125819986D01*
X126476229Y-125952555D01*
X126476225Y-125952557D01*
X126261818Y-126118116D01*
X126073815Y-126313117D01*
X126073810Y-126313123D01*
X125916203Y-126533417D01*
X125916196Y-126533427D01*
X125792343Y-126774324D01*
X125792342Y-126774327D01*
X125704883Y-127030689D01*
X125704880Y-127030702D01*
X125655681Y-127297058D01*
X125655680Y-127297069D01*
X125645788Y-127567765D01*
X72900000Y-127567765D01*
X72900000Y-98700000D01*
X72899999Y-98699998D01*
X71600001Y-97400000D01*
X71600000Y-97400000D01*
X71157041Y-97400000D01*
X71151548Y-97399760D01*
X71000000Y-97386502D01*
X70848452Y-97399760D01*
X70842959Y-97400000D01*
X67134500Y-97400000D01*
X67066379Y-97379998D01*
X67019886Y-97326342D01*
X67008500Y-97274000D01*
X67008500Y-93954000D01*
X67547289Y-93954000D01*
X67605971Y-94198434D01*
X67702830Y-94432272D01*
X67835077Y-94648079D01*
X67999457Y-94840542D01*
X68191920Y-95004922D01*
X68407727Y-95137169D01*
X68641565Y-95234028D01*
X68886000Y-95292710D01*
X68886000Y-94189251D01*
X68918819Y-94209209D01*
X69064404Y-94250000D01*
X69177622Y-94250000D01*
X69289783Y-94234584D01*
X69394000Y-94189316D01*
X69394000Y-95292709D01*
X69638434Y-95234028D01*
X69872272Y-95137169D01*
X70088079Y-95004922D01*
X70280542Y-94840542D01*
X70444922Y-94648079D01*
X70577169Y-94432272D01*
X70674028Y-94198434D01*
X70732711Y-93954000D01*
X69633431Y-93954000D01*
X69683559Y-93812953D01*
X69693877Y-93662114D01*
X69663116Y-93514085D01*
X69627837Y-93446000D01*
X70732711Y-93446000D01*
X70674028Y-93201565D01*
X70577169Y-92967727D01*
X70444922Y-92751920D01*
X70280542Y-92559457D01*
X70088079Y-92395077D01*
X69872272Y-92262830D01*
X69638434Y-92165971D01*
X69394000Y-92107288D01*
X69394000Y-93210748D01*
X69361181Y-93190791D01*
X69215596Y-93150000D01*
X69102378Y-93150000D01*
X68990217Y-93165416D01*
X68886000Y-93210683D01*
X68886000Y-92107288D01*
X68641565Y-92165971D01*
X68407727Y-92262830D01*
X68191920Y-92395077D01*
X67999457Y-92559457D01*
X67835077Y-92751920D01*
X67702830Y-92967727D01*
X67605971Y-93201565D01*
X67547289Y-93446000D01*
X68646569Y-93446000D01*
X68596441Y-93587047D01*
X68586123Y-93737886D01*
X68616884Y-93885915D01*
X68652163Y-93954000D01*
X67547289Y-93954000D01*
X67008500Y-93954000D01*
X67008500Y-90036558D01*
X67028502Y-89968437D01*
X67033632Y-89961049D01*
X67100887Y-89871207D01*
X67100887Y-89871206D01*
X67100889Y-89871204D01*
X67144960Y-89753045D01*
X67151988Y-89734204D01*
X67151990Y-89734196D01*
X67158499Y-89673649D01*
X67158500Y-89673632D01*
X67158500Y-87776367D01*
X67158499Y-87776350D01*
X67151990Y-87715803D01*
X67151988Y-87715795D01*
X67100889Y-87578797D01*
X67100889Y-87578796D01*
X67073518Y-87542233D01*
X67025131Y-87477595D01*
X67000321Y-87411078D01*
X67000000Y-87402088D01*
X67000000Y-87126000D01*
X67020002Y-87057879D01*
X67073658Y-87011386D01*
X67126000Y-87000000D01*
X70374000Y-87000000D01*
X70442121Y-87020002D01*
X70488614Y-87073658D01*
X70500000Y-87126000D01*
X70500000Y-87793816D01*
X70479998Y-87861937D01*
X70426342Y-87908430D01*
X70356068Y-87918534D01*
X70291488Y-87889040D01*
X70268520Y-87862736D01*
X70264918Y-87857223D01*
X70106886Y-87685554D01*
X70106881Y-87685549D01*
X69922749Y-87542233D01*
X69717525Y-87431172D01*
X69717522Y-87431170D01*
X69496828Y-87355406D01*
X69496817Y-87355403D01*
X69404000Y-87339914D01*
X69404000Y-88235748D01*
X69371181Y-88215791D01*
X69225596Y-88175000D01*
X69112378Y-88175000D01*
X69000217Y-88190416D01*
X68896000Y-88235683D01*
X68896000Y-87339914D01*
X68895999Y-87339914D01*
X68803182Y-87355403D01*
X68803171Y-87355406D01*
X68582477Y-87431170D01*
X68582474Y-87431172D01*
X68377250Y-87542233D01*
X68193118Y-87685549D01*
X68193113Y-87685554D01*
X68035081Y-87857223D01*
X67907456Y-88052569D01*
X67813726Y-88266252D01*
X67813724Y-88266256D01*
X67761875Y-88471000D01*
X68656569Y-88471000D01*
X68606441Y-88612047D01*
X68596123Y-88762886D01*
X68626884Y-88910915D01*
X68662163Y-88979000D01*
X67761876Y-88979000D01*
X67813724Y-89183743D01*
X67813726Y-89183747D01*
X67907456Y-89397430D01*
X68035081Y-89592776D01*
X68193113Y-89764445D01*
X68193118Y-89764450D01*
X68377250Y-89907766D01*
X68582474Y-90018827D01*
X68582477Y-90018829D01*
X68803167Y-90094592D01*
X68803176Y-90094594D01*
X68895999Y-90110083D01*
X68896000Y-90110083D01*
X68896000Y-89214251D01*
X68928819Y-89234209D01*
X69074404Y-89275000D01*
X69187622Y-89275000D01*
X69299783Y-89259584D01*
X69404000Y-89214316D01*
X69404000Y-90110083D01*
X69496823Y-90094594D01*
X69496832Y-90094592D01*
X69717522Y-90018829D01*
X69717525Y-90018827D01*
X69922749Y-89907766D01*
X70106881Y-89764450D01*
X70106886Y-89764445D01*
X70264918Y-89592776D01*
X70268517Y-89587268D01*
X70322520Y-89541179D01*
X70392868Y-89531604D01*
X70457225Y-89561581D01*
X70495159Y-89621594D01*
X70500000Y-89656183D01*
X70500000Y-92200001D01*
X76363095Y-98063095D01*
X76397121Y-98125407D01*
X76400000Y-98152190D01*
X76400000Y-121300000D01*
X77814881Y-121300000D01*
X77883002Y-121320002D01*
X77929495Y-121373658D01*
X77939599Y-121443932D01*
X77910105Y-121508512D01*
X77880716Y-121533433D01*
X77826107Y-121566896D01*
X77826107Y-121566898D01*
X78572411Y-122313202D01*
X78557685Y-122315320D01*
X78426900Y-122375048D01*
X78318239Y-122469202D01*
X78240507Y-122590156D01*
X78215639Y-122674848D01*
X77466898Y-121926107D01*
X77466896Y-121926107D01*
X77352208Y-122113262D01*
X77261371Y-122332562D01*
X77205960Y-122563367D01*
X77187337Y-122800000D01*
X77205960Y-123036632D01*
X77261371Y-123267437D01*
X77352206Y-123486733D01*
X77466897Y-123673891D01*
X78215638Y-122925150D01*
X78240507Y-123009844D01*
X78318239Y-123130798D01*
X78426900Y-123224952D01*
X78557685Y-123284680D01*
X78572412Y-123286797D01*
X77826107Y-124033101D01*
X77826107Y-124033102D01*
X78013261Y-124147791D01*
X78232562Y-124238628D01*
X78463367Y-124294039D01*
X78700000Y-124312662D01*
X78936632Y-124294039D01*
X79167437Y-124238628D01*
X79386738Y-124147791D01*
X79573891Y-124033102D01*
X79573892Y-124033101D01*
X78827588Y-123286797D01*
X78842315Y-123284680D01*
X78973100Y-123224952D01*
X79081761Y-123130798D01*
X79159493Y-123009844D01*
X79184360Y-122925151D01*
X79933101Y-123673892D01*
X79933102Y-123673891D01*
X80047791Y-123486738D01*
X80138628Y-123267437D01*
X80194039Y-123036632D01*
X80212662Y-122800000D01*
X80194039Y-122563367D01*
X80138628Y-122332562D01*
X80047791Y-122113261D01*
X79933102Y-121926107D01*
X79933101Y-121926107D01*
X79184360Y-122674848D01*
X79159493Y-122590156D01*
X79081761Y-122469202D01*
X78973100Y-122375048D01*
X78842315Y-122315320D01*
X78827587Y-122313202D01*
X79573891Y-121566897D01*
X79519282Y-121533433D01*
X79471651Y-121480785D01*
X79460044Y-121410744D01*
X79488147Y-121345546D01*
X79547038Y-121305892D01*
X79585117Y-121300000D01*
X89287287Y-121300000D01*
X89355408Y-121320002D01*
X89401901Y-121373658D01*
X89412005Y-121443932D01*
X89382511Y-121508512D01*
X89322785Y-121546896D01*
X89319898Y-121547707D01*
X89250931Y-121566186D01*
X89250926Y-121566188D01*
X89043500Y-121662913D01*
X88972109Y-121712900D01*
X89660481Y-122401272D01*
X89574852Y-122414835D01*
X89461955Y-122472359D01*
X89372359Y-122561955D01*
X89314835Y-122674852D01*
X89301272Y-122760481D01*
X88612900Y-122072109D01*
X88562913Y-122143500D01*
X88466188Y-122350926D01*
X88466186Y-122350931D01*
X88406951Y-122571997D01*
X88387004Y-122800000D01*
X88406951Y-123028002D01*
X88466186Y-123249068D01*
X88466188Y-123249073D01*
X88562913Y-123456501D01*
X88612899Y-123527888D01*
X89301272Y-122839516D01*
X89314835Y-122925148D01*
X89372359Y-123038045D01*
X89461955Y-123127641D01*
X89574852Y-123185165D01*
X89660482Y-123198727D01*
X88972110Y-123887098D01*
X88972110Y-123887100D01*
X89043498Y-123937086D01*
X89250926Y-124033811D01*
X89250931Y-124033813D01*
X89471999Y-124093048D01*
X89471995Y-124093048D01*
X89700000Y-124112995D01*
X89928002Y-124093048D01*
X90149068Y-124033813D01*
X90149073Y-124033811D01*
X90356497Y-123937088D01*
X90427888Y-123887099D01*
X90427888Y-123887097D01*
X89739518Y-123198727D01*
X89825148Y-123185165D01*
X89938045Y-123127641D01*
X90027641Y-123038045D01*
X90085165Y-122925148D01*
X90098727Y-122839518D01*
X90787097Y-123527888D01*
X90787099Y-123527888D01*
X90837088Y-123456497D01*
X90933811Y-123249073D01*
X90933813Y-123249068D01*
X90993048Y-123028002D01*
X91012995Y-122800000D01*
X90993048Y-122571997D01*
X90933813Y-122350931D01*
X90933811Y-122350926D01*
X90837086Y-122143498D01*
X90787100Y-122072110D01*
X90787098Y-122072110D01*
X90098727Y-122760481D01*
X90085165Y-122674852D01*
X90027641Y-122561955D01*
X89938045Y-122472359D01*
X89825148Y-122414835D01*
X89739517Y-122401272D01*
X90427888Y-121712899D01*
X90427888Y-121712898D01*
X90356501Y-121662913D01*
X90149073Y-121566188D01*
X90149068Y-121566186D01*
X90080102Y-121547707D01*
X90019479Y-121510755D01*
X89988458Y-121446895D01*
X89996886Y-121376400D01*
X90042089Y-121321653D01*
X90109714Y-121300036D01*
X90112713Y-121300000D01*
X126500000Y-121300000D01*
X126500000Y-28500000D01*
X67126000Y-28500000D01*
X67057879Y-28479998D01*
X67011386Y-28426342D01*
X67000000Y-28374000D01*
X67000000Y-26550000D01*
X67387028Y-26550000D01*
X67406886Y-26802323D01*
X67465971Y-27048434D01*
X67562830Y-27282272D01*
X67694177Y-27496611D01*
X67694178Y-27496611D01*
X68435570Y-26755219D01*
X68475901Y-26852588D01*
X68572075Y-26977925D01*
X68697412Y-27074099D01*
X68794779Y-27114429D01*
X68053387Y-27855820D01*
X68053387Y-27855822D01*
X68267727Y-27987169D01*
X68501565Y-28084028D01*
X68747676Y-28143113D01*
X69000000Y-28162971D01*
X69252323Y-28143113D01*
X69498434Y-28084028D01*
X69732277Y-27987167D01*
X69946611Y-27855822D01*
X69946611Y-27855820D01*
X69205220Y-27114429D01*
X69302588Y-27074099D01*
X69427925Y-26977925D01*
X69524099Y-26852589D01*
X69564429Y-26755220D01*
X70305820Y-27496611D01*
X70305822Y-27496611D01*
X70437167Y-27282277D01*
X70534028Y-27048434D01*
X70593113Y-26802323D01*
X70612971Y-26550000D01*
X70609036Y-26500000D01*
X84262211Y-26500000D01*
X84281341Y-26755281D01*
X84338305Y-27004854D01*
X84338306Y-27004856D01*
X84431826Y-27243144D01*
X84431828Y-27243148D01*
X84559824Y-27464844D01*
X84559829Y-27464852D01*
X84600250Y-27515537D01*
X84600252Y-27515537D01*
X85410570Y-26705219D01*
X85450901Y-26802588D01*
X85547075Y-26927925D01*
X85672412Y-27024099D01*
X85769779Y-27064429D01*
X84959421Y-27874786D01*
X84959421Y-27874787D01*
X85118610Y-27983321D01*
X85118611Y-27983322D01*
X85349239Y-28094386D01*
X85593862Y-28169844D01*
X85593870Y-28169845D01*
X85847008Y-28208000D01*
X86102992Y-28208000D01*
X86356129Y-28169845D01*
X86356141Y-28169843D01*
X86600746Y-28094392D01*
X86600753Y-28094389D01*
X86831397Y-27983318D01*
X86831399Y-27983317D01*
X86990577Y-27874789D01*
X86990578Y-27874787D01*
X86180220Y-27064429D01*
X86277588Y-27024099D01*
X86402925Y-26927925D01*
X86499099Y-26802589D01*
X86539429Y-26705220D01*
X87349747Y-27515538D01*
X87349748Y-27515537D01*
X87390172Y-27464849D01*
X87390172Y-27464848D01*
X87518171Y-27243148D01*
X87518173Y-27243144D01*
X87611693Y-27004856D01*
X87611694Y-27004854D01*
X87668658Y-26755281D01*
X87687788Y-26500000D01*
X103762211Y-26500000D01*
X103781341Y-26755281D01*
X103838305Y-27004854D01*
X103838306Y-27004856D01*
X103931826Y-27243144D01*
X103931828Y-27243148D01*
X104059824Y-27464844D01*
X104059829Y-27464852D01*
X104100250Y-27515537D01*
X104100252Y-27515537D01*
X104910570Y-26705219D01*
X104950901Y-26802588D01*
X105047075Y-26927925D01*
X105172412Y-27024099D01*
X105269779Y-27064429D01*
X104459421Y-27874786D01*
X104459421Y-27874787D01*
X104618610Y-27983321D01*
X104618611Y-27983322D01*
X104849239Y-28094386D01*
X105093862Y-28169844D01*
X105093870Y-28169845D01*
X105347008Y-28208000D01*
X105602992Y-28208000D01*
X105856129Y-28169845D01*
X105856141Y-28169843D01*
X106100746Y-28094392D01*
X106100753Y-28094389D01*
X106331397Y-27983318D01*
X106331399Y-27983317D01*
X106490577Y-27874789D01*
X106490578Y-27874787D01*
X105680220Y-27064429D01*
X105777588Y-27024099D01*
X105902925Y-26927925D01*
X105999099Y-26802589D01*
X106039429Y-26705220D01*
X106849747Y-27515538D01*
X106849748Y-27515537D01*
X106890172Y-27464849D01*
X106890172Y-27464848D01*
X107018171Y-27243148D01*
X107018173Y-27243144D01*
X107111693Y-27004856D01*
X107111694Y-27004854D01*
X107168658Y-26755281D01*
X107187788Y-26500000D01*
X107168658Y-26244718D01*
X107159821Y-26206000D01*
X117513917Y-26206000D01*
X118488314Y-26206000D01*
X118472359Y-26221955D01*
X118414835Y-26334852D01*
X118395014Y-26460000D01*
X118414835Y-26585148D01*
X118472359Y-26698045D01*
X118488314Y-26714000D01*
X117513918Y-26714000D01*
X117566186Y-26909068D01*
X117566188Y-26909073D01*
X117662912Y-27116498D01*
X117794184Y-27303974D01*
X117794189Y-27303980D01*
X117956019Y-27465810D01*
X117956025Y-27465815D01*
X118143501Y-27597087D01*
X118350926Y-27693811D01*
X118350931Y-27693813D01*
X118546000Y-27746081D01*
X118546000Y-26771686D01*
X118561955Y-26787641D01*
X118674852Y-26845165D01*
X118768519Y-26860000D01*
X118831481Y-26860000D01*
X118925148Y-26845165D01*
X119038045Y-26787641D01*
X119054000Y-26771686D01*
X119054000Y-27746081D01*
X119249068Y-27693813D01*
X119249073Y-27693811D01*
X119456498Y-27597087D01*
X119643974Y-27465815D01*
X119643980Y-27465810D01*
X119805810Y-27303980D01*
X119805815Y-27303974D01*
X119937087Y-27116498D01*
X120033811Y-26909073D01*
X120033813Y-26909068D01*
X120086082Y-26714000D01*
X119111686Y-26714000D01*
X119127641Y-26698045D01*
X119185165Y-26585148D01*
X119204986Y-26460000D01*
X119185165Y-26334852D01*
X119127641Y-26221955D01*
X119111686Y-26206000D01*
X120086082Y-26206000D01*
X120033813Y-26010931D01*
X120033811Y-26010926D01*
X119937087Y-25803501D01*
X119805815Y-25616025D01*
X119805810Y-25616019D01*
X119643980Y-25454189D01*
X119643974Y-25454184D01*
X119456498Y-25322912D01*
X119249073Y-25226188D01*
X119249071Y-25226187D01*
X119054000Y-25173917D01*
X119054000Y-26148314D01*
X119038045Y-26132359D01*
X118925148Y-26074835D01*
X118831481Y-26060000D01*
X118768519Y-26060000D01*
X118674852Y-26074835D01*
X118561955Y-26132359D01*
X118546000Y-26148314D01*
X118546000Y-25173917D01*
X118545999Y-25173917D01*
X118350928Y-25226187D01*
X118350926Y-25226188D01*
X118143501Y-25322912D01*
X117956025Y-25454184D01*
X117956019Y-25454189D01*
X117794189Y-25616019D01*
X117794184Y-25616025D01*
X117662912Y-25803501D01*
X117566188Y-26010926D01*
X117566186Y-26010931D01*
X117513917Y-26206000D01*
X107159821Y-26206000D01*
X107111694Y-25995145D01*
X107111693Y-25995143D01*
X107018173Y-25756855D01*
X107018171Y-25756851D01*
X106890175Y-25535155D01*
X106849747Y-25484460D01*
X106039429Y-26294778D01*
X105999099Y-26197412D01*
X105902925Y-26072075D01*
X105777588Y-25975901D01*
X105680220Y-25935570D01*
X106490578Y-25125211D01*
X106331390Y-25016678D01*
X106331389Y-25016677D01*
X106100753Y-24905610D01*
X106100746Y-24905607D01*
X105856141Y-24830156D01*
X105856129Y-24830154D01*
X105602992Y-24792000D01*
X105347008Y-24792000D01*
X105093870Y-24830154D01*
X105093862Y-24830155D01*
X104849239Y-24905613D01*
X104618611Y-25016677D01*
X104618603Y-25016682D01*
X104459421Y-25125210D01*
X104459421Y-25125212D01*
X105269779Y-25935570D01*
X105172412Y-25975901D01*
X105047075Y-26072075D01*
X104950901Y-26197411D01*
X104910570Y-26294779D01*
X104100252Y-25484461D01*
X104100250Y-25484461D01*
X104059828Y-25535148D01*
X104059825Y-25535153D01*
X103931828Y-25756851D01*
X103931826Y-25756855D01*
X103838306Y-25995143D01*
X103838305Y-25995145D01*
X103781341Y-26244718D01*
X103762211Y-26500000D01*
X87687788Y-26500000D01*
X87668658Y-26244718D01*
X87611694Y-25995145D01*
X87611693Y-25995143D01*
X87518173Y-25756855D01*
X87518171Y-25756851D01*
X87390175Y-25535155D01*
X87349747Y-25484460D01*
X86539429Y-26294778D01*
X86499099Y-26197412D01*
X86402925Y-26072075D01*
X86277588Y-25975901D01*
X86180220Y-25935570D01*
X86990578Y-25125211D01*
X86831390Y-25016678D01*
X86831389Y-25016677D01*
X86600753Y-24905610D01*
X86600746Y-24905607D01*
X86356141Y-24830156D01*
X86356129Y-24830154D01*
X86102992Y-24792000D01*
X85847008Y-24792000D01*
X85593870Y-24830154D01*
X85593862Y-24830155D01*
X85349239Y-24905613D01*
X85118611Y-25016677D01*
X85118603Y-25016682D01*
X84959421Y-25125210D01*
X84959421Y-25125212D01*
X85769779Y-25935570D01*
X85672412Y-25975901D01*
X85547075Y-26072075D01*
X85450901Y-26197411D01*
X85410570Y-26294779D01*
X84600252Y-25484461D01*
X84600250Y-25484461D01*
X84559828Y-25535148D01*
X84559825Y-25535153D01*
X84431828Y-25756851D01*
X84431826Y-25756855D01*
X84338306Y-25995143D01*
X84338305Y-25995145D01*
X84281341Y-26244718D01*
X84262211Y-26500000D01*
X70609036Y-26500000D01*
X70593113Y-26297676D01*
X70534028Y-26051565D01*
X70437169Y-25817727D01*
X70305822Y-25603387D01*
X70305820Y-25603387D01*
X69564429Y-26344778D01*
X69524099Y-26247412D01*
X69427925Y-26122075D01*
X69302588Y-26025901D01*
X69205220Y-25985570D01*
X69946611Y-25244178D01*
X69946611Y-25244177D01*
X69732272Y-25112830D01*
X69498434Y-25015971D01*
X69252323Y-24956886D01*
X69000000Y-24937028D01*
X68747676Y-24956886D01*
X68501565Y-25015971D01*
X68267727Y-25112830D01*
X68053387Y-25244176D01*
X68053387Y-25244178D01*
X68794779Y-25985570D01*
X68697412Y-26025901D01*
X68572075Y-26122075D01*
X68475901Y-26247411D01*
X68435570Y-26344779D01*
X67694178Y-25603387D01*
X67694176Y-25603387D01*
X67562830Y-25817727D01*
X67465971Y-26051565D01*
X67406886Y-26297676D01*
X67387028Y-26550000D01*
X67000000Y-26550000D01*
X67000000Y-22826000D01*
X67020002Y-22757879D01*
X67073658Y-22711386D01*
X67126000Y-22700000D01*
X130848500Y-22700000D01*
X130916621Y-22720002D01*
G37*
%TD.AperFunction*%
%TD*%
%TA.AperFunction,Conductor*%
%TO.N,/L*%
G36*
X20042121Y-41720002D02*
G01*
X20088614Y-41773658D01*
X20100000Y-41826000D01*
X20100000Y-52474000D01*
X20079998Y-52542121D01*
X20026342Y-52588614D01*
X19974000Y-52600000D01*
X1151500Y-52600000D01*
X1083379Y-52579998D01*
X1036886Y-52526342D01*
X1025500Y-52474000D01*
X1025500Y-49900000D01*
X2237070Y-49900000D01*
X2256760Y-50162754D01*
X2315392Y-50419634D01*
X2315393Y-50419636D01*
X2411651Y-50664900D01*
X2411653Y-50664904D01*
X2543397Y-50893092D01*
X2543400Y-50893097D01*
X2589670Y-50951117D01*
X2589672Y-50951117D01*
X3357912Y-50182876D01*
X3419680Y-50300566D01*
X3532405Y-50427806D01*
X3672305Y-50524371D01*
X3717642Y-50541565D01*
X2948437Y-51310770D01*
X3118532Y-51426739D01*
X3118532Y-51426740D01*
X3355923Y-51541062D01*
X3607704Y-51618728D01*
X3607712Y-51618729D01*
X3868260Y-51658000D01*
X4131740Y-51658000D01*
X4392287Y-51618729D01*
X4392295Y-51618728D01*
X4644076Y-51541062D01*
X4881467Y-51426740D01*
X5051561Y-51310770D01*
X4282356Y-50541565D01*
X4327695Y-50524371D01*
X4467595Y-50427806D01*
X4580320Y-50300566D01*
X4642086Y-50182877D01*
X5410327Y-50951118D01*
X5456603Y-50893090D01*
X5588346Y-50664904D01*
X5588348Y-50664900D01*
X5684606Y-50419636D01*
X5684607Y-50419634D01*
X5743239Y-50162754D01*
X5762929Y-49900000D01*
X5743239Y-49637245D01*
X5684607Y-49380365D01*
X5684606Y-49380363D01*
X5588348Y-49135099D01*
X5588346Y-49135095D01*
X5456605Y-48906913D01*
X5456600Y-48906905D01*
X5410328Y-48848881D01*
X5410326Y-48848881D01*
X4642086Y-49617121D01*
X4580320Y-49499434D01*
X4467595Y-49372194D01*
X4327695Y-49275629D01*
X4282356Y-49258434D01*
X5051560Y-48489229D01*
X5051560Y-48489228D01*
X4881467Y-48373259D01*
X4644076Y-48258937D01*
X4392295Y-48181271D01*
X4392287Y-48181270D01*
X4131740Y-48142000D01*
X3868260Y-48142000D01*
X3607712Y-48181270D01*
X3607704Y-48181271D01*
X3355923Y-48258937D01*
X3118532Y-48373259D01*
X3118525Y-48373263D01*
X2948438Y-48489227D01*
X2948438Y-48489229D01*
X3717643Y-49258434D01*
X3672305Y-49275629D01*
X3532405Y-49372194D01*
X3419680Y-49499434D01*
X3357913Y-49617122D01*
X2589671Y-48848880D01*
X2589670Y-48848881D01*
X2543400Y-48906904D01*
X2543397Y-48906907D01*
X2411653Y-49135095D01*
X2411651Y-49135099D01*
X2315393Y-49380363D01*
X2315392Y-49380365D01*
X2256760Y-49637245D01*
X2237070Y-49900000D01*
X1025500Y-49900000D01*
X1025500Y-44820000D01*
X2237070Y-44820000D01*
X2256760Y-45082754D01*
X2315392Y-45339634D01*
X2315393Y-45339636D01*
X2411651Y-45584900D01*
X2411653Y-45584904D01*
X2543397Y-45813092D01*
X2543400Y-45813097D01*
X2589670Y-45871117D01*
X2589672Y-45871117D01*
X3357912Y-45102876D01*
X3419680Y-45220566D01*
X3532405Y-45347806D01*
X3672305Y-45444371D01*
X3717642Y-45461565D01*
X2948437Y-46230770D01*
X3118532Y-46346739D01*
X3118532Y-46346740D01*
X3355923Y-46461062D01*
X3607704Y-46538728D01*
X3607712Y-46538729D01*
X3868260Y-46578000D01*
X4131740Y-46578000D01*
X4392287Y-46538729D01*
X4392295Y-46538728D01*
X4644076Y-46461062D01*
X4881467Y-46346740D01*
X5051561Y-46230770D01*
X4282356Y-45461565D01*
X4327695Y-45444371D01*
X4467595Y-45347806D01*
X4580320Y-45220566D01*
X4642086Y-45102877D01*
X5410327Y-45871118D01*
X5456603Y-45813090D01*
X5588346Y-45584904D01*
X5588348Y-45584900D01*
X5684606Y-45339636D01*
X5684607Y-45339634D01*
X5743239Y-45082754D01*
X5762929Y-44820000D01*
X5761431Y-44800004D01*
X14942074Y-44800004D01*
X14961752Y-45087696D01*
X14961753Y-45087702D01*
X15020425Y-45370054D01*
X15020427Y-45370062D01*
X15117002Y-45641798D01*
X15249672Y-45897836D01*
X15249676Y-45897842D01*
X15393787Y-46102002D01*
X16328903Y-45166886D01*
X16417710Y-45308222D01*
X16546778Y-45437290D01*
X16688112Y-45526096D01*
X15754630Y-46459577D01*
X15836514Y-46526194D01*
X16082922Y-46676038D01*
X16347422Y-46790926D01*
X16625111Y-46868731D01*
X16625120Y-46868733D01*
X16910795Y-46907999D01*
X16910809Y-46908000D01*
X17199191Y-46908000D01*
X17199204Y-46907999D01*
X17484879Y-46868733D01*
X17484888Y-46868731D01*
X17762577Y-46790926D01*
X18027077Y-46676038D01*
X18273490Y-46526191D01*
X18355367Y-46459578D01*
X18355367Y-46459577D01*
X17421887Y-45526096D01*
X17563222Y-45437290D01*
X17692290Y-45308222D01*
X17781096Y-45166887D01*
X18716211Y-46102002D01*
X18716212Y-46102001D01*
X18860319Y-45897850D01*
X18860328Y-45897835D01*
X18992997Y-45641798D01*
X19089572Y-45370062D01*
X19089574Y-45370054D01*
X19148246Y-45087702D01*
X19148247Y-45087696D01*
X19167926Y-44800004D01*
X19167926Y-44799995D01*
X19148247Y-44512303D01*
X19148246Y-44512297D01*
X19089574Y-44229945D01*
X19089572Y-44229937D01*
X18992997Y-43958201D01*
X18860327Y-43702163D01*
X18860324Y-43702157D01*
X18716211Y-43497997D01*
X17781096Y-44433112D01*
X17692290Y-44291778D01*
X17563222Y-44162710D01*
X17421887Y-44073903D01*
X18355368Y-43140422D01*
X18355367Y-43140421D01*
X18273485Y-43073805D01*
X18027077Y-42923961D01*
X17762577Y-42809073D01*
X17484888Y-42731268D01*
X17484879Y-42731266D01*
X17199204Y-42692000D01*
X16910795Y-42692000D01*
X16625120Y-42731266D01*
X16625111Y-42731268D01*
X16347422Y-42809073D01*
X16082918Y-42923962D01*
X15836517Y-43073802D01*
X15754631Y-43140421D01*
X15754630Y-43140421D01*
X16688112Y-44073903D01*
X16546778Y-44162710D01*
X16417710Y-44291778D01*
X16328903Y-44433112D01*
X15393787Y-43497996D01*
X15249674Y-43702160D01*
X15249672Y-43702163D01*
X15117002Y-43958201D01*
X15020427Y-44229937D01*
X15020425Y-44229945D01*
X14961753Y-44512297D01*
X14961752Y-44512303D01*
X14942074Y-44799995D01*
X14942074Y-44800004D01*
X5761431Y-44800004D01*
X5743239Y-44557245D01*
X5684607Y-44300365D01*
X5684606Y-44300363D01*
X5588348Y-44055099D01*
X5588346Y-44055095D01*
X5456605Y-43826913D01*
X5456600Y-43826905D01*
X5410328Y-43768881D01*
X5410326Y-43768881D01*
X4642086Y-44537121D01*
X4580320Y-44419434D01*
X4467595Y-44292194D01*
X4327695Y-44195629D01*
X4282356Y-44178434D01*
X5051560Y-43409229D01*
X5051560Y-43409228D01*
X4881467Y-43293259D01*
X4644076Y-43178937D01*
X4392295Y-43101271D01*
X4392287Y-43101270D01*
X4131740Y-43062000D01*
X3868260Y-43062000D01*
X3607712Y-43101270D01*
X3607704Y-43101271D01*
X3355923Y-43178937D01*
X3118532Y-43293259D01*
X3118525Y-43293263D01*
X2948438Y-43409227D01*
X2948438Y-43409229D01*
X3717643Y-44178434D01*
X3672305Y-44195629D01*
X3532405Y-44292194D01*
X3419680Y-44419434D01*
X3357913Y-44537122D01*
X2589671Y-43768880D01*
X2589670Y-43768881D01*
X2543400Y-43826904D01*
X2543397Y-43826907D01*
X2411653Y-44055095D01*
X2411651Y-44055099D01*
X2315393Y-44300363D01*
X2315392Y-44300365D01*
X2256760Y-44557245D01*
X2237070Y-44820000D01*
X1025500Y-44820000D01*
X1025500Y-42102758D01*
X1025740Y-42097264D01*
X1039344Y-41941761D01*
X1043156Y-41920137D01*
X1077119Y-41793387D01*
X1114071Y-41732766D01*
X1177932Y-41701744D01*
X1198826Y-41700000D01*
X19974000Y-41700000D01*
X20042121Y-41720002D01*
G37*
%TD.AperFunction*%
%TD*%
%TA.AperFunction,Conductor*%
%TO.N,/N*%
G36*
X20042121Y-11620002D02*
G01*
X20088614Y-11673658D01*
X20100000Y-11726000D01*
X20100000Y-22374000D01*
X20079998Y-22442121D01*
X20026342Y-22488614D01*
X19974000Y-22500000D01*
X1172031Y-22500000D01*
X1103910Y-22479998D01*
X1057417Y-22426342D01*
X1050324Y-22406611D01*
X1043158Y-22379867D01*
X1039344Y-22358238D01*
X1025740Y-22202735D01*
X1025500Y-22197241D01*
X1025500Y-19380000D01*
X2237070Y-19380000D01*
X2256760Y-19642754D01*
X2315392Y-19899634D01*
X2315393Y-19899636D01*
X2411651Y-20144900D01*
X2411653Y-20144904D01*
X2543397Y-20373092D01*
X2543400Y-20373097D01*
X2589670Y-20431117D01*
X2589672Y-20431117D01*
X3357912Y-19662876D01*
X3419680Y-19780566D01*
X3532405Y-19907806D01*
X3672305Y-20004371D01*
X3717642Y-20021565D01*
X2948437Y-20790770D01*
X3118532Y-20906739D01*
X3118532Y-20906740D01*
X3355923Y-21021062D01*
X3607704Y-21098728D01*
X3607712Y-21098729D01*
X3868260Y-21138000D01*
X4131740Y-21138000D01*
X4392287Y-21098729D01*
X4392295Y-21098728D01*
X4554812Y-21048597D01*
X14947000Y-21048597D01*
X14953505Y-21109093D01*
X15004555Y-21245964D01*
X15004555Y-21245965D01*
X15092095Y-21362904D01*
X15209034Y-21450444D01*
X15345906Y-21501494D01*
X15406402Y-21507999D01*
X15406415Y-21508000D01*
X16801000Y-21508000D01*
X16801000Y-20169277D01*
X16873618Y-20194688D01*
X17009515Y-20210000D01*
X17100485Y-20210000D01*
X17236382Y-20194688D01*
X17309000Y-20169277D01*
X17309000Y-21508000D01*
X18703585Y-21508000D01*
X18703597Y-21507999D01*
X18764093Y-21501494D01*
X18900964Y-21450444D01*
X18900965Y-21450444D01*
X19017904Y-21362904D01*
X19105444Y-21245965D01*
X19105444Y-21245964D01*
X19156494Y-21109093D01*
X19162999Y-21048597D01*
X19163000Y-21048585D01*
X19163000Y-19654000D01*
X17824278Y-19654000D01*
X17849688Y-19581382D01*
X17870125Y-19400000D01*
X17849688Y-19218618D01*
X17824278Y-19146000D01*
X19163000Y-19146000D01*
X19163000Y-17751414D01*
X19162999Y-17751402D01*
X19156494Y-17690906D01*
X19105444Y-17554035D01*
X19105444Y-17554034D01*
X19017904Y-17437095D01*
X18900965Y-17349555D01*
X18764093Y-17298505D01*
X18703597Y-17292000D01*
X17309000Y-17292000D01*
X17309000Y-18630722D01*
X17236382Y-18605312D01*
X17100485Y-18590000D01*
X17009515Y-18590000D01*
X16873618Y-18605312D01*
X16801000Y-18630722D01*
X16801000Y-17292000D01*
X15406402Y-17292000D01*
X15345906Y-17298505D01*
X15209035Y-17349555D01*
X15209034Y-17349555D01*
X15092095Y-17437095D01*
X15004555Y-17554034D01*
X15004555Y-17554035D01*
X14953505Y-17690906D01*
X14947000Y-17751402D01*
X14947000Y-19146000D01*
X16285722Y-19146000D01*
X16260312Y-19218618D01*
X16239875Y-19400000D01*
X16260312Y-19581382D01*
X16285722Y-19654000D01*
X14947000Y-19654000D01*
X14947000Y-21048597D01*
X4554812Y-21048597D01*
X4644076Y-21021062D01*
X4881467Y-20906740D01*
X5051561Y-20790770D01*
X4282356Y-20021565D01*
X4327695Y-20004371D01*
X4467595Y-19907806D01*
X4580320Y-19780566D01*
X4642086Y-19662877D01*
X5410327Y-20431118D01*
X5456603Y-20373090D01*
X5588346Y-20144904D01*
X5588348Y-20144900D01*
X5684606Y-19899636D01*
X5684607Y-19899634D01*
X5743239Y-19642754D01*
X5762929Y-19380000D01*
X5743239Y-19117245D01*
X5684607Y-18860365D01*
X5684606Y-18860363D01*
X5588348Y-18615099D01*
X5588346Y-18615095D01*
X5456605Y-18386913D01*
X5456600Y-18386905D01*
X5410328Y-18328881D01*
X5410326Y-18328881D01*
X4642086Y-19097121D01*
X4580320Y-18979434D01*
X4467595Y-18852194D01*
X4327695Y-18755629D01*
X4282356Y-18738434D01*
X5051560Y-17969229D01*
X5051560Y-17969228D01*
X4881467Y-17853259D01*
X4644076Y-17738937D01*
X4392295Y-17661271D01*
X4392287Y-17661270D01*
X4131740Y-17622000D01*
X3868260Y-17622000D01*
X3607712Y-17661270D01*
X3607704Y-17661271D01*
X3355923Y-17738937D01*
X3118532Y-17853259D01*
X3118525Y-17853263D01*
X2948438Y-17969227D01*
X2948438Y-17969229D01*
X3717643Y-18738434D01*
X3672305Y-18755629D01*
X3532405Y-18852194D01*
X3419680Y-18979434D01*
X3357913Y-19097122D01*
X2589671Y-18328880D01*
X2589670Y-18328881D01*
X2543400Y-18386904D01*
X2543397Y-18386907D01*
X2411653Y-18615095D01*
X2411651Y-18615099D01*
X2315393Y-18860363D01*
X2315392Y-18860365D01*
X2256760Y-19117245D01*
X2237070Y-19380000D01*
X1025500Y-19380000D01*
X1025500Y-14300000D01*
X2237070Y-14300000D01*
X2256760Y-14562754D01*
X2315392Y-14819634D01*
X2315393Y-14819636D01*
X2411651Y-15064900D01*
X2411653Y-15064904D01*
X2543397Y-15293092D01*
X2543400Y-15293097D01*
X2589670Y-15351117D01*
X2589672Y-15351117D01*
X3357912Y-14582876D01*
X3419680Y-14700566D01*
X3532405Y-14827806D01*
X3672305Y-14924371D01*
X3717642Y-14941565D01*
X2948437Y-15710770D01*
X3118532Y-15826739D01*
X3118532Y-15826740D01*
X3355923Y-15941062D01*
X3607704Y-16018728D01*
X3607712Y-16018729D01*
X3868260Y-16058000D01*
X4131740Y-16058000D01*
X4392287Y-16018729D01*
X4392295Y-16018728D01*
X4644076Y-15941062D01*
X4881467Y-15826740D01*
X5051561Y-15710770D01*
X4282356Y-14941565D01*
X4327695Y-14924371D01*
X4467595Y-14827806D01*
X4580320Y-14700566D01*
X4642086Y-14582877D01*
X5410327Y-15351118D01*
X5456603Y-15293090D01*
X5588346Y-15064904D01*
X5588348Y-15064900D01*
X5684606Y-14819636D01*
X5684607Y-14819634D01*
X5743239Y-14562754D01*
X5762929Y-14300000D01*
X5743239Y-14037245D01*
X5684607Y-13780365D01*
X5684606Y-13780363D01*
X5588348Y-13535099D01*
X5588346Y-13535095D01*
X5456605Y-13306913D01*
X5456600Y-13306905D01*
X5410328Y-13248881D01*
X5410326Y-13248881D01*
X4642086Y-14017121D01*
X4580320Y-13899434D01*
X4467595Y-13772194D01*
X4327695Y-13675629D01*
X4282356Y-13658434D01*
X5051560Y-12889229D01*
X5051560Y-12889228D01*
X4881467Y-12773259D01*
X4644076Y-12658937D01*
X4392295Y-12581271D01*
X4392287Y-12581270D01*
X4131740Y-12542000D01*
X3868260Y-12542000D01*
X3607712Y-12581270D01*
X3607704Y-12581271D01*
X3355923Y-12658937D01*
X3118532Y-12773259D01*
X3118525Y-12773263D01*
X2948438Y-12889227D01*
X2948438Y-12889229D01*
X3717643Y-13658434D01*
X3672305Y-13675629D01*
X3532405Y-13772194D01*
X3419680Y-13899434D01*
X3357913Y-14017122D01*
X2589671Y-13248880D01*
X2589670Y-13248881D01*
X2543400Y-13306904D01*
X2543397Y-13306907D01*
X2411653Y-13535095D01*
X2411651Y-13535099D01*
X2315393Y-13780363D01*
X2315392Y-13780365D01*
X2256760Y-14037245D01*
X2237070Y-14300000D01*
X1025500Y-14300000D01*
X1025500Y-11726000D01*
X1045502Y-11657879D01*
X1099158Y-11611386D01*
X1151500Y-11600000D01*
X19974000Y-11600000D01*
X20042121Y-11620002D01*
G37*
%TD.AperFunction*%
%TD*%
%TA.AperFunction,NonConductor*%
G36*
X70901051Y-88273990D02*
G01*
X70917636Y-88283126D01*
X71025932Y-88353885D01*
X71025934Y-88353886D01*
X71025935Y-88353887D01*
X71082549Y-88380260D01*
X71135852Y-88427156D01*
X71155339Y-88495426D01*
X71154913Y-88504872D01*
X71136673Y-88724999D01*
X71136673Y-88725000D01*
X71154648Y-88941928D01*
X71140339Y-89011468D01*
X71090706Y-89062233D01*
X71064586Y-89073226D01*
X71060350Y-89074470D01*
X71060341Y-89074474D01*
X70937384Y-89153493D01*
X70937383Y-89153494D01*
X70933778Y-89156618D01*
X70869193Y-89186104D01*
X70798921Y-89175992D01*
X70782361Y-89166867D01*
X70674043Y-89096100D01*
X70674038Y-89096097D01*
X70617455Y-89069742D01*
X70564150Y-89022848D01*
X70544660Y-88954579D01*
X70545084Y-88945155D01*
X70563327Y-88725000D01*
X70545351Y-88508067D01*
X70559660Y-88438529D01*
X70609293Y-88387764D01*
X70635424Y-88376768D01*
X70639657Y-88375526D01*
X70762612Y-88296508D01*
X70766203Y-88293395D01*
X70830776Y-88263896D01*
X70901051Y-88273990D01*
G37*
%TD.AperFunction*%
%TA.AperFunction,NonConductor*%
G36*
X121428621Y-64120002D02*
G01*
X121475114Y-64173658D01*
X121486500Y-64226000D01*
X121486500Y-94674000D01*
X121466498Y-94742121D01*
X121412842Y-94788614D01*
X121360500Y-94800000D01*
X102489990Y-94800000D01*
X102421869Y-94779998D01*
X102375376Y-94726342D01*
X102365272Y-94656068D01*
X102373579Y-94625787D01*
X102439105Y-94467594D01*
X102494535Y-94236711D01*
X102513165Y-94000000D01*
X102494535Y-93763289D01*
X102439105Y-93532406D01*
X102348240Y-93313037D01*
X102337678Y-93295802D01*
X102277067Y-93196892D01*
X102258500Y-93131058D01*
X102258500Y-91134220D01*
X102258896Y-91127161D01*
X102263269Y-91088352D01*
X102260607Y-91048877D01*
X102258643Y-91019729D01*
X102258500Y-91015491D01*
X102258500Y-91003484D01*
X102258500Y-91003478D01*
X102254699Y-90961245D01*
X102248030Y-90862332D01*
X102248029Y-90862328D01*
X102248029Y-90862326D01*
X102246980Y-90858162D01*
X102243667Y-90838664D01*
X102243281Y-90834378D01*
X102216904Y-90738805D01*
X102209268Y-90708500D01*
X102192679Y-90642663D01*
X102190900Y-90638748D01*
X102184155Y-90620142D01*
X102183013Y-90616003D01*
X102140000Y-90526688D01*
X102098996Y-90436414D01*
X102098994Y-90436411D01*
X102098994Y-90436410D01*
X102096541Y-90432871D01*
X102086591Y-90415783D01*
X102084725Y-90411907D01*
X102026445Y-90331693D01*
X101969986Y-90250198D01*
X101966943Y-90247155D01*
X101954098Y-90232115D01*
X101951574Y-90228641D01*
X101951573Y-90228640D01*
X101951571Y-90228637D01*
X101879907Y-90160119D01*
X100680963Y-88961175D01*
X100646938Y-88898863D01*
X100644410Y-88881496D01*
X100634155Y-88744647D01*
X100577174Y-88494999D01*
X100535088Y-88387764D01*
X100483625Y-88256637D01*
X100483623Y-88256633D01*
X100355589Y-88034872D01*
X100355587Y-88034869D01*
X100195931Y-87834666D01*
X100008219Y-87660495D01*
X99796646Y-87516246D01*
X99796643Y-87516245D01*
X99796641Y-87516243D01*
X99796640Y-87516242D01*
X99565936Y-87405142D01*
X99565929Y-87405139D01*
X99321253Y-87329667D01*
X99321245Y-87329665D01*
X99321243Y-87329665D01*
X99068034Y-87291500D01*
X98811966Y-87291500D01*
X98558757Y-87329665D01*
X98558755Y-87329665D01*
X98558746Y-87329667D01*
X98314073Y-87405138D01*
X98314060Y-87405143D01*
X98083352Y-87516247D01*
X98083345Y-87516251D01*
X97871787Y-87660490D01*
X97871782Y-87660494D01*
X97684070Y-87834665D01*
X97524410Y-88034872D01*
X97396376Y-88256633D01*
X97396374Y-88256637D01*
X97302827Y-88494994D01*
X97302826Y-88494997D01*
X97245845Y-88744643D01*
X97226709Y-89000000D01*
X97245845Y-89255356D01*
X97302826Y-89505002D01*
X97302827Y-89505005D01*
X97396374Y-89743362D01*
X97396376Y-89743366D01*
X97524410Y-89965127D01*
X97524412Y-89965130D01*
X97524413Y-89965131D01*
X97684069Y-90165334D01*
X97871781Y-90339505D01*
X97871787Y-90339509D01*
X98083345Y-90483748D01*
X98083352Y-90483752D01*
X98083355Y-90483754D01*
X98216360Y-90547806D01*
X98314060Y-90594856D01*
X98314073Y-90594861D01*
X98558746Y-90670332D01*
X98558748Y-90670332D01*
X98558757Y-90670335D01*
X98811966Y-90708500D01*
X98816522Y-90708500D01*
X98884643Y-90728502D01*
X98905617Y-90745405D01*
X99704595Y-91544383D01*
X99738621Y-91606695D01*
X99741500Y-91633478D01*
X99741500Y-93131058D01*
X99722933Y-93196892D01*
X99651761Y-93313034D01*
X99560894Y-93532407D01*
X99505465Y-93763289D01*
X99486835Y-94000000D01*
X99505465Y-94236710D01*
X99560894Y-94467592D01*
X99560895Y-94467594D01*
X99626419Y-94625784D01*
X99634008Y-94696372D01*
X99602229Y-94759859D01*
X99541170Y-94796086D01*
X99510010Y-94800000D01*
X85288514Y-94800000D01*
X85220393Y-94779998D01*
X85173900Y-94726342D01*
X85163796Y-94656068D01*
X85181082Y-94608165D01*
X85187614Y-94597505D01*
X85187613Y-94597505D01*
X85187616Y-94597502D01*
X85284505Y-94363591D01*
X85343609Y-94117403D01*
X85363474Y-93865000D01*
X85343609Y-93612597D01*
X85284505Y-93366409D01*
X85187616Y-93132498D01*
X85055328Y-92916624D01*
X85055325Y-92916620D01*
X84988689Y-92838599D01*
X84959658Y-92773809D01*
X84958500Y-92756769D01*
X84958500Y-90206201D01*
X84978502Y-90138080D01*
X84985982Y-90127649D01*
X85115587Y-89965131D01*
X85243622Y-89743369D01*
X85337174Y-89505001D01*
X85394155Y-89255353D01*
X85404410Y-89118500D01*
X85429447Y-89052066D01*
X85440956Y-89038830D01*
X89684383Y-84795405D01*
X89746695Y-84761379D01*
X89773478Y-84758500D01*
X102181517Y-84758500D01*
X102249638Y-84778502D01*
X102267218Y-84792135D01*
X102360519Y-84878706D01*
X102360525Y-84878710D01*
X102578275Y-85027170D01*
X102578279Y-85027172D01*
X102578285Y-85027176D01*
X102815746Y-85141532D01*
X102815749Y-85141532D01*
X102815754Y-85141535D01*
X103067589Y-85219215D01*
X103067591Y-85219215D01*
X103067600Y-85219218D01*
X103328219Y-85258500D01*
X103328223Y-85258500D01*
X103591777Y-85258500D01*
X103591781Y-85258500D01*
X103852400Y-85219218D01*
X103879876Y-85210743D01*
X104104245Y-85141535D01*
X104104247Y-85141534D01*
X104104254Y-85141532D01*
X104341716Y-85027176D01*
X104559481Y-84878706D01*
X104652781Y-84792135D01*
X104716322Y-84760464D01*
X104738483Y-84758500D01*
X107261517Y-84758500D01*
X107329638Y-84778502D01*
X107347218Y-84792135D01*
X107440519Y-84878706D01*
X107440525Y-84878710D01*
X107658275Y-85027170D01*
X107658279Y-85027172D01*
X107658285Y-85027176D01*
X107895746Y-85141532D01*
X107895749Y-85141532D01*
X107895754Y-85141535D01*
X108147589Y-85219215D01*
X108147591Y-85219215D01*
X108147600Y-85219218D01*
X108408219Y-85258500D01*
X108408223Y-85258500D01*
X108671777Y-85258500D01*
X108671781Y-85258500D01*
X108932400Y-85219218D01*
X108959876Y-85210743D01*
X109184245Y-85141535D01*
X109184247Y-85141534D01*
X109184254Y-85141532D01*
X109421716Y-85027176D01*
X109639481Y-84878706D01*
X109832686Y-84699438D01*
X109997015Y-84493376D01*
X110128796Y-84265124D01*
X110225087Y-84019780D01*
X110283735Y-83762826D01*
X110303431Y-83500000D01*
X110283735Y-83237174D01*
X110225087Y-82980220D01*
X110128796Y-82734876D01*
X110128795Y-82734875D01*
X110128794Y-82734871D01*
X109997017Y-82506627D01*
X109997015Y-82506624D01*
X109832686Y-82300562D01*
X109639481Y-82121294D01*
X109639474Y-82121289D01*
X109421725Y-81972829D01*
X109421718Y-81972825D01*
X109184257Y-81858469D01*
X109184245Y-81858464D01*
X108932410Y-81780784D01*
X108932402Y-81780782D01*
X108932400Y-81780782D01*
X108671781Y-81741500D01*
X108408219Y-81741500D01*
X108147600Y-81780782D01*
X108147598Y-81780782D01*
X108147589Y-81780784D01*
X107895754Y-81858464D01*
X107895742Y-81858469D01*
X107658283Y-81972825D01*
X107658275Y-81972829D01*
X107440525Y-82121289D01*
X107440513Y-82121299D01*
X107347219Y-82207864D01*
X107283678Y-82239536D01*
X107261517Y-82241500D01*
X104738483Y-82241500D01*
X104670362Y-82221498D01*
X104652781Y-82207864D01*
X104559481Y-82121294D01*
X104559474Y-82121289D01*
X104341725Y-81972829D01*
X104341718Y-81972825D01*
X104104257Y-81858469D01*
X104104245Y-81858464D01*
X103852410Y-81780784D01*
X103852402Y-81780782D01*
X103852400Y-81780782D01*
X103591781Y-81741500D01*
X103328219Y-81741500D01*
X103067600Y-81780782D01*
X103067598Y-81780782D01*
X103067589Y-81780784D01*
X102815754Y-81858464D01*
X102815742Y-81858469D01*
X102578283Y-81972825D01*
X102578275Y-81972829D01*
X102360525Y-82121289D01*
X102360513Y-82121299D01*
X102267219Y-82207864D01*
X102203678Y-82239536D01*
X102181517Y-82241500D01*
X89471983Y-82241500D01*
X89403862Y-82221498D01*
X89357369Y-82167842D01*
X89347265Y-82097568D01*
X89376759Y-82032988D01*
X89388906Y-82020768D01*
X89443570Y-81972829D01*
X89520427Y-81905427D01*
X89715633Y-81682838D01*
X89880115Y-81436673D01*
X90011059Y-81171145D01*
X90106224Y-80890797D01*
X90163983Y-80600426D01*
X90183346Y-80305000D01*
X90163983Y-80009574D01*
X90106224Y-79719203D01*
X90011059Y-79438855D01*
X89880115Y-79173327D01*
X89773322Y-79013500D01*
X89715640Y-78927172D01*
X89715638Y-78927170D01*
X89715633Y-78927162D01*
X89520427Y-78704573D01*
X89297838Y-78509367D01*
X89297830Y-78509361D01*
X89297827Y-78509359D01*
X89095260Y-78374009D01*
X100486500Y-78374009D01*
X100498235Y-78483155D01*
X100498235Y-78483159D01*
X100509617Y-78535480D01*
X100509623Y-78535501D01*
X100544288Y-78639654D01*
X100544290Y-78639657D01*
X100623308Y-78762612D01*
X100623311Y-78762615D01*
X100623315Y-78762621D01*
X100668685Y-78814981D01*
X100669601Y-78816097D01*
X100780258Y-78911980D01*
X100780261Y-78911982D01*
X100913210Y-78972698D01*
X100981331Y-78992700D01*
X101126000Y-79013500D01*
X101126004Y-79013500D01*
X110873994Y-79013500D01*
X110874000Y-79013500D01*
X110983149Y-79001766D01*
X110983158Y-79001764D01*
X110983159Y-79001764D01*
X110999303Y-78998251D01*
X111035491Y-78990380D01*
X111139657Y-78955710D01*
X111262612Y-78876692D01*
X111315011Y-78831288D01*
X111316101Y-78830393D01*
X111316270Y-78830198D01*
X111411982Y-78719739D01*
X111472698Y-78586790D01*
X111492700Y-78518669D01*
X111513500Y-78374000D01*
X111513500Y-66126000D01*
X111501766Y-66016851D01*
X111490380Y-65964509D01*
X111455710Y-65860343D01*
X111376692Y-65737388D01*
X111331307Y-65685011D01*
X111330396Y-65683900D01*
X111219741Y-65588019D01*
X111219738Y-65588017D01*
X111086789Y-65527301D01*
X111018677Y-65507302D01*
X111018670Y-65507300D01*
X110989735Y-65503140D01*
X110874000Y-65486500D01*
X101126000Y-65486500D01*
X101125990Y-65486500D01*
X101037267Y-65496039D01*
X101016851Y-65498234D01*
X101016848Y-65498234D01*
X101016844Y-65498235D01*
X101016840Y-65498235D01*
X100964519Y-65509617D01*
X100964498Y-65509623D01*
X100860345Y-65544288D01*
X100737385Y-65623310D01*
X100685019Y-65668685D01*
X100683904Y-65669599D01*
X100588019Y-65780258D01*
X100588017Y-65780261D01*
X100527301Y-65913210D01*
X100507302Y-65981322D01*
X100507300Y-65981329D01*
X100507300Y-65981331D01*
X100486502Y-66125990D01*
X100486500Y-66126003D01*
X100486500Y-78374009D01*
X89095260Y-78374009D01*
X89051670Y-78344883D01*
X88786151Y-78213944D01*
X88786145Y-78213941D01*
X88786140Y-78213939D01*
X88786137Y-78213938D01*
X88505805Y-78118778D01*
X88505799Y-78118776D01*
X88505797Y-78118776D01*
X88408566Y-78099435D01*
X88215435Y-78061018D01*
X88215421Y-78061016D01*
X87920003Y-78041654D01*
X87919997Y-78041654D01*
X87624578Y-78061016D01*
X87624564Y-78061018D01*
X87382818Y-78109105D01*
X87334203Y-78118776D01*
X87334201Y-78118776D01*
X87334194Y-78118778D01*
X87053862Y-78213938D01*
X87053848Y-78213944D01*
X86788329Y-78344883D01*
X86542172Y-78509359D01*
X86542165Y-78509364D01*
X86542162Y-78509367D01*
X86319573Y-78704573D01*
X86124367Y-78927162D01*
X86124364Y-78927165D01*
X86124359Y-78927172D01*
X85959883Y-79173329D01*
X85828944Y-79438848D01*
X85828938Y-79438862D01*
X85733778Y-79719194D01*
X85733776Y-79719204D01*
X85676018Y-80009564D01*
X85676016Y-80009578D01*
X85656654Y-80304996D01*
X85656654Y-80305003D01*
X85676016Y-80600421D01*
X85676018Y-80600435D01*
X85733776Y-80890795D01*
X85733778Y-80890805D01*
X85828938Y-81171137D01*
X85828944Y-81171151D01*
X85959883Y-81436670D01*
X86124359Y-81682827D01*
X86124361Y-81682830D01*
X86124367Y-81682838D01*
X86319573Y-81905427D01*
X86542162Y-82100633D01*
X86788327Y-82265115D01*
X87053855Y-82396059D01*
X87334203Y-82491224D01*
X87624574Y-82548983D01*
X87791900Y-82559950D01*
X87919997Y-82568346D01*
X87920000Y-82568346D01*
X87920003Y-82568346D01*
X87999831Y-82563113D01*
X88048098Y-82559950D01*
X88117381Y-82575454D01*
X88167284Y-82625953D01*
X88181962Y-82695416D01*
X88156756Y-82761788D01*
X88145434Y-82774775D01*
X83665617Y-87254595D01*
X83603305Y-87288620D01*
X83576522Y-87291500D01*
X83571966Y-87291500D01*
X83524907Y-87298593D01*
X83506129Y-87300000D01*
X80231978Y-87300000D01*
X80163857Y-87279998D01*
X80142883Y-87263095D01*
X79163288Y-86283500D01*
X77067369Y-84187581D01*
X77062666Y-84182318D01*
X77038317Y-84151785D01*
X76986522Y-84106533D01*
X76983436Y-84103648D01*
X76974927Y-84095139D01*
X76942370Y-84067959D01*
X76887225Y-84019780D01*
X76867721Y-84002739D01*
X76867718Y-84002737D01*
X76864016Y-84000525D01*
X76847898Y-83989087D01*
X76844594Y-83986329D01*
X76758358Y-83937396D01*
X76673253Y-83886549D01*
X76673250Y-83886547D01*
X76673245Y-83886545D01*
X76673237Y-83886541D01*
X76669208Y-83885029D01*
X76651312Y-83876657D01*
X76647567Y-83874532D01*
X76647563Y-83874530D01*
X76553992Y-83841789D01*
X76461170Y-83806951D01*
X76461150Y-83806946D01*
X76456908Y-83806176D01*
X76437814Y-83801136D01*
X76433747Y-83799713D01*
X76335817Y-83784201D01*
X76238271Y-83766500D01*
X76238267Y-83766500D01*
X76233966Y-83766500D01*
X76214257Y-83764949D01*
X76210004Y-83764275D01*
X76209997Y-83764275D01*
X76110863Y-83766500D01*
X71900546Y-83766500D01*
X71832425Y-83746498D01*
X71806412Y-83721930D01*
X71805299Y-83722904D01*
X71801575Y-83718642D01*
X71801571Y-83718637D01*
X71729907Y-83650119D01*
X69742369Y-81662581D01*
X69737666Y-81657318D01*
X69713317Y-81626785D01*
X69705656Y-81620092D01*
X69661518Y-81581529D01*
X69658436Y-81578648D01*
X69649927Y-81570139D01*
X69617370Y-81542959D01*
X69573736Y-81504837D01*
X69542721Y-81477739D01*
X69542718Y-81477737D01*
X69539016Y-81475525D01*
X69522898Y-81464087D01*
X69519594Y-81461329D01*
X69433358Y-81412396D01*
X69348253Y-81361549D01*
X69348250Y-81361547D01*
X69348245Y-81361545D01*
X69348237Y-81361541D01*
X69344208Y-81360029D01*
X69326312Y-81351657D01*
X69322567Y-81349532D01*
X69322563Y-81349530D01*
X69228992Y-81316789D01*
X69136170Y-81281951D01*
X69136150Y-81281946D01*
X69131908Y-81281176D01*
X69112814Y-81276136D01*
X69108747Y-81274713D01*
X69010817Y-81259201D01*
X68913271Y-81241500D01*
X68913267Y-81241500D01*
X68908966Y-81241500D01*
X68889257Y-81239949D01*
X68885004Y-81239275D01*
X68884997Y-81239275D01*
X68785863Y-81241500D01*
X62674221Y-81241500D01*
X62667163Y-81241104D01*
X62656912Y-81239949D01*
X62628352Y-81236731D01*
X62559731Y-81241357D01*
X62555493Y-81241500D01*
X62543471Y-81241500D01*
X62501244Y-81245300D01*
X62402336Y-81251969D01*
X62402324Y-81251971D01*
X62398148Y-81253023D01*
X62378682Y-81256331D01*
X62374378Y-81256718D01*
X62278805Y-81283095D01*
X62182655Y-81307323D01*
X62182653Y-81307324D01*
X62178725Y-81309108D01*
X62160170Y-81315836D01*
X62156007Y-81316985D01*
X62111347Y-81338492D01*
X62066688Y-81359999D01*
X62004607Y-81388197D01*
X61976409Y-81401006D01*
X61976406Y-81401007D01*
X61972868Y-81403459D01*
X61955793Y-81413403D01*
X61951912Y-81415272D01*
X61951906Y-81415275D01*
X61871693Y-81473554D01*
X61790195Y-81530014D01*
X61787139Y-81533071D01*
X61772136Y-81545885D01*
X61768642Y-81548424D01*
X61768639Y-81548426D01*
X61700119Y-81620092D01*
X58962585Y-84357626D01*
X58957314Y-84362337D01*
X58926779Y-84386687D01*
X58881540Y-84438468D01*
X58878649Y-84441561D01*
X58870141Y-84450069D01*
X58842959Y-84482629D01*
X58777736Y-84557282D01*
X58777734Y-84557285D01*
X58775526Y-84560981D01*
X58764098Y-84577087D01*
X58761330Y-84580405D01*
X58761329Y-84580406D01*
X58712396Y-84666642D01*
X58661551Y-84751742D01*
X58661546Y-84751752D01*
X58660029Y-84755794D01*
X58651665Y-84773671D01*
X58649536Y-84777424D01*
X58649532Y-84777432D01*
X58616789Y-84871007D01*
X58581950Y-84963832D01*
X58581948Y-84963841D01*
X58581179Y-84968080D01*
X58576138Y-84987180D01*
X58574714Y-84991248D01*
X58574712Y-84991256D01*
X58559201Y-85089182D01*
X58541500Y-85186729D01*
X58541500Y-85191034D01*
X58539949Y-85210743D01*
X58539275Y-85214995D01*
X58539275Y-85215002D01*
X58541500Y-85314136D01*
X58541500Y-94674000D01*
X58521498Y-94742121D01*
X58467842Y-94788614D01*
X58415500Y-94800000D01*
X1151500Y-94800000D01*
X1083379Y-94779998D01*
X1036886Y-94726342D01*
X1025500Y-94674000D01*
X1025500Y-72725003D01*
X22736654Y-72725003D01*
X22756016Y-73020421D01*
X22756018Y-73020435D01*
X22813776Y-73310795D01*
X22813778Y-73310805D01*
X22908938Y-73591137D01*
X22908944Y-73591151D01*
X23039883Y-73856670D01*
X23204359Y-74102827D01*
X23204361Y-74102830D01*
X23204367Y-74102838D01*
X23399573Y-74325427D01*
X23622162Y-74520633D01*
X23868327Y-74685115D01*
X24133855Y-74816059D01*
X24414203Y-74911224D01*
X24704574Y-74968983D01*
X24873388Y-74980047D01*
X24999997Y-74988346D01*
X25000000Y-74988346D01*
X25000003Y-74988346D01*
X25110784Y-74981084D01*
X25295426Y-74968983D01*
X25585797Y-74911224D01*
X25866145Y-74816059D01*
X26131673Y-74685115D01*
X26377838Y-74520633D01*
X26600427Y-74325427D01*
X26795633Y-74102838D01*
X26960115Y-73856673D01*
X27091059Y-73591145D01*
X27186224Y-73310797D01*
X27243983Y-73020426D01*
X27263346Y-72725000D01*
X27243983Y-72429574D01*
X27186224Y-72139203D01*
X27091059Y-71858855D01*
X26960115Y-71593327D01*
X26795633Y-71347162D01*
X26600427Y-71124573D01*
X26377838Y-70929367D01*
X26377830Y-70929361D01*
X26377827Y-70929359D01*
X26131670Y-70764883D01*
X25866151Y-70633944D01*
X25866145Y-70633941D01*
X25866140Y-70633939D01*
X25866137Y-70633938D01*
X25585805Y-70538778D01*
X25585799Y-70538776D01*
X25585797Y-70538776D01*
X25488566Y-70519435D01*
X25295435Y-70481018D01*
X25295421Y-70481016D01*
X25000003Y-70461654D01*
X24999997Y-70461654D01*
X24704578Y-70481016D01*
X24704564Y-70481018D01*
X24462818Y-70529105D01*
X24414203Y-70538776D01*
X24414201Y-70538776D01*
X24414194Y-70538778D01*
X24133862Y-70633938D01*
X24133848Y-70633944D01*
X23868329Y-70764883D01*
X23622172Y-70929359D01*
X23622165Y-70929364D01*
X23622162Y-70929367D01*
X23399573Y-71124573D01*
X23204367Y-71347162D01*
X23204364Y-71347165D01*
X23204359Y-71347172D01*
X23039883Y-71593329D01*
X22908944Y-71858848D01*
X22908938Y-71858862D01*
X22813778Y-72139194D01*
X22813776Y-72139204D01*
X22756018Y-72429564D01*
X22756016Y-72429578D01*
X22736654Y-72724996D01*
X22736654Y-72725003D01*
X1025500Y-72725003D01*
X1025500Y-64226000D01*
X1045502Y-64157879D01*
X1099158Y-64111386D01*
X1151500Y-64100000D01*
X121360500Y-64100000D01*
X121428621Y-64120002D01*
G37*
%TD.AperFunction*%
%TA.AperFunction,Conductor*%
%TO.N,GNDS*%
G36*
X17546558Y-95420002D02*
G01*
X17593051Y-95473658D01*
X17593088Y-95473879D01*
X18377643Y-96258434D01*
X18332305Y-96275629D01*
X18192405Y-96372194D01*
X18079680Y-96499434D01*
X18017913Y-96617122D01*
X17249671Y-95848880D01*
X17249670Y-95848881D01*
X17203400Y-95906904D01*
X17203397Y-95906907D01*
X17071653Y-96135095D01*
X17071651Y-96135099D01*
X16975393Y-96380363D01*
X16975392Y-96380365D01*
X16916760Y-96637245D01*
X16897070Y-96900000D01*
X16916760Y-97162754D01*
X16975392Y-97419634D01*
X16975393Y-97419636D01*
X17071651Y-97664900D01*
X17071653Y-97664904D01*
X17203397Y-97893092D01*
X17203400Y-97893097D01*
X17249670Y-97951117D01*
X17249672Y-97951117D01*
X18017912Y-97182876D01*
X18079680Y-97300566D01*
X18192405Y-97427806D01*
X18332305Y-97524371D01*
X18377642Y-97541565D01*
X17608437Y-98310770D01*
X17778532Y-98426739D01*
X17778532Y-98426740D01*
X18015923Y-98541062D01*
X18267704Y-98618728D01*
X18267712Y-98618729D01*
X18528260Y-98658000D01*
X18791740Y-98658000D01*
X19052287Y-98618729D01*
X19052295Y-98618728D01*
X19304076Y-98541062D01*
X19541467Y-98426740D01*
X19711561Y-98310770D01*
X18942356Y-97541565D01*
X18987695Y-97524371D01*
X19127595Y-97427806D01*
X19240320Y-97300566D01*
X19302086Y-97182877D01*
X20070327Y-97951118D01*
X20116603Y-97893090D01*
X20248346Y-97664904D01*
X20248348Y-97664900D01*
X20344606Y-97419636D01*
X20344607Y-97419634D01*
X20403239Y-97162754D01*
X20422929Y-96900000D01*
X20403239Y-96637245D01*
X20344607Y-96380365D01*
X20344606Y-96380363D01*
X20248348Y-96135099D01*
X20248346Y-96135095D01*
X20116605Y-95906913D01*
X20116600Y-95906905D01*
X20070328Y-95848881D01*
X20070326Y-95848881D01*
X19302086Y-96617121D01*
X19240320Y-96499434D01*
X19127595Y-96372194D01*
X18987695Y-96275629D01*
X18942356Y-96258434D01*
X19728929Y-95471860D01*
X19729666Y-95468074D01*
X19778747Y-95416774D01*
X19841562Y-95400000D01*
X22558437Y-95400000D01*
X22626558Y-95420002D01*
X22673051Y-95473658D01*
X22673088Y-95473879D01*
X23457643Y-96258434D01*
X23412305Y-96275629D01*
X23272405Y-96372194D01*
X23159680Y-96499434D01*
X23097913Y-96617122D01*
X22329671Y-95848880D01*
X22329670Y-95848881D01*
X22283400Y-95906904D01*
X22283397Y-95906907D01*
X22151653Y-96135095D01*
X22151651Y-96135099D01*
X22055393Y-96380363D01*
X22055392Y-96380365D01*
X21996760Y-96637245D01*
X21977070Y-96900000D01*
X21996760Y-97162754D01*
X22055392Y-97419634D01*
X22055393Y-97419636D01*
X22151651Y-97664900D01*
X22151653Y-97664904D01*
X22283397Y-97893092D01*
X22283400Y-97893097D01*
X22329670Y-97951117D01*
X22329672Y-97951117D01*
X23097912Y-97182876D01*
X23159680Y-97300566D01*
X23272405Y-97427806D01*
X23412305Y-97524371D01*
X23457642Y-97541565D01*
X22688437Y-98310770D01*
X22858532Y-98426739D01*
X22858532Y-98426740D01*
X23095923Y-98541062D01*
X23347704Y-98618728D01*
X23347712Y-98618729D01*
X23608260Y-98658000D01*
X23871740Y-98658000D01*
X24132287Y-98618729D01*
X24132295Y-98618728D01*
X24384076Y-98541062D01*
X24621467Y-98426740D01*
X24791561Y-98310770D01*
X24022356Y-97541565D01*
X24067695Y-97524371D01*
X24207595Y-97427806D01*
X24320320Y-97300566D01*
X24382086Y-97182877D01*
X25150327Y-97951118D01*
X25196603Y-97893090D01*
X25328346Y-97664904D01*
X25328348Y-97664900D01*
X25424606Y-97419636D01*
X25424607Y-97419634D01*
X25483239Y-97162754D01*
X25502929Y-96900000D01*
X25483239Y-96637245D01*
X25424607Y-96380365D01*
X25424606Y-96380363D01*
X25328348Y-96135099D01*
X25328346Y-96135095D01*
X25196605Y-95906913D01*
X25196600Y-95906905D01*
X25150328Y-95848881D01*
X25150326Y-95848881D01*
X24382086Y-96617121D01*
X24320320Y-96499434D01*
X24207595Y-96372194D01*
X24067695Y-96275629D01*
X24022356Y-96258434D01*
X24808929Y-95471860D01*
X24809666Y-95468074D01*
X24858747Y-95416774D01*
X24921562Y-95400000D01*
X58415500Y-95400000D01*
X58483621Y-95420002D01*
X58530114Y-95473658D01*
X58541500Y-95526000D01*
X58541500Y-95926522D01*
X58521498Y-95994643D01*
X58504595Y-96015617D01*
X57115617Y-97404595D01*
X57053305Y-97438621D01*
X57026522Y-97441500D01*
X52175457Y-97441500D01*
X52142846Y-97437207D01*
X52028087Y-97406457D01*
X51800000Y-97386502D01*
X51571913Y-97406457D01*
X51350759Y-97465715D01*
X51350753Y-97465717D01*
X51143250Y-97562477D01*
X50955703Y-97693799D01*
X50955697Y-97693804D01*
X50793804Y-97855697D01*
X50793799Y-97855703D01*
X50662477Y-98043250D01*
X50565717Y-98250753D01*
X50565716Y-98250757D01*
X50506457Y-98471913D01*
X50486502Y-98700000D01*
X50505110Y-98912696D01*
X50506457Y-98928086D01*
X50565715Y-99149240D01*
X50565717Y-99149246D01*
X50662477Y-99356749D01*
X50793795Y-99544291D01*
X50793802Y-99544300D01*
X50955700Y-99706198D01*
X51143251Y-99837523D01*
X51350757Y-99934284D01*
X51571913Y-99993543D01*
X51800000Y-100013498D01*
X52028087Y-99993543D01*
X52142846Y-99962792D01*
X52175457Y-99958500D01*
X57525779Y-99958500D01*
X57532836Y-99958895D01*
X57571648Y-99963269D01*
X57613831Y-99960424D01*
X57640269Y-99958643D01*
X57644507Y-99958500D01*
X57656516Y-99958500D01*
X57656522Y-99958500D01*
X57698754Y-99954699D01*
X57797668Y-99948030D01*
X57801834Y-99946980D01*
X57821329Y-99943667D01*
X57825622Y-99943281D01*
X57921194Y-99916904D01*
X57972922Y-99903869D01*
X58005153Y-99900059D01*
X60576949Y-99929619D01*
X60644834Y-99950403D01*
X60690708Y-100004589D01*
X60701500Y-100055611D01*
X60701500Y-103146083D01*
X60689695Y-103199332D01*
X60665719Y-103250749D01*
X60665715Y-103250759D01*
X60623876Y-103406904D01*
X60606457Y-103471913D01*
X60586502Y-103700000D01*
X60606457Y-103928087D01*
X60622645Y-103988500D01*
X60665715Y-104149240D01*
X60665717Y-104149246D01*
X60762477Y-104356749D01*
X60857726Y-104492779D01*
X60893802Y-104544300D01*
X61055700Y-104706198D01*
X61243251Y-104837523D01*
X61450757Y-104934284D01*
X61671913Y-104993543D01*
X61900000Y-105013498D01*
X62128087Y-104993543D01*
X62349243Y-104934284D01*
X62556749Y-104837523D01*
X62744300Y-104706198D01*
X62906198Y-104544300D01*
X63037523Y-104356749D01*
X63134284Y-104149243D01*
X63193543Y-103928087D01*
X63199503Y-103859954D01*
X63200038Y-103855607D01*
X63200797Y-103850818D01*
X63218500Y-103753267D01*
X63218500Y-103748963D01*
X63220052Y-103729246D01*
X63220725Y-103725000D01*
X63218500Y-103625863D01*
X63218500Y-100087438D01*
X63238502Y-100019317D01*
X63292158Y-99972824D01*
X63345943Y-99961446D01*
X65380964Y-99984837D01*
X65412115Y-99989121D01*
X65521913Y-100018543D01*
X65750000Y-100038498D01*
X65978087Y-100018543D01*
X66057403Y-99997289D01*
X66091460Y-99993005D01*
X66700000Y-100000000D01*
X66700000Y-99999998D01*
X66716461Y-100000188D01*
X66742384Y-99986227D01*
X66768458Y-99983500D01*
X70717844Y-99983500D01*
X70750453Y-99987793D01*
X70755417Y-99989123D01*
X70771913Y-99993543D01*
X71000000Y-100013498D01*
X71228087Y-99993543D01*
X71449243Y-99934284D01*
X71656749Y-99837523D01*
X71844300Y-99706198D01*
X72006198Y-99544300D01*
X72070787Y-99452058D01*
X72126244Y-99407729D01*
X72196863Y-99400420D01*
X72260224Y-99432450D01*
X72296209Y-99493652D01*
X72300000Y-99524328D01*
X72300000Y-102876542D01*
X72279998Y-102944663D01*
X72226342Y-102991156D01*
X72156068Y-103001260D01*
X72093460Y-102972667D01*
X72087098Y-102972110D01*
X71398727Y-103660481D01*
X71385165Y-103574852D01*
X71327641Y-103461955D01*
X71238045Y-103372359D01*
X71125148Y-103314835D01*
X71039517Y-103301272D01*
X71727888Y-102612899D01*
X71727888Y-102612898D01*
X71656501Y-102562913D01*
X71449073Y-102466188D01*
X71449068Y-102466186D01*
X71228000Y-102406951D01*
X71228004Y-102406951D01*
X71000000Y-102387004D01*
X70771997Y-102406951D01*
X70550931Y-102466186D01*
X70550926Y-102466188D01*
X70343500Y-102562913D01*
X70272109Y-102612900D01*
X70960481Y-103301272D01*
X70874852Y-103314835D01*
X70761955Y-103372359D01*
X70672359Y-103461955D01*
X70614835Y-103574852D01*
X70601272Y-103660481D01*
X69912900Y-102972109D01*
X69862913Y-103043500D01*
X69766188Y-103250926D01*
X69766186Y-103250931D01*
X69706951Y-103471997D01*
X69687004Y-103700000D01*
X69706951Y-103928002D01*
X69766186Y-104149068D01*
X69766188Y-104149073D01*
X69862913Y-104356501D01*
X69912899Y-104427888D01*
X70601272Y-103739516D01*
X70614835Y-103825148D01*
X70672359Y-103938045D01*
X70761955Y-104027641D01*
X70874852Y-104085165D01*
X70960482Y-104098727D01*
X70272110Y-104787098D01*
X70272110Y-104787100D01*
X70343498Y-104837086D01*
X70550926Y-104933811D01*
X70550931Y-104933813D01*
X70771999Y-104993048D01*
X70771995Y-104993048D01*
X71000000Y-105012995D01*
X71228002Y-104993048D01*
X71449068Y-104933813D01*
X71449073Y-104933811D01*
X71656497Y-104837088D01*
X71727888Y-104787099D01*
X71727888Y-104787097D01*
X71039518Y-104098727D01*
X71125148Y-104085165D01*
X71238045Y-104027641D01*
X71327641Y-103938045D01*
X71385165Y-103825148D01*
X71398727Y-103739518D01*
X72087097Y-104427888D01*
X72101508Y-104426627D01*
X72126244Y-104406856D01*
X72196864Y-104399547D01*
X72260224Y-104431578D01*
X72296209Y-104492779D01*
X72300000Y-104523455D01*
X72300000Y-130848500D01*
X72279998Y-130916621D01*
X72226342Y-130963114D01*
X72174000Y-130974500D01*
X4501543Y-130974500D01*
X4498455Y-130974424D01*
X4465291Y-130972794D01*
X4162531Y-130957920D01*
X4156375Y-130957314D01*
X3825223Y-130908192D01*
X3819160Y-130906986D01*
X3717830Y-130881605D01*
X3494414Y-130825642D01*
X3488494Y-130823847D01*
X3173281Y-130711061D01*
X3167566Y-130708694D01*
X2864930Y-130565557D01*
X2859474Y-130562641D01*
X2572324Y-130390531D01*
X2567186Y-130387098D01*
X2298281Y-130187664D01*
X2293506Y-130183745D01*
X2218070Y-130115374D01*
X2045441Y-129958913D01*
X2041086Y-129954558D01*
X1816252Y-129706491D01*
X1812337Y-129701720D01*
X1612898Y-129432809D01*
X1609468Y-129427675D01*
X1585766Y-129388131D01*
X1519027Y-129276782D01*
X1437358Y-129140525D01*
X1434442Y-129135069D01*
X1291305Y-128832433D01*
X1288938Y-128826718D01*
X1225195Y-128648569D01*
X1176148Y-128511494D01*
X1174357Y-128505585D01*
X1093009Y-128180824D01*
X1091807Y-128174776D01*
X1080580Y-128099088D01*
X1042684Y-127843616D01*
X1042079Y-127837468D01*
X1028829Y-127567765D01*
X2645788Y-127567765D01*
X2675412Y-127837014D01*
X2743928Y-128099090D01*
X2849869Y-128348389D01*
X2849870Y-128348390D01*
X2990982Y-128579610D01*
X3164255Y-128787820D01*
X3365998Y-128968582D01*
X3591910Y-129118044D01*
X3837176Y-129233020D01*
X4096569Y-129311060D01*
X4096572Y-129311060D01*
X4096574Y-129311061D01*
X4364557Y-129350500D01*
X4364561Y-129350500D01*
X4567633Y-129350500D01*
X4602363Y-129347957D01*
X4770156Y-129335677D01*
X4770160Y-129335676D01*
X4770161Y-129335676D01*
X4880665Y-129311060D01*
X5034553Y-129276780D01*
X5287558Y-129180014D01*
X5523777Y-129047441D01*
X5738177Y-128881888D01*
X5926186Y-128686881D01*
X6083799Y-128466579D01*
X6207656Y-128225675D01*
X6295118Y-127969305D01*
X6344319Y-127702933D01*
X6354212Y-127432235D01*
X6339338Y-127297058D01*
X6324587Y-127162985D01*
X6256071Y-126900909D01*
X6150130Y-126651610D01*
X6100040Y-126569535D01*
X6009018Y-126420390D01*
X5835745Y-126212180D01*
X5835741Y-126212177D01*
X5835740Y-126212175D01*
X5634012Y-126031427D01*
X5634002Y-126031418D01*
X5408090Y-125881956D01*
X5162824Y-125766980D01*
X5005392Y-125719615D01*
X4903425Y-125688938D01*
X4635442Y-125649500D01*
X4635439Y-125649500D01*
X4432369Y-125649500D01*
X4432367Y-125649500D01*
X4229839Y-125664323D01*
X4229838Y-125664323D01*
X3965456Y-125723217D01*
X3965441Y-125723222D01*
X3712441Y-125819986D01*
X3476229Y-125952555D01*
X3476225Y-125952557D01*
X3261818Y-126118116D01*
X3073815Y-126313117D01*
X3073810Y-126313123D01*
X2916203Y-126533417D01*
X2916196Y-126533427D01*
X2792343Y-126774324D01*
X2792342Y-126774327D01*
X2704883Y-127030689D01*
X2704880Y-127030702D01*
X2655681Y-127297058D01*
X2655680Y-127297069D01*
X2645788Y-127567765D01*
X1028829Y-127567765D01*
X1025576Y-127501548D01*
X1025500Y-127498456D01*
X1025500Y-111900000D01*
X16896569Y-111900000D01*
X16916265Y-112162826D01*
X16916266Y-112162830D01*
X16974911Y-112419775D01*
X17071202Y-112665120D01*
X17071205Y-112665128D01*
X17202982Y-112893372D01*
X17202984Y-112893375D01*
X17202985Y-112893376D01*
X17367314Y-113099438D01*
X17560519Y-113278706D01*
X17560525Y-113278710D01*
X17778275Y-113427170D01*
X17778279Y-113427172D01*
X17778285Y-113427176D01*
X18015746Y-113541532D01*
X18015749Y-113541532D01*
X18015754Y-113541535D01*
X18267589Y-113619215D01*
X18267591Y-113619215D01*
X18267600Y-113619218D01*
X18528219Y-113658500D01*
X18528223Y-113658500D01*
X18791777Y-113658500D01*
X18791781Y-113658500D01*
X19052400Y-113619218D01*
X19052410Y-113619215D01*
X19304245Y-113541535D01*
X19304247Y-113541534D01*
X19304254Y-113541532D01*
X19541716Y-113427176D01*
X19759481Y-113278706D01*
X19852781Y-113192135D01*
X19916322Y-113160464D01*
X19938483Y-113158500D01*
X22461517Y-113158500D01*
X22529638Y-113178502D01*
X22547218Y-113192135D01*
X22640519Y-113278706D01*
X22640525Y-113278710D01*
X22858275Y-113427170D01*
X22858279Y-113427172D01*
X22858285Y-113427176D01*
X23095746Y-113541532D01*
X23095749Y-113541532D01*
X23095754Y-113541535D01*
X23347589Y-113619215D01*
X23347591Y-113619215D01*
X23347600Y-113619218D01*
X23608219Y-113658500D01*
X23608223Y-113658500D01*
X23871777Y-113658500D01*
X23871781Y-113658500D01*
X24132400Y-113619218D01*
X24132410Y-113619215D01*
X24384245Y-113541535D01*
X24384247Y-113541534D01*
X24384254Y-113541532D01*
X24621716Y-113427176D01*
X24839481Y-113278706D01*
X24932781Y-113192135D01*
X24996322Y-113160464D01*
X25018483Y-113158500D01*
X29815500Y-113158500D01*
X29883621Y-113178502D01*
X29930114Y-113232158D01*
X29941500Y-113284500D01*
X29941500Y-114725779D01*
X29941104Y-114732837D01*
X29936731Y-114771647D01*
X29941357Y-114840269D01*
X29941500Y-114844507D01*
X29941500Y-114856528D01*
X29945300Y-114898755D01*
X29951969Y-114997661D01*
X29951969Y-114997663D01*
X29951970Y-114997668D01*
X29953023Y-115001849D01*
X29956331Y-115021318D01*
X29956718Y-115025620D01*
X29983095Y-115121194D01*
X30007321Y-115217337D01*
X30007321Y-115217338D01*
X30009103Y-115221260D01*
X30015841Y-115239847D01*
X30016986Y-115243993D01*
X30059999Y-115333311D01*
X30101006Y-115423590D01*
X30103455Y-115427124D01*
X30113405Y-115444211D01*
X30115271Y-115448087D01*
X30173554Y-115528306D01*
X30230011Y-115609798D01*
X30230023Y-115609812D01*
X30233055Y-115612844D01*
X30245891Y-115627871D01*
X30248426Y-115631360D01*
X30248430Y-115631364D01*
X30320092Y-115699880D01*
X35359035Y-120738823D01*
X35393061Y-120801135D01*
X35395588Y-120818500D01*
X35400194Y-120879952D01*
X35405845Y-120955353D01*
X35405846Y-120955356D01*
X35405846Y-120955357D01*
X35462826Y-121205002D01*
X35462827Y-121205005D01*
X35556374Y-121443362D01*
X35556376Y-121443366D01*
X35684410Y-121665127D01*
X35684412Y-121665130D01*
X35684413Y-121665131D01*
X35844069Y-121865334D01*
X36031781Y-122039505D01*
X36031787Y-122039509D01*
X36243345Y-122183748D01*
X36243352Y-122183752D01*
X36243355Y-122183754D01*
X36376360Y-122247806D01*
X36474060Y-122294856D01*
X36474073Y-122294861D01*
X36718746Y-122370332D01*
X36718748Y-122370332D01*
X36718757Y-122370335D01*
X36971966Y-122408500D01*
X36971970Y-122408500D01*
X37228030Y-122408500D01*
X37228034Y-122408500D01*
X37481243Y-122370335D01*
X37481253Y-122370332D01*
X37725929Y-122294860D01*
X37725930Y-122294859D01*
X37725935Y-122294858D01*
X37956646Y-122183754D01*
X38168219Y-122039505D01*
X38355931Y-121865334D01*
X38515587Y-121665131D01*
X38643622Y-121443369D01*
X38737174Y-121205001D01*
X38794155Y-120955353D01*
X38813291Y-120700000D01*
X62886709Y-120700000D01*
X62905845Y-120955356D01*
X62962826Y-121205002D01*
X62962827Y-121205005D01*
X63056374Y-121443362D01*
X63056376Y-121443366D01*
X63184410Y-121665127D01*
X63184412Y-121665130D01*
X63184413Y-121665131D01*
X63344069Y-121865334D01*
X63531781Y-122039505D01*
X63531787Y-122039509D01*
X63743345Y-122183748D01*
X63743352Y-122183752D01*
X63743355Y-122183754D01*
X63876360Y-122247806D01*
X63974060Y-122294856D01*
X63974073Y-122294861D01*
X64218746Y-122370332D01*
X64218748Y-122370332D01*
X64218757Y-122370335D01*
X64471966Y-122408500D01*
X64471970Y-122408500D01*
X64728030Y-122408500D01*
X64728034Y-122408500D01*
X64981243Y-122370335D01*
X64981253Y-122370332D01*
X65225929Y-122294860D01*
X65225930Y-122294859D01*
X65225935Y-122294858D01*
X65456646Y-122183754D01*
X65668219Y-122039505D01*
X65683787Y-122025059D01*
X65719273Y-121992135D01*
X65782814Y-121960464D01*
X65804974Y-121958500D01*
X66991522Y-121958500D01*
X67059643Y-121978502D01*
X67080617Y-121995405D01*
X68084110Y-122998898D01*
X68109208Y-123034739D01*
X68112477Y-123041749D01*
X68243802Y-123229300D01*
X68405700Y-123391198D01*
X68593251Y-123522523D01*
X68800757Y-123619284D01*
X69021913Y-123678543D01*
X69250000Y-123698498D01*
X69478087Y-123678543D01*
X69699243Y-123619284D01*
X69906749Y-123522523D01*
X70094300Y-123391198D01*
X70256198Y-123229300D01*
X70387523Y-123041749D01*
X70484284Y-122834243D01*
X70543543Y-122613087D01*
X70563498Y-122385000D01*
X70543543Y-122156913D01*
X70484284Y-121935757D01*
X70387523Y-121728251D01*
X70256198Y-121540700D01*
X70094300Y-121378802D01*
X70082946Y-121370852D01*
X69906749Y-121247477D01*
X69899739Y-121244208D01*
X69863898Y-121219110D01*
X69344788Y-120700000D01*
X68507369Y-119862581D01*
X68502666Y-119857318D01*
X68478317Y-119826785D01*
X68426522Y-119781533D01*
X68423436Y-119778648D01*
X68414927Y-119770139D01*
X68382370Y-119742959D01*
X68338736Y-119704837D01*
X68307721Y-119677739D01*
X68307718Y-119677737D01*
X68304016Y-119675525D01*
X68287898Y-119664087D01*
X68284594Y-119661329D01*
X68198358Y-119612396D01*
X68113253Y-119561549D01*
X68113250Y-119561547D01*
X68113245Y-119561545D01*
X68113237Y-119561541D01*
X68109208Y-119560029D01*
X68091312Y-119551657D01*
X68087567Y-119549532D01*
X68087563Y-119549530D01*
X67993992Y-119516789D01*
X67901170Y-119481951D01*
X67901150Y-119481946D01*
X67896908Y-119481176D01*
X67877814Y-119476136D01*
X67873747Y-119474713D01*
X67775817Y-119459201D01*
X67678271Y-119441500D01*
X67678267Y-119441500D01*
X67673966Y-119441500D01*
X67654257Y-119439949D01*
X67650004Y-119439275D01*
X67649997Y-119439275D01*
X67550863Y-119441500D01*
X65804974Y-119441500D01*
X65736853Y-119421498D01*
X65719273Y-119407865D01*
X65668225Y-119360500D01*
X65668218Y-119360494D01*
X65456647Y-119216247D01*
X65456646Y-119216246D01*
X65456643Y-119216245D01*
X65456641Y-119216243D01*
X65456640Y-119216242D01*
X65225936Y-119105142D01*
X65225929Y-119105139D01*
X64981253Y-119029667D01*
X64981245Y-119029665D01*
X64981243Y-119029665D01*
X64728034Y-118991500D01*
X64471966Y-118991500D01*
X64218757Y-119029665D01*
X64218755Y-119029665D01*
X64218746Y-119029667D01*
X63974073Y-119105138D01*
X63974060Y-119105143D01*
X63743352Y-119216247D01*
X63743345Y-119216251D01*
X63531787Y-119360490D01*
X63531782Y-119360494D01*
X63400885Y-119481949D01*
X63344069Y-119534666D01*
X63332214Y-119549532D01*
X63184410Y-119734872D01*
X63056376Y-119956633D01*
X63056374Y-119956637D01*
X62962827Y-120194994D01*
X62962826Y-120194997D01*
X62905845Y-120444643D01*
X62886709Y-120700000D01*
X38813291Y-120700000D01*
X38794155Y-120444647D01*
X38737174Y-120194999D01*
X38732013Y-120181849D01*
X38643625Y-119956637D01*
X38643623Y-119956633D01*
X38515589Y-119734872D01*
X38515587Y-119734869D01*
X38355931Y-119534666D01*
X38168219Y-119360495D01*
X37956646Y-119216246D01*
X37956643Y-119216245D01*
X37956641Y-119216243D01*
X37956640Y-119216242D01*
X37725936Y-119105142D01*
X37725929Y-119105139D01*
X37481253Y-119029667D01*
X37481245Y-119029665D01*
X37481243Y-119029665D01*
X37228034Y-118991500D01*
X37228030Y-118991500D01*
X37223478Y-118991500D01*
X37155357Y-118971498D01*
X37134383Y-118954595D01*
X32495405Y-114315617D01*
X32461379Y-114253305D01*
X32458500Y-114226522D01*
X32458500Y-112275457D01*
X32462793Y-112242846D01*
X32493543Y-112128087D01*
X32513498Y-111900000D01*
X32493543Y-111671913D01*
X32486600Y-111646000D01*
X40073917Y-111646000D01*
X41048314Y-111646000D01*
X41032359Y-111661955D01*
X40974835Y-111774852D01*
X40955014Y-111900000D01*
X40974835Y-112025148D01*
X41032359Y-112138045D01*
X41048314Y-112154000D01*
X40073918Y-112154000D01*
X40126186Y-112349068D01*
X40126188Y-112349073D01*
X40222912Y-112556498D01*
X40354184Y-112743974D01*
X40354189Y-112743980D01*
X40516019Y-112905810D01*
X40516025Y-112905815D01*
X40703501Y-113037087D01*
X40910926Y-113133811D01*
X40910931Y-113133813D01*
X41106000Y-113186081D01*
X41106000Y-112211686D01*
X41121955Y-112227641D01*
X41234852Y-112285165D01*
X41328519Y-112300000D01*
X41391481Y-112300000D01*
X41485148Y-112285165D01*
X41598045Y-112227641D01*
X41614000Y-112211686D01*
X41614000Y-113186081D01*
X41809068Y-113133813D01*
X41809073Y-113133811D01*
X42016498Y-113037087D01*
X42203974Y-112905815D01*
X42203980Y-112905810D01*
X42365810Y-112743980D01*
X42365815Y-112743974D01*
X42497087Y-112556498D01*
X42593811Y-112349073D01*
X42593813Y-112349068D01*
X42646082Y-112154000D01*
X41671686Y-112154000D01*
X41687641Y-112138045D01*
X41745165Y-112025148D01*
X41749148Y-112000000D01*
X47087004Y-112000000D01*
X47106951Y-112228002D01*
X47166186Y-112449068D01*
X47166188Y-112449073D01*
X47262913Y-112656501D01*
X47312899Y-112727888D01*
X48001272Y-112039516D01*
X48014835Y-112125148D01*
X48072359Y-112238045D01*
X48161955Y-112327641D01*
X48274852Y-112385165D01*
X48360482Y-112398727D01*
X47672110Y-113087098D01*
X47672110Y-113087100D01*
X47743498Y-113137086D01*
X47950926Y-113233811D01*
X47950931Y-113233813D01*
X48171999Y-113293048D01*
X48171995Y-113293048D01*
X48400000Y-113312995D01*
X48628002Y-113293048D01*
X48849068Y-113233813D01*
X48849073Y-113233811D01*
X49056497Y-113137088D01*
X49127888Y-113087099D01*
X49127888Y-113087097D01*
X48439518Y-112398727D01*
X48525148Y-112385165D01*
X48638045Y-112327641D01*
X48727641Y-112238045D01*
X48785165Y-112125148D01*
X48798727Y-112039518D01*
X49487097Y-112727888D01*
X49487099Y-112727888D01*
X49537088Y-112656497D01*
X49633811Y-112449073D01*
X49633813Y-112449068D01*
X49693048Y-112228002D01*
X49712995Y-112000000D01*
X49710458Y-111971000D01*
X54303917Y-111971000D01*
X55278314Y-111971000D01*
X55262359Y-111986955D01*
X55204835Y-112099852D01*
X55185014Y-112225000D01*
X55204835Y-112350148D01*
X55262359Y-112463045D01*
X55278314Y-112479000D01*
X54303918Y-112479000D01*
X54356186Y-112674068D01*
X54356188Y-112674073D01*
X54452912Y-112881498D01*
X54584184Y-113068974D01*
X54584189Y-113068980D01*
X54746019Y-113230810D01*
X54746025Y-113230815D01*
X54933501Y-113362087D01*
X55140926Y-113458811D01*
X55140931Y-113458813D01*
X55336000Y-113511081D01*
X55336000Y-112536686D01*
X55351955Y-112552641D01*
X55464852Y-112610165D01*
X55558519Y-112625000D01*
X55621481Y-112625000D01*
X55715148Y-112610165D01*
X55828045Y-112552641D01*
X55844000Y-112536686D01*
X55844000Y-113511081D01*
X56039068Y-113458813D01*
X56039073Y-113458811D01*
X56246498Y-113362087D01*
X56433974Y-113230815D01*
X56433980Y-113230810D01*
X56595810Y-113068980D01*
X56595815Y-113068974D01*
X56727087Y-112881498D01*
X56823811Y-112674073D01*
X56823813Y-112674068D01*
X56876082Y-112479000D01*
X55901686Y-112479000D01*
X55917641Y-112463045D01*
X55975165Y-112350148D01*
X55994986Y-112225000D01*
X64436502Y-112225000D01*
X64456457Y-112453087D01*
X64483133Y-112552641D01*
X64515715Y-112674240D01*
X64515717Y-112674246D01*
X64612360Y-112881498D01*
X64612477Y-112881749D01*
X64743802Y-113069300D01*
X64905700Y-113231198D01*
X65093251Y-113362523D01*
X65300757Y-113459284D01*
X65521913Y-113518543D01*
X65750000Y-113538498D01*
X65978087Y-113518543D01*
X66092846Y-113487792D01*
X66125457Y-113483500D01*
X68874543Y-113483500D01*
X68907153Y-113487792D01*
X69021913Y-113518543D01*
X69250000Y-113538498D01*
X69478087Y-113518543D01*
X69699243Y-113459284D01*
X69906749Y-113362523D01*
X70094300Y-113231198D01*
X70256198Y-113069300D01*
X70387523Y-112881749D01*
X70484284Y-112674243D01*
X70543543Y-112453087D01*
X70563498Y-112225000D01*
X70543543Y-111996913D01*
X70484284Y-111775757D01*
X70387523Y-111568251D01*
X70256198Y-111380700D01*
X70094300Y-111218802D01*
X69974434Y-111134871D01*
X69906749Y-111087477D01*
X69699246Y-110990717D01*
X69699240Y-110990715D01*
X69534220Y-110946498D01*
X69478087Y-110931457D01*
X69250000Y-110911502D01*
X69021913Y-110931457D01*
X68907154Y-110962207D01*
X68874543Y-110966500D01*
X67134500Y-110966500D01*
X67066379Y-110946498D01*
X67019886Y-110892842D01*
X67008500Y-110840500D01*
X67008500Y-109260457D01*
X67012793Y-109227846D01*
X67043543Y-109113087D01*
X67063498Y-108885000D01*
X67043543Y-108656913D01*
X66984284Y-108435757D01*
X66887523Y-108228251D01*
X66756198Y-108040700D01*
X66594300Y-107878802D01*
X66406749Y-107747477D01*
X66199246Y-107650717D01*
X66199240Y-107650715D01*
X66105771Y-107625670D01*
X65978087Y-107591457D01*
X65750000Y-107571502D01*
X65521913Y-107591457D01*
X65300759Y-107650715D01*
X65300753Y-107650717D01*
X65093250Y-107747477D01*
X64905703Y-107878799D01*
X64905697Y-107878804D01*
X64743804Y-108040697D01*
X64743799Y-108040703D01*
X64612477Y-108228250D01*
X64515717Y-108435753D01*
X64515716Y-108435757D01*
X64456457Y-108656913D01*
X64436502Y-108885000D01*
X64450818Y-109048638D01*
X64456457Y-109113086D01*
X64487207Y-109227846D01*
X64491500Y-109260457D01*
X64491500Y-111849542D01*
X64487207Y-111882152D01*
X64456457Y-111996913D01*
X64436502Y-112225000D01*
X55994986Y-112225000D01*
X55975165Y-112099852D01*
X55917641Y-111986955D01*
X55901686Y-111971000D01*
X56876082Y-111971000D01*
X56823813Y-111775931D01*
X56823811Y-111775926D01*
X56727087Y-111568501D01*
X56595815Y-111381025D01*
X56595810Y-111381019D01*
X56433980Y-111219189D01*
X56433974Y-111219184D01*
X56246498Y-111087912D01*
X56039073Y-110991188D01*
X56039071Y-110991187D01*
X55844000Y-110938917D01*
X55844000Y-111913314D01*
X55828045Y-111897359D01*
X55715148Y-111839835D01*
X55621481Y-111825000D01*
X55558519Y-111825000D01*
X55464852Y-111839835D01*
X55351955Y-111897359D01*
X55336000Y-111913314D01*
X55336000Y-110938917D01*
X55335999Y-110938917D01*
X55140928Y-110991187D01*
X55140926Y-110991188D01*
X54933501Y-111087912D01*
X54746025Y-111219184D01*
X54746019Y-111219189D01*
X54584189Y-111381019D01*
X54584184Y-111381025D01*
X54452912Y-111568501D01*
X54356188Y-111775926D01*
X54356186Y-111775931D01*
X54303917Y-111971000D01*
X49710458Y-111971000D01*
X49693048Y-111771997D01*
X49633813Y-111550931D01*
X49633811Y-111550926D01*
X49537086Y-111343498D01*
X49487100Y-111272110D01*
X49487098Y-111272110D01*
X48798727Y-111960481D01*
X48785165Y-111874852D01*
X48727641Y-111761955D01*
X48638045Y-111672359D01*
X48525148Y-111614835D01*
X48439517Y-111601272D01*
X49127888Y-110912899D01*
X49127888Y-110912898D01*
X49056501Y-110862913D01*
X48849073Y-110766188D01*
X48849068Y-110766186D01*
X48628000Y-110706951D01*
X48628004Y-110706951D01*
X48400000Y-110687004D01*
X48171997Y-110706951D01*
X47950931Y-110766186D01*
X47950926Y-110766188D01*
X47743500Y-110862913D01*
X47672109Y-110912900D01*
X48360481Y-111601272D01*
X48274852Y-111614835D01*
X48161955Y-111672359D01*
X48072359Y-111761955D01*
X48014835Y-111874852D01*
X48001272Y-111960481D01*
X47312900Y-111272109D01*
X47262913Y-111343500D01*
X47166188Y-111550926D01*
X47166186Y-111550931D01*
X47106951Y-111771997D01*
X47087004Y-112000000D01*
X41749148Y-112000000D01*
X41764986Y-111900000D01*
X41745165Y-111774852D01*
X41687641Y-111661955D01*
X41671686Y-111646000D01*
X42646082Y-111646000D01*
X42593813Y-111450931D01*
X42593811Y-111450926D01*
X42497087Y-111243501D01*
X42365815Y-111056025D01*
X42365810Y-111056019D01*
X42203980Y-110894189D01*
X42203974Y-110894184D01*
X42016498Y-110762912D01*
X41809073Y-110666188D01*
X41809071Y-110666187D01*
X41614000Y-110613917D01*
X41614000Y-111588314D01*
X41598045Y-111572359D01*
X41485148Y-111514835D01*
X41391481Y-111500000D01*
X41328519Y-111500000D01*
X41234852Y-111514835D01*
X41121955Y-111572359D01*
X41106000Y-111588314D01*
X41106000Y-110613917D01*
X41105999Y-110613917D01*
X40910928Y-110666187D01*
X40910926Y-110666188D01*
X40703501Y-110762912D01*
X40516025Y-110894184D01*
X40516019Y-110894189D01*
X40354189Y-111056019D01*
X40354184Y-111056025D01*
X40222912Y-111243501D01*
X40126188Y-111450926D01*
X40126186Y-111450931D01*
X40073917Y-111646000D01*
X32486600Y-111646000D01*
X32434284Y-111450757D01*
X32337523Y-111243251D01*
X32206198Y-111055700D01*
X32044300Y-110893802D01*
X31856749Y-110762477D01*
X31649246Y-110665717D01*
X31649240Y-110665715D01*
X31484220Y-110621498D01*
X31428087Y-110606457D01*
X31200000Y-110586502D01*
X30971913Y-110606457D01*
X30857154Y-110637207D01*
X30824543Y-110641500D01*
X25018483Y-110641500D01*
X24950362Y-110621498D01*
X24932781Y-110607864D01*
X24839486Y-110521299D01*
X24839481Y-110521294D01*
X24839474Y-110521289D01*
X24621725Y-110372829D01*
X24621718Y-110372825D01*
X24384257Y-110258469D01*
X24384245Y-110258464D01*
X24132410Y-110180784D01*
X24132402Y-110180782D01*
X24132400Y-110180782D01*
X23871781Y-110141500D01*
X23608219Y-110141500D01*
X23347600Y-110180782D01*
X23347598Y-110180782D01*
X23347589Y-110180784D01*
X23095754Y-110258464D01*
X23095742Y-110258469D01*
X22858283Y-110372825D01*
X22858275Y-110372829D01*
X22640525Y-110521289D01*
X22640513Y-110521299D01*
X22547219Y-110607864D01*
X22483678Y-110639536D01*
X22461517Y-110641500D01*
X19938483Y-110641500D01*
X19870362Y-110621498D01*
X19852781Y-110607864D01*
X19759486Y-110521299D01*
X19759481Y-110521294D01*
X19759474Y-110521289D01*
X19541725Y-110372829D01*
X19541718Y-110372825D01*
X19304257Y-110258469D01*
X19304245Y-110258464D01*
X19052410Y-110180784D01*
X19052402Y-110180782D01*
X19052400Y-110180782D01*
X18791781Y-110141500D01*
X18528219Y-110141500D01*
X18267600Y-110180782D01*
X18267598Y-110180782D01*
X18267589Y-110180784D01*
X18015754Y-110258464D01*
X18015742Y-110258469D01*
X17778283Y-110372825D01*
X17778275Y-110372829D01*
X17560525Y-110521289D01*
X17560520Y-110521293D01*
X17367315Y-110700561D01*
X17202982Y-110906627D01*
X17071205Y-111134871D01*
X17071202Y-111134879D01*
X16974911Y-111380224D01*
X16921364Y-111614835D01*
X16916265Y-111637174D01*
X16896569Y-111900000D01*
X1025500Y-111900000D01*
X1025500Y-109048649D01*
X47091500Y-109048649D01*
X47098009Y-109109196D01*
X47098011Y-109109204D01*
X47149110Y-109246202D01*
X47149112Y-109246207D01*
X47236738Y-109363261D01*
X47353792Y-109450887D01*
X47353794Y-109450888D01*
X47353796Y-109450889D01*
X47412875Y-109472924D01*
X47490795Y-109501988D01*
X47490803Y-109501990D01*
X47551350Y-109508499D01*
X47551355Y-109508499D01*
X47551362Y-109508500D01*
X47551368Y-109508500D01*
X49248632Y-109508500D01*
X49248638Y-109508500D01*
X49248645Y-109508499D01*
X49248649Y-109508499D01*
X49309196Y-109501990D01*
X49309199Y-109501989D01*
X49309201Y-109501989D01*
X49446204Y-109450889D01*
X49563261Y-109363261D01*
X49650887Y-109246207D01*
X49650887Y-109246206D01*
X49650889Y-109246204D01*
X49701989Y-109109201D01*
X49708500Y-109048638D01*
X49708500Y-108723477D01*
X49728502Y-108655356D01*
X49745400Y-108634387D01*
X52577428Y-105802358D01*
X52582671Y-105797672D01*
X52613218Y-105773314D01*
X52658489Y-105721495D01*
X52661345Y-105718441D01*
X52669861Y-105709927D01*
X52697040Y-105677370D01*
X52762263Y-105602718D01*
X52764463Y-105599034D01*
X52775911Y-105582899D01*
X52778671Y-105579594D01*
X52804677Y-105533759D01*
X52827595Y-105493372D01*
X52878449Y-105408256D01*
X52878453Y-105408250D01*
X52879966Y-105404216D01*
X52888350Y-105386297D01*
X52890467Y-105382567D01*
X52923204Y-105289009D01*
X52958051Y-105196161D01*
X52958820Y-105191918D01*
X52963866Y-105172804D01*
X52965287Y-105168746D01*
X52980797Y-105070814D01*
X52998500Y-104973267D01*
X52998500Y-104968965D01*
X53000051Y-104949254D01*
X53000725Y-104945000D01*
X52998500Y-104845863D01*
X52998500Y-104075457D01*
X53002793Y-104042846D01*
X53006867Y-104027641D01*
X53033543Y-103928087D01*
X53053498Y-103700000D01*
X53033543Y-103471913D01*
X52974284Y-103250757D01*
X52877523Y-103043251D01*
X52746198Y-102855700D01*
X52584300Y-102693802D01*
X52468757Y-102612898D01*
X52396749Y-102562477D01*
X52189246Y-102465717D01*
X52189240Y-102465715D01*
X52095771Y-102440670D01*
X51968087Y-102406457D01*
X51740000Y-102386502D01*
X51511913Y-102406457D01*
X51290759Y-102465715D01*
X51290753Y-102465717D01*
X51083250Y-102562477D01*
X50895703Y-102693799D01*
X50895697Y-102693804D01*
X50733804Y-102855697D01*
X50733799Y-102855703D01*
X50602477Y-103043250D01*
X50505717Y-103250753D01*
X50505715Y-103250759D01*
X50463876Y-103406904D01*
X50446457Y-103471913D01*
X50426502Y-103700000D01*
X50446457Y-103928087D01*
X50473133Y-104027641D01*
X50477207Y-104042846D01*
X50481500Y-104075457D01*
X50481500Y-104286522D01*
X50461498Y-104354643D01*
X50444595Y-104375617D01*
X47965617Y-106854595D01*
X47903305Y-106888621D01*
X47876522Y-106891500D01*
X47551350Y-106891500D01*
X47490803Y-106898009D01*
X47490795Y-106898011D01*
X47353797Y-106949110D01*
X47353792Y-106949112D01*
X47236738Y-107036738D01*
X47149112Y-107153792D01*
X47149110Y-107153797D01*
X47098011Y-107290795D01*
X47098009Y-107290803D01*
X47091500Y-107351350D01*
X47091500Y-109048649D01*
X1025500Y-109048649D01*
X1025500Y-104400000D01*
X16897070Y-104400000D01*
X16916760Y-104662754D01*
X16975392Y-104919634D01*
X16975393Y-104919636D01*
X17071651Y-105164900D01*
X17071653Y-105164904D01*
X17203397Y-105393092D01*
X17203400Y-105393097D01*
X17249670Y-105451117D01*
X17249672Y-105451117D01*
X18017912Y-104682876D01*
X18079680Y-104800566D01*
X18192405Y-104927806D01*
X18332305Y-105024371D01*
X18377642Y-105041565D01*
X17608437Y-105810770D01*
X17778532Y-105926739D01*
X17778532Y-105926740D01*
X18015923Y-106041062D01*
X18267704Y-106118728D01*
X18267712Y-106118729D01*
X18528260Y-106158000D01*
X18791740Y-106158000D01*
X19052287Y-106118729D01*
X19052295Y-106118728D01*
X19304076Y-106041062D01*
X19541467Y-105926740D01*
X19711561Y-105810770D01*
X18942356Y-105041565D01*
X18987695Y-105024371D01*
X19127595Y-104927806D01*
X19240320Y-104800566D01*
X19302086Y-104682877D01*
X20070327Y-105451118D01*
X20116603Y-105393090D01*
X20248346Y-105164904D01*
X20248348Y-105164900D01*
X20344606Y-104919636D01*
X20344607Y-104919634D01*
X20403239Y-104662754D01*
X20422929Y-104400000D01*
X21977070Y-104400000D01*
X21996760Y-104662754D01*
X22055392Y-104919634D01*
X22055393Y-104919636D01*
X22151651Y-105164900D01*
X22151653Y-105164904D01*
X22283397Y-105393092D01*
X22283400Y-105393097D01*
X22329670Y-105451117D01*
X22329672Y-105451117D01*
X23097912Y-104682876D01*
X23159680Y-104800566D01*
X23272405Y-104927806D01*
X23412305Y-105024371D01*
X23457642Y-105041565D01*
X22688437Y-105810770D01*
X22858532Y-105926739D01*
X22858532Y-105926740D01*
X23095923Y-106041062D01*
X23347704Y-106118728D01*
X23347712Y-106118729D01*
X23608260Y-106158000D01*
X23871740Y-106158000D01*
X24132287Y-106118729D01*
X24132295Y-106118728D01*
X24384076Y-106041062D01*
X24621467Y-105926740D01*
X24791561Y-105810770D01*
X24022356Y-105041565D01*
X24067695Y-105024371D01*
X24207595Y-104927806D01*
X24320320Y-104800566D01*
X24382086Y-104682877D01*
X25150327Y-105451118D01*
X25196603Y-105393090D01*
X25328346Y-105164904D01*
X25328348Y-105164900D01*
X25424606Y-104919636D01*
X25424607Y-104919634D01*
X25483239Y-104662754D01*
X25502929Y-104400000D01*
X25483239Y-104137245D01*
X25424607Y-103880365D01*
X25424606Y-103880363D01*
X25328348Y-103635099D01*
X25328346Y-103635095D01*
X25196605Y-103406913D01*
X25196600Y-103406905D01*
X25150328Y-103348881D01*
X25150326Y-103348881D01*
X24382086Y-104117121D01*
X24320320Y-103999434D01*
X24207595Y-103872194D01*
X24067695Y-103775629D01*
X24022356Y-103758434D01*
X24791560Y-102989229D01*
X24791560Y-102989228D01*
X24621467Y-102873259D01*
X24384076Y-102758937D01*
X24132295Y-102681271D01*
X24132287Y-102681270D01*
X23871740Y-102642000D01*
X23608260Y-102642000D01*
X23347712Y-102681270D01*
X23347704Y-102681271D01*
X23095923Y-102758937D01*
X22858532Y-102873259D01*
X22858525Y-102873263D01*
X22688438Y-102989227D01*
X22688438Y-102989229D01*
X23457643Y-103758434D01*
X23412305Y-103775629D01*
X23272405Y-103872194D01*
X23159680Y-103999434D01*
X23097913Y-104117122D01*
X22329671Y-103348880D01*
X22329670Y-103348881D01*
X22283400Y-103406904D01*
X22283397Y-103406907D01*
X22151653Y-103635095D01*
X22151651Y-103635099D01*
X22055393Y-103880363D01*
X22055392Y-103880365D01*
X21996760Y-104137245D01*
X21977070Y-104400000D01*
X20422929Y-104400000D01*
X20403239Y-104137245D01*
X20344607Y-103880365D01*
X20344606Y-103880363D01*
X20248348Y-103635099D01*
X20248346Y-103635095D01*
X20116605Y-103406913D01*
X20116600Y-103406905D01*
X20070328Y-103348881D01*
X20070326Y-103348881D01*
X19302086Y-104117121D01*
X19240320Y-103999434D01*
X19127595Y-103872194D01*
X18987695Y-103775629D01*
X18942356Y-103758434D01*
X19711560Y-102989229D01*
X19711560Y-102989228D01*
X19541467Y-102873259D01*
X19304076Y-102758937D01*
X19052295Y-102681271D01*
X19052287Y-102681270D01*
X18791740Y-102642000D01*
X18528260Y-102642000D01*
X18267712Y-102681270D01*
X18267704Y-102681271D01*
X18015923Y-102758937D01*
X17778532Y-102873259D01*
X17778525Y-102873263D01*
X17608438Y-102989227D01*
X17608438Y-102989229D01*
X18377643Y-103758434D01*
X18332305Y-103775629D01*
X18192405Y-103872194D01*
X18079680Y-103999434D01*
X18017913Y-104117122D01*
X17249671Y-103348880D01*
X17249670Y-103348881D01*
X17203400Y-103406904D01*
X17203397Y-103406907D01*
X17071653Y-103635095D01*
X17071651Y-103635099D01*
X16975393Y-103880363D01*
X16975392Y-103880365D01*
X16916760Y-104137245D01*
X16897070Y-104400000D01*
X1025500Y-104400000D01*
X1025500Y-95526000D01*
X1045502Y-95457879D01*
X1099158Y-95411386D01*
X1151500Y-95400000D01*
X17478437Y-95400000D01*
X17546558Y-95420002D01*
G37*
%TD.AperFunction*%
%TD*%
M02*
