M48
; DRILL file {KiCad 5.1.10} date Sun Nov 21 09:04:55 2021
; FORMAT={-:-/ absolute / inch / decimal}
; #@! TF.CreationDate,2021-11-21T09:04:55-05:00
; #@! TF.GenerationSoftware,Kicad,Pcbnew,5.1.10
FMAT,2
INCH
T1C0.0315
T2C0.0394
T3C0.0433
T4C0.0500
T5C0.0512
T6C0.0600
%
G90
G05
T1
X0.1575Y-0.5906
X0.3543Y-0.5906
X0.4331Y-1.1811
X0.4331Y-1.2795
X0.5055Y-0.9843
X0.5118Y-0.5906
X0.5118Y-0.7874
X0.6236Y-1.4567
X0.6693Y-1.8898
X0.9055Y-0.9843
X0.9055Y-1.6929
X0.9118Y-0.5906
X0.9118Y-0.7874
X1.0039Y-1.6929
X1.0236Y-1.4567
X1.0693Y-1.8898
X1.5354Y-0.9449
X1.5354Y-1.1417
X1.5354Y-1.2598
X1.5354Y-1.4567
X1.6929Y-0.4724
X1.9291Y-1.1417
X1.9291Y-1.2402
X1.9291Y-1.4173
X1.9291Y-1.5157
X2.0929Y-0.4724
X2.7756Y-1.5354
X2.7953Y-0.9055
X2.7953Y-1.1811
X2.8268Y-1.752
X2.8268Y-1.8504
X2.874Y-1.5354
X2.8937Y-0.9055
X2.8937Y-1.1811
T2
X1.9291Y-0.6299
X1.9291Y-0.9252
T3
X1.0236Y-0.3937
X1.0906Y-0.248
X1.1354Y-0.5906
X1.1575Y-0.3937
X1.2244Y-0.248
X1.2913Y-0.3937
X1.5354Y-0.5906
X1.6929Y-0.6236
X1.6929Y-1.0236
X2.2047Y-0.8661
X2.2047Y-1.2661
X2.2047Y-1.4173
X2.2047Y-1.8173
X2.5984Y-0.9417
X2.5984Y-1.0417
X2.5984Y-1.1417
X2.5984Y-1.6504
X2.5984Y-1.7504
X2.5984Y-1.8504
T4
X0.315Y-1.6929
T5
X3.189Y-0.1937
X3.189Y-0.3937
X3.189Y-1.2142
X3.189Y-1.4142
X3.189Y-1.6142
T6
X0.19Y-1.5679
X0.19Y-1.8179
X0.44Y-1.5679
X0.44Y-1.8179
T0
M30
