%TF.GenerationSoftware,KiCad,Pcbnew,7.0.8*%
%TF.CreationDate,2023-10-20T08:06:19-04:00*%
%TF.ProjectId,func_amp,66756e63-5f61-46d7-902e-6b696361645f,A*%
%TF.SameCoordinates,PX2ebae40PY16e3600*%
%TF.FileFunction,Profile,NP*%
%FSLAX46Y46*%
G04 Gerber Fmt 4.6, Leading zero omitted, Abs format (unit mm)*
G04 Created by KiCad (PCBNEW 7.0.8) date 2023-10-20 08:06:19*
%MOMM*%
%LPD*%
G01*
G04 APERTURE LIST*
%TA.AperFunction,Profile*%
%ADD10C,0.050000*%
%TD*%
G04 APERTURE END LIST*
D10*
X131000000Y-4500000D02*
X131000000Y-127500000D01*
X1000000Y-127500000D02*
X1000000Y-42100000D01*
X22200000Y-40100000D02*
G75*
G03*
X21700000Y-39600000I-500000J0D01*
G01*
X21200000Y-55100000D02*
X21700000Y-55100000D01*
X21700000Y-24700000D02*
G75*
G03*
X22200000Y-24200000I0J500000D01*
G01*
X21200000Y-9100000D02*
X21700000Y-9100000D01*
X1000000Y-4500000D02*
X1000000Y-22200000D01*
X1000000Y-22200000D02*
G75*
G03*
X2000000Y-23200000I1000000J0D01*
G01*
X20700000Y-41600000D02*
G75*
G03*
X20200000Y-41100000I-500000J0D01*
G01*
X21200000Y-9100000D02*
G75*
G03*
X20700000Y-9600000I0J-500000D01*
G01*
X20700000Y-54600000D02*
G75*
G03*
X21200000Y-55100000I500000J0D01*
G01*
X127500000Y-131000000D02*
X4500000Y-131000000D01*
X4500000Y-1000000D02*
X127500000Y-1000000D01*
X1000000Y-38600000D02*
X1000000Y-25700000D01*
X20200000Y-23200000D02*
G75*
G03*
X20700000Y-22700000I0J500000D01*
G01*
X21700000Y-39600000D02*
X2000000Y-39600000D01*
X4500000Y-1000000D02*
G75*
G03*
X1000000Y-4500000I0J-3500000D01*
G01*
X22200000Y-9600000D02*
G75*
G03*
X21700000Y-9100000I-500000J0D01*
G01*
X20700000Y-41600000D02*
X20700000Y-54600000D01*
X1000000Y-38600000D02*
G75*
G03*
X2000000Y-39600000I1000000J0D01*
G01*
X22200000Y-54600000D02*
X22200000Y-40100000D01*
X131000000Y-4500000D02*
G75*
G03*
X127500000Y-1000000I-3500000J0D01*
G01*
X1000000Y-127500000D02*
G75*
G03*
X4500000Y-131000000I3500000J0D01*
G01*
X21700000Y-24700000D02*
X2000000Y-24700000D01*
X2000000Y-41100000D02*
G75*
G03*
X1000000Y-42100000I0J-1000000D01*
G01*
X20700000Y-22700000D02*
X20700000Y-9600000D01*
X22200000Y-9600000D02*
X22200000Y-24200000D01*
X21700000Y-55100000D02*
G75*
G03*
X22200000Y-54600000I0J500000D01*
G01*
X2000000Y-23200000D02*
X20200000Y-23200000D01*
X127500000Y-131000000D02*
G75*
G03*
X131000000Y-127500000I0J3500000D01*
G01*
X2000000Y-41100000D02*
X20200000Y-41100000D01*
X2000000Y-24700000D02*
G75*
G03*
X1000000Y-25700000I0J-1000000D01*
G01*
M02*
